<?xml version="1.0" encoding="utf-8"?>
<!-- Generator: Adobe Illustrator 18.0.0, SVG Export Plug-In . SVG Version: 6.00 Build 0)  -->
<!DOCTYPE svg PUBLIC "-//W3C//DTD SVG 1.1//EN" "http://www.w3.org/Graphics/SVG/1.1/DTD/svg11.dtd">
<svg version="1.1" id="Calque_1" xmlns="http://www.w3.org/2000/svg" xmlns:xlink="http://www.w3.org/1999/xlink" x="0px" y="0px"
	 viewBox="0 0 520 1145" enable-background="new 0 0 520 1145" xml:space="preserve">
<polygon fill="#FFFFFF" points="0,849 520,849 520,258.2 0,0 "/>
<linearGradient id="SVGID_1_" gradientUnits="userSpaceOnUse" x1="255.6781" y1="560.1" x2="255.8123" y2="560.1" gradientTransform="matrix(1 0 0 -1 0 1145)">
	<stop  offset="6.282720e-02" style="stop-color:#EFA85E"/>
	<stop  offset="0.2932" style="stop-color:#E0772F"/>
	<stop  offset="0.6283" style="stop-color:#9F5C2A"/>
	<stop  offset="1" style="stop-color:#381714"/>
</linearGradient>
<path fill="url(#SVGID_1_)" d="M255.7,584.9h0.1C255.7,584.9,255.7,584.9,255.7,584.9z"/>
<path fill="#BBE5EF" d="M256.2,589.2"/>
<path fill="#5BCAEB" d="M256.3,587.9"/>
<path fill="#5BCAEB" d="M256.2,586.7c0,0.1,0,0.2,0,0.4"/>
<path fill="#064C66" d="M258.4,675.9H242l2.4,7.1c0,0,2.4,1.4,13.8,2c0,0,0,0,0.1,0L258.4,675.9z"/>
<path fill="#3A88A3" d="M258.8,639.2v-13.6h-2.5v-32.4h2.5v-13.7c-0.2,0-0.4,0-0.6,0h-0.4c-7-0.2-12.6-6-12.4-13
	c0.2-6.9,6-12.4,12.9-12.4h0.1c0.1,0-0.1,0-0.1,0v-15.7h-12.9c0,0-13.5,22-13.5,50.3s7.3,50.4,7.3,50.4h19.6V639.2z"/>
<path fill="#003A51" d="M258.3,675.9h16.3l-2.4,7.2c0,0-2.3,1.4-13.8,2h-0.1V675.9z"/>
<path fill="#FFFFFF" d="M271,567.1c0.1-3.4-1.1-6.6-3.5-9.1c-2.3-2.4-5.3-3.8-8.6-3.9c-0.1,0-0.2,0-0.2,0h-0.4
	c-6.9,0-12.5,5.4-12.7,12.4s5.4,12.9,12.4,13h0.4c0.2,0,0.4,0,0.6,0C265.5,579.2,270.8,573.9,271,567.1z M258,574.7
	c-4.4-0.1-7.8-3.8-7.7-8.1s3.6-7.7,8.1-7.7l0,0c2.1,0.1,4.1,0.9,5.5,2.5c1.5,1.5,2.2,3.5,2.2,5.7c-0.1,4.3-3.6,7.7-7.9,7.7
	L258,574.7z"/>
<path fill="#F6886E" d="M266.2,567c0.1-2.1-0.7-4.1-2.2-5.7c-1.4-1.5-3.4-2.4-5.5-2.5l0,0c-4.5,0-8,3.4-8.1,7.7
	c-0.1,4.4,3.3,8,7.7,8.1h0.2C262.6,574.7,266,571.3,266.2,567z"/>
<path fill="#F8A089" d="M258.5,558.9L258.5,558.9c-4.5,0-8,3.4-8.1,7.7c-0.1,4.4,3.3,8,7.7,8.1h0.2"/>
<path fill="#07698D" d="M267.1,558.1c2.3,2.5,3.6,5.7,3.5,9.1c-0.2,6.7-5.5,12.1-12.2,12.4v13.6h2.2v32.4h-2.2v13.6h17.9
	c0,0,8.5-22.6,8.5-50.4c0-27.9-14.7-50.3-14.7-50.3h-11.5h-0.3v15.6C261.7,554.2,264.8,555.6,267.1,558.1z"/>
<polygon fill="#FFFFFF" points="260.6,593.1 258.4,593.1 256.3,593.1 256.3,625.5 258.4,625.5 260.6,625.5 "/>
<path fill="#07698D" d="M269.3,535.4c-1-2.6-5.3-12.5-10.9-12.5v12.5H269.3z"/>
<path fill="#3A88A3" d="M247,535.4c1.1-2.6,5.5-12.5,11.4-12.5v12.5H247z"/>
<polygon fill="#3A88A3" points="258.8,676 258.7,642.4 239.6,642.4 239.6,642.4 219.5,666 223.6,684.7 241.8,676 242,676 "/>
<polygon fill="#07698D" points="264.5,676 258.4,676 258.3,642.4 276.2,642.4 276.2,642.4 296.3,666 292.3,684.7 274,676 273.8,676 
	265.7,676 "/>
<circle fill="#FDD8BC" cx="43.2" cy="193.2" r="3"/>
<ellipse transform="matrix(-0.4408 -0.8976 0.8976 -0.4408 -48.2172 364.7727)" fill="none" stroke="#07698D" stroke-width="4.2935" stroke-miterlimit="10" cx="89.5" cy="197.4" rx="9.6" ry="38.2"/>
<circle fill="#F8A089" cx="90.4" cy="199" r="25.8"/>
<path fill="none" stroke="#07698D" stroke-width="4.2935" stroke-miterlimit="10" d="M123.8,180.5c1.2,2.5-2,7-8.1,11.9
	c-5.4,4.4-13.1,9.2-21.9,13.6c-8.6,4.2-16.9,7.3-23.5,8.9c-8,2-13.7,1.9-15-0.7"/>
<circle fill="#FDD8BC" cx="79.7" cy="150.6" r="6.4"/>
<circle fill="#FDD8BC" cx="104.1" cy="152" r="4"/>
<circle fill="#FDD8BC" cx="48.6" cy="151.3" r="2.9"/>
<circle fill="#FDD8BC" cx="138.2" cy="215.8" r="2.9"/>
<circle fill="#FDD8BC" cx="86.1" cy="234.9" r="2.9"/>
<path fill="#F8A089" d="M0,1144l520-259V693c-1.2,1.8-3.3,5.1-6.5,9.5c-20.1,2.4-37.5,11.2-48.6,23.7c-1.4,1.6-2.8,3.2-4,5
	c-2.8,0.3-5.5,0.8-8.2,1.3c-16.7,3.4-31,11.3-40.7,22c-5.6,6.1-9.6,13.1-11.7,20.7c-15.8,1-29.3,4.6-40.5,9
	c-22.7,8.9-35.3,21.1-35.3,21.1c-20-12.5-33.5-25-42.7-36.7c-2.5-3.2-4.7-6.3-6.6-9.4c-0.8-1.3-1.5-2.5-2.2-3.8
	c-1.4-2.5-2.6-5-3.7-7.3c-0.5-1.2-1-2.4-1.5-3.5c-0.6-1.5-1.1-3-1.6-4.4c-3.3-10.1-3.8-19.4-3.9-25.5c0.1-1.3,0.2-2.6,0.2-2.6h-3.7
	h-3.2h-0.5c0,0,0.1,1.4,0.2,2.6c-0.1,6.1-0.6,15.1-3.9,25.2c-0.5,1.4-1,3.1-1.6,4.6c-0.4,1.2-0.9,2.4-1.5,3.6
	c-1.1,2.4-2.3,4.9-3.7,7.4c-0.7,1.3-1.4,2.5-2.2,3.8c-1.9,3.1-4.1,6.2-6.6,9.4c-9.2,11.7-22.8,24.2-42.7,36.7
	c0,0-12.6-12.2-35.3-21.1c-11.2-4.4-24.7-8-40.5-9c-2.1-7.6-6.1-14.6-11.7-20.7c-9.7-10.7-24-18.6-40.7-22c-2.7-0.5-5.4-1-8.2-1.3
	c-1.2-1.7-2.6-3.4-4-5C41.5,713.8,25,704.9,4.8,702.6c-1.9-3-3.3-6-4.9-9.1V1144H0z"/>
</svg>
