<?xml version="1.0" encoding="utf-8"?>
<!-- Generator: Adobe Illustrator 18.0.0, SVG Export Plug-In . SVG Version: 6.00 Build 0)  -->
<!DOCTYPE svg PUBLIC "-//W3C//DTD SVG 1.1//EN" "http://www.w3.org/Graphics/SVG/1.1/DTD/svg11.dtd">
<svg version="1.1" id="Calque_1" xmlns="http://www.w3.org/2000/svg" xmlns:xlink="http://www.w3.org/1999/xlink" x="0px" y="0px"
	 viewBox="0 0 520 625" enable-background="new 0 0 520 625" xml:space="preserve">
<polyline fill="#A1C4D2" points="520,320.9 0,565.6 0,0 520,320.9 520,320.9 520,320.9 "/>
<polyline fill="#07698D" points="520,625 520,0 49.8,243.6 50.5,243.5 0,271.2 0,276.3 0,625 "/>
<path fill="#07698D" d="M529.6,656.3"/>
<path fill="#07698D" d="M529.6,656.3"/>
<g>
	<g>
		<path fill="#FFFFFF" d="M338.4,557.8h-2.9l-3,8.6l-3.3-8.6H326l5,12c-0.4,1-0.8,1.2-1.5,1.2c-0.5,0-1-0.2-1.5-0.4l-0.1-0.1l-1,2.3
			l0.1,0.1c0.8,0.5,1.7,0.7,2.9,0.7c2,0,3.1-1,4.1-3.4l4.8-12.4H338.4z"/>
		<path fill="#FFFFFF" d="M313.6,557.8c-1.8,0-3,0.6-3.9,1.7v-6.2h-3v16.8h3v-1.7c0.8,1,2.1,1.7,3.9,1.7c2.9,0,5.6-1.9,5.6-6
			C319.2,560.1,316.5,557.8,313.6,557.8z M313,560.5c1.8,0,3.3,1.4,3.3,3.7c0,2.3-1.5,3.3-3.3,3.3c-1.8,0-3.3-1.3-3.3-3.6
			C309.7,561.7,311.2,560.5,313,560.5z"/>
		<path fill="#FFFFFF" d="M300.4,557.8c-1.8,0-3,0.8-4,2c-0.7-1.2-1.9-2-3.6-2c-1.7,0-2.7,0.8-3.5,1.8v-1.8h-3v12.3h3v-6.7
			c0-1.8,1-2.8,2.4-2.8c1.4,0,2.2,0.9,2.3,2.7v6.8h3v-6.7c0-1.9,1-2.8,2.4-2.8c1.5,0,2.2,0.9,2.3,2.8v6.8h3v-7.6
			c0-1.5-0.4-2.7-1.2-3.5C302.8,558.3,301.7,557.8,300.4,557.8z"/>
		<rect x="321.2" y="553.3" fill="#FFFFFF" width="3" height="16.8"/>
		<polygon fill="#FFFFFF" points="248.6,565.7 246,557.8 245.9,557.8 243.5,557.8 240.9,565.7 238.7,557.8 235.6,557.8 239.5,570.1 
			242.1,570.1 244.7,562.3 247.3,570.1 249.9,570.1 253.9,557.8 250.9,557.8 		"/>
		<polygon fill="#FFFFFF" points="256.2,570.1 259.2,570.1 259.2,570 259.2,557.8 256.2,557.8 		"/>
		<path fill="#FFFFFF" d="M267.2,562.7c-1.4-0.4-2.6-0.7-2.6-1.4v0c0-0.6,0.5-1,1.5-1c0.9,0,2.1,0.4,3.3,1.1l0.1,0.1l1.2-2.2
			l-0.1-0.1c-1.3-0.8-2.9-1.4-4.4-1.4c-2.4,0-4.4,1.4-4.4,3.8v0c0,2.4,2.1,3,3.8,3.5c1.4,0.4,2.6,0.7,2.6,1.4v0
			c0,0.7-0.6,1.1-1.7,1.1c-1.2,0-2.5-0.5-3.8-1.4l-0.1-0.1l-1.4,2.1l0.1,0.1c1.5,1.2,3.4,1.8,5.1,1.8c2.5,0,4.6-1.3,4.6-3.9v0
			C271,564,268.9,563.3,267.2,562.7z"/>
		<g>
			<path fill="#FFFFFF" d="M284.3,564.3L284.3,564.3c0-3.4-2-6.4-5.8-6.5c-3.5,0-6,2.7-6,6.2c0,3.8,2.7,6.1,6.2,6.1
				c2.2,0,3.8-0.9,5-2.3l-1.8-1.6c-0.9,0.9-1.8,1.4-3.1,1.4c-1.6,0-2.9-0.6-3.2-2.3h8.7v0h0.1C284.3,564.7,284.3,564.5,284.3,564.3z
				 M275.5,563.2c0.3-1.7,1.4-2.8,2.9-2.8c1.7,0,2.6,1.2,2.8,2.8H275.5z"/>
		</g>
		<rect x="256.2" y="553.3" fill="#FFFFFF" width="3" height="3"/>
	</g>
	<g>
		<polygon fill="#FFFFFF" points="217.8,547.3 201.6,552.6 201.6,552.6 201.6,552.6 205.6,560.1 205.6,560.1 205.6,560.1 
			217.8,547.3 217.8,547.3 		"/>
		<polygon fill="#FFFFFF" points="219.4,549.4 213.5,555.6 213.5,555.6 229.4,563.3 		"/>
		<polygon fill="#FFFFFF" points="220.2,561.7 217.8,579.1 227.8,565.4 		"/>
		<polygon fill="#FFFFFF" points="220.2,561.7 220.2,561.7 217.8,579.2 227.8,565.4 220.2,561.7 220.2,561.7 220.2,561.7 
			220.2,561.7 227.8,565.4 217.8,579.1 220.2,561.7 220.2,561.7 220.2,561.7 		"/>
		<polygon fill="#FFFFFF" points="216.5,569.9 199.1,573 215.3,578.3 216.5,569.9 		"/>
		<polygon fill="#FFFFFF" points="207.5,568.9 199.1,553.4 199.1,570.4 207.5,569 		"/>
	</g>
</g>
</svg>
