<?xml version="1.0" encoding="utf-8"?>
<!-- Generator: Adobe Illustrator 18.0.0, SVG Export Plug-In . SVG Version: 6.00 Build 0)  -->
<!DOCTYPE svg PUBLIC "-//W3C//DTD SVG 1.1//EN" "http://www.w3.org/Graphics/SVG/1.1/DTD/svg11.dtd">
<svg version="1.1" id="Calque_1" xmlns="http://www.w3.org/2000/svg" xmlns:xlink="http://www.w3.org/1999/xlink" x="0px" y="0px"
	 viewBox="0 0 30 30" enable-background="new 0 0 30 30" xml:space="preserve">
<g>
	<path fill="#A8A8A8" d="M20.1,11.3c-2.4,0-3.5,1.3-4.1,2.3l0,0l0,0l0,0v-1.9h-4.6c0.1,1.3,0,13.7,0,13.7H16v-7.7
		c0-0.4,0-0.8,0.2-1.1c0.3-0.8,1.1-1.7,2.3-1.7c1.6,0,2.3,1.3,2.3,3.1v7.3h4.6v-7.9C25.4,13.2,23.1,11.3,20.1,11.3z"/>
	<path fill="#A8A8A8" d="M6.7,5C5.2,5,4.1,6,4.1,7.3s1,2.4,2.5,2.4l0,0c1.6,0,2.6-1.1,2.6-2.4S8.3,5,6.7,5z"/>
	<rect x="4.4" y="11.6" fill="#A8A8A8" width="4.6" height="13.7"/>
</g>
</svg>
