<?xml version="1.0" encoding="utf-8"?>
<!-- Generator: Adobe Illustrator 18.0.0, SVG Export Plug-In . SVG Version: 6.00 Build 0)  -->
<!DOCTYPE svg PUBLIC "-//W3C//DTD SVG 1.1//EN" "http://www.w3.org/Graphics/SVG/1.1/DTD/svg11.dtd">
<svg version="1.1" id="Calque_1" xmlns="http://www.w3.org/2000/svg" xmlns:xlink="http://www.w3.org/1999/xlink" x="0px" y="0px"
	 viewBox="0 0 520 914" enable-background="new 0 0 520 914" xml:space="preserve">
<polygon fill="#FEE6DD" points="321.3,719.7 1.2,719.6 0,249 453.8,665.7 "/>
<circle fill="#FFFFFF" stroke="#EB9598" stroke-width="15.9296" stroke-miterlimit="10" cx="259.8" cy="401" r="101.3"/>
<circle fill="#FFFFFF" stroke="#E67B7B" stroke-width="16.1454" stroke-miterlimit="10" cx="259.7" cy="401.1" r="72.7"/>
<g>
	<linearGradient id="SVGID_1_" gradientUnits="userSpaceOnUse" x1="264.6598" y1="373.8842" x2="264.7442" y2="373.8842">
		<stop  offset="6.282720e-02" style="stop-color:#F0A85D"/>
		<stop  offset="0.2932" style="stop-color:#E0782F"/>
		<stop  offset="0.6283" style="stop-color:#9F5C2A"/>
		<stop  offset="1" style="stop-color:#381713"/>
	</linearGradient>
	<path fill="url(#SVGID_1_)" d="M264.7,373.9L264.7,373.9C264.7,373.9,264.7,373.9,264.7,373.9z"/>
	<path fill="#59CAEB" d="M265,375.3c0,0.1,0,0.1,0,0.2"/>
	<g>
		<circle fill="#E15C5B" cx="259.8" cy="401" r="51.9"/>
		<circle fill="#FFFFFF" cx="259.8" cy="401" r="36.3"/>
		<path fill-rule="evenodd" clip-rule="evenodd" fill="#E15C5B" d="M260.1,392.3c-5-11.7-19.1-8.9-19.2,4.6
			c-0.1,7.4,6.7,10.2,11.2,13.2c4.4,2.9,7.5,6.8,8,8.5c0.4-1.6,3.9-5.7,7.9-8.6c4.4-3.2,11.3-5.8,11.2-13.2
			C279.2,383.3,264.8,381.1,260.1,392.3z"/>
	</g>
	<path opacity="0.1" fill="#090909" d="M263.6,400.3L263.6,400.3C263.6,400.3,263.6,400.3,263.6,400.3c-0.6-0.6-1.8-0.3-2.6,0.5
		c-0.8,0.9-0.9,2.1-0.3,2.6c0,0,0,0,0,0h0l79.2,71.9l2.9-3.2L263.6,400.3z"/>
	<g>
		<polygon fill="#EFBB33" points="405,400.8 378.5,400.8 387.2,390.3 413.7,390.3 		"/>
		<polygon fill="#EFBB33" points="405,402.5 378.5,402.5 387.2,413 413.7,413 		"/>
		<path fill="#07698D" d="M261.7,404.4C261.7,404.4,261.7,404.4,261.7,404.4c-0.9,0-1.6-1-1.6-2.2c0-1.2,0.7-2.2,1.6-2.2h156.8v4.4"
			/>
	</g>
</g>
<polyline fill="#E15C5B" points="1,704.3 520,434.4 520,653.2 0,914 0,914 "/>
</svg>
