<?xml version="1.0" encoding="utf-8"?>
<!-- Generator: Adobe Illustrator 18.0.0, SVG Export Plug-In . SVG Version: 6.00 Build 0)  -->
<!DOCTYPE svg PUBLIC "-//W3C//DTD SVG 1.1//EN" "http://www.w3.org/Graphics/SVG/1.1/DTD/svg11.dtd">
<svg version="1.1" id="Calque_1" xmlns="http://www.w3.org/2000/svg" xmlns:xlink="http://www.w3.org/1999/xlink" x="0px" y="0px"
	 viewBox="0 0 30 30" enable-background="new 0 0 30 30" xml:space="preserve">
<path fill="#A8A8A8" d="M25.9,8.3c-0.8,0.4-1.7,0.6-2.6,0.7c0.9-0.6,1.6-1.4,2-2.5c-0.9,0.5-1.8,0.9-2.9,1.1c-0.8-0.9-2-1.4-3.3-1.4
	c-2.5,0-4.5,2-4.5,4.5c0,0.4,0,0.7,0.1,1C11,11.5,7.6,9.7,5.4,7C5.1,7.7,4.9,8.5,4.9,9.3c0,1.6,0.8,2.9,2,3.7c-0.7,0-1.4-0.2-2-0.6
	c0,0,0,0,0,0.1c0,2.2,1.6,4,3.6,4.4c-0.4,0.1-0.8,0.2-1.2,0.2c-0.3,0-0.6,0-0.8-0.1c0.6,1.8,2.2,3.1,4.2,3.1C9.2,21.3,7.2,22,5.1,22
	c-0.4,0-0.7,0-1.1-0.1c2,1.3,4.4,2,6.9,2c8.3,0,12.8-6.9,12.8-12.8c0-0.2,0-0.4,0-0.6C24.6,10,25.3,9.2,25.9,8.3z"/>
</svg>
