<?xml version="1.0" encoding="utf-8"?>
<!-- Generator: Adobe Illustrator 18.0.0, SVG Export Plug-In . SVG Version: 6.00 Build 0)  -->
<!DOCTYPE svg PUBLIC "-//W3C//DTD SVG 1.1//EN" "http://www.w3.org/Graphics/SVG/1.1/DTD/svg11.dtd">
<svg version="1.1" id="Calque_1" xmlns="http://www.w3.org/2000/svg" xmlns:xlink="http://www.w3.org/1999/xlink" x="0px" y="0px"
	 viewBox="0 0 30 30" enable-background="new 0 0 30 30" xml:space="preserve">
<g>
	<polygon fill="#A8A8A8" points="18.3,2.8 5.9,6.9 5.9,6.9 5.9,6.9 9,12.6 9,12.6 9,12.6 18.3,2.8 	"/>
	<polygon fill="#A8A8A8" points="19.5,4.4 15,9.2 15,9.2 27.1,15 	"/>
	<polygon fill="#A8A8A8" points="20.1,13.8 18.3,27.1 25.9,16.6 	"/>
	<polygon fill="#A8A8A8" points="20.1,13.8 20.1,13.8 18.3,27.2 25.9,16.6 20.1,13.8 20.1,13.8 20.1,13.8 20.1,13.8 25.9,16.6 
		18.3,27.1 20.1,13.8 20.1,13.8 	"/>
	<polygon fill="#A8A8A8" points="17.3,20.1 4,22.4 16.4,26.5 	"/>
	<polygon fill="#A8A8A8" points="10.4,19.3 4,7.5 4,20.5 10.4,19.4 	"/>
</g>
</svg>
