<?xml version="1.0" encoding="utf-8"?>
<!-- Generator: Adobe Illustrator 18.0.0, SVG Export Plug-In . SVG Version: 6.00 Build 0)  -->
<!DOCTYPE svg PUBLIC "-//W3C//DTD SVG 1.1//EN" "http://www.w3.org/Graphics/SVG/1.1/DTD/svg11.dtd">
<svg version="1.1" id="Calque_1" xmlns="http://www.w3.org/2000/svg" xmlns:xlink="http://www.w3.org/1999/xlink" x="0px" y="0px"
	 viewBox="0 0 520 460" enable-background="new 0 0 520 460" xml:space="preserve">
<g>
	<path fill="none" d="M328.6,323.9l-1-1.5C328,322.9,328.3,323.4,328.6,323.9L328.6,323.9z"/>
	<path fill="none" d="M276.4,452.4c-0.2,0-0.3,0.1-0.5,0.1L276.4,452.4L276.4,452.4z"/>
	<path fill="none" d="M278.5,287.6C278.5,287.6,278.5,287.6,278.5,287.6L278.5,287.6L278.5,287.6z"/>
	<path fill="none" d="M191.4,415.6l0.9,1.5C192,416.6,191.7,416.1,191.4,415.6L191.4,415.6z"/>
	<path fill="none" d="M327.6,417.1c-0.4,0.6-0.8,1.3-1.3,1.9L327.6,417.1L327.6,417.1z"/>
	<path fill="#064C66" d="M298.7,421.8l5.9,18.4c-8.6,5.8-18.2,9.9-28.2,12.2l0,0l-0.5,0.1l-4.7,0.9h5.6l0,0
		c11.9-2,23.3-6.5,33.3-13.3l-5.9-18.4c3.2-2.5,6.2-5.4,8.9-8.5l-4-1.8C305.9,415.3,302.4,418.7,298.7,421.8z"/>
	<path fill="#064C66" d="M191.4,415.6c0.3,0.5,0.6,1,0.9,1.5l14-4.5c-0.4-0.5-0.8-0.9-1.2-1.4L191.4,415.6z"/>
	<path fill="#064C66" d="M241.5,451.9L241.5,451.9l-0.6,1.2l5.5,0l-0.4-0.1c0.2,0,0.4,0.1,0.5,0.1l8.6-16.8
		c-1.8-0.1-3.6-0.2-5.4-0.4L241.5,451.9z"/>
	<path fill="#064C66" d="M260,436.2c1.5,0.1,3,0.1,4.5,0l-0.1-0.3C262.9,436,261.5,436.1,260,436.2z"/>
	<path fill="#064C66" d="M264.9,303.3c-1.6-0.1-3.3-0.1-4.9,0c1.6,0.1,3.2,0.2,4.7,0.3L264.9,303.3z"/>
	<path fill="#064C66" d="M328.9,362.6l17.6-6.8c-2-11.9-6.5-23.3-13.3-33.4h-5.6l1,1.5l0,0c6.2,9.7,10.4,20.5,12.3,31.9l-17.6,6.8
		c0.5,4.8,0.5,9.7,0,14.6l17.2,8.8c-1.1,5.8-2.9,11.6-5.4,17.3c-2.1,4.9-4.7,9.5-7.6,13.8l0,0l-1.3,1.9l5.6,0l0,0c0,0,0,0,0,0h0l0,0
		c3.4-4.8,6.4-10,8.8-15.7c2.4-5.7,4.2-11.5,5.4-17.3l-17.2-8.8C329.4,372.3,329.4,367.4,328.9,362.6z"/>
	<path fill="#07698D" d="M335.2,403.3c2.4-5.7,4.2-11.5,5.4-17.3l-17.2-8.8c0.6-4.9,0.6-9.8,0-14.6l17.6-6.8
		c-1.9-11.3-6.1-22.2-12.3-31.9c-0.3-0.5-0.6-1-0.9-1.5l-14,4.5l-4.4,1.4c-3-3.8-6.5-7.3-10.3-10.4l7.6-17.3
		c-4.8-3.4-10.1-6.4-15.7-8.8c-4.1-1.7-8.2-3.1-12.3-4.2c0,0,0,0,0,0l-4.9-1.1l-8.6,16.8l-0.2,0.4c-1.6-0.2-3.2-0.3-4.7-0.3
		c-1.5-0.1-3-0.1-4.5,0c-1.8,0-3.6,0.1-5.4,0.3l-6.4-16.4l0,0l-0.4-1.2c-11.9,2-23.3,6.5-33.4,13.3l5.9,18.4
		c-3.2,2.5-6.2,5.4-8.9,8.5c-0.5,0.6-1,1.2-1.5,1.8l-12.6-5.5v0l-4.7-2.1c-3.4,4.8-6.4,10-8.8,15.7c-2.4,5.7-4.2,11.5-5.4,17.3
		l17.2,8.8c-0.6,4.9-0.6,9.8,0,14.6l-17.6,6.8c2,11.9,6.5,23.3,13.3,33.4l4.6-1.5l0,0l0,0l13.8-4.4c0.4,0.5,0.8,0.9,1.2,1.4
		c2.7,3.2,5.8,6.3,9.1,9l-7.6,17.3c4.8,3.4,10,6.4,15.7,8.8c5.7,2.4,11.5,4.2,17.3,5.4l0.6-1.2l0,0l8.2-16c1.8,0.2,3.6,0.3,5.4,0.4
		c1.6,0.1,3.3,0.1,4.9,0c1.5-0.1,2.9-0.2,4.3-0.3l0.1,0.3l6.7,17.2l4.7-0.9c0.2,0,0.3-0.1,0.5-0.1c10-2.3,19.6-6.5,28.2-12.2
		l-5.9-18.4c3.8-3,7.3-6.5,10.4-10.3l4,1.8l13.2,5.8c0.4-0.6,0.8-1.3,1.3-1.9C330.5,412.9,333,408.3,335.2,403.3z M254.4,406.6
		c0.2,0,0.4,0,0.6,0.1c-6.4,0.8-13.1,0-19.5-2.8c-18.7-8.2-27.1-29.9-19-48.6c7.3-16.7,25.4-25.2,42.5-21c-0.3,0-0.5,0-0.8,0
		c7.5,1.1,14.8,4.5,20.6,10.3l0.1,0.1l-26,26l25.6,25.6C271.9,402.9,263.2,406.3,254.4,406.6z M290.1,397l-0.2,0.2l-22.4-22.4l0,0
		l-4.2-4l26.3-26c0,0,2.9,2.8,3.9,4.4l0,0C304.2,363.6,303.1,383.9,290.1,397z"/>
	<path fill="#EFBB33" d="M279,344.6l-0.1-0.1c-5.8-5.8-13.1-9.2-20.6-10.3c-0.7,0-1.4-0.1-2.1-0.1c-20,0.3-36.1,16.7-35.8,36.7
		c0.3,19.1,15.3,34.6,34.1,35.7c8.8-0.3,17.5-3.8,24.2-10.4L253,370.6L279,344.6z"/>
	<path fill="#45B388" d="M267.5,374.7l22.4,22.4l0.2-0.2c13-13,14.1-33.4,3.3-47.6L267.5,374.7z"/>
	<path fill="#064C66" d="M220.3,370.9c-0.3-20,15.8-36.5,35.8-36.7c0.7,0,1.4,0,2.1,0.1c0.3,0,0.5,0,0.8,0
		c-17.1-4.2-35.2,4.4-42.5,21c-8.2,18.7,0.3,40.4,19,48.6c6.4,2.8,13.1,3.6,19.5,2.8c-0.2,0-0.4,0-0.6-0.1
		C235.6,405.5,220.6,390.1,220.3,370.9z"/>
	<path fill="#064C66" d="M293.4,349.3c-1.1-1.7-3.9-4.4-3.9-4.4l-26.3,26l4.2,4l0,0L293.4,349.3L293.4,349.3z"/>
	<path fill="#064C66" d="M192.8,322.5L192.8,322.5l12.6,5.5c0.5-0.6,1-1.2,1.5-1.8l-13.2-5.8h-5.6L192.8,322.5z"/>
	<path fill="#064C66" d="M243.7,287.2L243.7,287.2l6.4,16.4c1.8-0.2,3.6-0.3,5.4-0.3l-6.7-17.3h-5.6L243.7,287.2z"/>
	<path fill="#064C66" d="M278.5,287.6L278.5,287.6c4.1,1.1,8.3,2.5,12.3,4.2c5.6,2.4,10.9,5.4,15.7,8.8l-7.6,17.3
		c3.9,3.1,7.3,6.6,10.3,10.4l4.4-1.4c-2.7-3.2-5.8-6.3-9.1-9l7.6-17.3c-4.8-3.4-10.1-6.4-15.7-8.8c-5.7-2.4-11.4-4.2-17.3-5.4l0,0
		h-5.6L278.5,287.6L278.5,287.6z"/>
	<polygon fill="#064C66" points="191.4,415.6 186.8,417.1 192.3,417.1 191.4,415.6 	"/>
</g>
<g>
	<path fill="none" d="M329.2,4290l-1-1.5C328.6,4289,328.9,4289.5,329.2,4290L329.2,4290z"/>
	<path fill="none" d="M276.9,4418.5c-0.2,0-0.3,0.1-0.5,0.1L276.9,4418.5L276.9,4418.5z"/>
	<path fill="none" d="M279.1,4253.7C279.1,4253.7,279.1,4253.7,279.1,4253.7L279.1,4253.7L279.1,4253.7z"/>
	<path fill="none" d="M192,4381.7l0.9,1.5C192.6,4382.7,192.3,4382.2,192,4381.7L192,4381.7z"/>
	<path fill="none" d="M328.2,4383.3c-0.4,0.6-0.8,1.3-1.3,1.9L328.2,4383.3L328.2,4383.3z"/>
	<path fill="#064C66" d="M299.2,4387.9l5.9,18.4c-8.6,5.8-18.2,9.9-28.2,12.2l0,0l-0.5,0.1l-4.7,0.9h5.6l0,0
		c11.9-2,23.3-6.5,33.3-13.3l-5.9-18.4c3.2-2.5,6.2-5.4,8.9-8.5l-4-1.8C306.5,4381.4,303,4384.9,299.2,4387.9z"/>
	<path fill="#064C66" d="M192,4381.7c0.3,0.5,0.6,1,0.9,1.5l14-4.5c-0.4-0.5-0.8-0.9-1.2-1.4L192,4381.7z"/>
	<path fill="#064C66" d="M242.1,4418L242.1,4418l-0.6,1.2l5.5,0l-0.4-0.1c0.2,0,0.4,0.1,0.5,0.1l8.6-16.8c-1.8-0.1-3.6-0.2-5.4-0.4
		L242.1,4418z"/>
	<path fill="#064C66" d="M260.6,4402.3c1.5,0.1,3,0.1,4.5,0l-0.1-0.3C263.5,4402.1,262,4402.2,260.6,4402.3z"/>
	<path fill="#064C66" d="M265.5,4269.4c-1.6-0.1-3.3-0.1-4.9,0c1.6,0.1,3.2,0.2,4.7,0.3L265.5,4269.4z"/>
	<path fill="#064C66" d="M329.5,4328.7l17.6-6.8c-2-11.9-6.5-23.3-13.3-33.4h-5.6l1,1.5l0,0c6.2,9.7,10.4,20.5,12.3,31.9l-17.6,6.8
		c0.5,4.8,0.5,9.7,0,14.6l17.2,8.8c-1.1,5.8-2.9,11.6-5.4,17.3c-2.1,4.9-4.7,9.5-7.6,13.8l0,0l-1.3,1.9l5.6,0l0,0c0,0,0,0,0,0h0l0,0
		c3.4-4.8,6.4-10,8.8-15.7c2.4-5.7,4.2-11.5,5.4-17.3l-17.2-8.8C330,4338.4,330,4333.5,329.5,4328.7z"/>
	<path fill="#07698D" d="M335.7,4369.5c2.4-5.7,4.2-11.5,5.4-17.3l-17.2-8.8c0.6-4.9,0.6-9.8,0-14.6l17.6-6.8
		c-1.9-11.3-6.1-22.2-12.3-31.9c-0.3-0.5-0.6-1-0.9-1.5l-14,4.5l-4.4,1.4c-3-3.8-6.5-7.3-10.3-10.4l7.6-17.3
		c-4.8-3.4-10.1-6.4-15.7-8.8c-4.1-1.7-8.2-3.1-12.3-4.2c0,0,0,0,0,0l-4.9-1.1l-8.6,16.8l-0.2,0.4c-1.6-0.2-3.2-0.3-4.7-0.3
		c-1.5-0.1-3-0.1-4.5,0c-1.8,0-3.6,0.1-5.4,0.3l-6.4-16.4l0,0l-0.4-1.2c-11.9,2-23.3,6.5-33.4,13.3l5.9,18.4
		c-3.2,2.5-6.2,5.4-8.9,8.5c-0.5,0.6-1,1.2-1.5,1.8l-12.6-5.5l0,0l-4.7-2.1c-3.4,4.8-6.4,10-8.8,15.7c-2.4,5.7-4.2,11.5-5.4,17.3
		l17.2,8.8c-0.6,4.9-0.6,9.8,0,14.6l-17.6,6.8c2,11.9,6.5,23.3,13.3,33.4l4.6-1.5l0,0h0l13.8-4.4c0.4,0.5,0.8,0.9,1.2,1.4
		c2.7,3.2,5.8,6.3,9.1,9l-7.6,17.3c4.8,3.4,10,6.4,15.7,8.8c5.7,2.4,11.5,4.2,17.3,5.4l0.6-1.2l0,0l8.2-16c1.8,0.2,3.6,0.3,5.4,0.4
		c1.6,0.1,3.3,0.1,4.9,0c1.5-0.1,2.9-0.2,4.3-0.3l0.1,0.3l6.7,17.2l4.7-0.9c0.2,0,0.3-0.1,0.5-0.1c10-2.3,19.6-6.5,28.2-12.2
		l-5.9-18.4c3.8-3,7.3-6.5,10.4-10.3l4,1.8l13.2,5.8c0.4-0.6,0.8-1.3,1.3-1.9C331,4379,333.6,4374.4,335.7,4369.5z M255,4372.8
		c0.2,0,0.4,0,0.6,0.1c-6.4,0.8-13.1,0-19.5-2.8c-18.7-8.2-27.1-29.9-19-48.6c7.3-16.7,25.4-25.2,42.5-21c-0.3,0-0.5,0-0.8,0
		c7.5,1.1,14.8,4.5,20.6,10.3l0.1,0.1l-26,26l25.6,25.6C272.5,4369,263.8,4372.4,255,4372.8z M290.6,4363.1l-0.2,0.2l-22.4-22.4l0,0
		l-4.2-4l26.3-26c0,0,2.9,2.8,3.9,4.4l0,0C304.7,4329.7,303.7,4350.1,290.6,4363.1z"/>
	<path fill="#EFBB33" d="M279.6,4310.8l-0.1-0.1c-5.8-5.8-13.1-9.2-20.6-10.3c-0.7,0-1.4-0.1-2.1-0.1c-20,0.3-36.1,16.7-35.8,36.7
		c0.3,19.1,15.3,34.6,34.1,35.7c8.8-0.3,17.5-3.8,24.2-10.4l-25.6-25.6L279.6,4310.8z"/>
	<path fill="#45B388" d="M268,4340.9l22.4,22.4l0.2-0.2c13-13,14.1-33.4,3.3-47.6L268,4340.9z"/>
	<path fill="#064C66" d="M220.9,4337.1c-0.3-20,15.8-36.5,35.8-36.7c0.7,0,1.4,0,2.1,0.1c0.3,0,0.5,0,0.8,0
		c-17.1-4.2-35.2,4.4-42.5,21c-8.2,18.7,0.3,40.4,19,48.6c6.4,2.8,13.1,3.6,19.5,2.8c-0.2,0-0.4,0-0.6-0.1
		C236.2,4371.7,221.1,4356.2,220.9,4337.1z"/>
	<path fill="#064C66" d="M294,4315.4c-1.1-1.7-3.9-4.4-3.9-4.4l-26.3,26l4.2,4l0,0L294,4315.4L294,4315.4z"/>
	<path fill="#064C66" d="M193.4,4288.6L193.4,4288.6l12.6,5.5c0.5-0.6,1-1.2,1.5-1.8l-13.2-5.8h-5.6L193.4,4288.6z"/>
	<path fill="#064C66" d="M244.2,4253.3L244.2,4253.3l6.4,16.4c1.8-0.2,3.6-0.3,5.4-0.3l-6.7-17.3h-5.6L244.2,4253.3z"/>
	<path fill="#064C66" d="M279.1,4253.7L279.1,4253.7c4.1,1.1,8.3,2.5,12.3,4.2c5.6,2.4,10.9,5.4,15.7,8.8l-7.6,17.3
		c3.9,3.1,7.3,6.6,10.3,10.4l4.4-1.4c-2.7-3.2-5.8-6.3-9.1-9l7.6-17.3c-4.8-3.4-10.1-6.4-15.7-8.8c-5.7-2.4-11.4-4.2-17.3-5.4l0,0
		h-5.6L279.1,4253.7L279.1,4253.7z"/>
	<polygon fill="#064C66" points="192,4381.7 187.3,4383.2 192.9,4383.2 192,4381.7 	"/>
</g>
</svg>
