<?xml version="1.0" encoding="utf-8"?>
<!-- Generator: Adobe Illustrator 18.0.0, SVG Export Plug-In . SVG Version: 6.00 Build 0)  -->
<!DOCTYPE svg PUBLIC "-//W3C//DTD SVG 1.1//EN" "http://www.w3.org/Graphics/SVG/1.1/DTD/svg11.dtd">
<svg version="1.1" id="Calque_1" xmlns="http://www.w3.org/2000/svg" xmlns:xlink="http://www.w3.org/1999/xlink" x="0px" y="0px"
	 viewBox="0 0 520 973" enable-background="new 0 0 520 973" xml:space="preserve">
<polygon fill="#B5E1D0" points="520,266.7 48.9,713.2 520,711.8 "/>
<polyline fill="#45B388" points="520,712 0,970.9 0,391.1 520,712 520,712 520,712 "/>
<g>
	<polygon fill="#E2E2E2" points="144.5,222.5 144.5,222.5 136.4,225.3 156.2,281.9 156.2,281.9 136.4,225.3 	"/>
	<rect x="186.4" y="311.5" fill="#43B288" width="73.7" height="7.8"/>
	<rect x="186.4" y="298.2" fill="#43B288" width="73.7" height="7.8"/>
	<rect x="186.4" y="285" fill="#43B288" width="73.7" height="7.8"/>
	<rect x="186.4" y="351.3" fill="#43B288" width="73.7" height="7.8"/>
	<rect x="186.4" y="377.9" fill="#43B288" width="73.7" height="6.8"/>
	<polygon fill="#43B288" points="356.2,279 334.3,271.4 334.3,271.4 356.2,279.1 356.2,279 	"/>
	<path fill="#43B288" d="M260.1,220.8L260.1,220.8c-6.2-0.1-12-2.6-16.6-6.6c-4.7-4.1-8.3-9.8-10.2-16.4h0v-7.4l-23.9,9.4l-22.9,8v0
		l-41.8,14.6l0,0l0,0l0,0l19.8,56.6l22.1-7.7v8.1h73.7V220.8z"/>
	<rect x="186.4" y="338.1" fill="#43B288" width="73.7" height="7.8"/>
	<rect x="186.4" y="324.8" fill="#43B288" width="73.7" height="7.8"/>
	<rect x="186.4" y="364.6" fill="#43B288" width="73.7" height="7.8"/>
	<polygon fill="#07698D" points="356.2,279 356.2,279.1 364.3,281.9 364.3,281.9 356.3,279.1 	"/>
	<polygon fill="#07698D" points="186.4,384.7 186.3,384.7 186.3,392.8 260.1,392.8 260.1,384.7 	"/>
	<path fill="#43B288" d="M241.9,197.9c1.6,4.2,4,7.7,6.9,10.2c3.3,2.9,7.2,4.4,11.3,4.5v-14.7H241.9z"/>
	<path fill="#07698D" d="M233.2,197.9c1.9,6.6,5.5,12.3,10.2,16.4c4.6,4,10.4,6.5,16.6,6.6v-8.2v0c-4.1-0.1-8-1.7-11.3-4.5
		c-2.9-2.5-5.3-6-6.9-10.2h18.2v-7.3l27.3,0v0h-54.2L233.2,197.9L233.2,197.9z"/>
	<polygon fill="#07698D" points="144.5,222.5 136.4,225.3 156.2,281.9 156.2,281.9 164.3,279.1 164.3,279.1 144.5,222.5 	"/>
	<polygon fill="#FFFFFF" points="260.1,372.4 186.4,372.4 186.3,372.4 186.3,377.9 186.4,377.9 260.1,377.9 	"/>
	<polygon fill="#FFFFFF" points="260.1,359.1 186.4,359.1 186.3,359.1 186.3,364.6 186.4,364.6 260.1,364.6 	"/>
	<polygon fill="#FFFFFF" points="260.1,345.9 186.4,345.9 186.3,345.9 186.3,351.3 186.4,351.3 260.1,351.3 	"/>
	<polygon fill="#FFFFFF" points="260.1,332.6 186.4,332.6 186.3,332.6 186.3,338.1 186.4,338.1 260.1,338.1 	"/>
	<polygon fill="#FFFFFF" points="260.1,319.3 186.4,319.3 186.3,319.3 186.3,324.8 186.4,324.8 260.1,324.8 	"/>
	<polygon fill="#FFFFFF" points="260.1,306 186.4,306 186.3,306 186.3,311.5 186.4,311.5 260.1,311.5 	"/>
	<polygon fill="#FFFFFF" points="260.1,292.8 186.4,292.8 186.3,292.8 186.3,298.2 186.4,298.2 260.1,298.2 	"/>
	<polygon fill="#FFFFFF" points="260.1,279.5 186.4,279.5 186.3,279.5 186.3,285 186.4,285 260.1,285 	"/>
	
		<line fill="none" stroke="#E9E9E9" stroke-width="0" stroke-linecap="round" stroke-linejoin="round" x1="287.4" y1="190.5" x2="287.4" y2="190.5"/>
	<polygon fill="#E9E9E9" points="334.2,279.5 334.3,279.5 334.3,285 334.2,285 334.2,292.8 334.3,292.8 334.3,298.2 334.2,298.2 
		334.2,306 334.3,306 334.3,311.5 334.2,311.5 334.2,319.3 334.3,319.3 334.3,324.8 334.2,324.8 334.2,332.6 334.3,332.6 
		334.3,338.1 334.2,338.1 334.2,345.9 334.3,345.9 334.3,351.3 334.2,351.3 334.2,359.1 334.3,359.1 334.3,364.6 334.2,364.6 
		334.2,372.4 334.3,372.4 334.3,377.9 334.2,377.9 334.2,384.7 334.2,392.8 334.3,392.8 334.3,271.4 334.2,271.4 	"/>
	<polygon fill="#E9E9E9" points="376.1,222.5 334.3,207.9 334.3,207.7 311.4,199.8 287.4,190.5 287.4,190.5 287.4,190.5 
		311.3,199.8 334.2,207.7 334.2,207.9 376,222.5 384.1,225.3 364.3,281.9 364.4,281.9 384.2,225.3 	"/>
	<rect x="260.1" y="285" fill="#219F74" width="74.1" height="7.8"/>
	<path fill="#219F74" d="M356.2,279l19.8-56.6l-41.8-14.6v-0.1l-22.9-7.9l-23.9-9.3v7.3h0c-2,6.4-5.5,12-10.1,16.2
		c-4.6,4.2-10.4,6.8-16.8,6.8c0,0,0,0,0,0c0,0,0,0,0,0c-0.1,0-0.3,0-0.4,0v58.7h74.1v-8.1l0.1,0l0,0v0L356.2,279z M304.4,256h-3.7
		l-3.6-11.1l-3.6,11.1h-3.7l-5.6-17.4h4.4l3.2,11.1l3.6-11.1h3.4h0.1l3.6,11.1l3.3-11.1h4.3L304.4,256z"/>
	<rect x="260.1" y="298.2" fill="#219F74" width="74.1" height="7.8"/>
	<rect x="260.1" y="351.3" fill="#219F74" width="74.1" height="7.8"/>
	<rect x="260.1" y="377.9" fill="#219F74" width="74.1" height="6.8"/>
	<rect x="260.1" y="338.1" fill="#219F74" width="74.1" height="7.8"/>
	<rect x="260.1" y="364.6" fill="#219F74" width="74.1" height="7.8"/>
	<rect x="260.1" y="311.5" fill="#219F74" width="74.1" height="7.8"/>
	<rect x="260.1" y="324.8" fill="#219F74" width="74.1" height="7.8"/>
	<polygon fill="#105878" points="376,222.5 356.2,279 356.2,279 356.3,279.1 364.3,281.9 364.3,281.9 384.1,225.3 	"/>
	<rect x="260.1" y="384.7" fill="#105878" width="74.1" height="8.1"/>
	<path fill="#219F74" d="M265.8,211.6c2.1-0.8,4.1-2,6-3.7c2.8-2.5,5.2-6,6.9-10.1h0h-18.5v14.7v0c0.1,0,0.3,0,0.5,0
		C262.3,212.6,264.1,212.3,265.8,211.6z"/>
	<path fill="#105878" d="M260.1,190.5v7.3h18.5h0c-1.7,4.1-4.1,7.5-6.9,10.1c-1.9,1.7-3.9,2.9-6,3.7c-1.7,0.6-3.5,1-5.3,1
		c-0.2,0-0.3,0-0.5,0v8.2v0c0.1,0,0.3,0,0.4,0c0,0,0,0,0,0c0,0,0,0,0,0c6.4,0,12.2-2.7,16.8-6.8c4.6-4.2,8-9.8,10.1-16.2h0v-7.3v0
		L260.1,190.5z"/>
	<polygon fill="#E9E9E9" points="260.1,377.9 334.2,377.9 334.3,377.9 334.3,372.4 334.2,372.4 260.1,372.4 	"/>
	<polygon fill="#E9E9E9" points="260.1,364.6 334.2,364.6 334.3,364.6 334.3,359.1 334.2,359.1 260.1,359.1 	"/>
	<polygon fill="#E9E9E9" points="260.1,351.3 334.2,351.3 334.3,351.3 334.3,345.9 334.2,345.9 260.1,345.9 	"/>
	<polygon fill="#E9E9E9" points="260.1,338.1 334.2,338.1 334.3,338.1 334.3,332.6 334.2,332.6 260.1,332.6 	"/>
	<polygon fill="#E9E9E9" points="260.1,324.8 334.2,324.8 334.3,324.8 334.3,319.3 334.2,319.3 260.1,319.3 	"/>
	<polygon fill="#E9E9E9" points="260.1,311.5 334.2,311.5 334.3,311.5 334.3,306 334.2,306 260.1,306 	"/>
	<polygon fill="#E9E9E9" points="260.1,298.2 334.2,298.2 334.3,298.2 334.3,292.8 334.2,292.8 260.1,292.8 	"/>
	<polygon fill="#E9E9E9" points="334.2,285 334.3,285 334.3,279.5 334.2,279.5 260.1,279.5 260.1,285 	"/>
	<polygon fill="#EFBB33" points="302.5,249.7 298.9,238.6 298.7,238.6 295.3,238.6 291.7,249.7 288.5,238.6 284.1,238.6 289.7,256 
		293.4,256 297.1,244.9 300.7,256 304.4,256 310.1,238.6 305.8,238.6 	"/>
</g>
</svg>
