<?xml version="1.0" encoding="utf-8"?>
<!-- Generator: Adobe Illustrator 18.0.0, SVG Export Plug-In . SVG Version: 6.00 Build 0)  -->
<!DOCTYPE svg PUBLIC "-//W3C//DTD SVG 1.1//EN" "http://www.w3.org/Graphics/SVG/1.1/DTD/svg11.dtd">
<svg version="1.1" id="Calque_1" xmlns="http://www.w3.org/2000/svg" xmlns:xlink="http://www.w3.org/1999/xlink" x="0px" y="0px"
	 viewBox="0 0 520 818" enable-background="new 0 0 520 818" xml:space="preserve">
<path fill="#F8E3AC" d="M520,520.6H0.2L0,385.2c50.6,70.9,204,59.9,330.6,2c73.4-33.6,142.3-21.9,187.5,6.8c0.4,0.2,0.8,0.3,1.2,0.4
	l0,126.3"/>
<g>
	
		<linearGradient id="SVGID_1_" gradientUnits="userSpaceOnUse" x1="4208.1665" y1="-971.0154" x2="4209.9282" y2="-971.0154" gradientTransform="matrix(5.270000e-02 0 0 -5.270000e-02 34.7861 214.9751)">
		<stop  offset="0" style="stop-color:#EFA85E"/>
		<stop  offset="6.282720e-02" style="stop-color:#EFA85E"/>
		<stop  offset="0.2932" style="stop-color:#E0772F"/>
		<stop  offset="0.6283" style="stop-color:#9F5C2A"/>
		<stop  offset="1" style="stop-color:#381714"/>
	</linearGradient>
	<path fill="url(#SVGID_1_)" d="M256.6,266.1L256.6,266.1L256.6,266.1z"/>
	<line fill="#5BCAEB" x1="256.9" y1="267.4" x2="257" y2="267.6"/>
	<polyline fill="#07698D" points="258.4,211.3 258.4,235.6 261,235.6 261,211.3 	"/>
	<polygon fill="#3A88A3" points="240.1,316 238.9,337.3 229.4,337.3 230.8,316 	"/>
	<polygon fill="#FFFFFF" points="259.7,337.3 238.9,337.3 240,316 259.7,316 	"/>
	<polygon fill="#07698D" points="259.7,337.3 280.6,337.3 279.4,316 259.7,316 	"/>
	<polygon fill="#3A88A3" points="259.7,358.6 237.7,358.6 238.9,337.3 259.7,337.3 	"/>
	<polygon fill="#07698D" points="259.7,358.6 281.8,358.6 282.8,380 259.7,380 	"/>
	<polygon fill="#E1E1E1" points="279.4,315.9 280.6,337.3 290.1,337.3 288.7,315.9 	"/>
	<polygon fill="#E1E1E1" points="259.7,358.6 281.7,358.6 280.6,337.2 259.7,337.2 	"/>
	<polygon fill="#07698D" points="280.5,337.3 281.7,358.6 291.4,358.6 290.1,337.3 	"/>
	<polygon fill="#FFFFFF" points="238.9,337.3 237.7,358.7 228.1,358.7 229.4,337.3 	"/>
	<polygon fill="#3A88A3" points="237.8,358.7 236.6,380 226.7,380 228.1,358.7 	"/>
	<polygon fill="#FFFFFF" points="259.7,358.6 237.7,358.6 236.6,380 259.7,380 	"/>
	<polygon fill="#E1E1E1" points="281.8,358.7 282.9,379.9 292.7,379.9 291.4,358.7 	"/>
	<polygon fill="#E1E1E1" points="259.7,380 282.9,380 283.9,401.3 259.7,401.3 	"/>
	<polygon fill="#3A88A3" points="259.7,380 236.7,380 235.5,401.3 259.7,401.3 	"/>
	<polygon fill="#07698D" points="259.7,401.3 284,401.3 285.1,422.6 259.7,422.6 	"/>
	<polygon fill="#FFFFFF" points="259.7,401.2 235.5,401.2 234.4,422.6 259.7,422.6 	"/>
	<polygon fill="#FFFFFF" points="236.7,379.9 235.5,401.3 225.6,401.3 226.9,379.9 	"/>
	<polygon fill="#3A88A3" points="235.5,401.2 234.3,422.5 223.9,422.5 225.3,401.2 	"/>
	<polygon fill="#FFFFFF" points="234.3,422.5 233,443.9 223,443.9 224.3,422.5 	"/>
	<polygon fill="#036E85" points="285.1,422.5 286.8,448.3 297.2,448.3 295.3,422.5 	"/>
	<polygon fill="#E1E1E1" points="286.8,447.9 288.7,476.4 299.6,476.4 297.2,447.9 	"/>
	<polygon fill="#E1E1E1" points="283.9,401.2 285.1,422.5 295.3,422.5 293.9,401.2 	"/>
	<polygon fill="#07698D" points="282.9,379.9 283.9,401.3 294,401.3 292.7,379.9 	"/>
	<polygon fill="#E1E1E1" points="259.7,422.6 285.1,422.6 286.9,449.8 259.7,446.5 	"/>
	<polygon fill="#07698D" points="261.4,447.8 286.9,447.8 288.6,475.1 261.4,469.2 	"/>
	<polygon fill="#15869A" points="259.7,422.6 234.3,422.6 233.1,443.9 259.7,443.9 	"/>
	<polyline fill="#3A88A3" points="280.7,243 238.5,243.1 238.5,246.6 280.7,246.5 	"/>
	<polyline fill="#07698D" points="280.7,243 259.7,243 259.7,246.6 280.7,246.6 	"/>
	<polygon fill="#3A88A3" points="299.9,296.1 219.3,296.1 219.3,302.6 219.4,302.6 259.5,302.6 299.9,302.6 	"/>
	<polygon fill="#07698D" points="299.9,302.5 299.9,302.5 299.9,302.5 299.9,296.1 259.5,296.1 259.5,302.5 259.5,302.5 
		299.9,302.6 299.9,302.6 	"/>
	<polygon fill="#3A88A3" points="288.7,306 230.8,306 230.8,312.4 230.8,312.4 259.6,312.4 288.7,312.4 	"/>
	<polygon fill="#07698D" points="288.8,312.4 288.8,312.4 288.8,312.4 288.8,306 259.7,306 259.7,312.4 259.7,312.4 288.8,312.4 
		288.8,312.4 	"/>
	<path fill="#15869A" d="M243.7,243.2c0,0,14-24.5,32,0L243.7,243.2z"/>
	<path fill="#15869A" d="M243.7,243.2c0,0,6.3-11.1,16-10.9c4.7,0.1,10.2,2.9,16.1,10.8L243.7,243.2z"/>
	<path fill="#3A88A3" d="M243.7,243.2c0,0,14-24.5,32,0L243.7,243.2z"/>
	<path fill="#07698D" d="M259.7,232.3c4.7,0.1,10.2,3,16.1,11l-16.1,0"/>
	<line fill="#036E85" x1="275.5" y1="243.1" x2="259.6" y2="243.2"/>
	<polygon fill="#3A88A3" points="243.2,292.6 243.2,249.9 275.8,249.9 275.8,292.6 	"/>
	<polygon fill="#07698D" points="259.6,292.6 259.6,249.9 275.8,249.9 275.8,292.6 	"/>
	<circle fill="#E15C5B" cx="259.6" cy="221.8" r="2.8"/>
	<polyline fill="#EFBB33" points="231.5,266.3 135.1,245.6 135.1,240.1 232.6,261.2 	"/>
	<polygon fill="#EFBB33" points="135.1,298.2 231.5,277.4 232.6,282.6 135.1,303.7 	"/>
	<polyline fill="#EFBB33" points="230.9,274.4 135.1,274.4 135.1,269.1 230.9,269.1 	"/>
	<polyline fill="#EFBB33" points="289,266.3 385.4,245.6 385.4,240.1 287.9,261.2 	"/>
	<polygon fill="#EFBB33" points="385.4,298.2 289,277.4 287.9,282.6 385.4,303.7 	"/>
	<polyline fill="#EFBB33" points="289.5,274.4 385.4,274.4 385.4,269.1 289.5,269.1 	"/>
</g>
<path fill="#EDBA34" d="M519.6,554l0.4-123c-42.8,72-167.7,71-280.8,2.1C108.9,353.7,1,472.3,1,472.3v114.8l0,0V818l517.5-263h1.2
	l0-0.8l0.2-0.2H519.6z"/>
</svg>
