<?xml version="1.0" encoding="UTF-8"?>
<svg width="50px" height="50px" viewBox="0 0 50 50" version="1.1" xmlns="http://www.w3.org/2000/svg" xmlns:xlink="http://www.w3.org/1999/xlink">
    <!-- Generator: Sketch 40.3 (33839) - http://www.bohemiancoding.com/sketch -->
    <title>avatar</title>
    <desc>Created with Sketch.</desc>
    <defs>
        <circle id="path-1" cx="25" cy="25" r="25"></circle>
    </defs>
    <g id="Voeux-2016" stroke="none" stroke-width="1" fill="none" fill-rule="evenodd">
        <g id="Voeux_2016_wisembly_EN" transform="translate(-502.000000, -4485.000000)">
            <g id="3-/-XP-WISEMBLY" transform="translate(0.000000, 3149.000000)">
                <g id="CITATIONS" transform="translate(277.000000, 771.000000)">
                    <g id="Victor-Midilles" transform="translate(12.000000, 450.000000)">
                        <g id="avatar" transform="translate(213.000000, 115.000000)">
                            <mask id="mask-2" fill="white">
                                <use xlink:href="#path-1"></use>
                            </mask>
                            <use id="Oval-3" fill="#FFFFFF" xlink:href="#path-1"></use>
                            <g id="Page-1" mask="url(#mask-2)">
                                <g transform="translate(8.000000, 10.000000)">
                                    <path d="M23.4374844,27.917161 C23.4374844,27.917161 24.9485956,32.7558051 16.6593956,38.4746186 C8.37019556,32.7558051 9.88130667,27.917161 9.88130667,27.917161 L23.4374844,27.917161 Z" id="Fill-1" fill="#F2DDCC"></path>
                                    <path d="M33.3187156,35.3549746 C33.3187156,33.3025169 32.4936489,31.4422627 31.1608489,30.0960763 C29.8265378,28.7498898 27.9844933,27.9170085 25.9520489,27.9170085 L21.92796,27.9170085 L16.6594711,31.8480254 L11.3902267,27.9170085 L7.36916,27.9170085 C5.33444889,27.9170085 3.49240444,28.7498898 2.15960444,30.0960763 C0.825293333,31.4422627 0.000226666667,33.3025169 0.000226666667,35.3549746 L0.000226666667,36.4792119 C0.00249333333,36.4815 0.00476,36.4822627 0.00778222222,36.4845508 L0.00778222222,42.0584492 L33.3187156,42.0584492 L33.3187156,36.4815 L33.3187156,36.4815 L33.3187156,35.3549746 Z" id="Fill-3" fill="#2485A7"></path>
                                    <path d="M28.6765822,11.9955508 C28.6765822,18.6029237 23.2955156,23.9602119 16.6594711,23.9602119 C10.0226711,23.9602119 4.64236,18.6029237 4.64236,11.9955508 C4.64236,5.38665254 10.0226711,0.0301271186 16.6594711,0.0301271186 C23.2955156,0.0301271186 28.6765822,5.38665254 28.6765822,11.9955508" id="Fill-5" fill="#A8A8A8"></path>
                                    <polygon id="Fill-7" fill="#F2DDCC" points="13.9150667 30.8079153 19.4041778 30.8079153 19.4041778 23.1510508 13.9150667 23.1510508"></polygon>
                                    <path d="M8.16891556,15.7988898 C8.16891556,16.9269407 7.26149333,17.8421949 6.14553778,17.8421949 C5.02807111,17.8421949 4.12064889,16.9269407 4.12064889,15.7988898 C4.12064889,14.6700763 5.02807111,13.7563475 6.14553778,13.7563475 C7.26149333,13.7563475 8.16891556,14.6700763 8.16891556,15.7988898" id="Fill-9" fill="#F2DDCC"></path>
                                    <path d="M25.1519156,15.9681356 C25.1519156,17.0961864 26.0570711,18.0114407 27.1745378,18.0114407 C28.29276,18.0114407 29.1979156,17.0961864 29.1979156,15.9681356 C29.1979156,14.839322 28.29276,13.9255932 27.1745378,13.9255932 C26.0570711,13.9255932 25.1519156,14.839322 25.1519156,15.9681356" id="Fill-10" fill="#F2DDCC"></path>
                                    <path d="M27.6797022,14.4030508 C27.6797022,20.5474576 22.7451689,25.5272034 16.6591689,25.5272034 C10.5731689,25.5272034 5.64090222,20.5474576 5.64090222,14.4030508 C5.64090222,8.25940678 10.5731689,3.27966102 16.6591689,3.27966102 C22.7451689,3.27966102 27.6797022,8.25940678 27.6797022,14.4030508" id="Fill-11" fill="#F2DDCC"></path>
                                    <polygon id="Fill-12" fill="#F4F4F4" points="11.3906044 27.4818814 16.6590933 31.8476441 12.2307822 33.8314576 9.42540444 27.4788305"></polygon>
                                    <polygon id="Fill-13" fill="#F4F4F4" points="21.8257333 27.4818814 16.5572444 31.8476441 20.9855556 33.8314576 23.7909333 27.4788305"></polygon>
                                    <path d="M5.75476444,12.8468898 C5.88396444,12.8545169 6.01165333,12.8682458 6.14312,12.8682458 C8.65534222,12.8682458 10.8509867,11.5258729 12.0840533,9.51688983 C12.0840533,9.51688983 19.4544978,14.5362966 27.1815644,12.8682458 C27.3100089,12.8407881 27.4392089,12.8385 27.5684089,12.8262966 C27.6129867,13.1451102 27.6424533,13.4692627 27.6590756,13.7964661 C27.9628089,13.8704492 28.2355644,14.0153644 28.4682756,14.2098559 C28.5619644,13.7201949 28.61712,13.2175678 28.6488533,12.708839 C28.6526311,12.7080763 28.6571644,12.7080763 28.6609422,12.7073136 C28.6752978,12.4632458 28.6858756,12.2184153 28.6858756,11.9720593 C28.6858756,5.36011017 23.3025422,-0.000228813559 16.6619644,-0.000228813559 C10.0221422,-0.000228813559 4.63805333,5.36011017 4.63805333,11.9720593 C4.63805333,12.219178 4.64863111,12.4632458 4.66374222,12.7073136 C4.66752,12.7080763 4.67129778,12.708839 4.67583111,12.7096017 C4.70680889,13.2190932 4.76272,13.7209576 4.85640889,14.2113814 C5.08912,14.0161271 5.36263111,13.8704492 5.66712,13.7964661 C5.68374222,13.4761271 5.71169778,13.1596017 5.75476444,12.8468898" id="Fill-14" fill="#F2BC33"></path>
                                    <path d="M31.0648178,44.3780847 L2.27739556,44.3780847 C1.03072889,44.3780847 0.0107288889,43.3484237 0.0107288889,42.0899492 L0.0107288889,39.5562203 C0.0107288889,38.2977458 1.03072889,37.2680847 2.27739556,37.2680847 L31.0648178,37.2680847 C32.3114844,37.2680847 33.3314844,38.2977458 33.3314844,39.5562203 L33.3314844,42.0899492 C33.3314844,43.3484237 32.3114844,44.3780847 31.0648178,44.3780847" id="Fill-15" fill="#2485A7"></path>
                                </g>
                            </g>
                        </g>
                    </g>
                </g>
            </g>
        </g>
    </g>
</svg>