<?xml version="1.0" encoding="UTF-8"?>
<svg width="50px" height="50px" viewBox="0 0 50 50" version="1.1" xmlns="http://www.w3.org/2000/svg" xmlns:xlink="http://www.w3.org/1999/xlink">
    <!-- Generator: Sketch 40.3 (33839) - http://www.bohemiancoding.com/sketch -->
    <title>avatar</title>
    <desc>Created with Sketch.</desc>
    <defs>
        <circle id="path-1" cx="25" cy="25" r="25"></circle>
        <polygon id="path-3" points="21.2926847 0.0396856804 0.113334841 0.0396856804 0.113334841 38.4513087 21.2926847 38.4513087 21.2926847 0.0396856804"></polygon>
    </defs>
    <g id="Voeux-2016" stroke="none" stroke-width="1" fill="none" fill-rule="evenodd">
        <g id="Voeux_2016_wisembly_EN" transform="translate(-491.000000, -4273.000000)">
            <g id="3-/-XP-WISEMBLY" transform="translate(0.000000, 3149.000000)">
                <g id="CITATIONS" transform="translate(277.000000, 771.000000)">
                    <g id="chloe-myard" transform="translate(0.000000, 208.000000)">
                        <g id="avatar" transform="translate(214.000000, 145.000000)">
                            <g id="Group-8">
                                <mask id="mask-2" fill="white">
                                    <use xlink:href="#path-1"></use>
                                </mask>
                                <use id="Oval-3" fill="#FFFFFF" xlink:href="#path-1"></use>
                                <g id="Page-1" mask="url(#mask-2)">
                                    <g transform="translate(6.818182, 9.848485)">
                                        <g id="Group-3" stroke-width="1" fill="none" transform="translate(7.179583, 0.073379)">
                                            <mask id="mask-4" fill="white">
                                                <use xlink:href="#path-3"></use>
                                            </mask>
                                            <g id="Clip-2"></g>
                                            <path d="M21.2611946,10.6131042 C21.2639297,10.5158686 21.2656391,10.4184069 21.2656391,10.320606 C21.2656391,4.64261405 16.5518442,0.0396404545 10.736952,0.0396404545 C4.99317185,0.0396404545 0.324277819,4.53079315 0.210885997,10.1129063 C0.147409369,10.7140709 0.125072889,11.356391 0.151284064,12.044163 C0.601204581,23.8466392 0.113334841,37.89537 0.113334841,37.89537 L21.0822748,38.4513087 L21.2923061,11.5991407 C21.2949272,11.267183 21.283873,10.9380519 21.2611946,10.6131042" id="Fill-1" fill="#DE7000" mask="url(#mask-4)"></path>
                                        </g>
                                        <path d="M13.8989656,20.038555 L13.8989656,19.5383572 L21.3724553,19.5383572 L21.3724553,20.038555 C21.3724553,21.3996269 19.0077515,22.5030245 17.6357674,22.5030245 C16.2636694,22.5030245 13.8989656,21.3996269 13.8989656,20.038555 L13.8989656,20.038555 Z M23.6854206,30.330714 L22.8908801,30.0097236 C22.2137201,29.7829159 21.7602668,29.1499802 21.7668765,28.4408389 L21.8030024,24.6190288 C24.2497586,23.2855447 25.9093818,20.7059755 25.9093818,17.7405167 L25.9093818,15.1516762 C25.9093818,14.1466448 26.4251721,10.0451128 24.9570044,8.21391825 C20.9683474,3.23907513 16.7019658,4.59144101 14.2446112,4.82197976 C11.1676472,6.06569054 9.36215306,9.81694839 9.36215306,12.5230369 L9.36215306,17.0120414 C9.36215306,20.0523489 10.9618325,22.7163774 13.3674485,24.2383402 L13.3283597,28.3624852 C13.3218639,29.0715134 12.8563306,29.6959692 12.1748401,29.9102267 L11.0118616,30.355249 L17.3271593,34.0072361 L23.6854206,30.330714 Z" id="Fill-4" fill="#F0DBCB"></path>
                                        <path d="M21.3725123,20.038555 L21.3725123,19.5383572 L13.8990225,19.5383572 L13.8990225,20.038555 C13.8990225,21.3996269 16.2637264,22.5030245 17.6357104,22.5030245 C19.0078085,22.5030245 21.3725123,21.3996269 21.3725123,20.038555" id="Fill-6" fill="#FFFFFF"></path>
                                        <path d="M23.6084281,30.3180621 L29.5621256,32.6090904 L31.149839,33.2156821 C33.1938548,33.8583413 34.6067511,35.7315959 34.6272642,37.8589067 L34.654615,40.7766522 L34.3985432,40.776426 L33.7899881,40.7759738 L18.3030584,40.7652326 L17.327091,40.7645542 L2.27923265e-05,40.7766522 L0.0277154685,37.8589067 C0.0474308306,35.7315959 1.46066901,33.8583413 3.50479877,33.2156821 L5.25730072,32.5461134 L11.0117932,30.3551473 C11.0117932,30.3551473 17.0736403,34.8092148 23.6084281,30.3180621" id="Fill-8" fill="#07698D"></path>
                                        <path d="M3.13332944,33.3425406 C0.0563654224,34.7275821 0.0278750148,37.5259314 0.0278750148,37.5259314 L-4.55846521e-05,40.7766522 L18.1192838,40.7482729 L23.5593854,30.3180621 L11.1492766,30.3180621 L3.13332944,33.3425406 Z" id="Fill-14" fill="#07698D"></path>
                                        <path d="M31.6243524,33.3425406 C34.7013164,34.7275821 34.7298069,37.5259314 34.7298069,37.5259314 L34.7577275,40.7766522 L16.638398,40.7482729 L16.6953788,35.8864944 L23.6084053,30.3180621 L31.6243524,33.3425406 Z" id="Fill-11" fill="#07698D"></path>
                                        <path d="M26.5809349,17.042908 L26.5809349,17.042908 C26.1403592,17.042908 25.7832035,16.6885635 25.7832035,16.2514557 L25.7832035,14.7999322 C25.7832035,14.3628244 26.1403592,14.0084798 26.5809349,14.0084798 L26.5809349,14.0084798 C27.0215106,14.0084798 27.3786663,14.3628244 27.3786663,14.7999322 L27.3786663,16.2514557 C27.3786663,16.6885635 27.0215106,17.042908 26.5809349,17.042908" id="Fill-21" fill="#F0DBCB"></path>
                                        <path d="M8.7380308,16.4344056 L8.7380308,16.4344056 C8.29745514,16.4344056 7.94029939,16.0800611 7.94029939,15.6429532 L7.94029939,14.1914297 C7.94029939,13.7543219 8.29745514,13.3999774 8.7380308,13.3999774 L8.7380308,13.3999774 C9.17860646,13.3999774 9.53576221,13.7543219 9.53576221,14.1914297 L9.53576221,15.6429532 C9.53576221,16.0800611 9.17860646,16.4344056 8.7380308,16.4344056" id="Fill-23" fill="#F0DBCB"></path>
                                        <path d="M12.3072407,4.65239414 C20.7404013,-0.32244898 25.6977323,6.29183108 25.6977323,6.29183108 L25.9826363,10.7013511 L18.5953776,4.65239414 L9.57216156,10.7013511 L9.57216156,10.5882865 L9.57216156,7.19634801 L12.3072407,4.65239414 Z" id="Fill-25" fill="#DE7000"></path>
                                    </g>
                                </g>
                            </g>
                        </g>
                    </g>
                </g>
            </g>
        </g>
    </g>
</svg>