<?xml version="1.0" encoding="UTF-8"?>
<svg width="50px" height="50px" viewBox="0 0 50 50" version="1.1" xmlns="http://www.w3.org/2000/svg" xmlns:xlink="http://www.w3.org/1999/xlink">
    <!-- Generator: Sketch 40.3 (33839) - http://www.bohemiancoding.com/sketch -->
    <title>avatar</title>
    <desc>Created with Sketch.</desc>
    <defs>
        <circle id="path-1" cx="25" cy="25" r="25"></circle>
    </defs>
    <g id="Voeux-2016" stroke="none" stroke-width="1" fill="none" fill-rule="evenodd">
        <g id="Voeux_2016_wisembly_EN" transform="translate(-502.000000, -4033.000000)">
            <g id="3-/-XP-WISEMBLY" transform="translate(0.000000, 3149.000000)">
                <g id="CITATIONS" transform="translate(277.000000, 771.000000)">
                    <g id="marie-iverson" transform="translate(2.000000, 0.000000)">
                        <g id="avatar" transform="translate(223.000000, 113.000000)">
                            <mask id="mask-2" fill="white">
                                <use xlink:href="#path-1"></use>
                            </mask>
                            <use id="Oval-3" fill="#FFFFFF" xlink:href="#path-1"></use>
                            <g id="Page-1" mask="url(#mask-2)">
                                <g transform="translate(6.060606, 9.848485)">
                                    <path d="M29.1983531,10.6864831 C29.2010881,10.5892476 29.2027976,10.4917859 29.2027976,10.393985 C29.2027976,4.71599299 24.4890026,0.113019391 18.6741105,0.113019391 C12.9303303,0.113019391 8.26143629,4.60417208 8.14804447,10.1862853 C8.08456784,10.7874498 8.06223136,11.4297699 8.08844253,12.117542 C8.53836305,23.9200181 8.05049331,37.9687489 8.05049331,37.9687489 L29.0194333,38.5246877 L29.2294646,11.6725196 C29.2320857,11.3405619 29.2210314,11.0114308 29.1983531,10.6864831" id="Fill-1" fill="#394246"></path>
                                    <path d="M14.6565413,20.038555 L14.6565413,19.5383572 L22.1300311,19.5383572 L22.1300311,20.038555 C22.1300311,21.3996269 19.7653273,22.5030245 18.3933432,22.5030245 C17.0212452,22.5030245 14.6565413,21.3996269 14.6565413,20.038555 L14.6565413,20.038555 Z M24.4429963,30.330714 L23.6484558,30.0097236 C22.9712958,29.7829159 22.5178425,29.1499802 22.5244523,28.4408389 L22.5605781,24.6190288 C25.0073343,23.2855447 26.6669575,20.7059755 26.6669575,17.7405167 L26.6669575,15.1516762 C26.6669575,14.1466448 27.1827479,10.0451128 25.7145802,8.21391825 C21.7259231,3.23907513 17.4595416,4.59144101 15.002187,4.82197976 C11.9252229,6.06569054 10.1197288,9.81694839 10.1197288,12.5230369 L10.1197288,17.0120414 C10.1197288,20.0523489 11.7194082,22.7163774 14.1250243,24.2383402 L14.0859354,28.3624852 C14.0794396,29.0715134 13.6139064,29.6959692 12.9324158,29.9102267 L11.7694374,30.355249 L18.0847351,34.0072361 L24.4429963,30.330714 Z" id="Fill-4" fill="#F0DBCB"></path>
                                    <path d="M24.3660039,30.3030303 L30.3197013,32.5940586 L31.9074147,33.2006503 C33.9514305,33.8433096 35.3643268,35.7165641 35.3848399,37.8438749 L35.4121907,40.7616204 L35.1561189,40.7613943 L34.5475638,40.760942 L19.0606341,40.7502009 L18.0846667,40.7495225 L0.75759855,40.7616204 L0.785291226,37.8438749 C0.805006588,35.7165641 2.21824477,33.8433096 4.26237453,33.2006503 L6.01487648,32.5310816 L11.769369,30.3401155 C11.769369,30.3401155 17.831216,34.794183 24.3660039,30.3030303" id="Fill-8" fill="#E25C5B"></path>
                                    <path d="M22.2955461,19.5075758 L14.3939394,19.5075758 L14.3939394,20.0364273 C14.3939394,21.4754678 16.8941047,22.6420733 18.3446825,22.6420733 C19.7953808,22.6420733 22.2955461,21.4754678 22.2955461,20.0364273 L22.2955461,19.5075758 Z" id="Fill-6" fill="#FFFFFF"></path>
                                    <path d="M32.3819282,33.3275088 C35.4588922,34.7125503 35.4873826,37.5108996 35.4873826,37.5108996 L35.5153032,40.7616204 L17.3959738,40.7332412 L17.4529546,35.8714627 L24.3659811,30.3030303 L32.3819282,33.3275088 Z" id="Fill-11" fill="#F1BC33"></path>
                                    <path d="M3.81518858,33.3425406 C0.738224565,34.7275821 0.709734157,37.5259314 0.709734157,37.5259314 L0.681813558,40.7766522 L18.801143,40.7482729 L18.7441622,35.8864944 L11.8311357,30.3180621 L3.81518858,33.3425406 Z" id="Fill-14" fill="#F1BC33"></path>
                                    <path d="M27.3385106,17.042908 L27.3385106,17.042908 C26.897935,17.042908 26.5407792,16.6885635 26.5407792,16.2514557 L26.5407792,14.7999322 C26.5407792,14.3628244 26.897935,14.0084798 27.3385106,14.0084798 L27.3385106,14.0084798 C27.7790863,14.0084798 28.1362421,14.3628244 28.1362421,14.7999322 L28.1362421,16.2514557 C28.1362421,16.6885635 27.7790863,17.042908 27.3385106,17.042908" id="Fill-21" fill="#F0DBCB"></path>
                                    <path d="M9.49560656,16.4344056 L9.49560656,16.4344056 C9.05503089,16.4344056 8.69787514,16.0800611 8.69787514,15.6429532 L8.69787514,14.1914297 C8.69787514,13.7543219 9.05503089,13.3999774 9.49560656,13.3999774 L9.49560656,13.3999774 C9.93618222,13.3999774 10.293338,13.7543219 10.293338,14.1914297 L10.293338,15.6429532 C10.293338,16.0800611 9.93618222,16.4344056 9.49560656,16.4344056" id="Fill-23" fill="#F0DBCB"></path>
                                    <path d="M13.0648164,4.65239414 C21.4979771,-0.32244898 26.455308,6.29183108 26.455308,6.29183108 L26.7402121,10.7013511 L23.0532843,10.550636 L21.5359263,6.29183108 L19.7549023,10.5882865 L10.3297373,10.5882865 L10.3297373,7.19634801 L13.0648164,4.65239414 Z" id="Fill-25" fill="#394246"></path>
                                </g>
                            </g>
                        </g>
                    </g>
                </g>
            </g>
        </g>
    </g>
</svg>