<?xml version="1.0" encoding="UTF-8"?>
<svg width="902px" height="493px" viewBox="0 0 902 493" version="1.1" xmlns="http://www.w3.org/2000/svg" xmlns:xlink="http://www.w3.org/1999/xlink">
    <!-- Generator: Sketch 40.3 (33839) - http://www.bohemiancoding.com/sketch -->
    <title>cloud-fr</title>
    <desc>Created with Sketch.</desc>
    <defs>
        <rect id="path-1" x="0.73032934" y="0.36112282" width="240.047858" height="420.238835"></rect>
        <path d="M69.9591813,167.905698 C-21,131 6,68 7.99609375,63.7226562 C9.9921875,59.4453125 61.9591813,-67 201,56 C241,97 259,173 205.318063,269.625094 C151.636126,366.250188 51.5375583,418.599958 51.5375583,418.599958 C51.5375583,418.599958 130.029691,380.154832 150.053194,289.648597 C150.053194,289.648597 167.587607,207.517368 69.9591813,167.905698 L69.9591813,167.905698 Z" id="path-3"></path>
        <rect id="path-5" x="0" y="0.920200946" width="114" height="136.100357"></rect>
        <path d="M43.6465741,13.240798 C94.9592968,-26.7171121 131.663722,50.2496982 102.897499,72.0449219 C74.1312756,93.8401456 11.0107105,108.361148 1.66343722,136.020558 C1.66343722,136.020558 -7.66614874,53.1987081 43.6465741,13.240798 L43.6465741,13.240798 Z" id="path-7"></path>
        <rect id="path-9" x="0.860185569" y="0.355012617" width="125.139814" height="273.503535"></rect>
        <path d="M50.7405845,246.197875 C50.7405845,246.197875 -9.3616891,114.549655 3.72419601,59.5731692 C16,8 76.2637668,-29.6821249 115.220203,37.5491356 C154.176639,104.780396 64.1738383,272.858547 64.1738383,272.858547 L50.7405845,246.197875 L50.7405845,246.197875 Z" id="path-11"></path>
        <rect id="path-13" x="0.93415545" y="0.93415545" width="272.131689" height="97.1316891"></rect>
        <path d="M44.9751106,97 C-20.041407,97 -4.05373875,23.3483146 44.9751106,9.47191011 C94.00396,-4.40449438 176.07399,-2.26966292 203.785949,44.6966292 C232.884427,94.0127979 272,97 272,97 L44.9751106,97 L44.9751106,97 Z" id="path-15"></path>
        <rect id="path-17" x="0" y="0.027105836" width="206.455943" height="224.282852"></rect>
        <path d="M64.8294911,61.4472859 C81,-29 189.946613,-5.55138448 203.145186,51.3198276 C214.886522,101.911845 179.900821,140.324384 143,168 C111,192 1,223.309958 1,223.309958 C1,223.309958 48.6589823,151.894572 64.8294911,61.4472859 L64.8294911,61.4472859 Z" id="path-19"></path>
    </defs>
    <g id="Page-1" stroke="none" stroke-width="1" fill="none" fill-rule="evenodd">
        <g id="cloud-fr">
            <g id="Voeux-2016">
                <g id="Voeux_2016_wisembly_FR">
                    <g id="4-/-MOT-DE-LA-TEAM">
                        <g id="illustration-nuage-de-mots">
                            <polygon id="ligne" fill="#07698D" points="0 493 900 493 900 488 0 488"></polygon>
                            <g id="bulles">
                                <g id="engagement" transform="translate(0.000000, 64.000000)">
                                    <path d="M213.138072,249.172356 C48,235 29,212 9.72347978,177.2992 C-16.4432582,130.194913 -0.147908725,-50.746394 202.289293,14.5675264 C371,69 349,356 349,356 C333.730243,369.822803 378.276143,263.344712 213.138072,249.172356 L213.138072,249.172356 Z" id="Fill-1" fill="#07698D"></path>
                                    <g id="Engagement" transform="translate(72.000000, 113.000000)" fill="#FFFFFF">
                                        <path d="M14.155,21 L14.155,17.91 L3.955,17.91 L3.955,12.33 L13.945,12.33 L13.945,9.24 L3.955,9.24 L3.955,4.08 L14.155,4.08 L14.155,0.99 L0.445,0.99 L0.445,21 L14.155,21 Z M30.625,21 L30.625,10.8 C30.625,7.83 29.065,6.15 25.945,6.15 C23.665,6.15 21.775,7.32 20.815,8.46 L20.815,6.51 L17.665,6.51 L17.665,21 L20.815,21 L20.815,10.86 C21.565,9.9 22.945,8.94 24.535,8.94 C26.305,8.94 27.475,9.66 27.475,11.94 L27.475,21 L30.625,21 Z M40.615,26.88 C44.155,26.88 48.055,25.47 48.055,20.25 L48.055,6.51 L44.905,6.51 L44.905,8.52 C43.735,6.96 42.085,6.15 40.255,6.15 C36.505,6.15 33.835,8.88 33.835,13.59 C33.835,18.36 36.565,21.03 40.255,21.03 C42.145,21.03 43.795,20.07 44.905,18.6 L44.905,20.25 C44.905,23.34 42.685,24.3 40.615,24.3 C38.695,24.3 37.195,23.79 35.995,22.44 L34.525,24.72 C36.325,26.34 38.155,26.88 40.615,26.88 L40.615,26.88 Z M41.185,18.21 C38.665,18.21 37.075,16.38 37.075,13.59 C37.075,10.8 38.665,8.94 41.185,8.94 C42.655,8.94 44.185,9.81 44.905,10.86 L44.905,16.29 C44.185,17.34 42.655,18.21 41.185,18.21 L41.185,18.21 Z M64.165,21 L64.165,11.37 C64.165,7.5 61.345,6.15 58.105,6.15 C55.795,6.15 53.695,6.87 52.015,8.49 L53.335,10.68 C54.565,9.42 56.005,8.82 57.625,8.82 C59.605,8.82 61.015,9.84 61.015,11.52 L61.015,13.68 C59.935,12.45 58.285,11.82 56.305,11.82 C53.935,11.82 51.295,13.2 51.295,16.56 C51.295,19.74 53.965,21.36 56.305,21.36 C58.225,21.36 59.935,20.67 61.015,19.41 L61.015,21 L64.165,21 Z M57.565,19.2 C55.795,19.2 54.445,18.18 54.445,16.59 C54.445,15.03 55.795,13.98 57.565,13.98 C58.915,13.98 60.265,14.49 61.015,15.48 L61.015,17.7 C60.265,18.69 58.915,19.2 57.565,19.2 L57.565,19.2 Z M74.155,26.88 C77.695,26.88 81.595,25.47 81.595,20.25 L81.595,6.51 L78.445,6.51 L78.445,8.52 C77.275,6.96 75.625,6.15 73.795,6.15 C70.045,6.15 67.375,8.88 67.375,13.59 C67.375,18.36 70.105,21.03 73.795,21.03 C75.685,21.03 77.335,20.07 78.445,18.6 L78.445,20.25 C78.445,23.34 76.225,24.3 74.155,24.3 C72.235,24.3 70.735,23.79 69.535,22.44 L68.065,24.72 C69.865,26.34 71.695,26.88 74.155,26.88 L74.155,26.88 Z M74.725,18.21 C72.205,18.21 70.615,16.38 70.615,13.59 C70.615,10.8 72.205,8.94 74.725,8.94 C76.195,8.94 77.725,9.81 78.445,10.86 L78.445,16.29 C77.725,17.34 76.195,18.21 74.725,18.21 L74.725,18.21 Z M92.395,21.36 C94.675,21.36 96.805,20.61 98.275,19.23 L96.835,17.16 C95.785,18.21 94.135,18.78 92.695,18.78 C89.965,18.78 88.345,16.95 88.105,14.79 L99.265,14.79 L99.265,14.01 C99.265,9.45 96.505,6.15 92.155,6.15 C87.865,6.15 84.805,9.54 84.805,13.74 C84.805,18.33 88.015,21.36 92.395,21.36 L92.395,21.36 Z M96.235,12.54 L88.075,12.54 C88.195,10.8 89.455,8.73 92.125,8.73 C94.975,8.73 96.145,10.83 96.235,12.54 L96.235,12.54 Z M123.325,21 L123.325,10.53 C123.325,7.59 121.795,6.15 119.155,6.15 C116.965,6.15 115.045,7.5 114.235,8.79 C113.755,7.23 112.435,6.15 110.275,6.15 C108.055,6.15 106.165,7.59 105.535,8.46 L105.535,6.51 L102.385,6.51 L102.385,21 L105.535,21 L105.535,10.86 C106.195,9.93 107.485,8.94 108.895,8.94 C110.605,8.94 111.265,9.99 111.265,11.55 L111.265,21 L114.415,21 L114.415,10.86 C115.045,9.9 116.365,8.94 117.775,8.94 C119.485,8.94 120.175,9.99 120.175,11.55 L120.175,21 L123.325,21 Z M134.125,21.36 C136.405,21.36 138.535,20.61 140.005,19.23 L138.565,17.16 C137.515,18.21 135.865,18.78 134.425,18.78 C131.695,18.78 130.075,16.95 129.835,14.79 L140.995,14.79 L140.995,14.01 C140.995,9.45 138.235,6.15 133.885,6.15 C129.595,6.15 126.535,9.54 126.535,13.74 C126.535,18.33 129.745,21.36 134.125,21.36 L134.125,21.36 Z M137.965,12.54 L129.805,12.54 C129.925,10.8 131.185,8.73 133.855,8.73 C136.705,8.73 137.875,10.83 137.965,12.54 L137.965,12.54 Z M157.075,21 L157.075,10.8 C157.075,7.83 155.515,6.15 152.395,6.15 C150.115,6.15 148.225,7.32 147.265,8.46 L147.265,6.51 L144.115,6.51 L144.115,21 L147.265,21 L147.265,10.86 C148.015,9.9 149.395,8.94 150.985,8.94 C152.755,8.94 153.925,9.66 153.925,11.94 L153.925,21 L157.075,21 Z M165.535,21.36 C166.975,21.36 167.905,20.94 168.475,20.43 L167.725,18.03 C167.485,18.3 166.945,18.57 166.345,18.57 C165.445,18.57 164.965,17.82 164.965,16.83 L164.965,9.24 L167.905,9.24 L167.905,6.51 L164.965,6.51 L164.965,2.55 L161.815,2.55 L161.815,6.51 L159.415,6.51 L159.415,9.24 L161.815,9.24 L161.815,17.61 C161.815,20.04 163.075,21.36 165.535,21.36 L165.535,21.36 Z"></path>
                                    </g>
                                </g>
                                <g id="com-video" transform="translate(472.000000, 0.000000)">
                                    <g id="Fill-1">
                                        <g id="path-1-link" transform="translate(2.000000, 2.000000)" fill="#07698D">
                                            <path d="M67.9591813,165.905698 C-23,129 4,66 5.99609375,61.7226562 C7.9921875,57.4453125 59.9591813,-69 199,54 C239,95 257,171 203.318063,267.625094 C149.636126,364.250188 49.5375583,416.599958 49.5375583,416.599958 C49.5375583,416.599958 128.029691,378.154832 148.053194,287.648597 C148.053194,287.648597 165.587607,205.517368 67.9591813,165.905698 L67.9591813,165.905698 Z" id="path-1"></path>
                                        </g>
                                        <g id="Clipped">
                                            <mask id="mask-2" fill="white">
                                                <use xlink:href="#path-1"></use>
                                            </mask>
                                            <g id="Rectangle-path"></g>
                                            <g id="path-1-link" mask="url(#mask-2)" stroke="#07698D" stroke-width="4">
                                                <g transform="translate(2.000000, 2.000000)" id="path-1">
                                                    <path d="M67.9591813,165.905698 C-23,129 4,66 5.99609375,61.7226562 C7.9921875,57.4453125 59.9591813,-69 199,54 C239,95 257,171 203.318063,267.625094 C149.636126,364.250188 49.5375583,416.599958 49.5375583,416.599958 C49.5375583,416.599958 128.029691,378.154832 148.053194,287.648597 C148.053194,287.648597 165.587607,205.517368 67.9591813,165.905698 L67.9591813,165.905698 Z"></path>
                                                </g>
                                            </g>
                                            <mask id="mask-4" fill="white">
                                                <use xlink:href="#path-3"></use>
                                            </mask>
                                            <g id="path-1"></g>
                                        </g>
                                    </g>
                                    <g id="Communication-Vidéo" transform="translate(29.000000, 78.000000)" fill="#FFFFFF">
                                        <path d="M8.964,17.288 C12.18,17.288 14.172,15.584 15.396,13.664 L12.996,12.464 C12.228,13.784 10.668,14.792 8.964,14.792 C5.796,14.792 3.444,12.344 3.444,9.008 C3.444,5.624 5.796,3.224 8.964,3.224 C10.668,3.224 12.228,4.208 12.996,5.552 L15.372,4.304 C14.196,2.384 12.18,0.728 8.964,0.728 C4.236,0.728 0.564,4.064 0.564,9.008 C0.564,13.928 4.236,17.288 8.964,17.288 L8.964,17.288 Z M22.812,17.288 C26.508,17.288 28.764,14.504 28.764,11.192 C28.764,7.856 26.508,5.12 22.812,5.12 C19.116,5.12 16.86,7.856 16.86,11.192 C16.86,14.504 19.116,17.288 22.812,17.288 L22.812,17.288 Z M22.812,15.056 C20.676,15.056 19.476,13.256 19.476,11.192 C19.476,9.152 20.676,7.352 22.812,7.352 C24.972,7.352 26.148,9.152 26.148,11.192 C26.148,13.256 24.972,15.056 22.812,15.056 L22.812,15.056 Z M48.084,17 L48.084,8.624 C48.084,6.272 46.86,5.12 44.748,5.12 C42.996,5.12 41.46,6.2 40.812,7.232 C40.428,5.984 39.372,5.12 37.644,5.12 C35.868,5.12 34.356,6.272 33.852,6.968 L33.852,5.408 L31.332,5.408 L31.332,17 L33.852,17 L33.852,8.888 C34.38,8.144 35.412,7.352 36.54,7.352 C37.908,7.352 38.436,8.192 38.436,9.44 L38.436,17 L40.956,17 L40.956,8.888 C41.46,8.12 42.516,7.352 43.644,7.352 C45.012,7.352 45.564,8.192 45.564,9.44 L45.564,17 L48.084,17 Z M68.1,17 L68.1,8.624 C68.1,6.272 66.876,5.12 64.764,5.12 C63.012,5.12 61.476,6.2 60.828,7.232 C60.444,5.984 59.388,5.12 57.66,5.12 C55.884,5.12 54.372,6.272 53.868,6.968 L53.868,5.408 L51.348,5.408 L51.348,17 L53.868,17 L53.868,8.888 C54.396,8.144 55.428,7.352 56.556,7.352 C57.924,7.352 58.452,8.192 58.452,9.44 L58.452,17 L60.972,17 L60.972,8.888 C61.476,8.12 62.532,7.352 63.66,7.352 C65.028,7.352 65.58,8.192 65.58,9.44 L65.58,17 L68.1,17 Z M81.708,17 L81.708,5.408 L79.188,5.408 L79.188,13.544 C78.612,14.312 77.508,15.056 76.236,15.056 C74.796,15.056 73.884,14.48 73.884,12.68 L73.884,5.408 L71.364,5.408 L71.364,13.616 C71.364,15.968 72.612,17.288 75.108,17.288 C76.932,17.288 78.372,16.376 79.188,15.464 L79.188,17 L81.708,17 Z M95.34,17 L95.34,8.84 C95.34,6.464 94.092,5.12 91.596,5.12 C89.772,5.12 88.26,6.056 87.492,6.968 L87.492,5.408 L84.972,5.408 L84.972,17 L87.492,17 L87.492,8.888 C88.092,8.12 89.196,7.352 90.468,7.352 C91.884,7.352 92.82,7.928 92.82,9.752 L92.82,17 L95.34,17 Z M99.876,3.992 C100.74,3.992 101.436,3.296 101.436,2.432 C101.436,1.568 100.74,0.872 99.876,0.872 C99.012,0.872 98.316,1.568 98.316,2.432 C98.316,3.296 99.012,3.992 99.876,3.992 L99.876,3.992 Z M101.124,17 L101.124,5.408 L98.604,5.408 L98.604,17 L101.124,17 Z M109.668,17.288 C111.948,17.288 113.292,16.304 114.108,15.224 L112.452,13.664 C111.804,14.576 110.916,15.056 109.788,15.056 C107.7,15.056 106.284,13.448 106.284,11.192 C106.284,8.936 107.7,7.352 109.788,7.352 C110.916,7.352 111.804,7.784 112.452,8.696 L114.108,7.184 C113.292,6.08 111.948,5.12 109.668,5.12 C106.164,5.12 103.692,7.688 103.692,11.192 C103.692,14.696 106.164,17.288 109.668,17.288 L109.668,17.288 Z M125.964,17 L125.964,9.296 C125.964,6.2 123.708,5.12 121.116,5.12 C119.268,5.12 117.588,5.696 116.244,6.992 L117.3,8.744 C118.284,7.736 119.436,7.256 120.732,7.256 C122.316,7.256 123.444,8.072 123.444,9.416 L123.444,11.144 C122.58,10.16 121.26,9.656 119.676,9.656 C117.78,9.656 115.668,10.76 115.668,13.448 C115.668,15.992 117.804,17.288 119.676,17.288 C121.212,17.288 122.58,16.736 123.444,15.728 L123.444,17 L125.964,17 Z M120.684,15.56 C119.268,15.56 118.188,14.744 118.188,13.472 C118.188,12.224 119.268,11.384 120.684,11.384 C121.764,11.384 122.844,11.792 123.444,12.584 L123.444,14.36 C122.844,15.152 121.764,15.56 120.684,15.56 L120.684,15.56 Z M132.732,17.288 C133.884,17.288 134.628,16.952 135.084,16.544 L134.484,14.624 C134.292,14.84 133.86,15.056 133.38,15.056 C132.66,15.056 132.276,14.456 132.276,13.664 L132.276,7.592 L134.628,7.592 L134.628,5.408 L132.276,5.408 L132.276,2.24 L129.756,2.24 L129.756,5.408 L127.836,5.408 L127.836,7.592 L129.756,7.592 L129.756,14.288 C129.756,16.232 130.764,17.288 132.732,17.288 L132.732,17.288 Z M138.156,3.992 C139.02,3.992 139.716,3.296 139.716,2.432 C139.716,1.568 139.02,0.872 138.156,0.872 C137.292,0.872 136.596,1.568 136.596,2.432 C136.596,3.296 137.292,3.992 138.156,3.992 L138.156,3.992 Z M139.404,17 L139.404,5.408 L136.884,5.408 L136.884,17 L139.404,17 Z M147.924,17.288 C151.62,17.288 153.876,14.504 153.876,11.192 C153.876,7.856 151.62,5.12 147.924,5.12 C144.228,5.12 141.972,7.856 141.972,11.192 C141.972,14.504 144.228,17.288 147.924,17.288 L147.924,17.288 Z M147.924,15.056 C145.788,15.056 144.588,13.256 144.588,11.192 C144.588,9.152 145.788,7.352 147.924,7.352 C150.084,7.352 151.26,9.152 151.26,11.192 C151.26,13.256 150.084,15.056 147.924,15.056 L147.924,15.056 Z M166.812,17 L166.812,8.84 C166.812,6.464 165.564,5.12 163.068,5.12 C161.244,5.12 159.732,6.056 158.964,6.968 L158.964,5.408 L156.444,5.408 L156.444,17 L158.964,17 L158.964,8.888 C159.564,8.12 160.668,7.352 161.94,7.352 C163.356,7.352 164.292,7.928 164.292,9.752 L164.292,17 L166.812,17 Z" id="Communication"></path>
                                        <path d="M62.328,47 L68.616,30.992 L65.424,30.992 L60.576,43.928 L55.728,30.992 L52.536,30.992 L58.824,47 L62.328,47 Z M71.544,33.992 C72.408,33.992 73.104,33.296 73.104,32.432 C73.104,31.568 72.408,30.872 71.544,30.872 C70.68,30.872 69.984,31.568 69.984,32.432 C69.984,33.296 70.68,33.992 71.544,33.992 L71.544,33.992 Z M72.792,47 L72.792,35.408 L70.272,35.408 L70.272,47 L72.792,47 Z M86.736,47 L86.736,30.992 L84.216,30.992 L84.216,37.016 C83.304,35.768 81.96,35.12 80.496,35.12 C77.52,35.12 75.36,37.448 75.36,41.192 C75.36,45.032 77.544,47.288 80.496,47.288 C82.008,47.288 83.328,46.568 84.216,45.416 L84.216,47 L86.736,47 Z M81.24,45.056 C79.224,45.056 77.952,43.448 77.952,41.192 C77.952,38.96 79.224,37.352 81.24,37.352 C82.416,37.352 83.664,38.048 84.216,38.912 L84.216,43.496 C83.664,44.36 82.416,45.056 81.24,45.056 L81.24,45.056 Z M95.376,47.288 C97.2,47.288 98.904,46.688 100.08,45.584 L98.928,43.928 C98.088,44.768 96.768,45.224 95.616,45.224 C93.432,45.224 92.136,43.76 91.944,42.032 L100.872,42.032 L100.872,41.408 C100.872,37.76 98.664,35.12 95.184,35.12 C91.752,35.12 89.304,37.832 89.304,41.192 C89.304,44.864 91.872,47.288 95.376,47.288 L95.376,47.288 Z M98.448,40.232 L91.92,40.232 C92.016,38.84 93.024,37.184 95.16,37.184 C97.44,37.184 98.376,38.864 98.448,40.232 L98.448,40.232 Z M99.168,30.2 L96.768,30.2 L93.408,33.656 L95.208,33.656 L99.168,30.2 Z M108.624,47.288 C112.32,47.288 114.576,44.504 114.576,41.192 C114.576,37.856 112.32,35.12 108.624,35.12 C104.928,35.12 102.672,37.856 102.672,41.192 C102.672,44.504 104.928,47.288 108.624,47.288 L108.624,47.288 Z M108.624,45.056 C106.488,45.056 105.288,43.256 105.288,41.192 C105.288,39.152 106.488,37.352 108.624,37.352 C110.784,37.352 111.96,39.152 111.96,41.192 C111.96,43.256 110.784,45.056 108.624,45.056 L108.624,45.056 Z" id="Vidéo"></path>
                                    </g>
                                </g>
                                <g id="mobilité" transform="translate(713.000000, 129.000000)">
                                    <g id="Fill-1">
                                        <g id="path-3-link" transform="translate(1.000000, 1.000000)" fill="#07698D">
                                            <path d="M42.6465741,12.240798 C93.9592968,-27.7171121 130.663722,49.2496982 101.897499,71.0449219 C73.1312756,92.8401456 10.0107105,107.361148 0.663437224,135.020558 C0.663437224,135.020558 -8.66614874,52.1987081 42.6465741,12.240798 L42.6465741,12.240798 Z" id="path-3"></path>
                                        </g>
                                        <g id="Clipped">
                                            <mask id="mask-6" fill="white">
                                                <use xlink:href="#path-5"></use>
                                            </mask>
                                            <g id="Rectangle-path"></g>
                                            <g id="path-3-link" mask="url(#mask-6)" stroke="#07698D" stroke-width="2">
                                                <g transform="translate(1.000000, 1.000000)" id="path-3">
                                                    <path d="M42.6465741,12.240798 C93.9592968,-27.7171121 130.663722,49.2496982 101.897499,71.0449219 C73.1312756,92.8401456 10.0107105,107.361148 0.663437224,135.020558 C0.663437224,135.020558 -8.66614874,52.1987081 42.6465741,12.240798 L42.6465741,12.240798 Z"></path>
                                                </g>
                                            </g>
                                            <mask id="mask-8" fill="white">
                                                <use xlink:href="#path-7"></use>
                                            </mask>
                                            <g id="path-3"></g>
                                        </g>
                                    </g>
                                    <g id="Mobilité" transform="translate(31.000000, 36.000000)" fill="#FFFFFF">
                                        <path d="M12.951,13 L12.951,0.994 L9.981,0.994 L6.723,9.238 L3.447,0.994 L0.477,0.994 L0.477,13 L2.583,13 L2.583,3.73 L6.273,13 L7.173,13 L10.845,3.73 L10.845,13 L12.951,13 Z M19.395,13.216 C22.167,13.216 23.859,11.128 23.859,8.644 C23.859,6.142 22.167,4.09 19.395,4.09 C16.623,4.09 14.931,6.142 14.931,8.644 C14.931,11.128 16.623,13.216 19.395,13.216 L19.395,13.216 Z M19.395,11.542 C17.793,11.542 16.893,10.192 16.893,8.644 C16.893,7.114 17.793,5.764 19.395,5.764 C21.015,5.764 21.897,7.114 21.897,8.644 C21.897,10.192 21.015,11.542 19.395,11.542 L19.395,11.542 Z M27.675,10.39 L27.675,6.934 C28.107,6.286 29.025,5.764 29.925,5.764 C31.419,5.764 32.373,6.97 32.373,8.644 C32.373,10.336 31.419,11.542 29.925,11.542 C29.025,11.542 28.107,11.038 27.675,10.39 L27.675,10.39 Z M27.675,13 L27.675,11.812 C28.341,12.676 29.349,13.216 30.465,13.216 C32.697,13.216 34.335,11.524 34.335,8.644 C34.335,5.836 32.715,4.09 30.465,4.09 C29.385,4.09 28.377,4.576 27.675,5.512 L27.675,0.994 L25.785,0.994 L25.785,13 L27.675,13 Z M37.197,3.244 C37.845,3.244 38.367,2.722 38.367,2.074 C38.367,1.426 37.845,0.904 37.197,0.904 C36.549,0.904 36.027,1.426 36.027,2.074 C36.027,2.722 36.549,3.244 37.197,3.244 L37.197,3.244 Z M38.133,13 L38.133,4.306 L36.243,4.306 L36.243,13 L38.133,13 Z M42.471,13 L42.471,0.994 L40.581,0.994 L40.581,13 L42.471,13 Z M45.873,3.244 C46.521,3.244 47.043,2.722 47.043,2.074 C47.043,1.426 46.521,0.904 45.873,0.904 C45.225,0.904 44.703,1.426 44.703,2.074 C44.703,2.722 45.225,3.244 45.873,3.244 L45.873,3.244 Z M46.809,13 L46.809,4.306 L44.919,4.306 L44.919,13 L46.809,13 Z M51.885,13.216 C52.749,13.216 53.307,12.964 53.649,12.658 L53.199,11.218 C53.055,11.38 52.731,11.542 52.371,11.542 C51.831,11.542 51.543,11.092 51.543,10.498 L51.543,5.944 L53.307,5.944 L53.307,4.306 L51.543,4.306 L51.543,1.93 L49.653,1.93 L49.653,4.306 L48.213,4.306 L48.213,5.944 L49.653,5.944 L49.653,10.966 C49.653,12.424 50.409,13.216 51.885,13.216 L51.885,13.216 Z M59.031,13.216 C60.399,13.216 61.677,12.766 62.559,11.938 L61.695,10.696 C61.065,11.326 60.075,11.668 59.211,11.668 C57.573,11.668 56.601,10.57 56.457,9.274 L63.153,9.274 L63.153,8.806 C63.153,6.07 61.497,4.09 58.887,4.09 C56.313,4.09 54.477,6.124 54.477,8.644 C54.477,11.398 56.403,13.216 59.031,13.216 L59.031,13.216 Z M61.335,7.924 L56.439,7.924 C56.511,6.88 57.267,5.638 58.869,5.638 C60.579,5.638 61.281,6.898 61.335,7.924 L61.335,7.924 Z M61.875,0.4 L60.075,0.4 L57.555,2.992 L58.905,2.992 L61.875,0.4 Z"></path>
                                    </g>
                                </g>
                                <g id="transparence" transform="translate(719.000000, 222.000000)">
                                    <path d="M43.8033006,146.069023 C55.0243095,136.861722 69.4032069,126.458594 87.3392126,115.900997 C141.838993,83.8204084 180.268433,83.8204084 181.665935,53.8786205 C183.063437,23.937308 150.922756,-19.5497441 79.6534178,9.67911006 C6.6972951,39.5999852 0.0892268376,112.010759 0.0302792086,149 C-3.65220354e-12,168 2.43398254,185.649674 0.0302792086,199.139329 C11.0752028,178.8288 25.9376359,160.728365 43.8033006,146.069023 L43.8033006,146.069023 Z" id="Page-1" stroke="#07698D" stroke-width="2" fill="#07698D"></path>
                                    <g id="Transparence" transform="translate(45.000000, 42.000000)" fill="#FFFFFF">
                                        <path d="M6.625,13 L6.625,2.848 L10.261,2.848 L10.261,0.994 L0.883,0.994 L0.883,2.848 L4.519,2.848 L4.519,13 L6.625,13 Z M12.529,13 L12.529,7.078 C12.907,6.448 13.969,5.908 14.779,5.908 C15.013,5.908 15.193,5.926 15.355,5.962 L15.355,4.09 C14.239,4.09 13.195,4.738 12.529,5.566 L12.529,4.306 L10.639,4.306 L10.639,13 L12.529,13 Z M24.103,13 L24.103,7.222 C24.103,4.9 22.411,4.09 20.467,4.09 C19.081,4.09 17.821,4.522 16.813,5.494 L17.605,6.808 C18.343,6.052 19.207,5.692 20.179,5.692 C21.367,5.692 22.213,6.304 22.213,7.312 L22.213,8.608 C21.565,7.87 20.575,7.492 19.387,7.492 C17.965,7.492 16.381,8.32 16.381,10.336 C16.381,12.244 17.983,13.216 19.387,13.216 C20.539,13.216 21.565,12.802 22.213,12.046 L22.213,13 L24.103,13 Z M20.143,11.92 C19.081,11.92 18.271,11.308 18.271,10.354 C18.271,9.418 19.081,8.788 20.143,8.788 C20.953,8.788 21.763,9.094 22.213,9.688 L22.213,11.02 C21.763,11.614 20.953,11.92 20.143,11.92 L20.143,11.92 Z M34.327,13 L34.327,6.88 C34.327,5.098 33.391,4.09 31.519,4.09 C30.151,4.09 29.017,4.792 28.441,5.476 L28.441,4.306 L26.551,4.306 L26.551,13 L28.441,13 L28.441,6.916 C28.891,6.34 29.719,5.764 30.673,5.764 C31.735,5.764 32.437,6.196 32.437,7.564 L32.437,13 L34.327,13 Z M39.763,13.216 C42.103,13.216 43.381,12.046 43.381,10.498 C43.381,7.042 38.125,8.194 38.125,6.664 C38.125,6.052 38.737,5.584 39.727,5.584 C40.825,5.584 41.779,6.052 42.301,6.628 L43.093,5.296 C42.319,4.612 41.203,4.09 39.727,4.09 C37.531,4.09 36.307,5.296 36.307,6.718 C36.307,10.066 41.563,8.842 41.563,10.552 C41.563,11.236 40.969,11.704 39.835,11.704 C38.719,11.704 37.513,11.128 36.901,10.498 L36.037,11.848 C36.937,12.73 38.269,13.216 39.763,13.216 L39.763,13.216 Z M49.951,13.216 C52.201,13.216 53.803,11.506 53.803,8.644 C53.803,5.782 52.201,4.09 49.951,4.09 C48.817,4.09 47.809,4.63 47.161,5.494 L47.161,4.306 L45.271,4.306 L45.271,16.312 L47.161,16.312 L47.161,11.794 C47.881,12.712 48.853,13.216 49.951,13.216 L49.951,13.216 Z M49.393,11.542 C48.511,11.542 47.575,11.002 47.161,10.354 L47.161,6.916 C47.593,6.268 48.511,5.764 49.393,5.764 C50.887,5.764 51.859,6.952 51.859,8.644 C51.859,10.336 50.887,11.542 49.393,11.542 L49.393,11.542 Z M62.911,13 L62.911,7.222 C62.911,4.9 61.219,4.09 59.275,4.09 C57.889,4.09 56.629,4.522 55.621,5.494 L56.413,6.808 C57.151,6.052 58.015,5.692 58.987,5.692 C60.175,5.692 61.021,6.304 61.021,7.312 L61.021,8.608 C60.373,7.87 59.383,7.492 58.195,7.492 C56.773,7.492 55.189,8.32 55.189,10.336 C55.189,12.244 56.791,13.216 58.195,13.216 C59.347,13.216 60.373,12.802 61.021,12.046 L61.021,13 L62.911,13 Z M58.951,11.92 C57.889,11.92 57.079,11.308 57.079,10.354 C57.079,9.418 57.889,8.788 58.951,8.788 C59.761,8.788 60.571,9.094 61.021,9.688 L61.021,11.02 C60.571,11.614 59.761,11.92 58.951,11.92 L58.951,11.92 Z M67.249,13 L67.249,7.078 C67.627,6.448 68.689,5.908 69.499,5.908 C69.733,5.908 69.913,5.926 70.075,5.962 L70.075,4.09 C68.959,4.09 67.915,4.738 67.249,5.566 L67.249,4.306 L65.359,4.306 L65.359,13 L67.249,13 Z M75.637,13.216 C77.005,13.216 78.283,12.766 79.165,11.938 L78.301,10.696 C77.671,11.326 76.681,11.668 75.817,11.668 C74.179,11.668 73.207,10.57 73.063,9.274 L79.759,9.274 L79.759,8.806 C79.759,6.07 78.103,4.09 75.493,4.09 C72.919,4.09 71.083,6.124 71.083,8.644 C71.083,11.398 73.009,13.216 75.637,13.216 L75.637,13.216 Z M77.941,7.924 L73.045,7.924 C73.117,6.88 73.873,5.638 75.475,5.638 C77.185,5.638 77.887,6.898 77.941,7.924 L77.941,7.924 Z M89.407,13 L89.407,6.88 C89.407,5.098 88.471,4.09 86.599,4.09 C85.231,4.09 84.097,4.792 83.521,5.476 L83.521,4.306 L81.631,4.306 L81.631,13 L83.521,13 L83.521,6.916 C83.971,6.34 84.799,5.764 85.753,5.764 C86.815,5.764 87.517,6.196 87.517,7.564 L87.517,13 L89.407,13 Z M95.815,13.216 C97.525,13.216 98.533,12.478 99.145,11.668 L97.903,10.498 C97.417,11.182 96.751,11.542 95.905,11.542 C94.339,11.542 93.277,10.336 93.277,8.644 C93.277,6.952 94.339,5.764 95.905,5.764 C96.751,5.764 97.417,6.088 97.903,6.772 L99.145,5.638 C98.533,4.81 97.525,4.09 95.815,4.09 C93.187,4.09 91.333,6.016 91.333,8.644 C91.333,11.272 93.187,13.216 95.815,13.216 L95.815,13.216 Z M104.851,13.216 C106.219,13.216 107.497,12.766 108.379,11.938 L107.515,10.696 C106.885,11.326 105.895,11.668 105.031,11.668 C103.393,11.668 102.421,10.57 102.277,9.274 L108.973,9.274 L108.973,8.806 C108.973,6.07 107.317,4.09 104.707,4.09 C102.133,4.09 100.297,6.124 100.297,8.644 C100.297,11.398 102.223,13.216 104.851,13.216 L104.851,13.216 Z M107.155,7.924 L102.259,7.924 C102.331,6.88 103.087,5.638 104.689,5.638 C106.399,5.638 107.101,6.898 107.155,7.924 L107.155,7.924 Z"></path>
                                    </g>
                                </g>
                                <g id="cohésion" transform="translate(333.000000, 73.000000)">
                                    <g id="Page-1">
                                        <g id="path-5-link" transform="translate(1.000000, 1.000000)" fill="#07698D">
                                            <path d="M49.7405845,245.197875 C49.7405845,245.197875 -10.3616891,113.549655 2.72419601,58.5731692 C15,7 75.2637668,-30.6821249 114.220203,36.5491356 C153.176639,103.780396 63.1738383,271.858547 63.1738383,271.858547 L49.7405845,245.197875 L49.7405845,245.197875 Z" id="path-5"></path>
                                        </g>
                                        <g id="Clipped">
                                            <mask id="mask-10" fill="white">
                                                <use xlink:href="#path-9"></use>
                                            </mask>
                                            <g id="Rectangle-path"></g>
                                            <g id="path-5-link" mask="url(#mask-10)" stroke="#07698D" stroke-width="2">
                                                <g transform="translate(1.000000, 1.000000)" id="path-5">
                                                    <path d="M49.7405845,245.197875 C49.7405845,245.197875 -10.3616891,113.549655 2.72419601,58.5731692 C15,7 75.2637668,-30.6821249 114.220203,36.5491356 C153.176639,103.780396 63.1738383,271.858547 63.1738383,271.858547 L49.7405845,245.197875 L49.7405845,245.197875 Z"></path>
                                                </g>
                                            </g>
                                            <mask id="mask-12" fill="white">
                                                <use xlink:href="#path-11"></use>
                                            </mask>
                                            <g id="path-5"></g>
                                        </g>
                                    </g>
                                    <g id="Cohésion" transform="translate(26.000000, 65.000000)" fill="#FFFFFF">
                                        <path d="M6.432,13.216 C8.844,13.216 10.338,11.938 11.256,10.498 L9.456,9.598 C8.88,10.588 7.71,11.344 6.432,11.344 C4.056,11.344 2.292,9.508 2.292,7.006 C2.292,4.468 4.056,2.668 6.432,2.668 C7.71,2.668 8.88,3.406 9.456,4.414 L11.238,3.478 C10.356,2.038 8.844,0.796 6.432,0.796 C2.886,0.796 0.132,3.298 0.132,7.006 C0.132,10.696 2.886,13.216 6.432,13.216 L6.432,13.216 Z M16.818,13.216 C19.59,13.216 21.282,11.128 21.282,8.644 C21.282,6.142 19.59,4.09 16.818,4.09 C14.046,4.09 12.354,6.142 12.354,8.644 C12.354,11.128 14.046,13.216 16.818,13.216 L16.818,13.216 Z M16.818,11.542 C15.216,11.542 14.316,10.192 14.316,8.644 C14.316,7.114 15.216,5.764 16.818,5.764 C18.438,5.764 19.32,7.114 19.32,8.644 C19.32,10.192 18.438,11.542 16.818,11.542 L16.818,11.542 Z M30.984,13 L30.984,6.844 C30.984,5.062 30.048,4.09 28.176,4.09 C26.808,4.09 25.692,4.792 25.116,5.476 L25.116,0.994 L23.226,0.994 L23.226,13 L25.116,13 L25.116,6.916 C25.548,6.34 26.376,5.764 27.348,5.764 C28.41,5.764 29.094,6.16 29.094,7.528 L29.094,13 L30.984,13 Z M37.464,13.216 C38.832,13.216 40.11,12.766 40.992,11.938 L40.128,10.696 C39.498,11.326 38.508,11.668 37.644,11.668 C36.006,11.668 35.034,10.57 34.89,9.274 L41.586,9.274 L41.586,8.806 C41.586,6.07 39.93,4.09 37.32,4.09 C34.746,4.09 32.91,6.124 32.91,8.644 C32.91,11.398 34.836,13.216 37.464,13.216 L37.464,13.216 Z M39.768,7.924 L34.872,7.924 C34.944,6.88 35.7,5.638 37.302,5.638 C39.012,5.638 39.714,6.898 39.768,7.924 L39.768,7.924 Z M40.308,0.4 L38.508,0.4 L35.988,2.992 L37.338,2.992 L40.308,0.4 Z M46.446,13.216 C48.786,13.216 50.064,12.046 50.064,10.498 C50.064,7.042 44.808,8.194 44.808,6.664 C44.808,6.052 45.42,5.584 46.41,5.584 C47.508,5.584 48.462,6.052 48.984,6.628 L49.776,5.296 C49.002,4.612 47.886,4.09 46.41,4.09 C44.214,4.09 42.99,5.296 42.99,6.718 C42.99,10.066 48.246,8.842 48.246,10.552 C48.246,11.236 47.652,11.704 46.518,11.704 C45.402,11.704 44.196,11.128 43.584,10.498 L42.72,11.848 C43.62,12.73 44.952,13.216 46.446,13.216 L46.446,13.216 Z M52.908,3.244 C53.556,3.244 54.078,2.722 54.078,2.074 C54.078,1.426 53.556,0.904 52.908,0.904 C52.26,0.904 51.738,1.426 51.738,2.074 C51.738,2.722 52.26,3.244 52.908,3.244 L52.908,3.244 Z M53.844,13 L53.844,4.306 L51.954,4.306 L51.954,13 L53.844,13 Z M60.234,13.216 C63.006,13.216 64.698,11.128 64.698,8.644 C64.698,6.142 63.006,4.09 60.234,4.09 C57.462,4.09 55.77,6.142 55.77,8.644 C55.77,11.128 57.462,13.216 60.234,13.216 L60.234,13.216 Z M60.234,11.542 C58.632,11.542 57.732,10.192 57.732,8.644 C57.732,7.114 58.632,5.764 60.234,5.764 C61.854,5.764 62.736,7.114 62.736,8.644 C62.736,10.192 61.854,11.542 60.234,11.542 L60.234,11.542 Z M74.4,13 L74.4,6.88 C74.4,5.098 73.464,4.09 71.592,4.09 C70.224,4.09 69.09,4.792 68.514,5.476 L68.514,4.306 L66.624,4.306 L66.624,13 L68.514,13 L68.514,6.916 C68.964,6.34 69.792,5.764 70.746,5.764 C71.808,5.764 72.51,6.196 72.51,7.564 L72.51,13 L74.4,13 Z"></path>
                                    </g>
                                </g>
                                <g id="teletravail" transform="translate(56.000000, 327.000000)">
                                    <g id="Fill-1">
                                        <g id="path-7-link" transform="translate(2.000000, 2.000000)" fill="#07698D">
                                            <path d="M42.9751106,95 C-22.041407,95 -6.05373875,21.3483146 42.9751106,7.47191011 C92.00396,-6.40449438 174.07399,-4.26966292 201.785949,42.6966292 C230.884427,92.0127979 270,95 270,95 L42.9751106,95 L42.9751106,95 Z" id="path-7"></path>
                                        </g>
                                        <g id="Clipped">
                                            <mask id="mask-14" fill="white">
                                                <use xlink:href="#path-13"></use>
                                            </mask>
                                            <g id="Rectangle-path"></g>
                                            <g id="path-7-link" mask="url(#mask-14)" stroke="#07698D" stroke-width="2.1316891">
                                                <g transform="translate(2.000000, 2.000000)" id="path-7">
                                                    <path d="M42.9751106,95 C-22.041407,95 -6.05373875,21.3483146 42.9751106,7.47191011 C92.00396,-6.40449438 174.07399,-4.26966292 201.785949,42.6966292 C230.884427,92.0127979 270,95 270,95 L42.9751106,95 L42.9751106,95 Z"></path>
                                                </g>
                                            </g>
                                            <mask id="mask-16" fill="white">
                                                <use xlink:href="#path-15"></use>
                                            </mask>
                                            <g id="path-7"></g>
                                        </g>
                                    </g>
                                    <g id="Télétravail" transform="translate(51.000000, 42.000000)" fill="#FFFFFF">
                                        <path d="M8.444,17 L8.444,3.464 L13.292,3.464 L13.292,0.992 L0.788,0.992 L0.788,3.464 L5.636,3.464 L5.636,17 L8.444,17 Z M20.972,17.288 C22.796,17.288 24.5,16.688 25.676,15.584 L24.524,13.928 C23.684,14.768 22.364,15.224 21.212,15.224 C19.028,15.224 17.732,13.76 17.54,12.032 L26.468,12.032 L26.468,11.408 C26.468,7.76 24.26,5.12 20.78,5.12 C17.348,5.12 14.9,7.832 14.9,11.192 C14.9,14.864 17.468,17.288 20.972,17.288 L20.972,17.288 Z M24.044,10.232 L17.516,10.232 C17.612,8.84 18.62,7.184 20.756,7.184 C23.036,7.184 23.972,8.864 24.044,10.232 L24.044,10.232 Z M24.764,0.2 L22.364,0.2 L19.004,3.656 L20.804,3.656 L24.764,0.2 Z M31.484,17 L31.484,0.992 L28.964,0.992 L28.964,17 L31.484,17 Z M40.124,17.288 C41.948,17.288 43.652,16.688 44.828,15.584 L43.676,13.928 C42.836,14.768 41.516,15.224 40.364,15.224 C38.18,15.224 36.884,13.76 36.692,12.032 L45.62,12.032 L45.62,11.408 C45.62,7.76 43.412,5.12 39.932,5.12 C36.5,5.12 34.052,7.832 34.052,11.192 C34.052,14.864 36.62,17.288 40.124,17.288 L40.124,17.288 Z M43.196,10.232 L36.668,10.232 C36.764,8.84 37.772,7.184 39.908,7.184 C42.188,7.184 43.124,8.864 43.196,10.232 L43.196,10.232 Z M43.916,0.2 L41.516,0.2 L38.156,3.656 L39.956,3.656 L43.916,0.2 Z M51.62,17.288 C52.772,17.288 53.516,16.952 53.972,16.544 L53.372,14.624 C53.18,14.84 52.748,15.056 52.268,15.056 C51.548,15.056 51.164,14.456 51.164,13.664 L51.164,7.592 L53.516,7.592 L53.516,5.408 L51.164,5.408 L51.164,2.24 L48.644,2.24 L48.644,5.408 L46.724,5.408 L46.724,7.592 L48.644,7.592 L48.644,14.288 C48.644,16.232 49.652,17.288 51.62,17.288 L51.62,17.288 Z M58.292,17 L58.292,9.104 C58.796,8.264 60.212,7.544 61.292,7.544 C61.604,7.544 61.844,7.568 62.06,7.616 L62.06,5.12 C60.572,5.12 59.18,5.984 58.292,7.088 L58.292,5.408 L55.772,5.408 L55.772,17 L58.292,17 Z M73.724,17 L73.724,9.296 C73.724,6.2 71.468,5.12 68.876,5.12 C67.028,5.12 65.348,5.696 64.004,6.992 L65.06,8.744 C66.044,7.736 67.196,7.256 68.492,7.256 C70.076,7.256 71.204,8.072 71.204,9.416 L71.204,11.144 C70.34,10.16 69.02,9.656 67.436,9.656 C65.54,9.656 63.428,10.76 63.428,13.448 C63.428,15.992 65.564,17.288 67.436,17.288 C68.972,17.288 70.34,16.736 71.204,15.728 L71.204,17 L73.724,17 Z M68.444,15.56 C67.028,15.56 65.948,14.744 65.948,13.472 C65.948,12.224 67.028,11.384 68.444,11.384 C69.524,11.384 70.604,11.792 71.204,12.584 L71.204,14.36 C70.604,15.152 69.524,15.56 68.444,15.56 L68.444,15.56 Z M82.748,17 L87.476,5.408 L84.788,5.408 L81.404,14.096 L78.02,5.408 L75.308,5.408 L80.036,17 L82.748,17 Z M98.684,17 L98.684,9.296 C98.684,6.2 96.428,5.12 93.836,5.12 C91.988,5.12 90.308,5.696 88.964,6.992 L90.02,8.744 C91.004,7.736 92.156,7.256 93.452,7.256 C95.036,7.256 96.164,8.072 96.164,9.416 L96.164,11.144 C95.3,10.16 93.98,9.656 92.396,9.656 C90.5,9.656 88.388,10.76 88.388,13.448 C88.388,15.992 90.524,17.288 92.396,17.288 C93.932,17.288 95.3,16.736 96.164,15.728 L96.164,17 L98.684,17 Z M93.404,15.56 C91.988,15.56 90.908,14.744 90.908,13.472 C90.908,12.224 91.988,11.384 93.404,11.384 C94.484,11.384 95.564,11.792 96.164,12.584 L96.164,14.36 C95.564,15.152 94.484,15.56 93.404,15.56 L93.404,15.56 Z M103.22,3.992 C104.084,3.992 104.78,3.296 104.78,2.432 C104.78,1.568 104.084,0.872 103.22,0.872 C102.356,0.872 101.66,1.568 101.66,2.432 C101.66,3.296 102.356,3.992 103.22,3.992 L103.22,3.992 Z M104.468,17 L104.468,5.408 L101.948,5.408 L101.948,17 L104.468,17 Z M110.252,17 L110.252,0.992 L107.732,0.992 L107.732,17 L110.252,17 Z"></path>
                                    </g>
                                </g>
                                <g id="productivité" transform="translate(393.000000, 197.000000)">
                                    <g id="Page-1">
                                        <g id="path-9-link" transform="translate(1.000000, 1.000000)" fill="#07698D">
                                            <path d="M63.8294911,60.4472859 C80,-30 188.946613,-6.55138448 202.145186,50.3198276 C213.886522,100.911845 178.900821,139.324384 142,167 C110,191 0,222.309958 0,222.309958 C0,222.309958 47.6589823,150.894572 63.8294911,60.4472859 L63.8294911,60.4472859 Z" id="path-9"></path>
                                        </g>
                                        <g id="Clipped">
                                            <mask id="mask-18" fill="white">
                                                <use xlink:href="#path-17"></use>
                                            </mask>
                                            <g id="Rectangle-path"></g>
                                            <g id="path-9-link" mask="url(#mask-18)" stroke="#07698D" stroke-width="2">
                                                <g transform="translate(1.000000, 1.000000)" id="path-9">
                                                    <path d="M63.8294911,60.4472859 C80,-30 188.946613,-6.55138448 202.145186,50.3198276 C213.886522,100.911845 178.900821,139.324384 142,167 C110,191 0,222.309958 0,222.309958 C0,222.309958 47.6589823,150.894572 63.8294911,60.4472859 L63.8294911,60.4472859 Z"></path>
                                                </g>
                                            </g>
                                            <mask id="mask-20" fill="white">
                                                <use xlink:href="#path-19"></use>
                                            </mask>
                                            <g id="path-9"></g>
                                        </g>
                                    </g>
                                    <g id="Productivité" transform="translate(83.000000, 67.000000)" fill="#FFFFFF">
                                        <path d="M2.18,13 L2.18,8.5 L5.366,8.5 C7.868,8.5 9.272,6.79 9.272,4.756 C9.272,2.704 7.886,0.994 5.366,0.994 L0.074,0.994 L0.074,13 L2.18,13 Z M5.078,6.646 L2.18,6.646 L2.18,2.848 L5.078,2.848 C6.266,2.848 7.112,3.604 7.112,4.756 C7.112,5.89 6.266,6.646 5.078,6.646 L5.078,6.646 Z M12.872,13 L12.872,7.078 C13.25,6.448 14.312,5.908 15.122,5.908 C15.356,5.908 15.536,5.926 15.698,5.962 L15.698,4.09 C14.582,4.09 13.538,4.738 12.872,5.566 L12.872,4.306 L10.982,4.306 L10.982,13 L12.872,13 Z M21.17,13.216 C23.942,13.216 25.634,11.128 25.634,8.644 C25.634,6.142 23.942,4.09 21.17,4.09 C18.398,4.09 16.706,6.142 16.706,8.644 C16.706,11.128 18.398,13.216 21.17,13.216 L21.17,13.216 Z M21.17,11.542 C19.568,11.542 18.668,10.192 18.668,8.644 C18.668,7.114 19.568,5.764 21.17,5.764 C22.79,5.764 23.672,7.114 23.672,8.644 C23.672,10.192 22.79,11.542 21.17,11.542 L21.17,11.542 Z M35.57,13 L35.57,0.994 L33.68,0.994 L33.68,5.512 C32.996,4.576 31.988,4.09 30.89,4.09 C28.658,4.09 27.038,5.836 27.038,8.644 C27.038,11.524 28.676,13.216 30.89,13.216 C32.024,13.216 33.014,12.676 33.68,11.812 L33.68,13 L35.57,13 Z M31.448,11.542 C29.936,11.542 28.982,10.336 28.982,8.644 C28.982,6.97 29.936,5.764 31.448,5.764 C32.33,5.764 33.266,6.286 33.68,6.934 L33.68,10.372 C33.266,11.02 32.33,11.542 31.448,11.542 L31.448,11.542 Z M45.776,13 L45.776,4.306 L43.886,4.306 L43.886,10.408 C43.454,10.984 42.626,11.542 41.672,11.542 C40.592,11.542 39.908,11.11 39.908,9.76 L39.908,4.306 L38.018,4.306 L38.018,10.462 C38.018,12.226 38.954,13.216 40.826,13.216 C42.194,13.216 43.274,12.532 43.886,11.848 L43.886,13 L45.776,13 Z M52.184,13.216 C53.894,13.216 54.902,12.478 55.514,11.668 L54.272,10.498 C53.786,11.182 53.12,11.542 52.274,11.542 C50.708,11.542 49.646,10.336 49.646,8.644 C49.646,6.952 50.708,5.764 52.274,5.764 C53.12,5.764 53.786,6.088 54.272,6.772 L55.514,5.638 C54.902,4.81 53.894,4.09 52.184,4.09 C49.556,4.09 47.702,6.016 47.702,8.644 C47.702,11.272 49.556,13.216 52.184,13.216 L52.184,13.216 Z M59.816,13.216 C60.68,13.216 61.238,12.964 61.58,12.658 L61.13,11.218 C60.986,11.38 60.662,11.542 60.302,11.542 C59.762,11.542 59.474,11.092 59.474,10.498 L59.474,5.944 L61.238,5.944 L61.238,4.306 L59.474,4.306 L59.474,1.93 L57.584,1.93 L57.584,4.306 L56.144,4.306 L56.144,5.944 L57.584,5.944 L57.584,10.966 C57.584,12.424 58.34,13.216 59.816,13.216 L59.816,13.216 Z M63.884,3.244 C64.532,3.244 65.054,2.722 65.054,2.074 C65.054,1.426 64.532,0.904 63.884,0.904 C63.236,0.904 62.714,1.426 62.714,2.074 C62.714,2.722 63.236,3.244 63.884,3.244 L63.884,3.244 Z M64.82,13 L64.82,4.306 L62.93,4.306 L62.93,13 L64.82,13 Z M71.588,13 L75.134,4.306 L73.118,4.306 L70.58,10.822 L68.042,4.306 L66.008,4.306 L69.554,13 L71.588,13 Z M77.276,3.244 C77.924,3.244 78.446,2.722 78.446,2.074 C78.446,1.426 77.924,0.904 77.276,0.904 C76.628,0.904 76.106,1.426 76.106,2.074 C76.106,2.722 76.628,3.244 77.276,3.244 L77.276,3.244 Z M78.212,13 L78.212,4.306 L76.322,4.306 L76.322,13 L78.212,13 Z M83.288,13.216 C84.152,13.216 84.71,12.964 85.052,12.658 L84.602,11.218 C84.458,11.38 84.134,11.542 83.774,11.542 C83.234,11.542 82.946,11.092 82.946,10.498 L82.946,5.944 L84.71,5.944 L84.71,4.306 L82.946,4.306 L82.946,1.93 L81.056,1.93 L81.056,4.306 L79.616,4.306 L79.616,5.944 L81.056,5.944 L81.056,10.966 C81.056,12.424 81.812,13.216 83.288,13.216 L83.288,13.216 Z M90.434,13.216 C91.802,13.216 93.08,12.766 93.962,11.938 L93.098,10.696 C92.468,11.326 91.478,11.668 90.614,11.668 C88.976,11.668 88.004,10.57 87.86,9.274 L94.556,9.274 L94.556,8.806 C94.556,6.07 92.9,4.09 90.29,4.09 C87.716,4.09 85.88,6.124 85.88,8.644 C85.88,11.398 87.806,13.216 90.434,13.216 L90.434,13.216 Z M92.738,7.924 L87.842,7.924 C87.914,6.88 88.67,5.638 90.272,5.638 C91.982,5.638 92.684,6.898 92.738,7.924 L92.738,7.924 Z M93.278,0.4 L91.478,0.4 L88.958,2.992 L90.308,2.992 L93.278,0.4 Z"></path>
                                    </g>
                                </g>
                            </g>
                        </g>
                    </g>
                </g>
            </g>
        </g>
    </g>
</svg>