<?xml version="1.0" encoding="UTF-8"?>
<svg width="902px" height="493px" viewBox="0 0 902 493" version="1.1" xmlns="http://www.w3.org/2000/svg" xmlns:xlink="http://www.w3.org/1999/xlink">
    <!-- Generator: Sketch 40.3 (33839) - http://www.bohemiancoding.com/sketch -->
    <title>cloud-en</title>
    <desc>Created with Sketch.</desc>
    <defs>
        <rect id="path-1" x="0.73032934" y="0.36112282" width="240.047858" height="420.238835"></rect>
        <path d="M69.9591813,167.905698 C-21,131 6,68 7.99609375,63.7226562 C9.9921875,59.4453125 61.9591813,-67 201,56 C241,97 259,173 205.318063,269.625094 C151.636126,366.250188 51.5375583,418.599958 51.5375583,418.599958 C51.5375583,418.599958 130.029691,380.154832 150.053194,289.648597 C150.053194,289.648597 167.587607,207.517368 69.9591813,167.905698 L69.9591813,167.905698 Z" id="path-3"></path>
        <rect id="path-5" x="0" y="0.920200946" width="114" height="136.100357"></rect>
        <path d="M43.6465741,13.240798 C94.9592968,-26.7171121 131.663722,50.2496982 102.897499,72.0449219 C74.1312756,93.8401456 11.0107105,108.361148 1.66343722,136.020558 C1.66343722,136.020558 -7.66614874,53.1987081 43.6465741,13.240798 L43.6465741,13.240798 Z" id="path-7"></path>
        <rect id="path-9" x="0.860185569" y="0.355012617" width="125.139814" height="273.503535"></rect>
        <path d="M50.7405845,246.197875 C50.7405845,246.197875 -9.3616891,114.549655 3.72419601,59.5731692 C16,8 76.2637668,-29.6821249 115.220203,37.5491356 C154.176639,104.780396 64.1738383,272.858547 64.1738383,272.858547 L50.7405845,246.197875 L50.7405845,246.197875 Z" id="path-11"></path>
        <rect id="path-13" x="0.93415545" y="0.93415545" width="272.131689" height="97.1316891"></rect>
        <path d="M44.9751106,97 C-20.041407,97 -4.05373875,23.3483146 44.9751106,9.47191011 C94.00396,-4.40449438 176.07399,-2.26966292 203.785949,44.6966292 C232.884427,94.0127979 272,97 272,97 L44.9751106,97 L44.9751106,97 Z" id="path-15"></path>
        <rect id="path-17" x="0" y="0.027105836" width="206.455943" height="224.282852"></rect>
        <path d="M64.8294911,61.4472859 C81,-29 189.946613,-5.55138448 203.145186,51.3198276 C214.886522,101.911845 179.900821,140.324384 143,168 C111,192 1,223.309958 1,223.309958 C1,223.309958 48.6589823,151.894572 64.8294911,61.4472859 L64.8294911,61.4472859 Z" id="path-19"></path>
    </defs>
    <g id="Page-1" stroke="none" stroke-width="1" fill="none" fill-rule="evenodd">
        <g id="cloud-en">
            <g id="Voeux-2016">
                <g id="Voeux_2016_wisembly_EN">
                    <g id="4-/-MOT-DE-LA-TEAM">
                        <g id="illustration-nuage-de-mots">
                            <g id="Group-2">
                                <polygon id="ligne" fill="#07698D" points="0 493 900 493 900 488 0 488"></polygon>
                                <g id="bulles">
                                    <g id="engagement" transform="translate(0.000000, 64.000000)">
                                        <path d="M213.138072,249.172356 C48,235 29,212 9.72347978,177.2992 C-16.4432582,130.194913 -0.147908725,-50.746394 202.289293,14.5675264 C371,69 349,356 349,356 C333.730243,369.822803 378.276143,263.344712 213.138072,249.172356 L213.138072,249.172356 Z" id="Fill-1" fill="#07698D"></path>
                                        <g id="Commitment" transform="translate(70.000000, 113.000000)" fill="#FFFFFF">
                                            <path d="M10.83,21.36 C14.85,21.36 17.34,19.23 18.87,16.83 L15.87,15.33 C14.91,16.98 12.96,18.24 10.83,18.24 C6.87,18.24 3.93,15.18 3.93,11.01 C3.93,6.78 6.87,3.78 10.83,3.78 C12.96,3.78 14.91,5.01 15.87,6.69 L18.84,5.13 C17.37,2.73 14.85,0.66 10.83,0.66 C4.92,0.66 0.33,4.83 0.33,11.01 C0.33,17.16 4.92,21.36 10.83,21.36 L10.83,21.36 Z M28.14,21.36 C32.76,21.36 35.58,17.88 35.58,13.74 C35.58,9.57 32.76,6.15 28.14,6.15 C23.52,6.15 20.7,9.57 20.7,13.74 C20.7,17.88 23.52,21.36 28.14,21.36 L28.14,21.36 Z M28.14,18.57 C25.47,18.57 23.97,16.32 23.97,13.74 C23.97,11.19 25.47,8.94 28.14,8.94 C30.84,8.94 32.31,11.19 32.31,13.74 C32.31,16.32 30.84,18.57 28.14,18.57 L28.14,18.57 Z M59.73,21 L59.73,10.53 C59.73,7.59 58.2,6.15 55.56,6.15 C53.37,6.15 51.45,7.5 50.64,8.79 C50.16,7.23 48.84,6.15 46.68,6.15 C44.46,6.15 42.57,7.59 41.94,8.46 L41.94,6.51 L38.79,6.51 L38.79,21 L41.94,21 L41.94,10.86 C42.6,9.93 43.89,8.94 45.3,8.94 C47.01,8.94 47.67,9.99 47.67,11.55 L47.67,21 L50.82,21 L50.82,10.86 C51.45,9.9 52.77,8.94 54.18,8.94 C55.89,8.94 56.58,9.99 56.58,11.55 L56.58,21 L59.73,21 Z M84.75,21 L84.75,10.53 C84.75,7.59 83.22,6.15 80.58,6.15 C78.39,6.15 76.47,7.5 75.66,8.79 C75.18,7.23 73.86,6.15 71.7,6.15 C69.48,6.15 67.59,7.59 66.96,8.46 L66.96,6.51 L63.81,6.51 L63.81,21 L66.96,21 L66.96,10.86 C67.62,9.93 68.91,8.94 70.32,8.94 C72.03,8.94 72.69,9.99 72.69,11.55 L72.69,21 L75.84,21 L75.84,10.86 C76.47,9.9 77.79,8.94 79.2,8.94 C80.91,8.94 81.6,9.99 81.6,11.55 L81.6,21 L84.75,21 Z M90.42,4.74 C91.5,4.74 92.37,3.87 92.37,2.79 C92.37,1.71 91.5,0.84 90.42,0.84 C89.34,0.84 88.47,1.71 88.47,2.79 C88.47,3.87 89.34,4.74 90.42,4.74 L90.42,4.74 Z M91.98,21 L91.98,6.51 L88.83,6.51 L88.83,21 L91.98,21 Z M100.44,21.36 C101.88,21.36 102.81,20.94 103.38,20.43 L102.63,18.03 C102.39,18.3 101.85,18.57 101.25,18.57 C100.35,18.57 99.87,17.82 99.87,16.83 L99.87,9.24 L102.81,9.24 L102.81,6.51 L99.87,6.51 L99.87,2.55 L96.72,2.55 L96.72,6.51 L94.32,6.51 L94.32,9.24 L96.72,9.24 L96.72,17.61 C96.72,20.04 97.98,21.36 100.44,21.36 L100.44,21.36 Z M126.57,21 L126.57,10.53 C126.57,7.59 125.04,6.15 122.4,6.15 C120.21,6.15 118.29,7.5 117.48,8.79 C117,7.23 115.68,6.15 113.52,6.15 C111.3,6.15 109.41,7.59 108.78,8.46 L108.78,6.51 L105.63,6.51 L105.63,21 L108.78,21 L108.78,10.86 C109.44,9.93 110.73,8.94 112.14,8.94 C113.85,8.94 114.51,9.99 114.51,11.55 L114.51,21 L117.66,21 L117.66,10.86 C118.29,9.9 119.61,8.94 121.02,8.94 C122.73,8.94 123.42,9.99 123.42,11.55 L123.42,21 L126.57,21 Z M137.37,21.36 C139.65,21.36 141.78,20.61 143.25,19.23 L141.81,17.16 C140.76,18.21 139.11,18.78 137.67,18.78 C134.94,18.78 133.32,16.95 133.08,14.79 L144.24,14.79 L144.24,14.01 C144.24,9.45 141.48,6.15 137.13,6.15 C132.84,6.15 129.78,9.54 129.78,13.74 C129.78,18.33 132.99,21.36 137.37,21.36 L137.37,21.36 Z M141.21,12.54 L133.05,12.54 C133.17,10.8 134.43,8.73 137.1,8.73 C139.95,8.73 141.12,10.83 141.21,12.54 L141.21,12.54 Z M160.32,21 L160.32,10.8 C160.32,7.83 158.76,6.15 155.64,6.15 C153.36,6.15 151.47,7.32 150.51,8.46 L150.51,6.51 L147.36,6.51 L147.36,21 L150.51,21 L150.51,10.86 C151.26,9.9 152.64,8.94 154.23,8.94 C156,8.94 157.17,9.66 157.17,11.94 L157.17,21 L160.32,21 Z M168.78,21.36 C170.22,21.36 171.15,20.94 171.72,20.43 L170.97,18.03 C170.73,18.3 170.19,18.57 169.59,18.57 C168.69,18.57 168.21,17.82 168.21,16.83 L168.21,9.24 L171.15,9.24 L171.15,6.51 L168.21,6.51 L168.21,2.55 L165.06,2.55 L165.06,6.51 L162.66,6.51 L162.66,9.24 L165.06,9.24 L165.06,17.61 C165.06,20.04 166.32,21.36 168.78,21.36 L168.78,21.36 Z"></path>
                                        </g>
                                    </g>
                                    <g id="video-com" transform="translate(472.000000, 0.000000)">
                                        <g id="Fill-1">
                                            <g id="path-1-link" transform="translate(2.000000, 2.000000)" fill="#07698D">
                                                <path d="M67.9591813,165.905698 C-23,129 4,66 5.99609375,61.7226562 C7.9921875,57.4453125 59.9591813,-69 199,54 C239,95 257,171 203.318063,267.625094 C149.636126,364.250188 49.5375583,416.599958 49.5375583,416.599958 C49.5375583,416.599958 128.029691,378.154832 148.053194,287.648597 C148.053194,287.648597 165.587607,205.517368 67.9591813,165.905698 L67.9591813,165.905698 Z" id="path-1"></path>
                                            </g>
                                            <g id="Clipped">
                                                <mask id="mask-2" fill="white">
                                                    <use xlink:href="#path-1"></use>
                                                </mask>
                                                <g id="Rectangle-path"></g>
                                                <g id="path-1-link" mask="url(#mask-2)" stroke="#07698D" stroke-width="4">
                                                    <g transform="translate(2.000000, 2.000000)" id="path-1">
                                                        <path d="M67.9591813,165.905698 C-23,129 4,66 5.99609375,61.7226562 C7.9921875,57.4453125 59.9591813,-69 199,54 C239,95 257,171 203.318063,267.625094 C149.636126,364.250188 49.5375583,416.599958 49.5375583,416.599958 C49.5375583,416.599958 128.029691,378.154832 148.053194,287.648597 C148.053194,287.648597 165.587607,205.517368 67.9591813,165.905698 L67.9591813,165.905698 Z"></path>
                                                    </g>
                                                </g>
                                                <mask id="mask-4" fill="white">
                                                    <use xlink:href="#path-3"></use>
                                                </mask>
                                                <g id="path-1"></g>
                                            </g>
                                        </g>
                                        <g id="Video-Communication" transform="translate(39.000000, 78.000000)" fill="#FFFFFF">
                                            <path d="M62.328,17 L68.616,0.992 L65.424,0.992 L60.576,13.928 L55.728,0.992 L52.536,0.992 L58.824,17 L62.328,17 Z M71.544,3.992 C72.408,3.992 73.104,3.296 73.104,2.432 C73.104,1.568 72.408,0.872 71.544,0.872 C70.68,0.872 69.984,1.568 69.984,2.432 C69.984,3.296 70.68,3.992 71.544,3.992 L71.544,3.992 Z M72.792,17 L72.792,5.408 L70.272,5.408 L70.272,17 L72.792,17 Z M86.736,17 L86.736,0.992 L84.216,0.992 L84.216,7.016 C83.304,5.768 81.96,5.12 80.496,5.12 C77.52,5.12 75.36,7.448 75.36,11.192 C75.36,15.032 77.544,17.288 80.496,17.288 C82.008,17.288 83.328,16.568 84.216,15.416 L84.216,17 L86.736,17 Z M81.24,15.056 C79.224,15.056 77.952,13.448 77.952,11.192 C77.952,8.96 79.224,7.352 81.24,7.352 C82.416,7.352 83.664,8.048 84.216,8.912 L84.216,13.496 C83.664,14.36 82.416,15.056 81.24,15.056 L81.24,15.056 Z M95.376,17.288 C97.2,17.288 98.904,16.688 100.08,15.584 L98.928,13.928 C98.088,14.768 96.768,15.224 95.616,15.224 C93.432,15.224 92.136,13.76 91.944,12.032 L100.872,12.032 L100.872,11.408 C100.872,7.76 98.664,5.12 95.184,5.12 C91.752,5.12 89.304,7.832 89.304,11.192 C89.304,14.864 91.872,17.288 95.376,17.288 L95.376,17.288 Z M98.448,10.232 L91.92,10.232 C92.016,8.84 93.024,7.184 95.16,7.184 C97.44,7.184 98.376,8.864 98.448,10.232 L98.448,10.232 Z M108.624,17.288 C112.32,17.288 114.576,14.504 114.576,11.192 C114.576,7.856 112.32,5.12 108.624,5.12 C104.928,5.12 102.672,7.856 102.672,11.192 C102.672,14.504 104.928,17.288 108.624,17.288 L108.624,17.288 Z M108.624,15.056 C106.488,15.056 105.288,13.256 105.288,11.192 C105.288,9.152 106.488,7.352 108.624,7.352 C110.784,7.352 111.96,9.152 111.96,11.192 C111.96,13.256 110.784,15.056 108.624,15.056 L108.624,15.056 Z" id="Video"></path>
                                            <path d="M8.964,47.288 C12.18,47.288 14.172,45.584 15.396,43.664 L12.996,42.464 C12.228,43.784 10.668,44.792 8.964,44.792 C5.796,44.792 3.444,42.344 3.444,39.008 C3.444,35.624 5.796,33.224 8.964,33.224 C10.668,33.224 12.228,34.208 12.996,35.552 L15.372,34.304 C14.196,32.384 12.18,30.728 8.964,30.728 C4.236,30.728 0.564,34.064 0.564,39.008 C0.564,43.928 4.236,47.288 8.964,47.288 L8.964,47.288 Z M22.812,47.288 C26.508,47.288 28.764,44.504 28.764,41.192 C28.764,37.856 26.508,35.12 22.812,35.12 C19.116,35.12 16.86,37.856 16.86,41.192 C16.86,44.504 19.116,47.288 22.812,47.288 L22.812,47.288 Z M22.812,45.056 C20.676,45.056 19.476,43.256 19.476,41.192 C19.476,39.152 20.676,37.352 22.812,37.352 C24.972,37.352 26.148,39.152 26.148,41.192 C26.148,43.256 24.972,45.056 22.812,45.056 L22.812,45.056 Z M48.084,47 L48.084,38.624 C48.084,36.272 46.86,35.12 44.748,35.12 C42.996,35.12 41.46,36.2 40.812,37.232 C40.428,35.984 39.372,35.12 37.644,35.12 C35.868,35.12 34.356,36.272 33.852,36.968 L33.852,35.408 L31.332,35.408 L31.332,47 L33.852,47 L33.852,38.888 C34.38,38.144 35.412,37.352 36.54,37.352 C37.908,37.352 38.436,38.192 38.436,39.44 L38.436,47 L40.956,47 L40.956,38.888 C41.46,38.12 42.516,37.352 43.644,37.352 C45.012,37.352 45.564,38.192 45.564,39.44 L45.564,47 L48.084,47 Z M68.1,47 L68.1,38.624 C68.1,36.272 66.876,35.12 64.764,35.12 C63.012,35.12 61.476,36.2 60.828,37.232 C60.444,35.984 59.388,35.12 57.66,35.12 C55.884,35.12 54.372,36.272 53.868,36.968 L53.868,35.408 L51.348,35.408 L51.348,47 L53.868,47 L53.868,38.888 C54.396,38.144 55.428,37.352 56.556,37.352 C57.924,37.352 58.452,38.192 58.452,39.44 L58.452,47 L60.972,47 L60.972,38.888 C61.476,38.12 62.532,37.352 63.66,37.352 C65.028,37.352 65.58,38.192 65.58,39.44 L65.58,47 L68.1,47 Z M81.708,47 L81.708,35.408 L79.188,35.408 L79.188,43.544 C78.612,44.312 77.508,45.056 76.236,45.056 C74.796,45.056 73.884,44.48 73.884,42.68 L73.884,35.408 L71.364,35.408 L71.364,43.616 C71.364,45.968 72.612,47.288 75.108,47.288 C76.932,47.288 78.372,46.376 79.188,45.464 L79.188,47 L81.708,47 Z M95.34,47 L95.34,38.84 C95.34,36.464 94.092,35.12 91.596,35.12 C89.772,35.12 88.26,36.056 87.492,36.968 L87.492,35.408 L84.972,35.408 L84.972,47 L87.492,47 L87.492,38.888 C88.092,38.12 89.196,37.352 90.468,37.352 C91.884,37.352 92.82,37.928 92.82,39.752 L92.82,47 L95.34,47 Z M99.876,33.992 C100.74,33.992 101.436,33.296 101.436,32.432 C101.436,31.568 100.74,30.872 99.876,30.872 C99.012,30.872 98.316,31.568 98.316,32.432 C98.316,33.296 99.012,33.992 99.876,33.992 L99.876,33.992 Z M101.124,47 L101.124,35.408 L98.604,35.408 L98.604,47 L101.124,47 Z M109.668,47.288 C111.948,47.288 113.292,46.304 114.108,45.224 L112.452,43.664 C111.804,44.576 110.916,45.056 109.788,45.056 C107.7,45.056 106.284,43.448 106.284,41.192 C106.284,38.936 107.7,37.352 109.788,37.352 C110.916,37.352 111.804,37.784 112.452,38.696 L114.108,37.184 C113.292,36.08 111.948,35.12 109.668,35.12 C106.164,35.12 103.692,37.688 103.692,41.192 C103.692,44.696 106.164,47.288 109.668,47.288 L109.668,47.288 Z M125.964,47 L125.964,39.296 C125.964,36.2 123.708,35.12 121.116,35.12 C119.268,35.12 117.588,35.696 116.244,36.992 L117.3,38.744 C118.284,37.736 119.436,37.256 120.732,37.256 C122.316,37.256 123.444,38.072 123.444,39.416 L123.444,41.144 C122.58,40.16 121.26,39.656 119.676,39.656 C117.78,39.656 115.668,40.76 115.668,43.448 C115.668,45.992 117.804,47.288 119.676,47.288 C121.212,47.288 122.58,46.736 123.444,45.728 L123.444,47 L125.964,47 Z M120.684,45.56 C119.268,45.56 118.188,44.744 118.188,43.472 C118.188,42.224 119.268,41.384 120.684,41.384 C121.764,41.384 122.844,41.792 123.444,42.584 L123.444,44.36 C122.844,45.152 121.764,45.56 120.684,45.56 L120.684,45.56 Z M132.732,47.288 C133.884,47.288 134.628,46.952 135.084,46.544 L134.484,44.624 C134.292,44.84 133.86,45.056 133.38,45.056 C132.66,45.056 132.276,44.456 132.276,43.664 L132.276,37.592 L134.628,37.592 L134.628,35.408 L132.276,35.408 L132.276,32.24 L129.756,32.24 L129.756,35.408 L127.836,35.408 L127.836,37.592 L129.756,37.592 L129.756,44.288 C129.756,46.232 130.764,47.288 132.732,47.288 L132.732,47.288 Z M138.156,33.992 C139.02,33.992 139.716,33.296 139.716,32.432 C139.716,31.568 139.02,30.872 138.156,30.872 C137.292,30.872 136.596,31.568 136.596,32.432 C136.596,33.296 137.292,33.992 138.156,33.992 L138.156,33.992 Z M139.404,47 L139.404,35.408 L136.884,35.408 L136.884,47 L139.404,47 Z M147.924,47.288 C151.62,47.288 153.876,44.504 153.876,41.192 C153.876,37.856 151.62,35.12 147.924,35.12 C144.228,35.12 141.972,37.856 141.972,41.192 C141.972,44.504 144.228,47.288 147.924,47.288 L147.924,47.288 Z M147.924,45.056 C145.788,45.056 144.588,43.256 144.588,41.192 C144.588,39.152 145.788,37.352 147.924,37.352 C150.084,37.352 151.26,39.152 151.26,41.192 C151.26,43.256 150.084,45.056 147.924,45.056 L147.924,45.056 Z M166.812,47 L166.812,38.84 C166.812,36.464 165.564,35.12 163.068,35.12 C161.244,35.12 159.732,36.056 158.964,36.968 L158.964,35.408 L156.444,35.408 L156.444,47 L158.964,47 L158.964,38.888 C159.564,38.12 160.668,37.352 161.94,37.352 C163.356,37.352 164.292,37.928 164.292,39.752 L164.292,47 L166.812,47 Z" id="Communication"></path>
                                        </g>
                                    </g>
                                    <g id="mobilité" transform="translate(713.000000, 129.000000)">
                                        <g id="Fill-1">
                                            <g id="path-3-link" transform="translate(1.000000, 1.000000)" fill="#07698D">
                                                <path d="M42.6465741,12.240798 C93.9592968,-27.7171121 130.663722,49.2496982 101.897499,71.0449219 C73.1312756,92.8401456 10.0107105,107.361148 0.663437224,135.020558 C0.663437224,135.020558 -8.66614874,52.1987081 42.6465741,12.240798 L42.6465741,12.240798 Z" id="path-3"></path>
                                            </g>
                                            <g id="Clipped">
                                                <mask id="mask-6" fill="white">
                                                    <use xlink:href="#path-5"></use>
                                                </mask>
                                                <g id="Rectangle-path"></g>
                                                <g id="path-3-link" mask="url(#mask-6)" stroke="#07698D" stroke-width="2">
                                                    <g transform="translate(1.000000, 1.000000)" id="path-3">
                                                        <path d="M42.6465741,12.240798 C93.9592968,-27.7171121 130.663722,49.2496982 101.897499,71.0449219 C73.1312756,92.8401456 10.0107105,107.361148 0.663437224,135.020558 C0.663437224,135.020558 -8.66614874,52.1987081 42.6465741,12.240798 L42.6465741,12.240798 Z"></path>
                                                    </g>
                                                </g>
                                                <mask id="mask-8" fill="white">
                                                    <use xlink:href="#path-7"></use>
                                                </mask>
                                                <g id="path-3"></g>
                                            </g>
                                        </g>
                                        <g id="Mobility" transform="translate(31.000000, 36.000000)" fill="#FFFFFF">
                                            <path d="M13.437,13 L13.437,0.994 L10.467,0.994 L7.209,9.238 L3.933,0.994 L0.963,0.994 L0.963,13 L3.069,13 L3.069,3.73 L6.759,13 L7.659,13 L11.331,3.73 L11.331,13 L13.437,13 Z M19.881,13.216 C22.653,13.216 24.345,11.128 24.345,8.644 C24.345,6.142 22.653,4.09 19.881,4.09 C17.109,4.09 15.417,6.142 15.417,8.644 C15.417,11.128 17.109,13.216 19.881,13.216 L19.881,13.216 Z M19.881,11.542 C18.279,11.542 17.379,10.192 17.379,8.644 C17.379,7.114 18.279,5.764 19.881,5.764 C21.501,5.764 22.383,7.114 22.383,8.644 C22.383,10.192 21.501,11.542 19.881,11.542 L19.881,11.542 Z M28.161,10.39 L28.161,6.934 C28.593,6.286 29.511,5.764 30.411,5.764 C31.905,5.764 32.859,6.97 32.859,8.644 C32.859,10.336 31.905,11.542 30.411,11.542 C29.511,11.542 28.593,11.038 28.161,10.39 L28.161,10.39 Z M28.161,13 L28.161,11.812 C28.827,12.676 29.835,13.216 30.951,13.216 C33.183,13.216 34.821,11.524 34.821,8.644 C34.821,5.836 33.201,4.09 30.951,4.09 C29.871,4.09 28.863,4.576 28.161,5.512 L28.161,0.994 L26.271,0.994 L26.271,13 L28.161,13 Z M37.683,3.244 C38.331,3.244 38.853,2.722 38.853,2.074 C38.853,1.426 38.331,0.904 37.683,0.904 C37.035,0.904 36.513,1.426 36.513,2.074 C36.513,2.722 37.035,3.244 37.683,3.244 L37.683,3.244 Z M38.619,13 L38.619,4.306 L36.729,4.306 L36.729,13 L38.619,13 Z M42.957,13 L42.957,0.994 L41.067,0.994 L41.067,13 L42.957,13 Z M46.359,3.244 C47.007,3.244 47.529,2.722 47.529,2.074 C47.529,1.426 47.007,0.904 46.359,0.904 C45.711,0.904 45.189,1.426 45.189,2.074 C45.189,2.722 45.711,3.244 46.359,3.244 L46.359,3.244 Z M47.295,13 L47.295,4.306 L45.405,4.306 L45.405,13 L47.295,13 Z M52.371,13.216 C53.235,13.216 53.793,12.964 54.135,12.658 L53.685,11.218 C53.541,11.38 53.217,11.542 52.857,11.542 C52.317,11.542 52.029,11.092 52.029,10.498 L52.029,5.944 L53.793,5.944 L53.793,4.306 L52.029,4.306 L52.029,1.93 L50.139,1.93 L50.139,4.306 L48.699,4.306 L48.699,5.944 L50.139,5.944 L50.139,10.966 C50.139,12.424 50.895,13.216 52.371,13.216 L52.371,13.216 Z M55.125,16.402 C55.377,16.474 55.917,16.528 56.187,16.528 C57.537,16.51 58.563,16.042 59.157,14.566 L63.351,4.306 L61.335,4.306 L58.797,10.822 L56.259,4.306 L54.225,4.306 L57.807,13.108 L57.375,14.098 C57.123,14.674 56.727,14.854 56.115,14.854 C55.899,14.854 55.593,14.8 55.395,14.71 L55.125,16.402 Z"></path>
                                        </g>
                                    </g>
                                    <g id="transparence" transform="translate(719.000000, 222.000000)">
                                        <path d="M43.8033006,146.069023 C55.0243095,136.861722 69.4032069,126.458594 87.3392126,115.900997 C141.838993,83.8204084 180.268433,83.8204084 181.665935,53.8786205 C183.063437,23.937308 150.922756,-19.5497441 79.6534178,9.67911006 C6.6972951,39.5999852 0.0892268376,112.010759 0.0302792086,149 C-3.65220354e-12,168 2.43398254,185.649674 0.0302792086,199.139329 C11.0752028,178.8288 25.9376359,160.728365 43.8033006,146.069023 L43.8033006,146.069023 Z" id="Page-1" stroke="#07698D" stroke-width="2" fill="#07698D"></path>
                                        <g id="Transparency" transform="translate(46.000000, 42.000000)" fill="#FFFFFF">
                                            <path d="M6.111,13 L6.111,2.848 L9.747,2.848 L9.747,0.994 L0.369,0.994 L0.369,2.848 L4.005,2.848 L4.005,13 L6.111,13 Z M12.015,13 L12.015,7.078 C12.393,6.448 13.455,5.908 14.265,5.908 C14.499,5.908 14.679,5.926 14.841,5.962 L14.841,4.09 C13.725,4.09 12.681,4.738 12.015,5.566 L12.015,4.306 L10.125,4.306 L10.125,13 L12.015,13 Z M23.589,13 L23.589,7.222 C23.589,4.9 21.897,4.09 19.953,4.09 C18.567,4.09 17.307,4.522 16.299,5.494 L17.091,6.808 C17.829,6.052 18.693,5.692 19.665,5.692 C20.853,5.692 21.699,6.304 21.699,7.312 L21.699,8.608 C21.051,7.87 20.061,7.492 18.873,7.492 C17.451,7.492 15.867,8.32 15.867,10.336 C15.867,12.244 17.469,13.216 18.873,13.216 C20.025,13.216 21.051,12.802 21.699,12.046 L21.699,13 L23.589,13 Z M19.629,11.92 C18.567,11.92 17.757,11.308 17.757,10.354 C17.757,9.418 18.567,8.788 19.629,8.788 C20.439,8.788 21.249,9.094 21.699,9.688 L21.699,11.02 C21.249,11.614 20.439,11.92 19.629,11.92 L19.629,11.92 Z M33.813,13 L33.813,6.88 C33.813,5.098 32.877,4.09 31.005,4.09 C29.637,4.09 28.503,4.792 27.927,5.476 L27.927,4.306 L26.037,4.306 L26.037,13 L27.927,13 L27.927,6.916 C28.377,6.34 29.205,5.764 30.159,5.764 C31.221,5.764 31.923,6.196 31.923,7.564 L31.923,13 L33.813,13 Z M39.249,13.216 C41.589,13.216 42.867,12.046 42.867,10.498 C42.867,7.042 37.611,8.194 37.611,6.664 C37.611,6.052 38.223,5.584 39.213,5.584 C40.311,5.584 41.265,6.052 41.787,6.628 L42.579,5.296 C41.805,4.612 40.689,4.09 39.213,4.09 C37.017,4.09 35.793,5.296 35.793,6.718 C35.793,10.066 41.049,8.842 41.049,10.552 C41.049,11.236 40.455,11.704 39.321,11.704 C38.205,11.704 36.999,11.128 36.387,10.498 L35.523,11.848 C36.423,12.73 37.755,13.216 39.249,13.216 L39.249,13.216 Z M49.437,13.216 C51.687,13.216 53.289,11.506 53.289,8.644 C53.289,5.782 51.687,4.09 49.437,4.09 C48.303,4.09 47.295,4.63 46.647,5.494 L46.647,4.306 L44.757,4.306 L44.757,16.312 L46.647,16.312 L46.647,11.794 C47.367,12.712 48.339,13.216 49.437,13.216 L49.437,13.216 Z M48.879,11.542 C47.997,11.542 47.061,11.002 46.647,10.354 L46.647,6.916 C47.079,6.268 47.997,5.764 48.879,5.764 C50.373,5.764 51.345,6.952 51.345,8.644 C51.345,10.336 50.373,11.542 48.879,11.542 L48.879,11.542 Z M62.397,13 L62.397,7.222 C62.397,4.9 60.705,4.09 58.761,4.09 C57.375,4.09 56.115,4.522 55.107,5.494 L55.899,6.808 C56.637,6.052 57.501,5.692 58.473,5.692 C59.661,5.692 60.507,6.304 60.507,7.312 L60.507,8.608 C59.859,7.87 58.869,7.492 57.681,7.492 C56.259,7.492 54.675,8.32 54.675,10.336 C54.675,12.244 56.277,13.216 57.681,13.216 C58.833,13.216 59.859,12.802 60.507,12.046 L60.507,13 L62.397,13 Z M58.437,11.92 C57.375,11.92 56.565,11.308 56.565,10.354 C56.565,9.418 57.375,8.788 58.437,8.788 C59.247,8.788 60.057,9.094 60.507,9.688 L60.507,11.02 C60.057,11.614 59.247,11.92 58.437,11.92 L58.437,11.92 Z M66.735,13 L66.735,7.078 C67.113,6.448 68.175,5.908 68.985,5.908 C69.219,5.908 69.399,5.926 69.561,5.962 L69.561,4.09 C68.445,4.09 67.401,4.738 66.735,5.566 L66.735,4.306 L64.845,4.306 L64.845,13 L66.735,13 Z M75.123,13.216 C76.491,13.216 77.769,12.766 78.651,11.938 L77.787,10.696 C77.157,11.326 76.167,11.668 75.303,11.668 C73.665,11.668 72.693,10.57 72.549,9.274 L79.245,9.274 L79.245,8.806 C79.245,6.07 77.589,4.09 74.979,4.09 C72.405,4.09 70.569,6.124 70.569,8.644 C70.569,11.398 72.495,13.216 75.123,13.216 L75.123,13.216 Z M77.427,7.924 L72.531,7.924 C72.603,6.88 73.359,5.638 74.961,5.638 C76.671,5.638 77.373,6.898 77.427,7.924 L77.427,7.924 Z M88.893,13 L88.893,6.88 C88.893,5.098 87.957,4.09 86.085,4.09 C84.717,4.09 83.583,4.792 83.007,5.476 L83.007,4.306 L81.117,4.306 L81.117,13 L83.007,13 L83.007,6.916 C83.457,6.34 84.285,5.764 85.239,5.764 C86.301,5.764 87.003,6.196 87.003,7.564 L87.003,13 L88.893,13 Z M95.301,13.216 C97.011,13.216 98.019,12.478 98.631,11.668 L97.389,10.498 C96.903,11.182 96.237,11.542 95.391,11.542 C93.825,11.542 92.763,10.336 92.763,8.644 C92.763,6.952 93.825,5.764 95.391,5.764 C96.237,5.764 96.903,6.088 97.389,6.772 L98.631,5.638 C98.019,4.81 97.011,4.09 95.301,4.09 C92.673,4.09 90.819,6.016 90.819,8.644 C90.819,11.272 92.673,13.216 95.301,13.216 L95.301,13.216 Z M99.945,16.402 C100.197,16.474 100.737,16.528 101.007,16.528 C102.357,16.51 103.383,16.042 103.977,14.566 L108.171,4.306 L106.155,4.306 L103.617,10.822 L101.079,4.306 L99.045,4.306 L102.627,13.108 L102.195,14.098 C101.943,14.674 101.547,14.854 100.935,14.854 C100.719,14.854 100.413,14.8 100.215,14.71 L99.945,16.402 Z"></path>
                                        </g>
                                    </g>
                                    <g id="cohésion" transform="translate(333.000000, 73.000000)">
                                        <g id="Page-1">
                                            <g id="path-5-link" transform="translate(1.000000, 1.000000)" fill="#07698D">
                                                <path d="M49.7405845,245.197875 C49.7405845,245.197875 -10.3616891,113.549655 2.72419601,58.5731692 C15,7 75.2637668,-30.6821249 114.220203,36.5491356 C153.176639,103.780396 63.1738383,271.858547 63.1738383,271.858547 L49.7405845,245.197875 L49.7405845,245.197875 Z" id="path-5"></path>
                                            </g>
                                            <g id="Clipped">
                                                <mask id="mask-10" fill="white">
                                                    <use xlink:href="#path-9"></use>
                                                </mask>
                                                <g id="Rectangle-path"></g>
                                                <g id="path-5-link" mask="url(#mask-10)" stroke="#07698D" stroke-width="2">
                                                    <g transform="translate(1.000000, 1.000000)" id="path-5">
                                                        <path d="M49.7405845,245.197875 C49.7405845,245.197875 -10.3616891,113.549655 2.72419601,58.5731692 C15,7 75.2637668,-30.6821249 114.220203,36.5491356 C153.176639,103.780396 63.1738383,271.858547 63.1738383,271.858547 L49.7405845,245.197875 L49.7405845,245.197875 Z"></path>
                                                    </g>
                                                </g>
                                                <mask id="mask-12" fill="white">
                                                    <use xlink:href="#path-11"></use>
                                                </mask>
                                                <g id="path-5"></g>
                                            </g>
                                        </g>
                                        <g id="Cohesion" transform="translate(26.000000, 65.000000)" fill="#FFFFFF">
                                            <path d="M6.432,13.216 C8.844,13.216 10.338,11.938 11.256,10.498 L9.456,9.598 C8.88,10.588 7.71,11.344 6.432,11.344 C4.056,11.344 2.292,9.508 2.292,7.006 C2.292,4.468 4.056,2.668 6.432,2.668 C7.71,2.668 8.88,3.406 9.456,4.414 L11.238,3.478 C10.356,2.038 8.844,0.796 6.432,0.796 C2.886,0.796 0.132,3.298 0.132,7.006 C0.132,10.696 2.886,13.216 6.432,13.216 L6.432,13.216 Z M16.818,13.216 C19.59,13.216 21.282,11.128 21.282,8.644 C21.282,6.142 19.59,4.09 16.818,4.09 C14.046,4.09 12.354,6.142 12.354,8.644 C12.354,11.128 14.046,13.216 16.818,13.216 L16.818,13.216 Z M16.818,11.542 C15.216,11.542 14.316,10.192 14.316,8.644 C14.316,7.114 15.216,5.764 16.818,5.764 C18.438,5.764 19.32,7.114 19.32,8.644 C19.32,10.192 18.438,11.542 16.818,11.542 L16.818,11.542 Z M30.984,13 L30.984,6.844 C30.984,5.062 30.048,4.09 28.176,4.09 C26.808,4.09 25.692,4.792 25.116,5.476 L25.116,0.994 L23.226,0.994 L23.226,13 L25.116,13 L25.116,6.916 C25.548,6.34 26.376,5.764 27.348,5.764 C28.41,5.764 29.094,6.16 29.094,7.528 L29.094,13 L30.984,13 Z M37.464,13.216 C38.832,13.216 40.11,12.766 40.992,11.938 L40.128,10.696 C39.498,11.326 38.508,11.668 37.644,11.668 C36.006,11.668 35.034,10.57 34.89,9.274 L41.586,9.274 L41.586,8.806 C41.586,6.07 39.93,4.09 37.32,4.09 C34.746,4.09 32.91,6.124 32.91,8.644 C32.91,11.398 34.836,13.216 37.464,13.216 L37.464,13.216 Z M39.768,7.924 L34.872,7.924 C34.944,6.88 35.7,5.638 37.302,5.638 C39.012,5.638 39.714,6.898 39.768,7.924 L39.768,7.924 Z M46.446,13.216 C48.786,13.216 50.064,12.046 50.064,10.498 C50.064,7.042 44.808,8.194 44.808,6.664 C44.808,6.052 45.42,5.584 46.41,5.584 C47.508,5.584 48.462,6.052 48.984,6.628 L49.776,5.296 C49.002,4.612 47.886,4.09 46.41,4.09 C44.214,4.09 42.99,5.296 42.99,6.718 C42.99,10.066 48.246,8.842 48.246,10.552 C48.246,11.236 47.652,11.704 46.518,11.704 C45.402,11.704 44.196,11.128 43.584,10.498 L42.72,11.848 C43.62,12.73 44.952,13.216 46.446,13.216 L46.446,13.216 Z M52.908,3.244 C53.556,3.244 54.078,2.722 54.078,2.074 C54.078,1.426 53.556,0.904 52.908,0.904 C52.26,0.904 51.738,1.426 51.738,2.074 C51.738,2.722 52.26,3.244 52.908,3.244 L52.908,3.244 Z M53.844,13 L53.844,4.306 L51.954,4.306 L51.954,13 L53.844,13 Z M60.234,13.216 C63.006,13.216 64.698,11.128 64.698,8.644 C64.698,6.142 63.006,4.09 60.234,4.09 C57.462,4.09 55.77,6.142 55.77,8.644 C55.77,11.128 57.462,13.216 60.234,13.216 L60.234,13.216 Z M60.234,11.542 C58.632,11.542 57.732,10.192 57.732,8.644 C57.732,7.114 58.632,5.764 60.234,5.764 C61.854,5.764 62.736,7.114 62.736,8.644 C62.736,10.192 61.854,11.542 60.234,11.542 L60.234,11.542 Z M74.4,13 L74.4,6.88 C74.4,5.098 73.464,4.09 71.592,4.09 C70.224,4.09 69.09,4.792 68.514,5.476 L68.514,4.306 L66.624,4.306 L66.624,13 L68.514,13 L68.514,6.916 C68.964,6.34 69.792,5.764 70.746,5.764 C71.808,5.764 72.51,6.196 72.51,7.564 L72.51,13 L74.4,13 Z"></path>
                                        </g>
                                    </g>
                                    <g id="teletravail" transform="translate(56.000000, 327.000000)">
                                        <g id="Fill-1">
                                            <g id="path-7-link" transform="translate(2.000000, 2.000000)" fill="#07698D">
                                                <path d="M42.9751106,95 C-22.041407,95 -6.05373875,21.3483146 42.9751106,7.47191011 C92.00396,-6.40449438 174.07399,-4.26966292 201.785949,42.6966292 C230.884427,92.0127979 270,95 270,95 L42.9751106,95 L42.9751106,95 Z" id="path-7"></path>
                                            </g>
                                            <g id="Clipped">
                                                <mask id="mask-14" fill="white">
                                                    <use xlink:href="#path-13"></use>
                                                </mask>
                                                <g id="Rectangle-path"></g>
                                                <g id="path-7-link" mask="url(#mask-14)" stroke="#07698D" stroke-width="2.1316891">
                                                    <g transform="translate(2.000000, 2.000000)" id="path-7">
                                                        <path d="M42.9751106,95 C-22.041407,95 -6.05373875,21.3483146 42.9751106,7.47191011 C92.00396,-6.40449438 174.07399,-4.26966292 201.785949,42.6966292 C230.884427,92.0127979 270,95 270,95 L42.9751106,95 L42.9751106,95 Z"></path>
                                                    </g>
                                                </g>
                                                <mask id="mask-16" fill="white">
                                                    <use xlink:href="#path-15"></use>
                                                </mask>
                                                <g id="path-7"></g>
                                            </g>
                                        </g>
                                        <g id="Remote-work" transform="translate(37.000000, 42.000000)" fill="#FFFFFF">
                                            <path d="M13.3,17 L9.364,10.712 C11.308,10.4 13.18,8.84 13.18,6.008 C13.18,3.032 11.092,0.992 7.924,0.992 L0.892,0.992 L0.892,17 L3.7,17 L3.7,11.024 L6.508,11.024 L10.036,17 L13.3,17 Z M7.564,8.552 L3.7,8.552 L3.7,3.464 L7.564,3.464 C9.148,3.464 10.3,4.448 10.3,5.984 C10.3,7.544 9.148,8.552 7.564,8.552 L7.564,8.552 Z M20.572,17.288 C22.396,17.288 24.1,16.688 25.276,15.584 L24.124,13.928 C23.284,14.768 21.964,15.224 20.812,15.224 C18.628,15.224 17.332,13.76 17.14,12.032 L26.068,12.032 L26.068,11.408 C26.068,7.76 23.86,5.12 20.38,5.12 C16.948,5.12 14.5,7.832 14.5,11.192 C14.5,14.864 17.068,17.288 20.572,17.288 L20.572,17.288 Z M23.644,10.232 L17.116,10.232 C17.212,8.84 18.22,7.184 20.356,7.184 C22.636,7.184 23.572,8.864 23.644,10.232 L23.644,10.232 Z M45.316,17 L45.316,8.624 C45.316,6.272 44.092,5.12 41.98,5.12 C40.228,5.12 38.692,6.2 38.044,7.232 C37.66,5.984 36.604,5.12 34.876,5.12 C33.1,5.12 31.588,6.272 31.084,6.968 L31.084,5.408 L28.564,5.408 L28.564,17 L31.084,17 L31.084,8.888 C31.612,8.144 32.644,7.352 33.772,7.352 C35.14,7.352 35.668,8.192 35.668,9.44 L35.668,17 L38.188,17 L38.188,8.888 C38.692,8.12 39.748,7.352 40.876,7.352 C42.244,7.352 42.796,8.192 42.796,9.44 L42.796,17 L45.316,17 Z M53.836,17.288 C57.532,17.288 59.788,14.504 59.788,11.192 C59.788,7.856 57.532,5.12 53.836,5.12 C50.14,5.12 47.884,7.856 47.884,11.192 C47.884,14.504 50.14,17.288 53.836,17.288 L53.836,17.288 Z M53.836,15.056 C51.7,15.056 50.5,13.256 50.5,11.192 C50.5,9.152 51.7,7.352 53.836,7.352 C55.996,7.352 57.172,9.152 57.172,11.192 C57.172,13.256 55.996,15.056 53.836,15.056 L53.836,15.056 Z M65.86,17.288 C67.012,17.288 67.756,16.952 68.212,16.544 L67.612,14.624 C67.42,14.84 66.988,15.056 66.508,15.056 C65.788,15.056 65.404,14.456 65.404,13.664 L65.404,7.592 L67.756,7.592 L67.756,5.408 L65.404,5.408 L65.404,2.24 L62.884,2.24 L62.884,5.408 L60.964,5.408 L60.964,7.592 L62.884,7.592 L62.884,14.288 C62.884,16.232 63.892,17.288 65.86,17.288 L65.86,17.288 Z M75.388,17.288 C77.212,17.288 78.916,16.688 80.092,15.584 L78.94,13.928 C78.1,14.768 76.78,15.224 75.628,15.224 C73.444,15.224 72.148,13.76 71.956,12.032 L80.884,12.032 L80.884,11.408 C80.884,7.76 78.676,5.12 75.196,5.12 C71.764,5.12 69.316,7.832 69.316,11.192 C69.316,14.864 71.884,17.288 75.388,17.288 L75.388,17.288 Z M78.46,10.232 L71.932,10.232 C72.028,8.84 73.036,7.184 75.172,7.184 C77.452,7.184 78.388,8.864 78.46,10.232 L78.46,10.232 Z M102.34,17 L105.94,5.408 L103.3,5.408 L100.852,13.832 L98.116,5.408 L95.884,5.408 L93.124,13.832 L90.676,5.408 L88.06,5.408 L91.66,17 L94.3,17 L96.988,8.504 L99.7,17 L102.34,17 Z M112.948,17.288 C116.644,17.288 118.9,14.504 118.9,11.192 C118.9,7.856 116.644,5.12 112.948,5.12 C109.252,5.12 106.996,7.856 106.996,11.192 C106.996,14.504 109.252,17.288 112.948,17.288 L112.948,17.288 Z M112.948,15.056 C110.812,15.056 109.612,13.256 109.612,11.192 C109.612,9.152 110.812,7.352 112.948,7.352 C115.108,7.352 116.284,9.152 116.284,11.192 C116.284,13.256 115.108,15.056 112.948,15.056 L112.948,15.056 Z M123.988,17 L123.988,9.104 C124.492,8.264 125.908,7.544 126.988,7.544 C127.3,7.544 127.54,7.568 127.756,7.616 L127.756,5.12 C126.268,5.12 124.876,5.984 123.988,7.088 L123.988,5.408 L121.468,5.408 L121.468,17 L123.988,17 Z M140.644,17 L135.748,10.664 L140.548,5.408 L137.428,5.408 L132.316,11 L132.316,0.992 L129.796,0.992 L129.796,17 L132.316,17 L132.316,13.88 L133.948,12.2 L137.476,17 L140.644,17 Z"></path>
                                        </g>
                                    </g>
                                    <g id="productivité" transform="translate(393.000000, 197.000000)">
                                        <g id="Page-1">
                                            <g id="path-9-link" transform="translate(1.000000, 1.000000)" fill="#07698D">
                                                <path d="M63.8294911,60.4472859 C80,-30 188.946613,-6.55138448 202.145186,50.3198276 C213.886522,100.911845 178.900821,139.324384 142,167 C110,191 0,222.309958 0,222.309958 C0,222.309958 47.6589823,150.894572 63.8294911,60.4472859 L63.8294911,60.4472859 Z" id="path-9"></path>
                                            </g>
                                            <g id="Clipped">
                                                <mask id="mask-18" fill="white">
                                                    <use xlink:href="#path-17"></use>
                                                </mask>
                                                <g id="Rectangle-path"></g>
                                                <g id="path-9-link" mask="url(#mask-18)" stroke="#07698D" stroke-width="2">
                                                    <g transform="translate(1.000000, 1.000000)" id="path-9">
                                                        <path d="M63.8294911,60.4472859 C80,-30 188.946613,-6.55138448 202.145186,50.3198276 C213.886522,100.911845 178.900821,139.324384 142,167 C110,191 0,222.309958 0,222.309958 C0,222.309958 47.6589823,150.894572 63.8294911,60.4472859 L63.8294911,60.4472859 Z"></path>
                                                    </g>
                                                </g>
                                                <mask id="mask-20" fill="white">
                                                    <use xlink:href="#path-19"></use>
                                                </mask>
                                                <g id="path-9"></g>
                                            </g>
                                        </g>
                                        <g id="Productivity" transform="translate(83.000000, 67.000000)" fill="#FFFFFF">
                                            <path d="M2.666,13 L2.666,8.5 L5.852,8.5 C8.354,8.5 9.758,6.79 9.758,4.756 C9.758,2.704 8.372,0.994 5.852,0.994 L0.56,0.994 L0.56,13 L2.666,13 Z M5.564,6.646 L2.666,6.646 L2.666,2.848 L5.564,2.848 C6.752,2.848 7.598,3.604 7.598,4.756 C7.598,5.89 6.752,6.646 5.564,6.646 L5.564,6.646 Z M13.358,13 L13.358,7.078 C13.736,6.448 14.798,5.908 15.608,5.908 C15.842,5.908 16.022,5.926 16.184,5.962 L16.184,4.09 C15.068,4.09 14.024,4.738 13.358,5.566 L13.358,4.306 L11.468,4.306 L11.468,13 L13.358,13 Z M21.656,13.216 C24.428,13.216 26.12,11.128 26.12,8.644 C26.12,6.142 24.428,4.09 21.656,4.09 C18.884,4.09 17.192,6.142 17.192,8.644 C17.192,11.128 18.884,13.216 21.656,13.216 L21.656,13.216 Z M21.656,11.542 C20.054,11.542 19.154,10.192 19.154,8.644 C19.154,7.114 20.054,5.764 21.656,5.764 C23.276,5.764 24.158,7.114 24.158,8.644 C24.158,10.192 23.276,11.542 21.656,11.542 L21.656,11.542 Z M36.056,13 L36.056,0.994 L34.166,0.994 L34.166,5.512 C33.482,4.576 32.474,4.09 31.376,4.09 C29.144,4.09 27.524,5.836 27.524,8.644 C27.524,11.524 29.162,13.216 31.376,13.216 C32.51,13.216 33.5,12.676 34.166,11.812 L34.166,13 L36.056,13 Z M31.934,11.542 C30.422,11.542 29.468,10.336 29.468,8.644 C29.468,6.97 30.422,5.764 31.934,5.764 C32.816,5.764 33.752,6.286 34.166,6.934 L34.166,10.372 C33.752,11.02 32.816,11.542 31.934,11.542 L31.934,11.542 Z M46.262,13 L46.262,4.306 L44.372,4.306 L44.372,10.408 C43.94,10.984 43.112,11.542 42.158,11.542 C41.078,11.542 40.394,11.11 40.394,9.76 L40.394,4.306 L38.504,4.306 L38.504,10.462 C38.504,12.226 39.44,13.216 41.312,13.216 C42.68,13.216 43.76,12.532 44.372,11.848 L44.372,13 L46.262,13 Z M52.67,13.216 C54.38,13.216 55.388,12.478 56,11.668 L54.758,10.498 C54.272,11.182 53.606,11.542 52.76,11.542 C51.194,11.542 50.132,10.336 50.132,8.644 C50.132,6.952 51.194,5.764 52.76,5.764 C53.606,5.764 54.272,6.088 54.758,6.772 L56,5.638 C55.388,4.81 54.38,4.09 52.67,4.09 C50.042,4.09 48.188,6.016 48.188,8.644 C48.188,11.272 50.042,13.216 52.67,13.216 L52.67,13.216 Z M60.302,13.216 C61.166,13.216 61.724,12.964 62.066,12.658 L61.616,11.218 C61.472,11.38 61.148,11.542 60.788,11.542 C60.248,11.542 59.96,11.092 59.96,10.498 L59.96,5.944 L61.724,5.944 L61.724,4.306 L59.96,4.306 L59.96,1.93 L58.07,1.93 L58.07,4.306 L56.63,4.306 L56.63,5.944 L58.07,5.944 L58.07,10.966 C58.07,12.424 58.826,13.216 60.302,13.216 L60.302,13.216 Z M64.37,3.244 C65.018,3.244 65.54,2.722 65.54,2.074 C65.54,1.426 65.018,0.904 64.37,0.904 C63.722,0.904 63.2,1.426 63.2,2.074 C63.2,2.722 63.722,3.244 64.37,3.244 L64.37,3.244 Z M65.306,13 L65.306,4.306 L63.416,4.306 L63.416,13 L65.306,13 Z M72.074,13 L75.62,4.306 L73.604,4.306 L71.066,10.822 L68.528,4.306 L66.494,4.306 L70.04,13 L72.074,13 Z M77.762,3.244 C78.41,3.244 78.932,2.722 78.932,2.074 C78.932,1.426 78.41,0.904 77.762,0.904 C77.114,0.904 76.592,1.426 76.592,2.074 C76.592,2.722 77.114,3.244 77.762,3.244 L77.762,3.244 Z M78.698,13 L78.698,4.306 L76.808,4.306 L76.808,13 L78.698,13 Z M83.774,13.216 C84.638,13.216 85.196,12.964 85.538,12.658 L85.088,11.218 C84.944,11.38 84.62,11.542 84.26,11.542 C83.72,11.542 83.432,11.092 83.432,10.498 L83.432,5.944 L85.196,5.944 L85.196,4.306 L83.432,4.306 L83.432,1.93 L81.542,1.93 L81.542,4.306 L80.102,4.306 L80.102,5.944 L81.542,5.944 L81.542,10.966 C81.542,12.424 82.298,13.216 83.774,13.216 L83.774,13.216 Z M86.528,16.402 C86.78,16.474 87.32,16.528 87.59,16.528 C88.94,16.51 89.966,16.042 90.56,14.566 L94.754,4.306 L92.738,4.306 L90.2,10.822 L87.662,4.306 L85.628,4.306 L89.21,13.108 L88.778,14.098 C88.526,14.674 88.13,14.854 87.518,14.854 C87.302,14.854 86.996,14.8 86.798,14.71 L86.528,16.402 Z"></path>
                                        </g>
                                    </g>
                                </g>
                            </g>
                        </g>
                    </g>
                </g>
            </g>
        </g>
    </g>
</svg>