<?xml version="1.0" encoding="UTF-8"?>
<svg width="620px" height="274px" viewBox="0 0 620 274" version="1.1" xmlns="http://www.w3.org/2000/svg" xmlns:xlink="http://www.w3.org/1999/xlink">
    <!-- Generator: Sketch 40.3 (33839) - http://www.bohemiancoding.com/sketch -->
    <title>illus</title>
    <desc>Created with Sketch.</desc>
    <defs></defs>
    <g id="Voeux-2016" stroke="none" stroke-width="1" fill="none" fill-rule="evenodd">
        <g id="Voeux_2016_wisembly_EN" transform="translate(0.000000, -2380.000000)">
            <g id="2/-INNOVATION" transform="translate(-68.000000, 1796.000000)">
                <g id="#Meilleure-compréhension" transform="translate(0.000000, 584.000000)">
                    <g id="illus">
                        <polygon id="Fill-1" fill="#D5D9DA" points="0.159945813 273.665064 687.159946 273.665064 687.159946 266.662339 0.159945813 266.662339"></polygon>
                        <g id="timeline" transform="translate(263.000000, 1.000000)">
                            <polygon id="Fill-1" fill="#D5D9DA" points="0.167902813 192.903151 129.835754 192.903151 129.835754 0.500446412 0.167902813 0.500446412"></polygon>
                            <polygon id="Fill-2" fill="#FFFFFF" points="0 190.408894 126.342711 190.408894 126.342711 0.332301734 0 0.332301734"></polygon>
                            <polygon id="Fill-3" fill="#08688D" points="13.1290026 51.5792106 25.7719182 51.5792106 25.7719182 18.2470205 13.1290026 18.2470205"></polygon>
                            <polygon id="Fill-4" fill="#41A07A" points="13.1290026 22.3379872 25.7719182 22.3379872 25.7719182 18.2470205 13.1290026 18.2470205"></polygon>
                            <polygon id="Fill-5" fill="#08688D" points="27.9287212 51.5792106 40.5716368 51.5792106 40.5716368 35.376178 27.9287212 35.376178"></polygon>
                            <polygon id="Fill-6" fill="#08688D" points="100.429488 51.5792106 113.072404 51.5792106 113.072404 35.376178 100.429488 35.376178"></polygon>
                            <polygon id="Fill-7" fill="#08688D" points="42.5578772 51.5792106 55.2007928 51.5792106 55.2007928 19.99094 42.5578772 19.99094"></polygon>
                            <polygon id="Fill-8" fill="#E25C5B" points="42.5578772 51.5792106 55.2007928 51.5792106 55.2007928 39.8904971 42.5578772 39.8904971"></polygon>
                            <polygon id="Fill-9" fill="#08688D" points="57.2977494 51.5792106 69.940665 51.5792106 69.940665 31.849792 57.2977494 31.849792"></polygon>
                            <polygon id="Fill-10" fill="#08688D" points="71.5944246 51.5792106 84.2373402 51.5792106 84.2373402 31.849792 71.5944246 31.849792"></polygon>
                            <polygon id="Fill-11" fill="#41A07A" points="71.5944246 51.5792106 84.2373402 51.5792106 84.2373402 41.7145013 71.5944246 41.7145013"></polygon>
                            <polygon id="Fill-12" fill="#08688D" points="86.0021483 51.5792106 98.6450639 51.5792106 98.6450639 11.8518737 86.0021483 11.8518737"></polygon>
                            <polygon id="Fill-13" fill="#41A07A" points="86.0021483 51.5792106 98.6450639 51.5792106 98.6450639 34.1489877 86.0021483 34.1489877"></polygon>
                            <polygon id="Fill-14" fill="#E25C5B" points="86.0021483 18.455706 98.6450639 18.455706 98.6450639 11.852206 86.0021483 11.852206"></polygon>
                            <polygon id="Fill-15" fill="#08688D" points="0 52.0603835 126.342711 52.0603835 126.342711 51.3954478 0 51.3954478"></polygon>
                            <polygon id="Fill-16" fill="#BAC1C3" points="64.1691304 190.751829 64.8340921 190.751829 64.8340921 52.17104 64.1691304 52.17104"></polygon>
                            <g id="Group-60" transform="translate(0.000000, 0.168145)">
                                <path d="M66.1255806,65.5547914 C66.1255806,66.411133 65.4310281,67.1056436 64.5738926,67.1056436 C63.7170895,67.1056436 63.0225371,66.411133 63.0225371,65.5547914 C63.0225371,64.6984499 63.7170895,64.0039392 64.5738926,64.0039392 C65.4310281,64.0039392 66.1255806,64.6984499 66.1255806,65.5547914 Z" id="Fill-17" fill="#BAC1C3"></path>
                                <path d="M66.1256803,109.752384 C66.1256803,110.608726 65.4311279,111.303236 64.5739923,111.303236 C63.7171893,111.303236 63.0226368,110.608726 63.0226368,109.752384 C63.0226368,108.896043 63.7171893,108.201532 64.5739923,108.201532 C65.4311279,108.201532 66.1256803,108.896043 66.1256803,109.752384" id="Fill-19" fill="#BAC1C3"></path>
                                <path d="M66.1256803,142.984651 C66.1256803,143.840993 65.4311279,144.535503 64.5739923,144.535503 C63.7171893,144.535503 63.0226368,143.840993 63.0226368,142.984651 C63.0226368,142.12831 63.7171893,141.433799 64.5739923,141.433799 C65.4311279,141.433799 66.1256803,142.12831 66.1256803,142.984651" id="Fill-21" fill="#BAC1C3"></path>
                                <path d="M66.1257801,86.4912961 C66.1257801,87.3476376 65.4312276,88.0421482 64.5740921,88.0421482 C63.717289,88.0421482 63.0227366,87.3476376 63.0227366,86.4912961 C63.0227366,85.6349545 63.717289,84.9404439 64.5740921,84.9404439 C65.4312276,84.9404439 66.1257801,85.6349545 66.1257801,86.4912961" id="Fill-23" fill="#BAC1C3"></path>
                                <path d="M116.011568,72.6058355 L75.9406471,72.6058355 C74.519624,72.6058355 73.367578,71.45441 73.367578,70.03382 L73.367578,64.1009049 C73.367578,62.6806473 74.519624,61.5292218 75.9406471,61.5292218 L116.011568,61.5292218 C117.432591,61.5292218 118.584969,62.6806473 118.584969,64.1009049 L118.584969,70.03382 C118.584969,71.45441 117.432591,72.6058355 116.011568,72.6058355" id="Fill-25" fill="#D5D9DA"></path>
                                <path d="M57.7165754,115.140457 L17.6456547,115.140457 C16.2246317,115.140457 15.0725857,113.989032 15.0725857,112.568442 L15.0725857,106.635527 C15.0725857,105.215269 16.2246317,104.063844 17.6456547,104.063844 L57.7165754,104.063844 C59.1375985,104.063844 60.289977,105.215269 60.289977,106.635527 L60.289977,112.568442 C60.289977,113.989032 59.1375985,115.140457 57.7165754,115.140457" id="Fill-27" fill="#D5D9DA"></path>
                                <path d="M58.5356752,147.778702 L18.4647545,147.778702 C17.0437315,147.778702 15.8916854,146.627276 15.8916854,145.206686 L15.8916854,139.273771 C15.8916854,137.853514 17.0437315,136.702088 18.4647545,136.702088 L58.5356752,136.702088 C59.9566982,136.702088 61.1090767,137.853514 61.1090767,139.273771 L61.1090767,145.206686 C61.1090767,146.627276 59.9566982,147.778702 58.5356752,147.778702" id="Fill-29" fill="#D5D9DA"></path>
                                <path d="M112.175903,171.287322 L72.1049821,171.287322 C70.6839591,171.287322 69.531913,170.135896 69.531913,168.715306 L69.531913,139.938308 C69.531913,138.518051 70.6839591,137.366625 72.1049821,137.366625 L112.175903,137.366625 C113.596926,137.366625 114.749304,138.518051 114.749304,139.938308 L114.749304,168.715306 C114.749304,170.135896 113.596926,171.287322 112.175903,171.287322" id="Fill-31" fill="#D5D9DA"></path>
                                <path d="M56.8299821,77.7089267 L16.7590614,77.7089267 C15.3380384,77.7089267 14.1859923,76.5575012 14.1859923,75.1369113 L14.1859923,62.3286733 C14.1859923,60.9084157 15.3380384,59.7569901 16.7590614,59.7569901 L56.8299821,59.7569901 C58.2510051,59.7569901 59.4033836,60.9084157 59.4033836,62.3286733 L59.4033836,75.1369113 C59.4033836,76.5575012 58.2510051,77.7089267 56.8299821,77.7089267" id="Fill-33" fill="#D5D9DA"></path>
                                <path d="M115.789903,102.742313 L75.7189821,102.742313 C74.2979591,102.742313 73.145913,101.590887 73.145913,100.170298 L73.145913,87.3620595 C73.145913,85.9418019 74.2979591,84.7903764 75.7189821,84.7903764 L115.789903,84.7903764 C117.210926,84.7903764 118.363304,85.9418019 118.363304,87.3620595 L118.363304,100.170298 C118.363304,101.590887 117.210926,102.742313 115.789903,102.742313" id="Fill-35" fill="#D5D9DA"></path>
                                <polygon id="Fill-37" fill="#F2BC33" points="114.373402 87.283304 114.943274 88.4370556 116.21734 88.6221477 115.295371 89.5203593 115.512813 90.7884227 114.373402 90.189615 113.23399 90.7884227 113.451432 89.5203593 112.529463 88.6221477 113.803529 88.4370556"></polygon>
                                <polygon id="Fill-39" fill="#F2BC33" points="109.386189 139.786945 109.956061 140.940696 111.230128 141.125788 110.308159 142.024 110.525601 143.292064 109.386189 142.693256 108.246777 143.292064 108.46422 142.024 107.542251 141.125788 108.816317 140.940696"></polygon>
                                <polygon id="Fill-41" fill="#FFFFFF" points="17.5107673 74.1564551 28.8151151 74.1564551 28.8151151 61.9719474 17.5107673 61.9719474"></polygon>
                                <path d="M112.053583,65.627499 L79.6217417,65.627499 C79.2586726,65.627499 78.9640946,65.5188364 78.9640946,65.2951973 C78.9640946,65.0715582 79.2586726,64.9628956 79.6217417,64.9628956 L112.053583,64.9628956 C112.416652,64.9628956 112.710898,65.0715582 112.710898,65.2951973 C112.710898,65.5188364 112.416652,65.627499 112.053583,65.627499" id="Fill-43" fill="#708188"></path>
                                <path d="M112.053583,69.2828181 L79.6217417,69.2828181 C79.2586726,69.2828181 78.9640946,69.1741555 78.9640946,68.9505164 C78.9640946,68.7268773 79.2586726,68.6182147 79.6217417,68.6182147 L112.053583,68.6182147 C112.416652,68.6182147 112.710898,68.7268773 112.710898,68.9505164 C112.710898,69.1741555 112.416652,69.2828181 112.053583,69.2828181" id="Fill-44" fill="#708188"></path>
                                <path d="M54.8227954,64.2982921 L31.5584476,64.2982921 C31.2981151,64.2982921 31.0869898,64.1896294 31.0869898,63.9659904 C31.0869898,63.7423513 31.2981151,63.6336886 31.5584476,63.6336886 L54.8227954,63.6336886 C55.0831279,63.6336886 55.2942532,63.7423513 55.2942532,63.9659904 C55.2942532,64.1896294 55.0831279,64.2982921 54.8227954,64.2982921" id="Fill-45" fill="#708188"></path>
                                <path d="M54.8227954,67.9536112 L31.5584476,67.9536112 C31.2981151,67.9536112 31.0869898,67.8449485 31.0869898,67.6213095 C31.0869898,67.3976704 31.2981151,67.2890077 31.5584476,67.2890077 L54.8227954,67.2890077 C55.0831279,67.2890077 55.2942532,67.3976704 55.2942532,67.6213095 C55.2942532,67.8449485 55.0831279,67.9536112 54.8227954,67.9536112" id="Fill-46" fill="#708188"></path>
                                <path d="M54.8227954,71.6089303 L31.5584476,71.6089303 C31.2981151,71.6089303 31.0869898,71.5002676 31.0869898,71.2766285 C31.0869898,71.0529895 31.2981151,70.9443268 31.5584476,70.9443268 L54.8227954,70.9443268 C55.0831279,70.9443268 55.2942532,71.0529895 55.2942532,71.2766285 C55.2942532,71.5002676 55.0831279,71.6089303 54.8227954,71.6089303" id="Fill-47" fill="#708188"></path>
                                <path d="M111.056141,91.8793361 L78.6242992,91.8793361 C78.2612302,91.8793361 77.9666522,91.7706734 77.9666522,91.5470343 C77.9666522,91.3233953 78.2612302,91.2147326 78.6242992,91.2147326 L111.056141,91.2147326 C111.41921,91.2147326 111.713455,91.3233953 111.713455,91.5470343 C111.713455,91.7706734 111.41921,91.8793361 111.056141,91.8793361" id="Fill-48" fill="#708188"></path>
                                <path d="M54.2019207,109.491328 L21.7700793,109.491328 C21.4070102,109.491328 21.1124322,109.382665 21.1124322,109.159026 C21.1124322,108.935387 21.4070102,108.826725 21.7700793,108.826725 L54.2019207,108.826725 C54.5649898,108.826725 54.8592353,108.935387 54.8592353,109.159026 C54.8592353,109.382665 54.5649898,109.491328 54.2019207,109.491328" id="Fill-49" fill="#708188"></path>
                                <path d="M54.2019207,142.3892 L21.7700793,142.3892 C21.4070102,142.3892 21.1124322,142.280537 21.1124322,142.056898 C21.1124322,141.833259 21.4070102,141.724596 21.7700793,141.724596 L54.2019207,141.724596 C54.5649898,141.724596 54.8592353,141.833259 54.8592353,142.056898 C54.8592353,142.280537 54.5649898,142.3892 54.2019207,142.3892" id="Fill-50" fill="#708188"></path>
                                <path d="M111.056141,95.5346551 L78.6242992,95.5346551 C78.2612302,95.5346551 77.9666522,95.4259925 77.9666522,95.2023534 C77.9666522,94.9787143 78.2612302,94.8700517 78.6242992,94.8700517 L111.056141,94.8700517 C111.41921,94.8700517 111.713455,94.9787143 111.713455,95.2023534 C111.713455,95.4259925 111.41921,95.5346551 111.056141,95.5346551" id="Fill-51" fill="#708188"></path>
                                <path d="M111.056141,99.1899742 L78.6242992,99.1899742 C78.2612302,99.1899742 77.9666522,99.0813116 77.9666522,98.8576725 C77.9666522,98.6340334 78.2612302,98.5253708 78.6242992,98.5253708 L111.056141,98.5253708 C111.41921,98.5253708 111.713455,98.6340334 111.713455,98.8576725 C111.713455,99.0813116 111.41921,99.1899742 111.056141,99.1899742" id="Fill-52" fill="#708188"></path>
                                <path d="M107.398852,146.709122 L74.9670102,146.709122 C74.6039412,146.709122 74.3093632,146.60046 74.3093632,146.376821 C74.3093632,146.153181 74.6039412,146.044519 74.9670102,146.044519 L107.398852,146.044519 C107.761921,146.044519 108.056166,146.153181 108.056166,146.376821 C108.056166,146.60046 107.761921,146.709122 107.398852,146.709122" id="Fill-53" fill="#708188"></path>
                                <path d="M107.398852,150.364441 L74.9670102,150.364441 C74.6039412,150.364441 74.3093632,150.255779 74.3093632,150.03214 C74.3093632,149.808501 74.6039412,149.699838 74.9670102,149.699838 L107.398852,149.699838 C107.761921,149.699838 108.056166,149.808501 108.056166,150.03214 C108.056166,150.255779 107.761921,150.364441 107.398852,150.364441" id="Fill-54" fill="#708188"></path>
                                <path d="M107.398852,154.01976 L74.9670102,154.01976 C74.6039412,154.01976 74.3093632,153.911098 74.3093632,153.687459 C74.3093632,153.46382 74.6039412,153.355157 74.9670102,153.355157 L107.398852,153.355157 C107.761921,153.355157 108.056166,153.46382 108.056166,153.687459 C108.056166,153.911098 107.761921,154.01976 107.398852,154.01976" id="Fill-55" fill="#708188"></path>
                                <path d="M107.398852,157.675079 L74.9670102,157.675079 C74.6039412,157.675079 74.3093632,157.566417 74.3093632,157.342778 C74.3093632,157.119139 74.6039412,157.010476 74.9670102,157.010476 L107.398852,157.010476 C107.761921,157.010476 108.056166,157.119139 108.056166,157.342778 C108.056166,157.566417 107.761921,157.675079 107.398852,157.675079" id="Fill-56" fill="#708188"></path>
                                <path d="M107.398852,161.330399 L74.9670102,161.330399 C74.6039412,161.330399 74.3093632,161.221736 74.3093632,160.998097 C74.3093632,160.774458 74.6039412,160.665795 74.9670102,160.665795 L107.398852,160.665795 C107.761921,160.665795 108.056166,160.774458 108.056166,160.998097 C108.056166,161.221736 107.761921,161.330399 107.398852,161.330399" id="Fill-57" fill="#708188"></path>
                                <path d="M107.398852,164.985718 L74.9670102,164.985718 C74.6039412,164.985718 74.3093632,164.877055 74.3093632,164.653416 C74.3093632,164.429777 74.6039412,164.321114 74.9670102,164.321114 L107.398852,164.321114 C107.761921,164.321114 108.056166,164.429777 108.056166,164.653416 C108.056166,164.877055 107.761921,164.985718 107.398852,164.985718" id="Fill-58" fill="#708188"></path>
                                <polygon id="Fill-59" fill="#0E5D7D" points="0 4.89812757 126.377289 4.89812757 126.377289 0.164157057 0 0.164157057"></polygon>
                            </g>
                        </g>
                        <g id="dashboard" transform="translate(169.000000, 31.000000)">
                            <polygon id="Fill-1" fill="#D5D9DA" points="0 192.889382 130 192.889382 130 0.553753873 0 0.553753873"></polygon>
                            <polygon id="Fill-2" fill="#FFFFFF" points="0 190.342513 126.666667 190.342513 126.666667 0.332518072 0 0.332518072"></polygon>
                            <polygon id="Fill-3" fill="#F1BC33" points="5.33333333 25.5783133 40 25.5783133 40 4.9827883 5.33333333 4.9827883"></polygon>
                            <polygon id="Fill-4" fill="#08688D" points="46.3333333 25.5783133 81 25.5783133 81 4.9827883 46.3333333 4.9827883"></polygon>
                            <polygon id="Fill-5" fill="#08688D" points="26.4956667 183.771544 39.171 183.771544 39.171 150.450974 26.4956667 150.450974"></polygon>
                            <polygon id="Fill-6" fill="#08688D" points="41.3333333 183.771544 54.0086667 183.771544 54.0086667 167.57416 41.3333333 167.57416"></polygon>
                            <polygon id="Fill-7" fill="#08688D" points="56 183.771544 68.6753333 183.771544 68.6753333 152.194286 56 152.194286"></polygon>
                            <polygon id="Fill-8" fill="#08688D" points="70.778 183.771544 83.4533333 183.771544 83.4533333 164.049003 70.778 164.049003"></polygon>
                            <polygon id="Fill-9" fill="#08688D" points="85.1113333 183.771544 97.7866667 183.771544 97.7866667 164.049003 85.1113333 164.049003"></polygon>
                            <polygon id="Fill-10" fill="#41A07A" points="86.974 25.5783133 121.640667 25.5783133 121.640667 4.9827883 86.974 4.9827883"></polygon>
                            <polygon id="Fill-11" fill="#08688D" points="0.0466666667 27.9036145 126.669667 27.9036145 126.669667 25.2461274 0.0466666667 25.2461274"></polygon>
                            <g id="Group-50" transform="translate(10.000000, 48.221568)">
                                <path d="M20.7937333,0.0601889845 C17.8530667,0.0601889845 15.0954,0.833849914 12.7080667,2.18219243 L16.9930667,8.73954182 C18.1404,8.175158 19.4274,7.84961583 20.7937333,7.84961583 C22.2734,7.84961583 23.6650667,8.2223284 24.8800667,8.87739897 L29.8540667,2.78045921 C27.2564,1.06438692 24.1434,0.0601889845 20.7937333,0.0601889845 Z" id="Fill-12" fill="#F0BB32"></path>
                                <path d="M20.7937333,24.9855909 C16.0430667,24.9855909 12.1914,21.1491761 12.1914,16.4171881 C12.1914,14.1679575 13.0684,12.1276718 14.4914,10.5992845 L10.1544,3.9622105 C6.61773333,6.96251343 4.37206667,11.4270917 4.37206667,16.4171881 C4.37206667,25.4509833 11.7240667,32.773689 20.7937333,32.773689 C22.1507333,32.773689 23.4637333,32.5916511 24.7250667,32.2833826 L22.6690667,24.7746528 C22.0654,24.9088559 21.4390667,24.9855909 20.7937333,24.9855909" id="Fill-14" fill="#06698D"></path>
                                <path d="M27.3101667,10.838259 C28.6065,12.3374139 29.3958333,14.2833589 29.3958333,16.4169888 C29.3958333,19.3870628 27.8788333,22.0043554 25.5741667,23.5413795 L27.6908333,31.2656979 C33.3145,28.669333 37.2151667,22.997259 37.2151667,16.4169888 C37.2151667,11.8414604 35.3265,7.70740706 32.2861667,4.73899398 L27.3101667,10.838259 Z" id="Fill-16" fill="#47B388"></path>
                                <path d="M83.9321,16.6698155 L99.9064333,16.6698155 C99.9064333,10.5290272 96.6581,5.41867952 91.7261,2.79142134 C89.4381,1.57263133 86.7901,0.885670912 83.9321,0.883345611 L83.9321,16.6698155 Z" id="Fill-18" fill="#D5D9DA"></path>
                                <path d="M99.9066,16.6698155 L83.9322667,16.6698155 L83.9322667,16.8345797 L93.9812667,26.915757 L95.1476,28.077411 C98.0582667,25.168127 99.9066,21.166948 99.9066,16.6698155" id="Fill-20" fill="#47B388"></path>
                                <path d="M83.9321,16.6698155 L83.9321,0.883345611 L83.9321,0.882681239 C83.9301,0.882681239 83.9277667,0.883013425 83.9257667,0.883013425 C83.9234333,0.883013425 83.9211,0.883345611 83.9187667,0.883345611 C75.0134333,0.890653701 67.8127667,8.02135594 67.8127667,16.8345797 C67.8127667,25.6468069 74.9291,32.7738551 83.7637667,32.7738551 C86.6481,32.7738551 89.3727667,32.0068379 91.7261,30.6820806 C92.9891,29.9712028 94.1497667,29.1068551 95.1597667,28.0980065 L93.9811,26.915757 L83.9321,16.8345797 L83.9321,16.6698155 Z" id="Fill-22" fill="#F2BC33"></path>
                                <path d="M32.6666667,41.468721 L8,41.468721 C7.72366667,41.468721 7.5,41.2454921 7.5,40.9704422 C7.5,40.6953923 7.72366667,40.4721633 8,40.4721633 L32.6666667,40.4721633 C32.9426667,40.4721633 33.1666667,40.6953923 33.1666667,40.9704422 C33.1666667,41.2454921 32.9426667,41.468721 32.6666667,41.468721" id="Fill-24" fill="#BAC1C3"></path>
                                <path d="M32.6666667,45.1227657 L8,45.1227657 C7.72366667,45.1227657 7.5,44.8995368 7.5,44.6244869 C7.5,44.349437 7.72366667,44.1262081 8,44.1262081 L32.6666667,44.1262081 C32.9426667,44.1262081 33.1666667,44.349437 33.1666667,44.6244869 C33.1666667,44.8995368 32.9426667,45.1227657 32.6666667,45.1227657" id="Fill-26" fill="#BAC1C3"></path>
                                <path d="M96.3333333,41.468721 L71.6666667,41.468721 C71.3906667,41.468721 71.1666667,41.2454921 71.1666667,40.9704422 C71.1666667,40.6953923 71.3906667,40.4721633 71.6666667,40.4721633 L96.3333333,40.4721633 C96.6093333,40.4721633 96.8333333,40.6953923 96.8333333,40.9704422 C96.8333333,41.2454921 96.6093333,41.468721 96.3333333,41.468721" id="Fill-28" fill="#BAC1C3"></path>
                                <path d="M96.3333333,45.1227657 L71.6666667,45.1227657 C71.3906667,45.1227657 71.1666667,44.8995368 71.1666667,44.6244869 C71.1666667,44.349437 71.3906667,44.1262081 71.6666667,44.1262081 L96.3333333,44.1262081 C96.6093333,44.1262081 96.8333333,44.349437 96.8333333,44.6244869 C96.8333333,44.8995368 96.6093333,45.1227657 96.3333333,45.1227657" id="Fill-30" fill="#BAC1C3"></path>
                                <path d="M3.52873333,73.5653518 C3.52873333,74.3187494 2.91573333,74.9296392 2.15973333,74.9296392 C1.40373333,74.9296392 0.791066667,74.3187494 0.791066667,73.5653518 C0.791066667,72.8119542 1.40373333,72.2010644 2.15973333,72.2010644 C2.91573333,72.2010644 3.52873333,72.8119542 3.52873333,73.5653518" id="Fill-32" fill="#F1BC33"></path>
                                <path d="M3.52873333,80.2094682 C3.52873333,80.9628657 2.91573333,81.5737556 2.15973333,81.5737556 C1.40373333,81.5737556 0.791066667,80.9628657 0.791066667,80.2094682 C0.791066667,79.4560706 1.40373333,78.8451807 2.15973333,78.8451807 C2.91573333,78.8451807 3.52873333,79.4560706 3.52873333,80.2094682" id="Fill-34" fill="#F1BC33"></path>
                                <path d="M3.52873333,86.5214318 C3.52873333,87.2748294 2.91573333,87.8857193 2.15973333,87.8857193 C1.40373333,87.8857193 0.791066667,87.2748294 0.791066667,86.5214318 C0.791066667,85.7680343 1.40373333,85.1571444 2.15973333,85.1571444 C2.91573333,85.1571444 3.52873333,85.7680343 3.52873333,86.5214318" id="Fill-36" fill="#F1BC33"></path>
                                <path d="M3.52873333,93.1655482 C3.52873333,93.9189458 2.91573333,94.5298356 2.15973333,94.5298356 C1.40373333,94.5298356 0.791066667,93.9189458 0.791066667,93.1655482 C0.791066667,92.4121506 1.40373333,91.8012608 2.15973333,91.8012608 C2.91573333,91.8012608 3.52873333,92.4121506 3.52873333,93.1655482" id="Fill-38" fill="#F1BC33"></path>
                                <path d="M97,74.3551238 L6.33333333,74.3551238 C6.057,74.3551238 5.83333333,74.1318948 5.83333333,73.8568449 C5.83333333,73.581795 6.057,73.3585661 6.33333333,73.3585661 L97,73.3585661 C97.276,73.3585661 97.5,73.581795 97.5,73.8568449 C97.5,74.1318948 97.276,74.3551238 97,74.3551238" id="Fill-40" fill="#AED7E8"></path>
                                <path d="M97,80.9988415 L6.33333333,80.9988415 C6.057,80.9988415 5.83333333,80.7756126 5.83333333,80.5005627 C5.83333333,80.2255127 6.057,80.0022838 6.33333333,80.0022838 L97,80.0022838 C97.276,80.0022838 97.5,80.2255127 97.5,80.5005627 C97.5,80.7756126 97.276,80.9988415 97,80.9988415" id="Fill-42" fill="#AED7E8"></path>
                                <path d="M97,86.9781874 L6.33333333,86.9781874 C6.057,86.9781874 5.83333333,86.7549585 5.83333333,86.4799086 C5.83333333,86.2048587 6.057,85.9816298 6.33333333,85.9816298 L97,85.9816298 C97.276,85.9816298 97.5,86.2048587 97.5,86.4799086 C97.5,86.7549585 97.276,86.9781874 97,86.9781874" id="Fill-44" fill="#AED7E8"></path>
                                <path d="M97,93.6219052 L6.33333333,93.6219052 C6.057,93.6219052 5.83333333,93.3986762 5.83333333,93.1236263 C5.83333333,92.8485764 6.057,92.6253475 6.33333333,92.6253475 L97,92.6253475 C97.276,92.6253475 97.5,92.8485764 97.5,93.1236263 C97.5,93.3986762 97.276,93.6219052 97,93.6219052" id="Fill-46" fill="#AED7E8"></path>
                                <polygon id="Fill-48" fill="#08688D" points="3 136.473785 99 136.473785 99 135.145041 3 135.145041"></polygon>
                            </g>
                        </g>
                        <g id="ampoule" transform="translate(473.000000, 0.000000)">
                            <path d="M95.0001,56.2794 L88.0911,56.2794 L87.5591,56.2794 L87.5591,53.6214 L95.0001,53.6214 L95.0001,56.2794 Z M92.3011,68.2084 L85.8081,65.8454 L85.3091,65.6634 L86.2171,63.1664 L93.2101,65.7114 L92.3011,68.2084 Z M92.3011,41.5864 L93.0281,43.5844 L93.2101,44.0834 L86.2171,46.6284 L85.3081,44.1314 L92.3011,41.5864 Z M79.2611,35.2494 L78.8851,34.8734 L84.1471,29.6114 L86.0271,31.4914 L80.7651,36.7534 L79.2611,35.2494 Z M72.4731,65.6764 C70.8781,67.8194 69.3821,69.8174 69.3821,72.5384 L69.3821,75.5884 C69.9401,75.8994 70.3241,76.4884 70.3241,77.1704 C70.3241,78.1704 69.5051,78.9884 68.5051,78.9884 L50.7381,78.9884 C49.7371,78.9884 48.9191,78.1704 48.9191,77.1704 C48.9191,76.3414 49.4841,75.6454 50.2461,75.4284 L50.2461,72.5384 C50.2461,69.8174 48.7501,67.8194 47.1541,65.6764 C45.0041,62.7844 42.6981,59.6954 42.6981,54.3714 C42.6981,49.6524 44.6131,45.3664 47.7101,42.2774 C50.8101,39.1754 55.0871,37.2564 59.8151,37.2564 C64.5401,37.2564 68.8211,39.1754 71.9181,42.2774 C75.0181,45.3664 76.9321,49.6524 76.9321,54.3714 C76.9321,59.6954 74.6271,62.7844 72.4731,65.6764 L72.4731,65.6764 Z M68.5051,84.5994 L50.7381,84.5994 C49.7371,84.5994 48.9191,83.7814 48.9191,82.7814 C48.9191,81.7814 49.7371,80.9624 50.7381,80.9624 L68.5051,80.9624 C69.5051,80.9624 70.3241,81.7814 70.3241,82.7814 C70.3241,83.7814 69.5051,84.5994 68.5051,84.5994 L68.5051,84.5994 Z M59.6851,90.3884 C56.8381,90.3884 54.4921,88.7434 54.1791,86.6284 L65.1881,86.6284 C64.8811,88.7434 62.5331,90.3884 59.6851,90.3884 L59.6851,90.3884 Z M39.2341,36.7534 L34.3491,31.8674 L33.9731,31.4914 L35.8521,29.6124 L41.1141,34.8734 L39.2341,36.7534 Z M33.7821,46.6294 L27.2891,44.2654 L26.7891,44.0834 L27.6981,41.5864 L34.6901,44.1314 L33.7821,46.6294 Z M27.6981,68.2084 L26.9711,66.2104 L26.7891,65.7114 L33.7811,63.1664 L34.6901,65.6634 L27.6981,68.2084 Z M25.0001,53.6214 L31.9101,53.6214 L32.4411,53.6214 L32.4411,56.2794 L25.0001,56.2794 L25.0001,53.6214 Z M60.0001,0.0004 C26.8631,0.0004 0.0001,26.8624 0.0001,60.0004 C0.0001,93.1374 26.8631,120.0004 60.0001,120.0004 C93.1371,120.0004 120.0001,93.1374 120.0001,60.0004 C120.0001,26.8624 93.1371,0.0004 60.0001,0.0004 L60.0001,0.0004 Z" id="Fill-1" fill="#ECEEEF"></path>
                            <polygon id="Fill-4" fill="#FFE297" points="67.985 57.3834 67.985 57.3834 67.981 57.3834"></polygon>
                            <path d="M55.4648,43.2054 C53.7168,43.6494 52.1798,44.5994 51.0038,45.8794 C49.8268,47.1494 49.0118,48.7604 48.7078,50.5464 C48.5968,51.1864 47.9838,51.6204 47.3398,51.5064 C46.6938,51.4034 46.2608,50.7944 46.3698,50.1434 C46.7548,47.9034 47.7798,45.8794 49.2608,44.2694 C50.7378,42.6684 52.6718,41.4814 54.8788,40.9134 C55.5118,40.7484 56.1568,41.1304 56.3158,41.7594 C56.4788,42.4004 56.0958,43.0404 55.4648,43.2054 M59.8148,37.2564 C55.0878,37.2564 50.8098,39.1754 47.7108,42.2774 C44.6138,45.3664 42.6978,49.6524 42.6978,54.3714 C42.6978,59.6954 45.0038,62.7844 47.1548,65.6764 C48.7498,67.8194 50.2458,69.8174 50.2458,72.5384 L50.2458,75.4284 C50.4038,75.3834 50.5658,75.3514 50.7378,75.3514 L56.0448,75.3514 L56.0438,67.1194 L52.0298,60.7784 C51.1628,60.6964 50.4828,59.9754 50.4828,59.0884 L50.4828,59.0734 L50.4828,59.0734 L50.4838,59.0394 L50.4868,59.0394 C50.5108,58.1134 51.2708,57.3764 52.2008,57.3774 L52.2058,57.3774 C53.1388,57.3874 53.8858,58.1404 53.8978,59.0684 L53.8988,59.0684 L53.8998,59.0964 L53.8998,59.1024 C53.8978,59.3064 53.8488,59.4944 53.7818,59.6734 L58.1168,66.5224 L58.1168,75.3514 L61.6508,75.3514 L61.6508,66.5424 L66.3758,59.6814 C66.3068,59.4974 66.2588,59.3024 66.2588,59.0954 L66.2598,59.0534 L66.2618,59.0534 C66.2818,58.1274 67.0348,57.3834 67.9638,57.3824 L67.9848,57.3824 L67.9848,57.3834 C68.9178,57.3934 69.6668,58.1484 69.6738,59.0784 L69.6748,59.0784 L69.6748,59.1014 L69.6748,59.1054 C69.6688,59.9854 68.9928,60.6944 68.1338,60.7814 L63.7218,67.1894 L63.7228,75.3514 L68.5058,75.3514 C68.8248,75.3514 69.1208,75.4424 69.3818,75.5884 L69.3818,72.5384 C69.3818,69.8174 70.8778,67.8194 72.4738,65.6764 C74.6268,62.7844 76.9318,59.6954 76.9318,54.3714 C76.9318,49.6524 75.0178,45.3664 71.9178,42.2774 C68.8208,39.1754 64.5408,37.2564 59.8148,37.2564" id="Fill-6" fill="#F0BB32"></path>
                            <path d="M54.8793,40.9135 C52.6723,41.4815 50.7383,42.6685 49.2613,44.2685 C47.7803,45.8795 46.7543,47.9035 46.3693,50.1435 C46.2603,50.7945 46.6943,51.4035 47.3393,51.5065 C47.9833,51.6205 48.5973,51.1865 48.7073,50.5465 C49.0113,48.7605 49.8263,47.1495 51.0033,45.8795 C52.1793,44.5995 53.7173,43.6495 55.4653,43.2055 C56.0953,43.0405 56.4783,42.4005 56.3163,41.7595 C56.1563,41.1305 55.5123,40.7485 54.8793,40.9135" id="Fill-8" fill="#FFFFFF"></path>
                            <path d="M59.6851,90.3882 C62.5331,90.3882 64.8821,88.7432 65.1891,86.6282 L54.1791,86.6282 C54.4921,88.7432 56.8381,90.3882 59.6851,90.3882" id="Fill-10" fill="#04698C"></path>
                            <path id="Stroke-12" stroke-linecap="round" stroke-linejoin="round"></path>
                            <path d="M63.7228,75.3517 L63.7218,67.1897 L68.1338,60.7817 C68.9928,60.6947 69.6688,59.9847 69.6748,59.1057 L69.6748,59.1007 L69.6748,59.0787 L69.6738,59.0787 C69.6668,58.1487 68.9178,57.3927 67.9848,57.3837 L67.9808,57.3827 L67.9848,57.3827 L67.9638,57.3827 C67.0348,57.3827 66.2818,58.1267 66.2618,59.0527 L66.2598,59.0527 L66.2588,59.0957 C66.2588,59.3027 66.3068,59.4967 66.3758,59.6817 L61.6508,66.5427 L61.6508,75.3517 L58.1168,75.3517 L58.1168,66.5227 L53.7818,59.6737 C53.8488,59.4947 53.8978,59.3057 53.8998,59.1027 L53.8998,59.0967 L53.8988,59.0677 L53.8978,59.0677 C53.8858,58.1407 53.1388,57.3867 52.2058,57.3777 L52.2018,57.3777 C51.2708,57.3757 50.5108,58.1137 50.4868,59.0397 L50.4838,59.0397 L50.4828,59.0727 L50.4828,59.0737 L50.4828,59.0877 C50.4828,59.9757 51.1628,60.6967 52.0298,60.7787 L56.0438,67.1197 L56.0448,75.3517 L50.7378,75.3517 C50.5658,75.3517 50.4038,75.3837 50.2458,75.4287 C49.4838,75.6447 48.9198,76.3417 48.9198,77.1697 C48.9198,78.1697 49.7378,78.9887 50.7378,78.9887 L68.5058,78.9887 C69.5058,78.9887 70.3238,78.1697 70.3238,77.1697 C70.3238,76.4887 69.9398,75.8987 69.3818,75.5877 C69.1208,75.4417 68.8248,75.3517 68.5058,75.3517 L63.7228,75.3517 Z" id="Fill-14" fill="#04698C"></path>
                            <path d="M68.5056,80.9626 L50.7376,80.9626 C49.7376,80.9626 48.9196,81.7806 48.9196,82.7806 C48.9196,83.7806 49.7376,84.5996 50.7376,84.5996 L68.5056,84.5996 C69.5056,84.5996 70.3236,83.7806 70.3236,82.7806 C70.3236,81.7806 69.5056,80.9626 68.5056,80.9626" id="Fill-16" fill="#04698C"></path>
                            <polygon id="Fill-18" fill="#47B388" points="32.441 53.6219 31.91 53.6219 25 53.6219 25 56.2799 32.441 56.2799"></polygon>
                            <polygon id="Fill-20" fill="#47B388" points="26.7893 65.7112 26.9713 66.2102 27.6983 68.2082 34.6903 65.6632 33.7813 63.1662"></polygon>
                            <polygon id="Fill-22" fill="#47B388" points="33.9728 31.4912 34.3488 31.8672 39.2348 36.7532 41.1138 34.8742 35.8518 29.6122"></polygon>
                            <polygon id="Fill-24" fill="#47B388" points="26.7893 44.0837 27.2893 44.2657 33.7813 46.6287 34.6903 44.1317 27.6973 41.5867"></polygon>
                            <polygon id="Fill-26" fill="#47B388" points="87.5591 56.2794 88.0911 56.2794 95.0001 56.2794 95.0001 53.6214 87.5591 53.6214"></polygon>
                            <polygon id="Fill-28" fill="#47B388" points="85.3087 65.6633 85.8087 65.8453 92.3017 68.2083 93.2097 65.7113 86.2167 63.1663"></polygon>
                            <polygon id="Fill-30" fill="#47B388" points="84.1469 29.6117 78.8859 34.8737 79.2619 35.2497 80.7649 36.7537 86.0269 31.4907"></polygon>
                            <polygon id="Fill-32" fill="#47B388" points="93.2101 44.0838 93.0281 43.5848 92.3011 41.5868 85.3081 44.1318 86.2171 46.6288"></polygon>
                        </g>
                        <g id="people" transform="translate(433.000000, 138.000000)">
                            <g id="boy">
                                <path d="M57.3504054,42.3128317 L57.3504054,81.1118812 C57.3504054,82.9889505 58.5612162,84.6532673 60.3504054,85.2363168 L83.0382432,94.1961584 C88.4071622,95.9466535 92.0395946,100.938257 92.0395946,106.568119 L92.0395946,114.198931 L0.426081081,114.198931 L0.426081081,106.568119 C0.426081081,100.938257 4.05716216,95.9466535 9.42743243,94.1961584 L32.1139189,85.2363168 C33.9044595,84.6532673 35.1152703,82.9889505 35.1152703,81.1118812 L35.1152703,42.3128317 L57.3504054,42.3128317 Z" id="Fill-14" fill="#B18D76"></path>
                                <path d="M82.8977027,94.1962931 L60.2801351,85.2364515 C59.4274324,84.9577188 59.267973,85.1044911 58.7463514,84.4298772 C56.5855405,88.4775604 51.4125676,90.6064317 45.9963514,90.6064317 C40.7206757,90.6064317 36.1625676,87.9443327 33.9328378,84.0636198 C33.4409459,84.5887683 32.8274324,85.0021545 32.1098649,85.2364515 L9.5422973,94.1962931 C2.59905405,96.4598178 0.942297297,100.425362 0.0882432432,106.568253 L0.0882432432,128.639303 L92.3287838,128.639303 L92.3287838,106.568253 C91.4747297,100.442867 89.7882432,96.4423129 82.8977027,94.1962931" id="Fill-16" fill="#F1BC33"></path>
                                <path d="M68.0982432,45.0646099 L68.0982432,45.0646099 C70.1725676,45.0646099 71.8685135,43.3733624 71.8685135,41.3064317 L71.8685135,37.5496 C71.8685135,35.4826693 70.1725676,33.7927683 68.0982432,33.7927683 C66.0239189,33.7927683 64.327973,35.4826693 64.327973,37.5496 L64.327973,41.3064317 C64.327973,43.3733624 66.0239189,45.0646099 68.0982432,45.0646099" id="Fill-18" fill="#B18D76"></path>
                                <path d="M24.3671622,45.0646099 L24.3671622,45.0646099 C22.2928378,45.0646099 20.5968919,43.3733624 20.5968919,41.3064317 L20.5968919,37.5496 C20.5968919,35.4826693 22.2928378,33.7927683 24.3671622,33.7927683 C26.4414865,33.7927683 28.1387838,35.4826693 28.1387838,37.5496 L28.1387838,41.3064317 C28.1387838,43.3733624 26.4414865,45.0646099 24.3671622,45.0646099" id="Fill-20" fill="#B18D76"></path>
                                <path d="M63.8552703,44.2510337 L28.1728378,44.2510337 C24.9025676,44.2510337 22.2255405,41.584895 22.2255405,38.3249347 L22.2255405,23.7029149 C22.2255405,10.6657663 32.9309459,-0.000134653465 46.0147297,-0.000134653465 C59.0971622,-0.000134653465 69.8025676,10.6657663 69.8025676,23.7029149 L69.8025676,38.3249347 C69.8025676,41.584895 67.1255405,44.2510337 63.8552703,44.2510337" id="Fill-22" fill="#3B444D"></path>
                                <path d="M46.2327027,74.1686099 L46.2327027,74.1686099 C34.2435135,74.1686099 24.4327027,64.3941149 24.4327027,52.4463129 L24.4327027,27.447897 C24.4327027,25.2638178 26.2097297,23.4931248 28.4016216,23.4931248 L64.0637838,23.4931248 C66.2556757,23.4931248 68.0327027,25.2638178 68.0327027,27.447897 L68.0327027,52.4463129 C68.0327027,64.3941149 58.2232432,74.1686099 46.2327027,74.1686099" id="Fill-25" fill="#B18D76"></path>
                                <path d="M46.2327027,64.5322693 L46.2327027,64.5322693 C42.2259459,64.5322693 35.3191892,61.2952 35.3191892,57.3027248 L35.3191892,55.8363485 L57.1462162,55.8363485 L57.1462162,57.3027248 C57.1462162,61.2952 50.2394595,64.5322693 46.2327027,64.5322693" id="Fill-27" fill="#FFFFFF"></path>
                                <polygon id="Fill-29" fill="#06698D" points="45.9782432 89.8888634 39.6633784 94.6704079 45.9782432 102.971794 52.2931081 94.6704079"></polygon>
                                <polygon id="Fill-31" fill="#FFFFFF" points="45.9741892 89.8888634 39.2674324 97.7485861 29.2836486 85.5126257 33.1174324 83.8456158"></polygon>
                                <polygon id="Fill-33" fill="#FFFFFF" points="45.9741892 89.8888634 52.6809459 97.7485861 62.6647297 85.5126257 58.8309459 83.8456158"></polygon>
                                <polygon id="Fill-35" fill="#06698D" points="45.9782432 97.1197545 37.1782432 128.892586 53.8431081 128.639438"></polygon>
                                <path d="M43.4641892,110.59143 L30.5601351,110.59143 C29.0736486,110.59143 27.8574324,109.379549 27.8574324,107.89836 L27.8574324,80.9501624 C27.8574324,79.4689743 29.0736486,78.2570931 30.5601351,78.2570931 L43.4641892,78.2570931 C44.9506757,78.2570931 46.1668919,79.4689743 46.1668919,80.9501624 L46.1668919,107.89836 C46.1668919,109.379549 44.9506757,110.59143 43.4641892,110.59143" id="Fill-43" fill="#FFFFFF"></path>
                                <path d="M31.8266216,81.2472079 C31.8266216,81.8046733 31.3725676,82.2571089 30.8131081,82.2571089 C30.2536486,82.2571089 29.7995946,81.8046733 29.7995946,81.2472079 C29.7995946,80.6897426 30.2536486,80.2373069 30.8131081,80.2373069 C31.3725676,80.2373069 31.8266216,80.6897426 31.8266216,81.2472079" id="Fill-45" fill="#708189"></path>
                                <path d="M1.93364865,123.136016 L29.5133784,94.7254812 C32.1633784,91.9825901 36.5822973,91.899105 39.335,94.5396594 C42.0877027,97.1802139 42.1714865,101.583382 39.5228378,104.326273 L11.9431081,132.736808 C9.29310811,135.479699 4.87283784,135.563184 2.12013514,132.923976 L2.12013514,132.923976 C-0.632567568,130.283422 -0.716351351,125.878907 1.93364865,123.136016" id="Fill-47" fill="#A58474"></path>
                            </g>
                            <g id="girl" transform="translate(108.000000, 3.000000)">
                                <path d="M13.5433784,81.0435564 L13.5433784,37.7228436 C13.5433784,17.0925861 27.5717568,0.368625743 44.8771622,0.368625743 C62.1825676,0.368625743 76.2109459,17.0925861 76.2109459,37.7228436 L76.2109459,81.2724673 L13.5433784,81.0435564 Z" id="Fill-1" fill="#E25C5B"></path>
                                <path d="M33.2859459,37.9626614 L33.6427027,75.9282059 C33.6602703,77.7648792 32.49,79.4036119 30.7440541,79.9920475 L8.62648649,88.9653545 C3.38864865,90.7279683 0.823783784,95.6455129 1.94675676,101.154186 L1.07378378,107.873394 L89.6481081,107.784523 L89.5778378,100.317988 C89.5264865,94.8093149 85.9264865,89.959097 80.6562162,88.2947802 L58.3737838,79.7335129 C56.617027,79.1787406 55.417027,77.5615525 55.4008108,75.7262257 L55.0440541,37.7593347 L33.2859459,37.9626614 Z" id="Fill-3" fill="#F0DBCB"></path>
                                <path d="M43.3474324,68.5327683 L43.3474324,68.5327683 C55.6514865,68.5327683 65.6271622,58.593996 65.6271622,46.333798 L65.6271622,15.2827089 L22.9622973,15.2827089 L22.9622973,48.2202931 C22.9622973,59.4382733 32.0893243,68.5327683 43.3474324,68.5327683" id="Fill-5" fill="#F0DBCB"></path>
                                <path d="M44.2943243,60.552396 L44.2943243,60.552396 C47.8321622,60.552396 53.9294595,57.6950495 53.9294595,54.1698218 L53.9294595,52.875802 L34.6591892,52.875802 L34.6591892,54.1698218 C34.6591892,57.6950495 40.7564865,60.552396 44.2943243,60.552396" id="Fill-7" fill="#FFFFFF"></path>
                                <path d="M0.413648649,125.893125 L0.483918919,100.317046 C0.536621622,94.8083723 4.17986486,89.9581545 9.45013514,88.2938376 L27.265,81.4574812 L28.3609459,81.1585505 L45.0893243,90.3526891 L61.8177027,81.1585505 L62.9136486,81.4574812 L80.7298649,88.2938376 C86.0001351,89.9581545 89.6433784,94.8083723 89.6947297,100.317046 L89.7663514,125.893125 L0.413648649,125.893125 Z" id="Fill-9" fill="#07698D"></path>
                                <path d="M67.2251351,16.1369505 L67.4832432,13.4681188 L66.0859459,12.0636832 L65.862973,11.2665347 L44.412973,11.4671683 L22.9616216,11.2665347 L22.7386486,12.0636832 L21.3427027,13.4681188 L21.6008108,16.1369505 L20.667027,19.4750099 C20.667027,19.4750099 22.9616216,42.0994851 22.9616216,39.4966337 C22.9616216,36.8937822 25.2251351,34.9992079 31.1143243,33.4897426 C35.9089189,32.261703 40.7008108,28.7970693 44.412973,23.9266535 C48.1251351,28.7970693 52.917027,32.261703 57.7102703,33.4897426 C63.5994595,34.9992079 65.862973,36.8937822 65.862973,39.4966337 C65.862973,42.0994851 68.1589189,19.4750099 68.1589189,19.4750099 L67.2251351,16.1369505 Z" id="Fill-12" fill="#E25C5B"></path>
                                <path d="M43.8158108,107.59143 L30.9117568,107.59143 C29.4252703,107.59143 28.2090541,106.379549 28.2090541,104.89836 L28.2090541,77.9501624 C28.2090541,76.4689743 29.4252703,75.2570931 30.9117568,75.2570931 L43.8158108,75.2570931 C45.3022973,75.2570931 46.5185135,76.4689743 46.5185135,77.9501624 L46.5185135,104.89836 C46.5185135,106.379549 45.3022973,107.59143 43.8158108,107.59143" id="Fill-37" fill="#FFFFFF"></path>
                                <path d="M32.1782432,78.2472079 C32.1782432,78.8046733 31.7241892,79.2571089 31.1647297,79.2571089 C30.6052703,79.2571089 30.1512162,78.8046733 30.1512162,78.2472079 C30.1512162,77.6897426 30.6052703,77.2373069 31.1647297,77.2373069 C31.7241892,77.2373069 32.1782432,77.6897426 32.1782432,78.2472079" id="Fill-39" fill="#708189"></path>
                                <path d="M2.28527027,120.136016 L29.865,91.7254812 C32.515,88.9825901 36.9339189,88.899105 39.6866216,91.5396594 C42.4393243,94.1802139 42.5231081,98.5833822 39.8744595,101.326273 L12.2947297,129.736808 C9.64472973,132.479699 5.22445946,132.563184 2.47175676,129.923976 L2.47175676,129.923976 C-0.280945946,127.283422 -0.36472973,122.878907 2.28527027,120.136016" id="Fill-41" fill="#EBD4C5"></path>
                            </g>
                        </g>
                    </g>
                </g>
            </g>
        </g>
    </g>
</svg>