<?xml version="1.0" encoding="UTF-8"?>
<svg width="266px" height="133px" viewBox="0 0 266 133" version="1.1" xmlns="http://www.w3.org/2000/svg" xmlns:xlink="http://www.w3.org/1999/xlink">
    <!-- Generator: Sketch 40.3 (33839) - http://www.bohemiancoding.com/sketch -->
    <title>Group 2</title>
    <desc>Created with Sketch.</desc>
    <defs>
        <polygon id="path-1" points="0 0.687070968 0 14.767071 150.389554 14.767071 150.389554 0.687070968 3.71570009e-20 0.687070968"></polygon>
    </defs>
    <g id="Voeux-2016" stroke="none" stroke-width="1" fill="none" fill-rule="evenodd">
        <g id="Voeux_2016_wisembly_EN" transform="translate(-303.000000, -649.000000)">
            <g id="1/-EN-BREF" transform="translate(-1.000000, 398.000000)">
                <g id="wiz-créés" transform="translate(297.000000, 251.000000)">
                    <g id="Group-2" transform="translate(10.000000, 0.000000)">
                        <g id="computer" transform="translate(57.000000, 0.000000)">
                            <path d="M0.0481168831,120.159656 L0.0481168831,126.444043 L0.218102453,126.764731 C0.49501443,127.229935 1.32437951,127.535484 2.63765512,127.561634 L65.6145671,127.561634 L84.7708442,127.561634 L147.749127,127.561634 C149.062403,127.535484 149.894509,127.229935 150.16868,126.764731 L150.341407,126.444043 L150.341407,120.55329 L0.0481168831,120.159656 Z" id="Fill-1" fill="#1F7D56"></path>
                            <g id="Group-5" transform="translate(0.000000, 106.916748)">
                                <mask id="mask-2" fill="white">
                                    <use xlink:href="#path-1"></use>
                                </mask>
                                <g id="Clip-4"></g>
                                <path d="M134.385108,0.687070968 L149.404156,12.1933075 C151.180779,13.5545118 150.488499,14.7051355 147.863319,14.767071 L84.8439105,14.767071 L65.5464358,14.767071 L2.52565657,14.767071 C-0.0995238095,14.7051355 -0.791803752,13.5545118 0.984819625,12.1933075 L16.0052381,0.687070968 L134.385108,0.687070968 Z" id="Fill-3" fill="#47B388" mask="url(#mask-2)"></path>
                            </g>
                            <path d="M128.436025,31.824929 L21.9606277,31.824929 C19.2573088,31.824929 17.0625758,34.0284559 17.0625758,36.7357247 L17.0625758,106.823295 C17.0625758,107.449531 17.5656782,107.958778 18.1894156,107.958778 L132.200382,107.958778 C132.82412,107.958778 133.327222,107.449531 133.327222,106.823295 L133.327222,36.7357247 C133.327222,34.0284559 131.132489,31.824929 128.436025,31.824929" id="Fill-6" fill="#47B388"></path>
                            <polygon id="Fill-8" fill="#FFFFFF" points="24.5862193 101.515974 125.804401 101.515974 125.804401 38.6762323 24.5862193 38.6762323"></polygon>
                            <polygon id="Fill-10" fill="#06698D" points="24.5848485 101.515974 40.2399711 101.515974 40.2399711 38.6762323 24.5848485 38.6762323"></polygon>
                            <path d="M73.3696104,60.1067355 L69.2940693,65.1400258 C70.3564791,66.3787355 71.0021501,67.9876817 71.0021501,69.7480258 C71.0021501,70.0673376 70.9733622,70.3797677 70.9322367,70.6880688 L77.1394517,72.4676817 C77.3176623,71.5881978 77.4108802,70.6798108 77.4108802,69.7480258 C77.4108802,65.9699613 75.8618182,62.5580043 73.3696104,60.1067355" id="Fill-11" fill="#E15D5B"></path>
                            <path d="M67.3015368,63.5225462 L71.3784488,58.4878796 C69.2495166,57.0716215 66.6983622,56.241686 63.9525469,56.241686 C61.5425902,56.241686 59.2820563,56.8803097 57.3258514,57.993772 L60.8379726,63.4083097 C61.7770058,62.9431054 62.8325613,62.6733419 63.9525469,62.6733419 C65.1643795,62.6733419 66.3049278,62.981643 67.3015368,63.5225462" id="Fill-12" fill="#47B388"></path>
                            <path d="M50.4931169,69.7483011 C50.4931169,77.208086 56.5193795,83.2543656 63.9521356,83.2543656 C65.0638961,83.2543656 66.1400144,83.1043441 67.1736364,82.8497204 L65.48886,76.6492903 C64.9939827,76.7607742 64.4812843,76.824086 63.9521356,76.824086 C60.0589177,76.824086 56.901847,73.6557419 56.901847,69.7483011 C56.901847,67.8916129 57.6201732,66.2069677 58.7867677,64.9448602 L55.2321501,59.4642581 C52.3341703,61.9416774 50.4931169,65.6275269 50.4931169,69.7483011" id="Fill-13" fill="#06698D"></path>
                            <path d="M70.1415296,73.1364473 C69.5945599,74.1398022 68.8118038,74.9958882 67.8700289,75.6303828 L69.5986724,81.9959742 C72.6515584,80.5769634 75.0889322,78.0527484 76.3830159,74.9256946 L70.1415296,73.1364473 Z" id="Fill-14" fill="#F0BB32"></path>
                            <path d="M82.7347186,58.7149763 C82.1658153,58.7149763 81.7052092,59.1732989 81.7052092,59.7458581 C81.7052092,60.3156645 82.1658153,60.7767398 82.7347186,60.7767398 L114.852395,60.7767398 C115.419928,60.7767398 115.880534,60.3197935 115.880534,59.7458581 C115.880534,59.1760516 115.419928,58.7149763 114.852395,58.7149763 L82.7347186,58.7149763" id="Fill-15" fill="#A0A8AD"></path>
                            <path d="M82.7347186,63.1772215 C82.1658153,63.1772215 81.7052092,63.6355441 81.7052092,64.2081032 C81.7052092,64.7779097 82.1658153,65.2389849 82.7347186,65.2389849 L114.852395,65.2389849 C115.419928,65.2389849 115.880534,64.7820387 115.880534,64.2081032 C115.880534,63.6382968 115.419928,63.1772215 114.852395,63.1772215 L82.7347186,63.1772215" id="Fill-16" fill="#A0A8AD"></path>
                            <path d="M82.7347186,67.7018151 C82.1658153,67.7018151 81.7052092,68.1601376 81.7052092,68.7326968 C81.7052092,69.3025032 82.1658153,69.7635785 82.7347186,69.7635785 L114.852395,69.7635785 C115.419928,69.7635785 115.880534,69.3066323 115.880534,68.7326968 C115.880534,68.1628903 115.419928,67.7018151 114.852395,67.7018151 L82.7347186,67.7018151" id="Fill-17" fill="#A0A8AD"></path>
                            <path d="M82.7347186,74.488843 C82.1658153,74.488843 81.7052092,74.9471656 81.7052092,75.5197247 C81.7052092,76.0895312 82.1658153,76.5506065 82.7347186,76.5506065 L99.2521068,76.5506065 C99.8210101,76.5506065 100.281616,76.0936602 100.281616,75.5197247 C100.281616,74.9499183 99.8210101,74.488843 99.2521068,74.488843 L82.7347186,74.488843" id="Fill-18" fill="#A0A8AD"></path>
                            <path d="M82.7347186,79.0134366 C82.1658153,79.0134366 81.7052092,79.4717591 81.7052092,80.0443183 C81.7052092,80.6141247 82.1658153,81.0752 82.7347186,81.0752 L99.2521068,81.0752 C99.8210101,81.0752 100.281616,80.6182538 100.281616,80.0443183 C100.281616,79.4745118 99.8210101,79.0134366 99.2521068,79.0134366 L82.7347186,79.0134366" id="Fill-19" fill="#A0A8AD"></path>
                            <path d="M154.146479,51.6156559 L130.318341,51.6156559 C116.18075,51.6156559 104.613506,40.0020645 104.613506,25.807828 L104.613506,25.807828 C104.613506,11.6135914 116.18075,0 130.318341,0 L154.146479,0 C168.284069,0 179.851313,11.6135914 179.851313,25.807828 L179.851313,25.807828 C179.851313,40.0020645 168.284069,51.6156559 154.146479,51.6156559" id="Fill-20" fill="#E25C5B"></path>
                            <path d="M154.465613,29.6123737 C151.326364,29.6123737 148.773838,27.0496211 148.773838,23.8977931 C148.773838,20.7459651 151.326364,18.1818361 154.465613,18.1818361 C157.604863,18.1818361 160.157388,20.7459651 160.157388,23.8977931 C160.157388,27.0496211 157.604863,29.6123737 154.465613,29.6123737 M154.465613,15.4291479 C150.283146,15.4291479 146.810779,18.505277 146.152771,22.521449 L122.936032,22.521449 C122.177951,22.521449 121.56518,23.1366748 121.56518,23.8977931 C121.56518,24.657535 122.177951,25.2741372 122.936032,25.2741372 L126.050606,25.2741372 L126.050606,30.9887178 C126.050606,31.7498361 126.664747,32.3650619 127.421457,32.3650619 C128.179538,32.3650619 128.792309,31.7498361 128.792309,30.9887178 L128.792309,25.2741372 L131.16114,25.2741372 L131.16114,27.4432555 C131.16114,28.2043737 131.773911,28.8195996 132.531991,28.8195996 C133.290072,28.8195996 133.902843,28.2043737 133.902843,27.4432555 L133.902843,25.2741372 L146.152771,25.2741372 C146.810779,29.2889329 150.283146,32.3650619 154.465613,32.3650619 C159.116912,32.3650619 162.899091,28.5663522 162.899091,23.8977931 C162.899091,19.2278576 159.116912,15.4291479 154.465613,15.4291479" id="Fill-21" fill="#FFFFFF"></path>
                        </g>
                        <path d="M0,130 L260,130" id="Line" stroke="#10526D" stroke-width="5" stroke-linecap="square"></path>
                    </g>
                </g>
            </g>
        </g>
    </g>
</svg>