<?xml version="1.0" encoding="UTF-8"?>
<svg width="620px" height="313px" viewBox="0 0 620 313" version="1.1" xmlns="http://www.w3.org/2000/svg" xmlns:xlink="http://www.w3.org/1999/xlink">
    <!-- Generator: Sketch 40.3 (33839) - http://www.bohemiancoding.com/sketch -->
    <title>illus</title>
    <desc>Created with Sketch.</desc>
    <defs>
        <polygon id="path-1" points="31.0245897 0.477058824 0.000175862069 0.477058824 0.000175862069 17.2462353 31.0245897 17.2462353 31.0245897 0.477058824"></polygon>
        <polygon id="path-3" points="0 49.5229412 33.7965862 49.5229412 33.7965862 0.588235294 0 0.588235294"></polygon>
        <polygon id="path-5" points="0 49.6544444 34.775 49.6544444 34.775 0.00012345679 0 0.00012345679"></polygon>
    </defs>
    <g id="Voeux-2016" stroke="none" stroke-width="1" fill="none" fill-rule="evenodd">
        <g id="Voeux_2016_wisembly_EN" transform="translate(-660.000000, -2740.000000)">
            <g id="2/-INNOVATION" transform="translate(-68.000000, 1796.000000)">
                <g id="#Vous-aider-" transform="translate(168.000000, 944.000000)">
                    <g id="illus" transform="translate(560.000000, 0.000000)">
                        <polygon id="Fill-25-Copy" fill="#D5D9DA" points="0 312.282389 650 312.282389 650 304 0 304"></polygon>
                        <g id="globe" transform="translate(182.000000, 0.000000)">
                            <g transform="translate(0.000000, 26.000000)">
                                <path d="M160.416075,134.337409 C155.686661,130.582833 150.221037,120.889526 150.221037,118.518478 C150.221037,116.147602 156.191754,101.307923 159.773907,92.0030446 C163.360398,82.7021277 150.820173,65.0990109 150.820173,65.0990109 L156.657634,49.6686804 L141.599925,42.5403775 L141.599925,26.3094198 L134.102303,26.3094198 L132.003851,10.7390484 L131.729528,8.19333672 C178.735112,18.2873016 214.069593,59.1835341 214.069593,108.828788 C214.069593,112.762162 213.82685,116.637314 213.396193,120.457863 C212.840261,120.978752 211.994391,121.795055 210.890335,123.003747 C208.298761,125.829368 204.453911,130.660691 200.370483,138.10387 C193.205656,151.159363 188.429221,157.68909 187.86149,157.568686 C187.29376,157.447937 187.834076,139.289136 187.834076,139.289136 C187.834076,139.289136 188.433039,129.793919 184.251749,126.233643 C180.070286,122.673367 165.145662,138.10387 160.416075,134.337409 M81.5608227,198.414277 L86.8265614,209.129899 C85.28005,208.787979 83.7611269,208.267261 82.2418569,207.855234 L79.9712804,198.779623 C79.9712804,198.779623 67.8303068,192.141032 66.0370615,190.353229 C64.2478069,188.573178 66.0370615,180.251513 66.0370615,177.876675 C66.0370615,175.505799 61.2606263,168.972283 55.2937262,164.813431 C49.3231822,160.662331 45.1417193,157.68909 44.5467471,148.788315 C43.9477841,139.883922 45.7406824,129.793919 43.9477841,129.793919 C42.1545387,129.793919 33.799421,114.359626 25.4406595,106.049675 C17.0817245,97.7438579 17.0817245,70.4357212 20.6642243,62.7205559 C28.9761376,54.4845007 45.5529425,33.3405726 53.590707,22.935693 C54.4600016,21.8084761 55.2194631,20.8175106 55.8694386,19.9702032 C59.9802821,17.5097562 64.2752218,15.3216396 68.73066,13.4327246 C68.9813846,13.7551803 69.2553599,14.1127753 69.5843384,14.5325534 C72.4502342,18.2056541 78.0213538,25.2173424 79.7675774,26.5156054 C82.155795,28.2954849 86.3334406,36.6054362 75.738805,42.5403775 C65.1405256,48.4756633 69.0204248,50.2555428 72.0077789,55.6000044 C82.1597858,49.0702771 89.9195842,59.7547216 94.0970564,65.0953937 C98.274702,70.4395107 91.1138665,69.2501109 85.7381213,72.8143485 C80.3665404,76.374452 70.2145336,81.1241275 66.6322072,85.8738031 C63.0498809,90.6195168 66.6322072,85.8738031 56.4840177,92.0030446 C46.3360016,98.1364201 39.1711754,92.0030446 39.1711754,92.0030446 L27.5314777,94.1835821 L34.3947403,105.462813 L42.1545387,110.702201 L51.1164275,131.251343 L72.6107327,131.251343 C72.6107327,131.251343 121.565896,161.385273 123.954114,164.354897 C123.355151,178.005003 81.5608227,198.414277 81.5608227,198.414277 M219.249443,108.828788 C219.249443,48.8168944 170.312325,0.150548213 109.891496,0.0068900784 C109.801964,0.00671782644 109.713993,0 109.624635,0 C49.0804391,0 0,48.7242229 0,108.828788 C0,168.933354 49.0804391,217.657577 109.624635,217.657577 C109.713993,217.657577 109.801964,217.651031 109.891496,217.650859 C170.312325,217.507028 219.249443,168.844644 219.249443,108.828788" id="Fill-8" fill="#07698D"></path>
                                <path d="M52,130.139975 L43.7272221,109.157327 L35.7101449,104.011742 L29,95 L38.9507869,92.3492733 C38.9507869,92.3492733 46.1154397,98.4826488 56.2634557,92.3492733 C66.4116453,86.2198595 62.8293189,90.9655733 66.4116453,86.2198595 C69.9941451,81.4703562 80.1459785,76.7206807 85.5175594,73.1605772 C90.8933046,69.5963396 100.200796,70.214123 96.0233243,64.8698337 C91.8456786,59.5293339 84.0993574,47.9900785 73.9473505,54.519978 C70.9599964,49.1755164 64.9199636,48.8217198 75.518243,42.8866062 C86.1128786,36.9516649 84.4098595,28.1247984 82.0214684,26.3447466 C80.2754183,25.0464836 73.8174931,17.4517096 70.9515974,13.778781 C70.6226188,13.359003 69.2507247,13.3226279 69,13 C64.5445618,14.888915 59.1841813,17.5397253 55.0733377,20 C54.4233622,20.8474796 54.2394396,22.1547048 53.370145,23.2819217 C45.3323805,33.6866291 28.7555756,54.8307294 20.4436624,63.0666123 C16.8611625,70.7817776 16.8611625,98.0899143 25.2200975,106.395904 C33.5790325,114.705855 41.9339768,130.139975 43.7272221,130.139975 C45.5202939,130.139975 43.7272221,140.230151 44.3261851,149.134543 C44.9213309,158.035147 49.1026203,161.00856 55.0733377,165.15966 C61.0400644,169.318511 65.8164995,175.852028 65.8164995,178.222904 C65.8164995,180.597742 64.027245,188.919234 65.8164995,190.699286 C67.6097448,192.487261 79.7507184,199.125852 79.7507184,199.125852 L82.0214684,208.201463 C83.540565,208.613317 86.4534886,209.65808 88,210 L82.0214684,199.125852 C82.0214684,199.125852 129.048234,179.879468 125.296875,162.271353 C122.908657,159.301729 71.8383483,130.139975 71.8383483,130.139975 L52,130.139975 Z" id="Fill-4" fill="#46B489"></path>
                                <path d="M187.738931,157.740866 C188.306836,157.861442 193.083097,151.331542 200.247924,138.27605 C204.331526,130.833042 208.176202,126.001719 210.767949,123.176098 C211.872005,121.967406 213.390928,120.52089 213.947034,120 C214.377517,116.179452 214.856202,112.924716 215,109 C216.856974,58.3171564 176.495697,16.5667614 131.607143,8.36568849 L131.881292,10.9114002 L133.979918,26.4817716 L141.477366,26.4817716 L141.477366,42.7127293 L156.535075,49.8410321 L150.697614,65.2713627 C150.697614,65.2713627 163.237839,82.8744795 159.651522,92.1753963 C156.069195,101.480275 150.098478,116.319954 150.098478,118.69083 C150.098478,121.061705 155.564102,130.755185 160.293516,134.509761 C165.023276,138.27605 179.947727,122.845719 184.12919,126.405995 C188.31048,129.966098 187.711517,139.461488 187.711517,139.461488 C187.711517,139.461488 187.171374,157.620289 187.738931,157.740866 Z" id="Fill-6" fill="#46B489"></path>
                            </g>
                            <g id="points" transform="translate(33.000000, 41.000000)" fill="#FFFFFF">
                                <circle id="Oval" cx="32.5" cy="18.5" r="2.5"></circle>
                                <circle id="Oval" cx="12.5" cy="48.5" r="2.5"></circle>
                                <circle id="Oval" cx="2.5" cy="58.5" r="2.5"></circle>
                                <circle id="Oval" cx="12.5" cy="58.5" r="2.5"></circle>
                                <circle id="Oval" cx="37.5" cy="66.5" r="2.5"></circle>
                                <circle id="Oval" cx="27.5" cy="128.5" r="2.5"></circle>
                                <circle id="Oval" cx="57.5" cy="148.5" r="2.5"></circle>
                                <circle id="Oval" cx="56.5" cy="161.5" r="2.5"></circle>
                                <circle id="Oval" cx="67.5" cy="158.5" r="2.5"></circle>
                                <circle id="Oval" cx="147.5" cy="87.5" r="2.5"></circle>
                                <circle id="Oval" cx="135.5" cy="57.5" r="2.5"></circle>
                                <circle id="Oval" cx="144.5" cy="50.5" r="2.5"></circle>
                                <circle id="Oval" cx="144.5" cy="70.5" r="2.5"></circle>
                                <circle id="Oval" cx="165.5" cy="57.5" r="2.5"></circle>
                                <circle id="Oval" cx="147.5" cy="18.5" r="2.5"></circle>
                                <circle id="Oval" cx="100.5" cy="2.5" r="2.5"></circle>
                                <circle id="Oval" cx="116.5" cy="22.5" r="2.5"></circle>
                                <circle id="Oval" cx="136.5" cy="23.5" r="2.5"></circle>
                                <circle id="Oval" cx="154.5" cy="81.5" r="2.5"></circle>
                            </g>
                            <g id="drapeaux" transform="translate(19.000000, 0.000000)">
                                <g id="drapeau-uk" transform="translate(102.000000, 0.000000)">
                                    <path d="M30.9786897,2.967 C30.9786897,2.61405882 30.6257931,2.32758824 30.192,2.32758824 C29.7593793,2.32758824 29.407069,2.61405882 29.407069,2.967 L29.407069,47.4822941 C29.407069,47.8364118 29.7593793,48.1228824 30.192,48.1228824 C30.6257931,48.1228824 30.9786897,47.8364118 30.9786897,47.4822941 L30.9786897,2.967 Z" id="Fill-1" fill="#D4D8DA"></path>
                                    <path d="M26.590169,49.5229412 L26.590169,48.0764706 C26.590169,47.3282353 27.1968931,46.7217647 27.9407897,46.7217647 L32.4416862,46.7217647 C33.1896862,46.7217647 33.7964103,47.3282353 33.7964103,48.0764706 L33.7964103,49.5229412 L26.590169,49.5229412 Z" id="Fill-3" fill="#D5D9DA"></path>
                                    <polyline id="Fill-5" fill="#3A434C" points="0.0878724138 0.879 0.0878724138 17.1748824 30.978631 17.1748824"></polyline>
                                    <path d="M0.0878724138,0.750470588 L0.0878724138,0.751058824 L0.0878724138,0.750470588 Z" id="Fill-7" fill="#06698D"></path>
                                    <polygon id="Fill-9" fill="#06698D" points="0.0878724138 1.58941176 0.0878724138 16.3541176 13.9399414 8.97176471"></polygon>
                                    <polygon id="Fill-11" fill="#06698D" points="29.3658 0.750470588 1.66166207 0.750470588 15.513731 8.13282353"></polygon>
                                    <polygon id="Fill-13" fill="#06698D" points="30.9397655 16.3539412 30.9397655 1.58923529 17.0876966 8.97158824"></polygon>
                                    <polygon id="Fill-15" fill="#06698D" points="1.66166207 17.1930588 29.3658 17.1930588 15.513731 9.81070588"></polygon>
                                    <path d="M30.9397655,17.1930588 L30.9397655,17.1924706 L30.9397655,17.1930588 Z" id="Fill-17" fill="#06698D"></path>
                                    <polygon id="Fill-19" fill="#06698D" points="30.9397655 0.750470588 30.9397655 0.750470588 30.9397655 0.751058824"></polygon>
                                    <polygon id="Fill-21" fill="#06698D" points="0.0878724138 17.1930588 0.0878724138 17.1930588 0.0878724138 17.1924706"></polygon>
                                    <polygon id="Fill-23" fill="#FFFFFF" points="15.5138483 8.13282353 1.66177931 0.750470588 0.0878137931 0.750470588 0.0878137931 0.751058824 0.0878137931 1.58929412 13.9398828 8.97164706"></polygon>
                                    <polygon id="Fill-25" fill="#FFFFFF" points="15.5138483 9.81058824 29.3659172 17.1929412 30.9398828 17.1929412 30.9398828 17.1929412 30.9398828 16.3541176 17.0878138 8.97176471"></polygon>
                                    <polygon id="Fill-27" fill="#FFFFFF" points="30.9397655 0.750823529 30.9397655 0.750235294 30.9391793 0.750235294 30.9397655 0.751411765"></polygon>
                                    <polygon id="Fill-29" fill="#FFFFFF" points="17.0878724 8.97176471 30.9399414 1.58941176 30.9399414 0.961176471 16.6200793 8.72235294"></polygon>
                                    <polygon id="Fill-31" fill="#FFFFFF" points="16.2284345 8.51370588 30.5529862 0.750764706 29.3659172 0.750764706 15.5138483 8.13311765"></polygon>
                                    <polygon id="Fill-33" fill="#FFFFFF" points="13.9397655 8.97176471 0.0876965517 16.3541176 0.0876965517 16.9841176 14.6549379 9.35294118"></polygon>
                                    <polygon id="Fill-35" fill="#FFFFFF" points="15.0501 9.56347059 0.486375862 17.1928824 1.66172069 17.1928824 15.5137897 9.81052941"></polygon>
                                    <polygon id="Fill-37" fill="#FFFFFF" points="0.0880482759 17.1930588 0.0880482759 17.1930588 0.0880482759 17.1924706"></polygon>
                                    <polygon id="Fill-39" fill="#FFFFFF" points="13.9397655 8.97176471 14.6549379 9.35294118 15.4035241 8.96117647 16.2283172 8.51352941 15.513731 8.13294118"></polygon>
                                    <polygon id="Fill-41" fill="#FFFFFF" points="15.0501 9.56347059 15.5137897 9.81052941 17.0877552 8.97170588 16.6199621 8.72229412 15.5765138 9.28758824"></polygon>
                                    <polygon id="Fill-43" fill="#E15D5B" points="30.9397655 0.751176471 30.9397655 0.961176471 31.0271103 0.913529412"></polygon>
                                    <polygon id="Fill-45" fill="#E15D5B" points="0.00252068966 17.0287059 0.0881068966 17.1928235 0.0881068966 16.984"></polygon>
                                    <polygon id="Fill-47" fill="#E15D5B" points="0.1734 17.3571176 0.486434483 17.193 0.0884 17.193"></polygon>
                                    <polygon id="Fill-49" fill="#E15D5B" points="30.852069 0.588294118 30.5525172 0.750647059 30.9394138 0.750647059"></polygon>
                                    <polygon id="Fill-51" fill="#E15D5B" points="30.9394138 0.750470588 30.5525172 0.750470588 16.2285517 8.51341176 16.6195517 8.72223529 30.94 0.961058824 30.94 0.751058824"></polygon>
                                    <polygon id="Fill-53" fill="#E15D5B" points="14.6549379 9.35288235 0.0876965517 16.9840588 0.0876965517 17.1928824 0.0882827586 17.1928824 0.486317241 17.1928824 15.0500414 9.56347059"></polygon>
                                    <polygon id="Fill-55" fill="#E15D5B" points="14.6549379 9.35288235 15.0500414 9.56347059 15.5764552 9.28758824 16.6199034 8.72229412 16.2283172 8.51347059 15.4035241 8.96111765"></polygon>
                                    <g id="Group-59" transform="translate(0.000000, 0.111176)">
                                        <mask id="mask-2" fill="white">
                                            <use xlink:href="#path-1"></use>
                                        </mask>
                                        <g id="Clip-58"></g>
                                        <polygon id="Fill-57" fill="#E15D5B" mask="url(#mask-2)" points="30.8545897 17.2462353 15.4039345 9.178 0.000175862069 0.802705882 0.176037931 0.476823529 15.5768655 8.85094118 31.0245897 16.918"></polygon>
                                    </g>
                                    <mask id="mask-4" fill="white">
                                        <use xlink:href="#path-3"></use>
                                    </mask>
                                    <g id="Clip-61"></g>
                                    <polygon id="Fill-60" fill="#FFFFFF" mask="url(#mask-4)" points="0.0381034483 11.0117647 30.9898276 11.0117647 30.9898276 7.30823529 0.0381034483 7.30823529"></polygon>
                                    <polygon id="Fill-62" fill="#FFFFFF" mask="url(#mask-4)" points="13.4106552 17.1752941 17.716931 17.1752941 17.716931 0.751176471 13.4106552 0.751176471"></polygon>
                                    <polygon id="Fill-63" fill="#E15D5B" mask="url(#mask-4)" points="14.6217586 17.1929412 16.4671379 17.1929412 16.4671379 0.751176471 14.6217586 0.751176471"></polygon>
                                    <polygon id="Fill-64" fill="#E15D5B" mask="url(#mask-4)" points="17.9705828 8.43935294 12.6724448 8.43935294 0.0379275862 8.43935294 0.0379275862 9.81052941 12.6724448 9.81052941 17.9705828 9.81052941 30.9398241 9.81052941 30.9398241 8.43935294"></polygon>
                                </g>
                                <g id="drapeau-us" transform="translate(0.000000, 24.000000)">
                                    <path d="M31.77075,0.799444444 C31.77075,0.429074074 31.3945,0.12845679 30.932,0.12845679 C30.47075,0.12845679 30.095125,0.429074074 30.095125,0.799444444 L30.095125,47.5130247 C30.095125,47.8846296 30.47075,48.1852469 30.932,48.1852469 C31.3945,48.1852469 31.77075,47.8846296 31.77075,47.5130247 L31.77075,0.799444444 Z" id="Fill-1" fill="#D4D8DA"></path>
                                    <path d="M27.0918125,49.6544444 L27.0918125,48.1365432 C27.0918125,47.351358 27.7386875,46.7149383 28.5318125,46.7149383 L33.3305625,46.7149383 C34.1280625,46.7149383 34.7749375,47.351358 34.7749375,48.1365432 L34.7749375,49.6544444 L27.0918125,49.6544444 Z" id="Fill-3" fill="#D5D9DA"></path>
                                    <mask id="mask-6" fill="white">
                                        <use xlink:href="#path-5"></use>
                                    </mask>
                                    <g id="Clip-6"></g>
                                    <polygon id="Fill-5" fill="#FEFEFE" mask="url(#mask-6)" points="0 17.2235802 31.78375 17.2235802 31.78375 0.00012345679 0 0.00012345679"></polygon>
                                    <polygon id="Fill-7" fill="#E63027" mask="url(#mask-6)" points="15.25625 4.03901235 31.78375 4.03901235 31.78375 2.62666667 15.25625 2.62666667"></polygon>
                                    <polygon id="Fill-8" fill="#E63027" mask="url(#mask-6)" points="15.25625 6.66493827 31.78375 6.66493827 31.78375 5.25259259 15.25625 5.25259259"></polygon>
                                    <polygon id="Fill-9" fill="#E63027" mask="url(#mask-6)" points="15.25625 9.28098765 31.78375 9.28098765 31.78375 7.8791358 15.25625 7.8791358"></polygon>
                                    <polygon id="Fill-10" fill="#E63027" mask="url(#mask-6)" points="15.25625 1.41246914 31.78375 1.41246914 31.78375 0.00012345679 15.25625 0.00012345679"></polygon>
                                    <polygon id="Fill-11" fill="#114395" mask="url(#mask-6)" points="0.031875 9.28160494 15.235 9.28160494 15.235 0.00012345679 0.031875 0.00012345679"></polygon>
                                    <polygon id="Fill-12" fill="#E63027" mask="url(#mask-6)" points="0 11.9704938 31.78375 11.9704938 31.78375 10.5581481 0 10.5581481"></polygon>
                                    <polygon id="Fill-13" fill="#E63027" mask="url(#mask-6)" points="0 14.597037 31.78375 14.597037 31.78375 13.1846914 0 13.1846914"></polygon>
                                    <polygon id="Fill-14" fill="#E63027" mask="url(#mask-6)" points="0 17.222963 31.78375 17.222963 31.78375 15.8106173 0 15.8106173"></polygon>
                                    <polygon id="Fill-15" fill="#FEFEFE" mask="url(#mask-6)" points="13.9213125 5.15864198 14.0694375 4.7191358 13.6881875 4.44691358 14.1650625 4.44691358 14.3131875 4.00740741 14.4513125 4.44691358 14.9275625 4.44691358 14.5356875 4.7191358 14.6844375 5.15864198 14.3131875 4.88641975"></polygon>
                                    <polygon id="Fill-16" fill="#FEFEFE" mask="url(#mask-6)" points="13.9213125 7.04216049 14.0694375 6.60265432 13.6881875 6.3304321 14.1650625 6.3304321 14.3131875 5.89092593 14.4513125 6.3304321 14.9275625 6.3304321 14.5356875 6.60265432 14.6844375 7.04216049 14.3131875 6.76993827"></polygon>
                                    <polygon id="Fill-17" fill="#FEFEFE" mask="url(#mask-6)" points="13.9636875 8.92561728 14.1118125 8.48611111 13.7199375 8.21388889 14.1968125 8.21388889 14.3343125 7.77438272 14.4830625 8.21388889 14.9593125 8.21388889 14.5780625 8.48611111 14.7268125 8.92561728 14.3343125 8.64290123"></polygon>
                                    <polygon id="Fill-18" fill="#FEFEFE" mask="url(#mask-6)" points="0.741625 1.45444444 0.879125 1.01493827 0.497875 0.742716049 0.964125 0.742716049 1.11225 0.303209877 1.261 0.742716049 1.726625 0.742716049 1.345375 1.01493827 1.494125 1.45444444 1.11225 1.18222222"></polygon>
                                    <polygon id="Fill-19" fill="#FEFEFE" mask="url(#mask-6)" points="0.773375 3.33796296 0.910875 2.89845679 0.54025 2.62623457 1.0065 2.62623457 1.144 2.1867284 1.29275 2.62623457 1.758375 2.62623457 1.38775 2.89845679 1.525875 3.33796296 1.144 3.06574074"></polygon>
                                    <polygon id="Fill-20" fill="#FEFEFE" mask="url(#mask-6)" points="0.8051875 5.23191358 0.9426875 4.78191358 0.5720625 4.52018519 1.0383125 4.52018519 1.1864375 4.07018519 1.3245625 4.52018519 1.8008125 4.52018519 1.4195625 4.78191358 1.5576875 5.23191358 1.1864375 4.95969136"></polygon>
                                    <polygon id="Fill-21" fill="#FEFEFE" mask="url(#mask-6)" points="0.8051875 7.11537037 0.9426875 6.6758642 0.5720625 6.39314815 1.0383125 6.39314815 1.1864375 5.95364198 1.3245625 6.39314815 1.8008125 6.39314815 1.4195625 6.6758642 1.5576875 7.11537037 1.1864375 6.83265432"></polygon>
                                    <polygon id="Fill-22" fill="#FEFEFE" mask="url(#mask-6)" points="0.837 8.98839506 0.985125 8.55938272 0.603875 8.28716049 1.070125 8.28716049 1.21825 7.83716049 1.356375 8.28716049 1.832625 8.28716049 1.451375 8.55938272 1.600125 8.98839506 1.21825 8.71617284"></polygon>
                                    <polygon id="Fill-23" fill="#FEFEFE" mask="url(#mask-6)" points="2.0659375 2.42759259 2.2140625 1.98808642 1.8328125 1.7158642 2.2990625 1.7158642 2.4471875 1.27635802 2.5853125 1.7158642 3.0615625 1.7158642 2.6803125 1.98808642 2.8184375 2.42759259 2.4471875 2.15537037"></polygon>
                                    <polygon id="Fill-24" fill="#FEFEFE" mask="url(#mask-6)" points="2.09775 4.27969136 2.245875 3.84018519 1.864625 3.56796296 2.330875 3.56796296 2.479 3.12845679 2.617125 3.56796296 3.093375 3.56796296 2.712125 3.84018519 2.860875 4.27969136 2.479 4.00746914"></polygon>
                                    <polygon id="Fill-25" fill="#FEFEFE" mask="url(#mask-6)" points="2.09775 6.23641975 2.245875 5.79691358 1.864625 5.52469136 2.330875 5.52469136 2.479 5.08518519 2.617125 5.52469136 3.093375 5.52469136 2.712125 5.79691358 2.860875 6.23641975 2.479 5.96419753"></polygon>
                                    <polygon id="Fill-26" fill="#FEFEFE" mask="url(#mask-6)" points="2.0659375 8.19314815 2.2140625 7.75364198 1.8328125 7.48141975 2.2990625 7.48141975 2.4471875 7.03141975 2.5853125 7.48141975 3.0615625 7.48141975 2.6803125 7.75364198 2.8184375 8.19314815 2.4471875 7.92092593"></polygon>
                                    <polygon id="Fill-27" fill="#FEFEFE" mask="url(#mask-6)" points="3.39025 1.42308642 3.538375 0.983580247 3.157125 0.711358025 3.623375 0.711358025 3.7715 0.271851852 3.92025 0.711358025 4.385875 0.711358025 4.01525 0.983580247 4.153375 1.42308642 3.7715 1.1508642"></polygon>
                                    <polygon id="Fill-28" fill="#FEFEFE" mask="url(#mask-6)" points="3.4220625 3.30654321 3.5701875 2.86703704 3.1889375 2.59481481 3.6658125 2.59481481 3.8139375 2.15530864 3.9520625 2.59481481 4.4176875 2.59481481 4.0364375 2.86703704 4.1851875 3.30654321 3.8139375 3.03432099"></polygon>
                                    <polygon id="Fill-29" fill="#FEFEFE" mask="url(#mask-6)" points="3.4644375 5.19006173 3.6125625 4.75055556 3.2206875 4.47833333 3.6975625 4.47833333 3.8456875 4.03882716 3.9838125 4.47833333 4.4600625 4.47833333 4.0788125 4.75055556 4.2169375 5.19006173 3.8456875 4.91783951"></polygon>
                                    <polygon id="Fill-30" fill="#FEFEFE" mask="url(#mask-6)" points="3.4644375 7.08401235 3.6125625 6.63401235 3.2206875 6.36179012 3.6975625 6.36179012 3.8456875 5.92228395 3.9838125 6.36179012 4.4600625 6.36179012 4.0788125 6.63401235 4.2169375 7.08401235 3.8456875 6.81179012"></polygon>
                                    <polygon id="Fill-31" fill="#FEFEFE" mask="url(#mask-6)" points="3.4961875 8.95703704 3.6443125 8.52802469 3.2630625 8.24530864 3.7293125 8.24530864 3.8774375 7.80580247 4.0155625 8.24530864 4.4918125 8.24530864 4.1105625 8.52802469 4.2593125 8.95703704 3.8774375 8.67432099"></polygon>
                                    <polygon id="Fill-32" fill="#FEFEFE" mask="url(#mask-6)" points="4.7251875 2.39623457 4.8733125 1.9567284 4.4920625 1.68450617 4.9583125 1.68450617 5.1064375 1.245 5.2445625 1.68450617 5.7208125 1.68450617 5.3395625 1.9567284 5.4883125 2.4067284 5.1064375 2.12401235"></polygon>
                                    <polygon id="Fill-33" fill="#FEFEFE" mask="url(#mask-6)" points="4.757 4.2482716 4.905125 3.80876543 4.523875 3.53654321 4.990125 3.53654321 5.13825 3.09703704 5.287 3.53654321 5.752625 3.53654321 5.371375 3.80876543 5.520125 4.2482716 5.13825 3.97604938"></polygon>
                                    <polygon id="Fill-34" fill="#FEFEFE" mask="url(#mask-6)" points="4.757 6.20506173 4.905125 5.76555556 4.523875 5.49333333 4.990125 5.49333333 5.13825 5.04333333 5.287 5.49333333 5.752625 5.49333333 5.371375 5.76555556 5.520125 6.20506173 5.13825 5.93283951"></polygon>
                                    <polygon id="Fill-35" fill="#FEFEFE" mask="url(#mask-6)" points="4.7251875 8.1512963 4.8733125 7.71179012 4.4920625 7.4395679 4.9583125 7.4395679 5.1064375 7.00006173 5.2445625 7.4395679 5.7208125 7.4395679 5.3395625 7.71179012 5.4883125 8.1512963 5.1064375 7.8895679"></polygon>
                                    <polygon id="Fill-36" fill="#FEFEFE" mask="url(#mask-6)" points="6.0495 1.39166667 6.197625 0.952160494 5.816375 0.679938272 6.29325 0.679938272 6.43075 0.229938272 6.5795 0.679938272 7.045125 0.679938272 6.663875 0.952160494 6.812625 1.39166667 6.43075 1.11944444"></polygon>
                                    <polygon id="Fill-37" fill="#FEFEFE" mask="url(#mask-6)" points="6.0919375 3.27518519 6.2294375 2.83567901 5.8481875 2.56345679 6.3250625 2.56345679 6.4625625 2.12395062 6.6113125 2.56345679 7.0875625 2.56345679 6.6956875 2.83567901 6.8444375 3.27518519 6.4625625 3.00296296"></polygon>
                                    <polygon id="Fill-38" fill="#FEFEFE" mask="url(#mask-6)" points="6.1236875 5.15864198 6.2611875 4.7191358 5.8905625 4.44691358 6.3568125 4.44691358 6.4943125 4.00740741 6.6430625 4.44691358 7.1193125 4.44691358 6.7380625 4.7191358 6.8861875 5.15864198 6.4943125 4.88641975"></polygon>
                                    <polygon id="Fill-39" fill="#FEFEFE" mask="url(#mask-6)" points="6.1236875 7.04216049 6.2611875 6.60265432 5.8905625 6.3304321 6.3568125 6.3304321 6.4943125 5.89092593 6.6430625 6.3304321 7.1193125 6.3304321 6.7380625 6.60265432 6.8861875 7.04216049 6.4943125 6.76993827"></polygon>
                                    <polygon id="Fill-40" fill="#FEFEFE" mask="url(#mask-6)" points="6.1555 8.92561728 6.293 8.48611111 5.922375 8.21388889 6.388625 8.21388889 6.53675 7.77438272 6.6855 8.21388889 7.151125 8.21388889 6.769875 8.48611111 6.918625 8.92561728 6.53675 8.64290123"></polygon>
                                    <polygon id="Fill-41" fill="#FEFEFE" mask="url(#mask-6)" points="7.3844375 2.36481481 7.5219375 1.92530864 7.1513125 1.65308642 7.6175625 1.65308642 7.7656875 1.21358025 7.9038125 1.65308642 8.3694375 1.65308642 7.9988125 1.92530864 8.1469375 2.36481481 7.7656875 2.09259259"></polygon>
                                    <polygon id="Fill-42" fill="#FEFEFE" mask="url(#mask-6)" points="7.41625 4.21691358 7.564375 3.77740741 7.183125 3.50518519 7.649375 3.50518519 7.7975 3.06567901 7.94625 3.50518519 8.411875 3.50518519 8.030625 3.77740741 8.179375 4.21691358 7.7975 3.94469136"></polygon>
                                    <polygon id="Fill-43" fill="#FEFEFE" mask="url(#mask-6)" points="7.41625 6.17364198 7.564375 5.72364198 7.183125 5.45141975 7.649375 5.45141975 7.7975 5.01191358 7.94625 5.45141975 8.411875 5.45141975 8.030625 5.72364198 8.179375 6.17364198 7.7975 5.90141975"></polygon>
                                    <polygon id="Fill-44" fill="#FEFEFE" mask="url(#mask-6)" points="7.3844375 8.11993827 7.5219375 7.6804321 7.1513125 7.40820988 7.6175625 7.40820988 7.7656875 6.9687037 7.9038125 7.40820988 8.3694375 7.40820988 7.9988125 7.6804321 8.1469375 8.11993827 7.7656875 7.84771605"></polygon>
                                    <polygon id="Fill-45" fill="#FEFEFE" mask="url(#mask-6)" points="8.70875 1.34981481 8.856875 0.910308642 8.475625 0.63808642 8.941875 0.63808642 9.09 0.198580247 9.23875 0.63808642 9.704375 0.63808642 9.323125 0.910308642 9.471875 1.34981481 9.09 1.07759259"></polygon>
                                    <polygon id="Fill-46" fill="#FEFEFE" mask="url(#mask-6)" points="8.751125 3.24376543 8.888625 2.80425926 8.507375 2.53203704 8.973625 2.53203704 9.12175 2.08203704 9.2705 2.53203704 9.736125 2.53203704 9.3655 2.80425926 9.503625 3.24376543 9.12175 2.97154321"></polygon>
                                    <polygon id="Fill-47" fill="#FEFEFE" mask="url(#mask-6)" points="8.772375 5.12728395 8.9205 4.68777778 8.549875 4.41555556 9.016125 4.41555556 9.16425 3.97604938 9.302375 4.41555556 9.778625 4.41555556 9.397375 4.68777778 9.5355 5.12728395 9.16425 4.85506173"></polygon>
                                    <polygon id="Fill-48" fill="#FEFEFE" mask="url(#mask-6)" points="8.772375 7.01074074 8.9205 6.57123457 8.549875 6.29901235 9.016125 6.29901235 9.16425 5.85950617 9.302375 6.29901235 9.778625 6.29901235 9.397375 6.57123457 9.5355 7.01074074 9.16425 6.73851852"></polygon>
                                    <polygon id="Fill-49" fill="#FEFEFE" mask="url(#mask-6)" points="8.81475 8.88376543 8.962875 8.45475309 8.581625 8.18253086 9.047875 8.18253086 9.196 7.74302469 9.334125 8.18253086 9.810375 8.18253086 9.429125 8.45475309 9.57725 8.88376543 9.196 8.61154321"></polygon>
                                    <polygon id="Fill-50" fill="#FEFEFE" mask="url(#mask-6)" points="10.0436875 2.33339506 10.1811875 1.89388889 9.8105625 1.61117284 10.2768125 1.61117284 10.4249375 1.17166667 10.5630625 1.61117284 11.0393125 1.61117284 10.6580625 1.89388889 10.7961875 2.33339506 10.4249375 2.06117284"></polygon>
                                    <polygon id="Fill-51" fill="#FEFEFE" mask="url(#mask-6)" points="10.0755 4.18549383 10.223625 3.74598765 9.842375 3.4632716 10.308625 3.4632716 10.45675 3.02376543 10.594875 3.4632716 11.071125 3.4632716 10.689875 3.74598765 10.838 4.18549383 10.45675 3.9132716"></polygon>
                                    <polygon id="Fill-52" fill="#FEFEFE" mask="url(#mask-6)" points="10.0755 6.13179012 10.223625 5.69228395 9.842375 5.42006173 10.308625 5.42006173 10.45675 4.98055556 10.594875 5.42006173 11.071125 5.42006173 10.689875 5.69228395 10.838 6.13179012 10.45675 5.8595679"></polygon>
                                    <polygon id="Fill-53" fill="#FEFEFE" mask="url(#mask-6)" points="10.0436875 8.08851852 10.1811875 7.64901235 9.8105625 7.37679012 10.2768125 7.37679012 10.4249375 6.93728395 10.5630625 7.37679012 11.0393125 7.37679012 10.6580625 7.64901235 10.7961875 8.08851852 10.4249375 7.8162963"></polygon>
                                    <polygon id="Fill-54" fill="#FEFEFE" mask="url(#mask-6)" points="13.85775 1.39166667 14.005875 0.952160494 13.624625 0.679938272 14.090875 0.679938272 14.239 0.229938272 14.38775 0.679938272 14.853375 0.679938272 14.472125 0.952160494 14.62025 1.39166667 14.239 1.11944444"></polygon>
                                    <polygon id="Fill-55" fill="#FEFEFE" mask="url(#mask-6)" points="13.8895625 3.27518519 14.0376875 2.83567901 13.6564375 2.56345679 14.1226875 2.56345679 14.2708125 2.12395062 14.4195625 2.56345679 14.8851875 2.56345679 14.5039375 2.83567901 14.6526875 3.27518519 14.2708125 3.00296296"></polygon>
                                    <polygon id="Fill-56" fill="#FEFEFE" mask="url(#mask-6)" points="11.368 1.31839506 11.516125 0.878888889 11.134875 0.606666667 11.601125 0.606666667 11.74925 0.167160494 11.898 0.606666667 12.363625 0.606666667 11.982375 0.878888889 12.131125 1.31839506 11.74925 1.04617284"></polygon>
                                    <polygon id="Fill-57" fill="#FEFEFE" mask="url(#mask-6)" points="11.3998125 3.20191358 11.5479375 2.76240741 11.1666875 2.49018519 11.6435625 2.49018519 11.7810625 2.05067901 11.9298125 2.49018519 12.3954375 2.49018519 12.0141875 2.76240741 12.1623125 3.20191358 11.7810625 2.92969136"></polygon>
                                    <polygon id="Fill-58" fill="#FEFEFE" mask="url(#mask-6)" points="11.4421875 5.0958642 11.5796875 4.65635802 11.1984375 4.3841358 11.6753125 4.3841358 11.8234375 3.9341358 11.9615625 4.3841358 12.4378125 4.3841358 12.0459375 4.65635802 12.1946875 5.0958642 11.8234375 4.82364198"></polygon>
                                    <polygon id="Fill-59" fill="#FEFEFE" mask="url(#mask-6)" points="11.4421875 6.97938272 11.5796875 6.53987654 11.1984375 6.26765432 11.6753125 6.26765432 11.8234375 5.82814815 11.9615625 6.26765432 12.4378125 6.26765432 12.0459375 6.53987654 12.1946875 6.97938272 11.8234375 6.70716049"></polygon>
                                    <polygon id="Fill-60" fill="#FEFEFE" mask="url(#mask-6)" points="11.474 8.85240741 11.622125 8.42339506 11.240875 8.15117284 11.707125 8.15117284 11.85525 7.70117284 11.993375 8.15117284 12.469625 8.15117284 12.088375 8.42339506 12.237125 8.85240741 11.85525 8.59067901"></polygon>
                                    <polygon id="Fill-61" fill="#FEFEFE" mask="url(#mask-6)" points="12.7029375 2.30203704 12.8510625 1.86253086 12.4591875 1.57981481 12.9360625 1.57981481 13.0841875 1.14030864 13.2223125 1.57981481 13.6985625 1.57981481 13.3173125 1.86253086 13.4554375 2.30203704 13.0841875 2.01932099"></polygon>
                                    <polygon id="Fill-62" fill="#FEFEFE" mask="url(#mask-6)" points="12.73475 4.1541358 12.882875 3.71462963 12.501625 3.43191358 12.967875 3.43191358 13.116 2.99240741 13.254125 3.43191358 13.730375 3.43191358 13.349125 3.71462963 13.497875 4.1541358 13.116 3.87141975"></polygon>
                                    <polygon id="Fill-63" fill="#FEFEFE" mask="url(#mask-6)" points="12.73475 6.10037037 12.882875 5.6608642 12.501625 5.38864198 12.967875 5.38864198 13.116 4.9491358 13.254125 5.38864198 13.730375 5.38864198 13.349125 5.6608642 13.497875 6.10037037 13.116 5.82814815"></polygon>
                                    <polygon id="Fill-64" fill="#FEFEFE" mask="url(#mask-6)" points="12.7029375 8.05716049 12.8510625 7.61765432 12.4591875 7.3454321 12.9360625 7.3454321 13.0841875 6.8954321 13.2223125 7.3454321 13.6985625 7.3454321 13.3173125 7.61765432 13.4554375 8.05716049 13.0841875 7.78493827"></polygon>
                                </g>
                                <g id="drapeau-fr" transform="translate(142.000000, 9.000000)">
                                    <path d="M2.90077586,2.83809524 C2.90077586,2.48095238 3.26405172,2.19107143 3.71060345,2.19107143 C4.15594828,2.19107143 4.51862069,2.48095238 4.51862069,2.83809524 L4.51862069,47.8833333 C4.51862069,48.2416667 4.15594828,48.5315476 3.71060345,48.5315476 C3.26405172,48.5315476 2.90077586,48.2416667 2.90077586,47.8833333 L2.90077586,2.83809524 Z" id="Fill-1" fill="#D4D8DA"></path>
                                    <path d="M7.41837069,49.9482738 L7.41837069,48.4845833 C7.41837069,47.7274405 6.79380172,47.11375 6.02802586,47.11375 L1.39475,47.11375 C0.62475,47.11375 0.000181034483,47.7274405 0.000181034483,48.4845833 L0.000181034483,49.9482738 L7.41837069,49.9482738 Z" id="Fill-3" fill="#D5D9DA"></path>
                                    <polygon id="Fill-5" fill="#06698D" points="13.5281034 17.2334524 13.5281034 17.2334524 2.94060345 17.2334524 2.94060345 0.595357143 13.5281034 0.595357143"></polygon>
                                    <polygon id="Fill-7" fill="#FFFFFF" points="24.0941207 17.2334524 24.0941207 17.2334524 13.5066207 17.2334524 13.5066207 0.595357143 24.0941207 0.595357143"></polygon>
                                    <polygon id="Fill-9" fill="#E15D5B" points="34.7431121 17.2334524 34.7431121 17.2334524 24.1556121 17.2334524 24.1556121 0.595357143 34.7431121 0.595357143"></polygon>
                                </g>
                            </g>
                        </g>
                        <g id="ordi" transform="translate(23.000000, 165.300049)">
                            <path d="M218.039772,0.583982398 L33.416223,0.583982398 C28.78274,0.583982398 25.0230321,4.40368128 25.0230321,9.0980564 L25.0230321,130.61682 C25.0230321,131.702913 25.8847508,132.583391 26.9533328,132.583391 L224.491241,132.583391 C225.559823,132.583391 226.421541,131.702913 226.421541,130.61682 L226.421541,9.0980564 C226.421541,4.40368128 222.661199,0.583982398 218.039772,0.583982398" id="Fill-6" fill="#D4D8DA"></path>
                            <polyline id="Fill-7" fill="#FFFFFF" points="216.765216 11.7531532 216.765216 122.846059 34.6798656 122.846059 34.6798656 10.3215718 216.765216 10.3215718"></polyline>
                            <path d="M79.4787047,99.9160059 L154.913357,99.9160059 L154.913357,34.3739437 L79.4787047,34.3739437 L79.4787047,99.9160059 Z M155.230632,103.624839 L79.1614297,103.624839 C77.3231388,103.624839 75.8281393,102.105597 75.8281393,100.238289 L75.8281393,34.0516606 C75.8281393,32.1843525 77.3231388,30.6651102 79.1614297,30.6651102 L155.230632,30.6651102 C157.068923,30.6651102 158.564557,32.1843525 158.564557,34.0516606 L158.564557,100.238289 C158.564557,102.105597 157.068923,103.624839 155.230632,103.624839 L155.230632,103.624839 Z" id="Fill-14" fill="#FFFFFF"></path>
                            <path d="M249.801467,129.495274 L249.801467,134.284401 C249.801467,136.694434 247.860379,138.666161 245.487797,138.666161 L4.99594069,138.666161 C2.62335878,138.666161 0.682270773,136.694434 0.682270773,134.284401 L0.682270773,129.495274" id="Fill-24" fill="#A0A8AD"></path>
                            <g id="interface" transform="translate(34.000000, 10.000000)">
                                <polygon id="Fill-8" fill="#06698D" points="0.607780761 112.845801 27.4352795 112.845801 27.4352795 0.316802032 0.607780761 0.316802032"></polygon>
                                <polygon id="Fill-8" fill="#10526D" points="0.607780761 10.2368021 27.4352795 10.2368021 27.4352795 0.316802032 0.607780761 0.316802032"></polygon>
                                <path d="M27.69,10 L183,10" id="Line" stroke="#D5D9DA" stroke-width="0.5" stroke-linecap="square"></path>
                                <path d="M27.69,20 L183,20" id="Line" stroke="#D5D9DA" stroke-width="0.5" stroke-linecap="square"></path>
                                <path d="M35,5 L119,5" id="Stroke-13" stroke="#708189" stroke-width="2" stroke-linecap="round" stroke-linejoin="round"></path>
                                <path d="M35,15 L45,15" id="Stroke-13" stroke="#BAC1C3" stroke-width="2" stroke-linecap="round" stroke-linejoin="round"></path>
                                <path d="M50,15 L60,15" id="Stroke-13" stroke="#BAC1C3" stroke-width="2" stroke-linecap="round" stroke-linejoin="round"></path>
                                <path d="M167,15 L177,15" id="Stroke-13" stroke="#46B489" stroke-width="2" stroke-linecap="round" stroke-linejoin="round"></path>
                                <g id="contenu" transform="translate(27.000000, 15.000000)"></g>
                                <g id="line-00" transform="translate(35.000000, 29.000000)" stroke="#708189" stroke-width="2" stroke-linecap="round" stroke-linejoin="round">
                                    <path d="M0,1.6 L30,1.6" id="Stroke-13"></path>
                                    <path d="M0,37.6 L30,37.6" id="Stroke-13"></path>
                                </g>
                                <g id="line-01" transform="translate(34.000000, 40.000000)">
                                    <circle id="Oval" fill="#46B489" cx="1.5" cy="1.5" r="1.5"></circle>
                                    <path d="M7,1.6 L107,1.6" id="Stroke-13" stroke="#BAC1C3" stroke-width="2" stroke-linecap="round" stroke-linejoin="round"></path>
                                </g>
                                <g id="line-02" transform="translate(34.000000, 50.000000)">
                                    <circle id="Oval" fill="#46B489" cx="1.5" cy="1.5" r="1.5"></circle>
                                    <path d="M7,1.6 L87,1.6" id="Stroke-13" stroke="#BAC1C3" stroke-width="2" stroke-linecap="round" stroke-linejoin="round"></path>
                                </g>
                                <g id="line-03" transform="translate(34.000000, 77.000000)">
                                    <path d="M7,6.6 L87,6.6" id="Stroke-13" stroke="#BAC1C3" stroke-width="2" stroke-linecap="round" stroke-linejoin="round"></path>
                                    <path d="M7,11.6 L77,11.6" id="Stroke-13" stroke="#BAC1C3" stroke-width="2" stroke-linecap="round" stroke-linejoin="round"></path>
                                    <circle id="Oval" fill="#F1BC33" cx="1.5" cy="1.5" r="1.5"></circle>
                                    <path d="M7,1.6 L47,1.6" id="Stroke-13" stroke="#BAC1C3" stroke-width="2" stroke-linecap="round" stroke-linejoin="round"></path>
                                </g>
                                <g id="line-04" transform="translate(34.000000, 97.000000)">
                                    <circle id="Oval" fill="#E25C5B" cx="1.5" cy="1.5" r="1.5"></circle>
                                    <path d="M7,1.6 L107,1.6" id="Stroke-13" stroke="#BAC1C3" stroke-width="2" stroke-linecap="round" stroke-linejoin="round"></path>
                                    <path d="M7,6.6 L47,6.6" id="Stroke-13" stroke="#BAC1C3" stroke-width="2" stroke-linecap="round" stroke-linejoin="round"></path>
                                </g>
                                <g id="logo-solid" transform="translate(3.000000, 2.800049)" fill="#FFFFFF">
                                    <polygon id="Fill-1" points="5.10797861 0.0122802095 5.62678177 0.0122802095 5.62678177 3.69123644 5.10797861 3.69123644"></polygon>
                                    <polygon id="Fill-2" points="6.37488953 1.31069959 6.8936927 1.31069959 6.8936927 3.69123644 6.37488953 3.69123644"></polygon>
                                    <polygon id="Fill-3" points="0.0305903913 0.0189674523 1.57417167 0.0189674523 1.57417167 0.530359147 0.0305903913 0.530359147"></polygon>
                                    <path d="M3.95417812,1.51654508 C3.76274148,1.38887954 3.53022983,1.31398242 3.28229965,1.314104 C3.1171362,1.314104 2.95851022,1.34729704 2.81468604,1.40723906 C2.59870308,1.49733446 2.41590082,1.64712869 2.28638505,1.8360737 C2.15686928,2.02465395 2.08101005,2.253844 2.08101005,2.49823232 C2.08101005,2.66103629 2.11468415,2.81739618 2.17561823,2.95916573 C2.26689601,3.17206322 2.41886118,3.35237561 2.61054452,3.47991957 C2.80185782,3.60758511 3.03449281,3.68248223 3.28229965,3.68223906 C3.44746309,3.68236064 3.60608907,3.6491676 3.7500366,3.58922559 C3.96589621,3.49913019 4.14882182,3.34933595 4.27821424,3.16039095 C4.40773001,2.9718107 4.4837126,2.74249906 4.48358925,2.49823232 C4.48358925,2.33542836 4.44991515,2.17906846 4.38910441,2.03717733 C4.29770328,1.82440142 4.14573811,1.64408904 3.95417812,1.51654508 L3.95417812,1.51654508 Z M3.91088285,2.7598859 C3.85932324,2.88013468 3.772486,2.98323981 3.66344605,3.05582679 C3.55428276,3.12841377 3.4245203,3.17036102 3.28229965,3.1704826 C3.18744476,3.1704826 3.09838725,3.15175832 3.01685399,3.11783577 C2.89486247,3.06701272 2.79013972,2.98141601 2.7166241,2.87393378 C2.64298514,2.76632997 2.60042996,2.63842125 2.60030661,2.49823232 C2.60030661,2.40473251 2.61930225,2.31694725 2.65383979,2.23657875 C2.7053994,2.11632997 2.7921133,2.01310325 2.90115324,1.94063786 C3.01031653,1.86805088 3.14020235,1.82610363 3.28229965,1.82598204 C3.37715453,1.82598204 3.46621204,1.84470632 3.5477453,1.87862888 C3.66973682,1.92945193 3.77445957,2.01504863 3.84797519,2.12253086 C3.92161416,2.23013468 3.96429269,2.35816498 3.96429269,2.49823232 C3.96429269,2.59173214 3.94529704,2.6795174 3.91088285,2.7598859 L3.91088285,2.7598859 Z" id="Fill-4"></path>
                                    <path d="M6.63786822,0.0106995885 C6.49910132,0.0106995885 6.38118029,0.126936027 6.38118029,0.263598952 C6.38118029,0.403787879 6.49910132,0.520024317 6.63786822,0.520024317 C6.78008887,0.520024317 6.89800989,0.403787879 6.89800989,0.263598952 C6.89800989,0.126936027 6.78008887,0.0106995885 6.63786822,0.0106995885" id="Fill-5"></path>
                                    <path d="M9.92769211,2.49397681 C9.92769211,2.48534418 9.92719872,2.47671156 9.92695202,2.46795735 L9.92695202,0.0122802095 L9.40814885,0.0122802095 L9.40814885,1.51946315 C9.40481845,1.51715301 9.40161139,1.5145997 9.39828098,1.51228956 C9.20684434,1.3847456 8.9743327,1.30984848 8.72640251,1.30997007 C8.56123907,1.30997007 8.40261309,1.34304153 8.25878891,1.40310513 C8.04280594,1.49320052 7.85988034,1.64299476 7.73048792,1.83181818 C7.60097215,2.02052001 7.52498956,2.24971006 7.52511291,2.49397681 C7.52511291,2.65678077 7.55878701,2.81314067 7.61959775,2.9550318 C7.71099888,3.16780771 7.86296405,3.34812009 8.05452404,3.47578563 C8.24596068,3.60345118 8.47847232,3.67822671 8.72640251,3.67810513 C8.89156595,3.67810513 9.05019194,3.64503367 9.19401611,3.58497007 C9.26987535,3.55335765 9.34141739,3.51396371 9.40814885,3.46849046 L9.40814885,3.69123644 L9.92695202,3.69123644 L9.92695202,2.52911523 C9.92732207,2.51744295 9.92769211,2.50577067 9.92769211,2.49397681 L9.92769211,2.49397681 Z M9.35498571,2.75563038 C9.3034261,2.87600075 9.21658886,2.97910587 9.10754892,3.05169285 C8.99838563,3.12415825 8.86849981,3.16622709 8.72640251,3.16634867 C8.63154763,3.16634867 8.54249012,3.14750281 8.46095686,3.11358025 C8.33896534,3.0627572 8.23424259,2.97716049 8.16072697,2.86967826 C8.087088,2.76207445 8.04440947,2.63416573 8.04440947,2.49397681 C8.04440947,2.40047699 8.06340512,2.31269173 8.09781931,2.23244482 C8.14937892,2.11207445 8.23621616,2.00896932 8.3452561,1.93638234 C8.4544194,1.86391695 8.58430521,1.82184811 8.72640251,1.82172652 C8.82125739,1.82172652 8.9103149,1.84057239 8.99184816,1.87449495 C9.11383969,1.92531799 9.21856244,2.0109147 9.29207805,2.11827535 C9.36460688,2.22442013 9.40691537,2.35026188 9.40814885,2.48801908 L9.40814885,2.50309577 C9.40691537,2.59319117 9.38828977,2.67793678 9.35498571,2.75563038 L9.35498571,2.75563038 Z" id="Fill-6"></path>
                                    <polygon id="Fill-7" points="0.0305903913 4.47546764 1.57417167 4.47546764 1.57417167 4.98685933 0.0305903913 4.98685933"></polygon>
                                    <path id="Fill-8"></path>
                                    <path d="M0.0310837847,3.01229892 C0.0309604364,3.0848859 0.0442820584,3.15564908 0.0678415936,3.22118406 C0.0699385156,3.22689862 0.0721587859,3.23249158 0.0742557079,3.23808455 C0.0785729002,3.24890572 0.0831367893,3.25960531 0.087947375,3.27018331 C0.0914011288,3.27747849 0.0947315343,3.28489525 0.0983086366,3.29206884 C0.100405559,3.29632435 0.102995874,3.30021511 0.105216144,3.30434905 C0.169603984,3.42508418 0.268776059,3.52101571 0.385956993,3.58728021 C0.475137852,3.6377385 0.575666759,3.67141788 0.682239735,3.68588664 C0.720601072,3.69099327 0.759825848,3.69391134 0.799790714,3.69391134 C0.849870145,3.69391134 0.898962789,3.68965582 0.94682195,3.68150954 C1.09015274,3.65694912 1.22139538,3.59712869 1.32772166,3.50837074 C1.38976588,3.45657501 1.44255898,3.39371493 1.48363398,3.32258698 C1.48943135,3.31237374 1.49584546,3.30264684 1.50114944,3.29206884 C1.52988961,3.23540965 1.55024209,3.17340067 1.56048,3.10847363 C1.56553728,3.07698279 1.5683743,3.04476244 1.5683743,3.01217733 C1.56862099,2.89569772 1.5347002,2.78432473 1.4780833,2.69070333 C1.42146641,2.59671717 1.34326355,2.51926674 1.25223247,2.46054059 L1.24520161,2.4560419 L0.721341163,2.16435653 L0.720971118,2.16496446 L0.626732977,2.11243921 C0.598856249,2.09383651 0.578750468,2.07207258 0.566662329,2.05201085 C0.553957449,2.03049009 0.548900166,2.01164422 0.54865347,1.9906098 C0.548776818,1.98149083 0.549763605,1.9729798 0.551860527,1.96434718 C0.553957449,1.95583614 0.557164506,1.9473251 0.561605047,1.93832772 C0.57480332,1.91182192 0.601939958,1.88166854 0.643385004,1.85820239 C0.684706702,1.83485784 0.73873328,1.81905163 0.799790714,1.81917321 C0.812002201,1.81917321 0.823843643,1.81990273 0.835561737,1.82111859 C0.90118306,1.82792742 0.95656647,1.8528526 0.992830885,1.88349233 C1.01417015,1.90148709 1.02897195,1.92057613 1.03785303,1.93832772 C1.04685746,1.95632248 1.05068126,1.97249345 1.05080461,1.9906098 L1.5683743,1.9906098 C1.56849764,1.89942013 1.54765177,1.81139169 1.51151071,1.7327254 C1.5081803,1.72530864 1.50484989,1.71801347 1.50114944,1.71083988 C1.49905252,1.70658436 1.49646221,1.7026936 1.49424194,1.69843808 C1.4298541,1.57782454 1.33080537,1.481893 1.21350109,1.41562851 C1.11099861,1.35763187 0.993570975,1.32188552 0.869112488,1.31203704 C0.846169695,1.31021324 0.823103553,1.30899738 0.799790714,1.30899738 C0.749711284,1.30899738 0.700495291,1.3132529 0.65263613,1.32139918 C0.509305345,1.34583801 0.378186047,1.40578002 0.271736419,1.49441639 C0.209815547,1.54633371 0.156899104,1.6090722 0.115824103,1.68032174 C0.11002673,1.69053498 0.103612616,1.70026188 0.0983086366,1.71083988 C0.0694451222,1.76774224 0.0489692957,1.83035915 0.0387313825,1.89577254 C0.0337974485,1.92677703 0.0310837847,1.95851104 0.0310837847,1.9906098 C0.030837088,2.107211 0.0647578848,2.21858399 0.121374778,2.31220539 C0.177991672,2.40619155 0.256194527,2.48364198 0.347225611,2.54224654 L0.354256467,2.54674523 L0.878116918,2.8384306 L0.878486963,2.83782267 L0.972725104,2.89034792 C1.00060183,2.9090722 1.02070761,2.93071455 1.03279575,2.95089787 C1.04550063,2.97241863 1.05055791,2.99114291 1.05080461,3.01229892 C1.05068126,3.0212963 1.04969448,3.02992892 1.04759755,3.03843996 C1.04550063,3.04695099 1.04241692,3.05558361 1.03785303,3.06445941 C1.02465476,3.09096521 0.997518123,3.12124018 0.956073076,3.14470632 C0.914751379,3.16805088 0.8607248,3.18385709 0.799790714,3.1837355 C0.779438236,3.18385709 0.759825848,3.1820333 0.741323596,3.17887205 C0.68557014,3.16926674 0.638697767,3.14640853 0.606627195,3.1192948 C0.58528793,3.10142162 0.570486128,3.082211 0.561605047,3.06445941 C0.552600617,3.04658623 0.548776818,3.03041526 0.54865347,3.01217733 L0.0310837847,3.01229892" id="Fill-9"></path>
                                    <path id="Fill-10"></path>
                                </g>
                            </g>
                        </g>
                        <g id="phone" transform="translate(300.000000, 194.399902)">
                            <path d="M54.0451798,109.602904 L6.02523193,109.602904 C2.88553031,109.602904 0.340308874,107.084136 0.340308874,103.977066 L0.340308874,5.6258377 C0.340308874,2.51876807 2.88553031,0 6.02523193,0 L54.0451798,0 C57.1848814,0 59.7301028,2.51876807 59.7301028,5.6258377 L59.7301028,103.977066 C59.7301028,107.084136 57.1848814,109.602904 54.0451798,109.602904" id="Fill-24" fill="#BAC1C3"></path>
                            <polygon id="Fill-25" fill="#0E5D7D" points="5.83326125 94.1415581 53.4520369 94.1415581 53.4520369 10.4254593 5.83326125 10.4254593"></polygon>
                            <path d="M34.3762712,101.886761 C34.3762712,104.518656 32.2203828,106.652138 29.5608457,106.652138 C26.9015027,106.652138 24.7454203,104.518656 24.7454203,101.886761 C24.7454203,99.2548653 26.9015027,97.1213838 29.5608457,97.1213838 C32.2203828,97.1213838 34.3762712,99.2548653 34.3762712,101.886761" id="Fill-26" fill="#FFFFFF"></path>
                            <g id="logo-solid" transform="translate(26.117647, 30.128005)" fill="#FFFFFF">
                                <path d="M0,3.28842416 L7.05882353,3.28842416 L7.05882353,0.820512821 L0,0.820512821 L0,3.28842416 Z M0.0019816972,15.2660023 C0.00161974338,15.6166382 0.0621565209,15.9578609 0.170290227,16.2744215 C0.179610538,16.3018135 0.189654756,16.3288289 0.199698975,16.3557502 C0.219244482,16.4081809 0.240056827,16.4597643 0.262226499,16.5105948 C0.277609536,16.5460819 0.292811597,16.5817574 0.309461473,16.6163032 C0.319234226,16.6366354 0.33072626,16.6556497 0.340860968,16.6756995 C0.635672359,17.2580844 1.08865757,17.7209237 1.62471119,18.0410612 C2.03281413,18.2842001 2.49222403,18.4467634 2.97950436,18.5166081 C3.15541392,18.541741 3.33476205,18.5555781 3.5170058,18.5556723 L3.51709629,18.5556723 C3.74603208,18.5553899 3.97080541,18.5350577 4.18942552,18.495617 C4.84528585,18.3773892 5.44495286,18.088503 5.93150929,17.6603037 C6.21500962,17.4100109 6.45679478,17.1071934 6.64428686,16.7635232 C6.67116193,16.7144812 6.70029922,16.6672278 6.72464061,16.6163032 C6.85593936,16.3432309 6.94878052,16.0435196 6.99610598,15.7304418 C7.01909005,15.5783271 7.03230136,15.423106 7.03212039,15.2659082 C7.03293478,14.7032907 6.87792806,14.1660884 6.61922156,13.7140741 C6.36033408,13.2605538 6.00245224,12.886856 5.58611485,12.6036176 L5.55426291,12.5819676 L3.15858102,11.1742471 L3.15704272,11.1771652 L2.72577473,10.923672 C2.5982765,10.833495 2.50624974,10.7290103 2.45105178,10.6316794 C2.39304868,10.5279477 2.36979314,10.4373942 2.36906924,10.3355451 C2.36925021,10.2917745 2.37386512,10.2503571 2.38336641,10.2091279 C2.39295819,10.1679929 2.40752683,10.126858 2.42797722,10.0834638 C2.48842351,9.95535233 2.6123927,9.80954431 2.80214699,9.69658781 C2.99081542,9.58381956 3.23802989,9.50785632 3.51709629,9.50813871 C3.57310864,9.50795045 3.62740171,9.51190392 3.68069942,9.51755175 C3.98084963,9.550215 4.23412682,9.67079607 4.39981118,9.81876909 C4.49781018,9.90518082 4.56513359,9.99780515 4.60603437,10.0834638 C4.64693516,10.1702521 4.66458041,10.2480038 4.66503285,10.3357334 L7.0320299,10.3357334 L7.0320299,10.3355451 L7.03212039,10.3355451 C7.03257283,9.89567365 6.93728848,9.47086306 6.77187558,9.09095269 C6.75649255,9.05555965 6.74129049,9.01988422 6.72464061,8.98524423 C6.71486786,8.96491206 6.70337582,8.94599184 6.69315063,8.92584793 C6.39842972,8.34346302 5.94535402,7.88062375 5.4093004,7.56048619 C4.94020824,7.28091885 4.40324974,7.10818953 3.83398686,7.06065367 C3.72929172,7.05189954 3.62378218,7.04587519 3.51709629,7.04587519 L3.5170058,7.04587519 C3.28807,7.04615758 3.06320619,7.06648975 2.84458608,7.10602453 C2.18881623,7.22406407 1.58905874,7.51313859 1.10250231,7.94124374 C0.819092461,8.19163066 0.577307305,8.49435409 0.389815223,8.83802425 C0.363030639,8.88716033 0.333802868,8.9344138 0.309461473,8.98524423 C0.177257838,9.26038744 0.083964239,9.56216957 0.0370007299,9.8776006 C0.0146500811,10.0277386 0.00189120875,10.1807006 0.0019816972,10.3357334 C0.00116730109,10.8982567 0.156174027,11.435459 0.414880525,11.8874733 C0.673677511,12.3410878 1.03164985,12.7146915 1.44789675,12.998024 L1.47983917,13.0195799 L3.87552106,14.4273944 L3.87705937,14.4244764 L4.30832735,14.6778755 C4.43582559,14.7681466 4.52776186,14.8725372 4.58305031,14.969868 C4.64096292,15.0735998 4.66430894,15.1642474 4.66503285,15.2660023 C4.66485187,15.309773 4.66032745,15.3511904 4.65073567,15.3924195 C4.64114389,15.4335545 4.62648476,15.4746895 4.60612486,15.5180836 C4.54558808,15.6461951 4.42170939,15.7920031 4.23186461,15.9049596 C4.04319617,16.0177279 3.79598171,16.0937853 3.5170058,16.0935029 C3.42407415,16.0937853 3.33458107,16.0854077 3.2497029,16.0698761 C2.9948874,16.0234698 2.78052025,15.9135255 2.63420041,15.7828725 C2.53620142,15.6963666 2.46896849,15.6038364 2.42797722,15.5180836 C2.38716693,15.4313895 2.36952168,15.3535436 2.36906924,15.2659082 L0.0019816972,15.2659082 L0.0019816972,15.2660023 Z M0,24.7948718 L7.05882353,24.7948718 L7.05882353,22.3270546 L0,22.3270546 L0,24.7948718 Z" id="S-Copy"></path>
                            </g>
                        </g>
                        <g id="picto-company" transform="translate(366.000000, 109.000000)">
                            <path d="M59.9997,118 C26.8627,118 -0.0003,91.5847167 -0.0003,58.9990167 C-0.0003,26.4152833 26.8627,0 59.9997,0 C93.1367,0 119.9997,26.4152833 119.9997,58.9990167 C119.9997,91.5847167 93.1367,118 59.9997,118" id="Fill-1" fill="#ECEEEF"></path>
                            <polygon id="Fill-4" fill="#06698D" points="63.9914 92.289275 27.0224 92.289275 27.0224 34.5469583 63.9914 21.592525"></polygon>
                            <polygon id="Fill-6" fill="#FFFFFF" points="29.736 44.23525 36.138 44.23525 36.138 37.93995 29.736 37.93995"></polygon>
                            <polygon id="Fill-8" fill="#ADD6E6" points="38.115 44.23525 44.517 44.23525 44.517 37.93995 38.115 37.93995"></polygon>
                            <polygon id="Fill-9" fill="#2589AD" points="46.495 44.23525 52.898 44.23525 52.898 37.93995 46.495 37.93995"></polygon>
                            <polygon id="Fill-10" fill="#ADD6E6" points="54.874 44.23525 61.277 44.23525 61.277 37.93995 54.874 37.93995"></polygon>
                            <polygon id="Fill-11" fill="#ADD6E6" points="29.736 53.5602 36.138 53.5602 36.138 47.2649 29.736 47.2649"></polygon>
                            <polygon id="Fill-12" fill="#ADD6E6" points="29.736 53.5602 36.138 53.5602 36.138 47.2649 29.736 47.2649"></polygon>
                            <polygon id="Fill-13" fill="#FFFFFF" points="38.115 53.5602 44.517 53.5602 44.517 47.2649 38.115 47.2649"></polygon>
                            <polygon id="Fill-14" fill="#FFFFFF" points="46.495 53.5602 52.898 53.5602 52.898 47.2649 46.495 47.2649"></polygon>
                            <polygon id="Fill-15" fill="#2589AD" points="54.874 53.5602 61.277 53.5602 61.277 47.2649 54.874 47.2649"></polygon>
                            <polygon id="Fill-16" fill="#FFFFFF" points="54.874 34.9112833 61.277 34.9112833 61.277 28.6159833 54.874 28.6159833"></polygon>
                            <polygon id="Fill-17" fill="#FFFFFF" points="29.736 62.88515 36.138 62.88515 36.138 56.58985 29.736 56.58985"></polygon>
                            <polygon id="Fill-18" fill="#FFFFFF" points="29.736 62.88515 36.138 62.88515 36.138 56.58985 29.736 56.58985"></polygon>
                            <polygon id="Fill-19" fill="#FFFFFF" points="38.115 62.88515 44.517 62.88515 44.517 56.58985 38.115 56.58985"></polygon>
                            <polygon id="Fill-20" fill="#2589AD" points="46.495 62.88515 52.898 62.88515 52.898 56.58985 46.495 56.58985"></polygon>
                            <polygon id="Fill-21" fill="#ADD6E6" points="54.874 62.88515 61.277 62.88515 61.277 56.58985 54.874 56.58985"></polygon>
                            <polygon id="Fill-22" fill="#FFFFFF" points="29.736 72.2091167 36.138 72.2091167 36.138 65.9138167 29.736 65.9138167"></polygon>
                            <polygon id="Fill-23" fill="#ADD6E6" points="38.115 72.2091167 44.517 72.2091167 44.517 65.9138167 38.115 65.9138167"></polygon>
                            <polygon id="Fill-24" fill="#ADD6E6" points="46.495 72.2091167 52.898 72.2091167 52.898 65.9138167 46.495 65.9138167"></polygon>
                            <polygon id="Fill-25" fill="#2589AD" points="54.874 72.2091167 61.277 72.2091167 61.277 65.9138167 54.874 65.9138167"></polygon>
                            <polygon id="Fill-26" fill="#ADD6E6" points="29.736 81.5340667 36.138 81.5340667 36.138 75.2377833 29.736 75.2377833"></polygon>
                            <polygon id="Fill-27" fill="#FFFFFF" points="38.115 81.5340667 44.517 81.5340667 44.517 75.2377833 38.115 75.2377833"></polygon>
                            <polygon id="Fill-28" fill="#2589AD" points="46.495 81.5340667 52.898 81.5340667 52.898 75.2377833 46.495 75.2377833"></polygon>
                            <polygon id="Fill-29" fill="#ADD6E6" points="54.874 81.5340667 61.277 81.5340667 61.277 75.2377833 54.874 75.2377833"></polygon>
                            <polygon id="Fill-30" fill="#FFFFFF" points="57.719 92.3536833 91.023 92.3536833 91.023 39.5319667 57.719 39.5319667"></polygon>
                            <polygon id="Fill-31" fill="#47B388" points="61.563 48.5766667 87.219 48.5766667 87.219 43.56265 61.563 43.56265"></polygon>
                            <polygon id="Fill-32" fill="#47B388" points="61.563 57.6656167 87.219 57.6656167 87.219 52.6506167 61.563 52.6506167"></polygon>
                            <polygon id="Fill-33" fill="#47B388" points="61.563 66.7526 87.219 66.7526 87.219 61.7385833 61.563 61.7385833"></polygon>
                            <polygon id="Fill-34" fill="#47B388" points="61.563 75.84155 87.219 75.84155 87.219 70.8275333 61.563 70.8275333"></polygon>
                            <polygon id="Fill-35" fill="#F2BC33" points="68.576 92.3536833 80.208 92.3536833 80.208 79.8437167 68.576 79.8437167"></polygon>
                        </g>
                        <g id="logo-solid" transform="translate(57.500000, 105.000000)" fill="#708189">
                            <polygon id="Fill-1" points="40.8638288 0.098241676 45.0142542 0.098241676 45.0142542 29.5298915 40.8638288 29.5298915"></polygon>
                            <polygon id="Fill-2" points="50.9991162 10.4855967 55.1495416 10.4855967 55.1495416 29.5298915 50.9991162 29.5298915"></polygon>
                            <polygon id="Fill-3" points="0.24472313 0.151739618 12.5933733 0.151739618 12.5933733 4.24287318 0.24472313 4.24287318"></polygon>
                            <path d="M31.633425,12.1323606 C30.1019318,11.1110363 28.2418387,10.5118593 26.2583972,10.512832 C24.9370896,10.512832 23.6680818,10.7783764 22.5174884,11.2579125 C20.7896246,11.9786756 19.3272066,13.1770296 18.2910804,14.6885896 C17.2549543,16.1972316 16.6480804,18.030752 16.6480804,19.9858586 C16.6480804,21.2882903 16.9174732,22.5391695 17.4049459,23.6733259 C18.1351681,25.3765058 19.3508895,26.8190049 20.8843562,27.8393565 C22.4148625,28.8606809 24.2759425,29.4598578 26.2583972,29.4579125 C27.5797047,29.4588851 28.8487126,29.1933408 30.0002928,28.7138047 C31.7271697,27.9930415 33.1905746,26.7946876 34.2257139,25.2831276 C35.2618401,23.7744856 35.8697008,21.9399925 35.868714,19.9858586 C35.868714,18.6834269 35.5993212,17.4325477 35.1128353,16.2974186 C34.3816262,14.5952114 33.1659049,13.1527123 31.633425,12.1323606 L31.633425,12.1323606 Z M31.2870628,22.0790872 C30.8745859,23.0410774 30.179888,23.8659184 29.3075684,24.4466143 C28.4342621,25.0273101 27.3961624,25.3628881 26.2583972,25.3638608 C25.4995581,25.3638608 24.787098,25.2140666 24.1348319,24.9426861 C23.1588998,24.5361018 22.3211178,23.8513281 21.7329928,22.9914703 C21.1438811,22.1306397 20.8034397,21.10737 20.8024529,19.9858586 C20.8024529,19.2378601 20.954418,18.535578 21.2307183,17.89263 C21.6431952,16.9306397 22.3369064,16.104826 23.2092259,15.5251029 C24.0825322,14.944407 25.1216188,14.608829 26.2583972,14.6078563 C27.0172362,14.6078563 27.7296963,14.7576506 28.3819624,15.0290311 C29.3578946,15.4356154 30.1956766,16.1203891 30.7838015,16.9802469 C31.3729132,17.8410774 31.7143415,18.8653199 31.7143415,19.9858586 C31.7143415,20.7338571 31.5623763,21.4361392 31.2870628,22.0790872 L31.2870628,22.0790872 Z" id="Fill-4"></path>
                            <path d="M53.1029457,0.0855967078 C51.9928106,0.0855967078 51.0494424,1.01548822 51.0494424,2.10879162 C51.0494424,3.23030303 51.9928106,4.16019454 53.1029457,4.16019454 C54.2407109,4.16019454 55.1840791,3.23030303 55.1840791,2.10879162 C55.1840791,1.01548822 54.2407109,0.0855967078 53.1029457,0.0855967078" id="Fill-5"></path>
                            <path d="M79.4215369,19.9518144 C79.4215369,19.8827535 79.4175897,19.8136925 79.4156162,19.7436588 L79.4156162,0.098241676 L75.2651908,0.098241676 L75.2651908,12.1557052 C75.2385476,12.1372241 75.2128911,12.1167976 75.1862479,12.0983165 C73.6547547,11.0779648 71.7946616,10.4787879 69.8112201,10.4797606 C68.4899125,10.4797606 67.2209047,10.7443322 66.0703113,11.224841 C64.3424476,11.9456042 62.8790427,13.1439581 61.8439033,14.6545455 C60.8077772,16.1641601 60.1999165,17.9976805 60.2009033,19.9518144 C60.2009033,21.2542462 60.4702961,22.5051253 60.956782,23.6402544 C61.687991,25.3424617 62.9037124,26.7849607 64.4361923,27.8062851 C65.9676854,28.8276094 67.8277786,29.4258137 69.8112201,29.424841 C71.1325276,29.424841 72.4015355,29.1602694 73.5521289,28.6797606 C74.1590028,28.4268612 74.7313392,28.1117097 75.2651908,27.7479237 L75.2651908,29.5298915 L79.4156162,29.5298915 L79.4156162,20.2329218 C79.4185765,20.1395436 79.4215369,20.0461654 79.4215369,19.9518144 L79.4215369,19.9518144 Z M74.8398857,22.045043 C74.4274088,23.008006 73.7327109,23.832847 72.8603914,24.4135428 C71.987085,24.993266 70.9479985,25.3298167 69.8112201,25.3307894 C69.052381,25.3307894 68.3399209,25.1800224 67.6876549,24.908642 C66.7117227,24.5020576 65.8739407,23.817284 65.2858158,22.9574261 C64.696704,22.0965956 64.3552758,21.0733259 64.3552758,19.9518144 C64.3552758,19.2038159 64.507241,18.5015339 64.7825545,17.8595585 C65.1950314,16.8965956 65.8897293,16.0717546 66.7620488,15.4910587 C67.6353552,14.9113356 68.6744417,14.5747849 69.8112201,14.5738122 C70.5700592,14.5738122 71.2825192,14.7245791 71.9347853,14.9959596 C72.9107175,15.402544 73.7484995,16.0873176 74.3366244,16.9462028 C74.9168551,17.795361 75.255323,18.802095 75.2651908,19.9041526 L75.2651908,20.0247662 C75.255323,20.7455294 75.1063181,21.4234942 74.8398857,22.045043 L74.8398857,22.045043 Z" id="Fill-6"></path>
                            <polygon id="Fill-7" points="0.24472313 35.8037411 12.5933733 35.8037411 12.5933733 39.8948747 0.24472313 39.8948747"></polygon>
                            <path d="M0.248670278,24.0983913 C0.247683491,24.6790872 0.354256467,25.2451927 0.542732749,25.7694725 C0.559508125,25.8151889 0.577270287,25.8599327 0.594045663,25.9046764 C0.628583202,25.9912458 0.665094314,26.0768425 0.703579,26.1614665 C0.731209031,26.2198279 0.757852275,26.279162 0.786469092,26.3365507 C0.803244468,26.3705948 0.823966991,26.4017209 0.841729154,26.4347924 C1.35683187,27.4006734 2.15020847,28.1681257 3.08765595,28.6982417 C3.80110282,29.101908 4.60533407,29.3713431 5.45791788,29.4870932 C5.76480858,29.5279461 6.07860679,29.5512907 6.39832572,29.5512907 C6.79896116,29.5512907 7.19170232,29.5172465 7.5745756,29.4520763 C8.72122188,29.255593 9.77116305,28.7770296 10.6217733,28.066966 C11.1181271,27.6526001 11.5404718,27.1497194 11.8690718,26.5806958 C11.9154508,26.4989899 11.9667637,26.4211747 12.0091956,26.3365507 C12.2391169,25.8832772 12.4019367,25.3872054 12.48384,24.867789 C12.5242983,24.6158623 12.5469944,24.3580995 12.5469944,24.0974186 C12.5489679,23.1655817 12.2776016,22.2745978 11.8246664,21.5256266 C11.3717313,20.7737374 10.7461084,20.1541339 10.0178598,19.6843247 L9.96161291,19.6483352 L5.7707293,17.3148522 L5.76776894,17.3197157 L5.01386381,16.8995137 C4.79084999,16.7506921 4.63000374,16.5765806 4.53329863,16.4160868 C4.43165959,16.2439207 4.39120133,16.0931538 4.38922776,15.9248784 C4.39021454,15.8519267 4.39810884,15.7838384 4.41488422,15.7147774 C4.43165959,15.6466891 4.45731605,15.5786008 4.49284037,15.5066218 C4.59842656,15.2945754 4.81551966,15.0533483 5.14708003,14.8656192 C5.47765362,14.6788627 5.90986624,14.552413 6.39832572,14.5533857 C6.49601761,14.5533857 6.59074914,14.5592218 6.68449389,14.5689487 C7.20946448,14.6234194 7.65253176,14.8228208 7.94264708,15.0679386 C8.1133612,15.2118967 8.23177562,15.3646091 8.30282427,15.5066218 C8.37485971,15.6505799 8.4054501,15.7799476 8.40643689,15.9248784 L12.5469944,15.9248784 C12.5479812,15.195361 12.3812142,14.4911336 12.0920856,13.8618032 C12.0654424,13.8024691 12.0387992,13.7441077 12.0091956,13.686719 C11.9924202,13.6526749 11.9716977,13.6215488 11.9539355,13.5875047 C11.4388328,12.6225963 10.646443,11.855144 9.7080087,11.3250281 C8.88798885,10.861055 7.9485678,10.5750842 6.95289991,10.4962963 C6.76935756,10.4817059 6.58482842,10.471979 6.39832572,10.471979 C5.99769027,10.471979 5.60396233,10.5060232 5.22108904,10.5711934 C4.07444276,10.7667041 3.02548838,11.2462402 2.17389136,11.9553311 C1.67852437,12.3706697 1.25519283,12.8725776 0.92659282,13.4425739 C0.88021384,13.5242798 0.828900926,13.602095 0.786469092,13.686719 C0.555560977,14.1419379 0.391754366,14.6428732 0.30985106,15.1661803 C0.270379588,15.4142162 0.248670278,15.6680883 0.248670278,15.9248784 C0.246696704,16.857688 0.518063078,17.7486719 0.970998227,18.4976431 C1.42393338,19.2495324 2.04955622,19.8691358 2.77780489,20.3379723 L2.83405174,20.3739618 L7.02493534,22.7074448 L7.0278957,22.7025814 L7.78180083,23.1227834 C8.00481465,23.2725776 8.1656609,23.4457164 8.26236601,23.6071829 C8.36400505,23.779349 8.40446331,23.9291433 8.40643689,24.0983913 C8.4054501,24.1703704 8.3975558,24.2394314 8.38078043,24.3075196 C8.36400505,24.3756079 8.33933538,24.4446689 8.30282427,24.5156753 C8.19723808,24.7277217 7.98014498,24.9699214 7.64858461,25.1576506 C7.31801103,25.344407 6.8857984,25.4708567 6.39832572,25.469884 C6.23550589,25.4708567 6.07860679,25.4562664 5.93058876,25.4309764 C5.48456112,25.3541339 5.10958213,25.1712682 4.85301756,24.9543584 C4.68230344,24.811373 4.56388902,24.657688 4.49284037,24.5156753 C4.42080494,24.3726899 4.39021454,24.2433221 4.38922776,24.0974186 L0.248670278,24.0983913" id="Fill-9"></path>
                        </g>
                    </g>
                </g>
            </g>
        </g>
    </g>
</svg>