<?xml version="1.0" encoding="UTF-8"?>
<svg width="621px" height="304px" viewBox="0 0 621 304" version="1.1" xmlns="http://www.w3.org/2000/svg" xmlns:xlink="http://www.w3.org/1999/xlink">
    <!-- Generator: Sketch 40.3 (33839) - http://www.bohemiancoding.com/sketch -->
    <title>illus</title>
    <desc>Created with Sketch.</desc>
    <defs></defs>
    <g id="Voeux-2016" stroke="none" stroke-width="1" fill="none" fill-rule="evenodd">
        <g id="Voeux_2016_wisembly_EN" transform="translate(-659.000000, -1969.000000)">
            <g id="2/-INNOVATION" transform="translate(-68.000000, 1796.000000)">
                <g id="#Plus-d'impact" transform="translate(168.000000, 173.000000)">
                    <g id="illus" transform="translate(559.000000, 0.000000)">
                        <polygon id="Fill-25" fill="#D5D9DA" points="0 303.697451 660 303.697451 660 296.415062 0 296.415062"></polygon>
                        <g id="pointillés" transform="translate(426.849872, 130.315400)" stroke="#BAC1C3" stroke-width="3" stroke-linecap="round" stroke-linejoin="round" stroke-dasharray="1.008,9.071">
                            <path d="M0.150127659,49.6846002 C0.150127659,29.3672174 0.0583307845,34.7734674 0.0583307845,0.990264286" id="Stroke-41"></path>
                        </g>
                        <g id="MEDIA-SHARING" transform="translate(331.000000, 0.000000)">
                            <g id="picto-media-sharing" transform="translate(31.000000, 0.000000)">
                                <path d="M69.0934,92.4197 L69.0934,28.3587 C69.0934,26.1917 70.8654,24.4197 73.0324,24.4197 L113.6824,24.4197 C102.7564,9.6107 85.1904,-0.0003 65.3754,-0.0003 C45.5604,-0.0003 27.9944,9.6107 17.0694,24.4197 L57.9324,24.4197 C60.0984,24.4197 61.8714,26.1917 61.8714,28.3587 L61.8714,79.6747 L61.8474,79.6987 L61.9104,79.6987 L45.0924,96.3807 L45.0924,96.3277 L45.0624,96.3587 L17.6574,96.3587 C28.6194,110.7237 45.9104,119.9997 65.3754,119.9997 C84.8404,119.9997 102.1324,110.7237 113.0944,96.3587 L73.0324,96.3587 C70.8654,96.3587 69.0934,94.5857 69.0934,92.4197" id="Fill-1" fill="#ECEEF0"></path>
                                <path d="M116.0178,53.727 C116.0178,54.197 115.7608,54.625 115.3468,54.847 C114.9318,55.069 114.4328,55.044 114.0418,54.783 L105.1208,48.821 L105.1208,53.385 C105.1158,54.733 104.0338,55.816 102.6848,55.821 L85.4768,55.821 C84.1278,55.816 83.0448,54.733 83.0398,53.385 L83.0398,41.028 C83.0448,39.68 84.1278,38.597 85.4768,38.592 L102.6848,38.592 C104.0338,38.597 105.1158,39.68 105.1208,41.028 L105.1208,45.54 L114.0508,39.68 C114.4408,39.424 114.9408,39.403 115.3508,39.624 C115.7608,39.845 116.0178,40.276 116.0178,40.742 L116.0178,53.727 Z M126.0258,24.42 L113.6818,24.42 L73.0318,24.42 C70.8658,24.42 69.0938,26.192 69.0938,28.359 L69.0938,92.42 C69.0938,94.586 70.8658,96.359 73.0318,96.359 L113.0938,96.359 L113.1558,96.359 L113.1558,79.675 L129.9648,79.675 L129.9648,28.359 C129.9648,26.192 128.1918,24.42 126.0258,24.42 L126.0258,24.42 Z" id="Fill-4" fill="#E15D5B"></path>
                                <polygon id="Fill-6" fill="#E15D5B" points="85.58 53.281 102.581 53.281 102.581 41.132 85.58 41.132"></polygon>
                                <polygon id="Fill-8" fill="#E15D5B" points="113.4778 51.3506 113.4778 43.0936 107.2448 47.1846"></polygon>
                                <polygon id="Fill-9" fill="#F2BC33" points="113.1553 96.3585 129.9643 79.6745 113.1553 79.6745"></polygon>
                                <path d="M113.4778,51.3506 L107.2448,47.1846 L113.4778,43.0936 L113.4778,51.3506 Z M85.5798,53.2816 L102.5808,53.2816 L102.5808,41.1326 L85.5798,41.1326 L85.5798,53.2816 Z M115.3508,39.6236 C114.9408,39.4026 114.4408,39.4246 114.0508,39.6796 L105.1208,45.5406 L105.1208,41.0286 C105.1158,39.6796 104.0328,38.5966 102.6848,38.5926 L85.4768,38.5926 C84.1278,38.5966 83.0448,39.6796 83.0398,41.0286 L83.0398,53.3846 C83.0448,54.7336 84.1278,55.8166 85.4768,55.8216 L102.6848,55.8216 C104.0328,55.8166 105.1158,54.7336 105.1208,53.3846 L105.1208,48.8206 L114.0418,54.7826 C114.4328,55.0436 114.9318,55.0686 115.3468,54.8466 C115.7608,54.6256 116.0178,54.1966 116.0178,53.7266 L116.0178,40.7416 C116.0178,40.2756 115.7608,39.8456 115.3508,39.6236 L115.3508,39.6236 Z" id="Fill-10" fill="#FFFFFF"></path>
                                <path d="M15.1245,63.2007 C14.4235,63.2007 13.8545,62.6317 13.8545,61.9307 C13.8545,61.2297 14.4235,60.6607 15.1245,60.6607 L49.3825,60.6607 C50.0845,60.6607 50.6525,61.2297 50.6525,61.9307 C50.6525,62.6317 50.0845,63.2007 49.3825,63.2007 L15.1245,63.2007 Z M15.7055,37.9547 C16.7405,37.9547 17.5785,38.7937 17.5785,39.8277 C17.5785,40.8627 16.7405,41.7007 15.7055,41.7007 C14.6715,41.7007 13.8325,40.8627 13.8325,39.8277 C13.8325,38.7937 14.6715,37.9547 15.7055,37.9547 L15.7055,37.9547 Z M50.6525,50.8307 C50.6525,51.5317 50.0845,52.1007 49.3825,52.1007 L15.1245,52.1007 C14.4235,52.1007 13.8545,51.5317 13.8545,50.8307 C13.8545,50.1297 14.4235,49.5607 15.1245,49.5607 L49.3825,49.5607 C50.0845,49.5607 50.6525,50.1297 50.6525,50.8307 L50.6525,50.8307 Z M24.0235,38.5107 L49.2745,38.5107 C50.0215,38.5107 50.6275,39.1167 50.6275,39.8637 C50.6275,40.6117 50.0215,41.2177 49.2745,41.2177 L24.0235,41.2177 C23.2765,41.2177 22.6695,40.6117 22.6695,39.8637 C22.6695,39.1167 23.2765,38.5107 24.0235,38.5107 L24.0235,38.5107 Z M45.0925,96.3277 L45.1835,79.7437 L61.8465,79.6987 L61.8715,79.6747 L61.8715,28.3587 C61.8715,26.1917 60.0985,24.4197 57.9325,24.4197 L17.0695,24.4197 L4.9385,24.4197 C2.7725,24.4197 0.9995,26.1917 0.9995,28.3587 L0.9995,92.4197 C0.9995,94.5857 2.7725,96.3587 4.9385,96.3587 L17.6575,96.3587 L45.0615,96.3587 L45.0925,96.3277 Z" id="Fill-11" fill="#47B388"></path>
                                <polygon id="Fill-12" fill="#06698D" points="45.0925 96.3282 45.0925 96.3812 61.9105 79.6992 61.8465 79.6992 45.1835 79.7442"></polygon>
                                <path d="M15.7057,41.701 C16.7397,41.701 17.5787,40.862 17.5787,39.828 C17.5787,38.794 16.7397,37.955 15.7057,37.955 C14.6717,37.955 13.8327,38.794 13.8327,39.828 C13.8327,40.862 14.6717,41.701 15.7057,41.701" id="Fill-13" fill="#FFFFFF"></path>
                                <path d="M24.0236,41.2177 L49.2746,41.2177 C50.0216,41.2177 50.6276,40.6117 50.6276,39.8637 C50.6276,39.1167 50.0216,38.5107 49.2746,38.5107 L24.0236,38.5107 C23.2756,38.5107 22.6696,39.1167 22.6696,39.8637 C22.6696,40.6117 23.2756,41.2177 24.0236,41.2177" id="Fill-14" fill="#FFFFFF"></path>
                                <path d="M50.6526,61.9308 C50.6526,61.2298 50.0836,60.6608 49.3826,60.6608 L15.1246,60.6608 C14.4226,60.6608 13.8546,61.2298 13.8546,61.9308 C13.8546,62.6318 14.4226,63.2008 15.1246,63.2008 L49.3826,63.2008 C50.0836,63.2008 50.6526,62.6318 50.6526,61.9308" id="Fill-15" fill="#FFFFFF"></path>
                                <path d="M49.3827,49.5607 L15.1247,49.5607 C14.4227,49.5607 13.8547,50.1297 13.8547,50.8307 C13.8547,51.5317 14.4227,52.1007 15.1247,52.1007 L49.3827,52.1007 C50.0837,52.1007 50.6527,51.5317 50.6527,50.8307 C50.6527,50.1297 50.0837,49.5607 49.3827,49.5607" id="Fill-16" fill="#FFFFFF"></path>
                            </g>
                            <g id="ordi" transform="translate(0.000000, 190.000000)">
                                <path d="M167.454545,0.449540407 L25.6636593,0.449540407 C22.1051443,0.449540407 19.2176887,3.38988415 19.2176887,7.00353982 L19.2176887,100.54676 C19.2176887,101.382818 19.8794886,102.060596 20.7001596,102.060596 L172.409273,102.060596 C173.229944,102.060596 173.891744,101.382818 173.891744,100.54676 L173.891744,7.00353982 C173.891744,3.38988415 171.003801,0.449540407 167.454545,0.449540407" id="Fill-6" fill="#D4D8DA"></path>
                                <polyline id="Fill-7" fill="#FFFFFF" points="166.475686 9.04739131 166.475686 94.5649521 26.6341368 94.5649521 26.6341368 7.94538263 166.475686 7.94538263"></polyline>
                                <polygon id="Fill-8" fill="#06698D" points="26.5787756 94.5647536 47.1822947 94.5647536 47.1822947 7.94171092 26.5787756 7.94171092"></polygon>
                                <path d="M150.587467,30.0007393 L147.304296,34.1125565 C148.160055,35.124261 148.680528,36.4381371 148.680528,37.8770499 C148.680528,38.1380389 148.657623,38.3930738 148.624484,38.6451316 L153.624047,40.0979373 C153.767323,39.3804656 153.843347,38.6376889 153.843347,37.8770499 C153.843347,34.790334 152.594797,32.0033089 150.587467,30.0007393" id="Fill-9" fill="#E05D5B"></path>
                                <path d="M145.69926,32.7911384 L148.983406,28.6783289 C147.267989,27.5207484 145.212901,26.843467 143.001378,26.843467 C141.059351,26.843467 139.23867,27.365445 137.662631,28.2749371 L140.492093,32.6983533 C141.249411,32.3172895 142.099322,32.0974832 143.001378,32.0974832 C143.977996,32.0974832 144.897108,32.3490449 145.69926,32.7911384" id="Fill-10" fill="#47B387"></path>
                                <path d="M132.158872,37.8770499 C132.158872,43.9710934 137.012722,48.9105335 143.001085,48.9105335 C143.897293,48.9105335 144.764261,48.7874816 145.596628,48.5795835 L144.239402,43.5146107 C143.840762,43.6049149 143.427015,43.6570135 143.001085,43.6570135 C139.864602,43.6570135 137.321691,41.0689553 137.321691,37.8770499 C137.321691,36.3597412 137.900645,34.9838429 138.840225,33.9527875 L135.976649,29.4757842 C133.641343,31.4991932 132.158872,34.5109864 132.158872,37.8770499" id="Fill-11" fill="#06698D"></path>
                                <path d="M147.987002,40.6448233 C147.54694,41.4645074 146.916329,42.1636205 146.157062,42.6816291 L147.549864,47.8820582 C150.008952,46.722493 151.971935,44.6613746 153.014343,42.106064 L147.987002,40.6448233 Z" id="Fill-12" fill="#EFBA32"></path>
                                <path d="M119.21771,78.3413599 L60.7960755,78.3413599 C60.1566929,78.3413599 59.6381692,77.8134277 59.6381692,77.1624438 L59.6381692,26.2120324 C59.6381692,25.5610485 60.1566929,25.0331164 60.7960755,25.0331164 L119.21771,25.0331164 C119.857093,25.0331164 120.375616,25.5610485 120.375616,26.2120324 L120.375616,77.1624438 C120.375616,77.8134277 119.857093,78.3413599 119.21771,78.3413599" id="Fill-13" fill="#EFBA32"></path>
                                <path d="M61.0396452,76.91376 L118.973458,76.91376 L118.973458,26.4605178 L61.0396452,26.4605178 L61.0396452,76.91376 Z M119.217125,79.7687613 L60.795978,79.7687613 C59.3841706,79.7687613 58.236011,78.5992726 58.236011,77.1618484 L58.236011,26.2124294 C58.236011,24.7750052 59.3841706,23.6055165 60.795978,23.6055165 L119.217125,23.6055165 C120.628933,23.6055165 121.77758,24.7750052 121.77758,26.2124294 L121.77758,77.1618484 C121.77758,78.5992726 120.628933,79.7687613 119.217125,79.7687613 L119.217125,79.7687613 Z" id="Fill-14" fill="#FFFFFF"></path>
                                <path d="M120.291015,51.6872381 L59.8922653,51.6872381" id="Fill-15" fill="#EFBA32"></path>
                                <path d="M120.291307,53.1146395 L59.8920704,53.1146395 C59.1181835,53.1146395 58.490497,52.4755638 58.490497,51.6871389 C58.490497,50.8987139 59.1181835,50.2596382 59.8920704,50.2596382 L120.291307,50.2596382 C121.065682,50.2596382 121.693368,50.8987139 121.693368,51.6871389 C121.693368,52.4755638 121.065682,53.1146395 120.291307,53.1146395" id="Fill-16" fill="#FFFFFF"></path>
                                <path d="M100.140083,26.2978214 L100.140083,77.1177382" id="Fill-17" fill="#EFBA32"></path>
                                <path d="M100.139645,78.5455862 C99.3652706,78.5455862 98.737584,77.9065105 98.737584,77.1180856 L98.737584,26.2981687 C98.737584,25.5097438 99.3652706,24.8706681 100.139645,24.8706681 C100.914019,24.8706681 101.541705,25.5097438 101.541705,26.2981687 L101.541705,77.1180856 C101.541705,77.9065105 100.914019,78.5455862 100.139645,78.5455862" id="Fill-18" fill="#FFFFFF"></path>
                                <path d="M79.8749205,27.4216619 L79.8749205,78.2415787" id="Fill-19" fill="#EFBA32"></path>
                                <path d="M79.8746768,79.6688313 C79.1003026,79.6688313 78.4726161,79.0297556 78.4726161,78.2413306 L78.4726161,27.4214138 C78.4726161,26.6329888 79.1003026,25.9939131 79.8746768,25.9939131 C80.649051,25.9939131 81.2767376,26.6329888 81.2767376,27.4214138 L81.2767376,78.2413306 C81.2767376,79.0297556 80.649051,79.6688313 79.8746768,79.6688313" id="Fill-20" fill="#FFFFFF"></path>
                                <path d="M152.647721,62.6167727 L134.016444,62.6167727 C133.406302,62.6167727 132.912145,62.1136494 132.912145,61.492436 C132.912145,60.8707265 133.406302,60.3680994 134.016444,60.3680994 L152.647721,60.3680994 C153.257864,60.3680994 153.752021,60.8707265 153.752021,61.492436 C153.752021,62.1136494 153.257864,62.6167727 152.647721,62.6167727" id="Fill-21" fill="#47B28A"></path>
                                <path d="M152.647721,69.960239 L134.016444,69.960239 C133.406302,69.960239 132.912145,69.4571157 132.912145,68.8359023 C132.912145,68.2141928 133.406302,67.7115657 134.016444,67.7115657 L152.647721,67.7115657 C153.257864,67.7115657 153.752021,68.2141928 153.752021,68.8359023 C153.752021,69.4571157 153.257864,69.960239 152.647721,69.960239" id="Fill-22" fill="#47B28A"></path>
                                <path d="M152.647721,77.1499897 L134.016444,77.1499897 C133.406302,77.1499897 132.912145,76.6468664 132.912145,76.0256531 C132.912145,75.4039436 133.406302,74.9013165 134.016444,74.9013165 L152.647721,74.9013165 C153.257864,74.9013165 153.752021,75.4039436 153.752021,76.0256531 C153.752021,76.6468664 153.257864,77.1499897 152.647721,77.1499897" id="Fill-23" fill="#47B28A"></path>
                                <path d="M191.847527,99.6834127 L191.847527,103.370006 C191.847527,105.225211 190.356771,106.743016 188.534628,106.743016 L3.83688245,106.743016 C2.01473954,106.743016 0.523983954,105.225211 0.523983954,103.370006 L0.523983954,99.6834127" id="Fill-24" fill="#A0A8AD"></path>
                            </g>
                        </g>
                        <g id="+" transform="translate(419.438146, 111.903673)">
                            <path d="M16.785232,8.99143794 C16.785232,13.5897282 13.0562589,17.3174057 8.45637026,17.3174057 C3.85648163,17.3174057 0.12750848,13.5897282 0.12750848,8.99143794 C0.12750848,4.39314765 3.85648163,0.665470219 8.45637026,0.665470219 C13.0562589,0.665470219 16.785232,4.39314765 16.785232,8.99143794" id="Fill-49" fill="#07698D"></path>
                            <path d="M8.45649151,12.8769973 C8.14975144,12.8769973 7.90120711,12.6285393 7.90120711,12.3219058 L7.90120711,5.66121245 C7.90120711,5.35457897 8.14975144,5.106121 8.45649151,5.106121 C8.76323158,5.106121 9.0117759,5.35457897 9.0117759,5.66121245 L9.0117759,12.3219058 C9.0117759,12.6285393 8.76323158,12.8769973 8.45649151,12.8769973" id="Fill-50" fill="#FFFFFF"></path>
                            <path d="M11.7879958,9.54665059 L5.12498721,9.54665059 C4.817843,9.54665059 4.56970281,9.29819263 4.56970281,8.99155914 C4.56970281,8.68492566 4.817843,8.43646769 5.12498721,8.43646769 L11.7879958,8.43646769 C12.0947359,8.43646769 12.3432802,8.68492566 12.3432802,8.99155914 C12.3432802,9.29819263 12.0947359,9.54665059 11.7879958,9.54665059" id="Fill-51" fill="#FFFFFF"></path>
                        </g>
                        <g id="FULLSCREEN">
                            <g id="fullscreen">
                                <polygon id="Fill-1" fill="#2485A7" points="0.991732445 209.284698 314.619104 209.284698 314.619104 1.69818013 0.991732445 1.69818013"></polygon>
                                <polygon id="Fill-2" fill="#A1A9AE" points="1.07931326 9.24397385 314.58991 9.24397385 314.58991 0.471141437 1.07931326 0.471141437"></polygon>
                                <polygon id="Fill-3" fill="#A1A9AE" points="0.520867845 209.2654 314.58991 209.2654 314.58991 199.860928 0.520867845 199.860928"></polygon>
                                <polygon id="Fill-4" fill="#A1A9AE" points="156.002242 231.095397 157.8857 231.095397 157.8857 199.945464 156.002242 199.945464"></polygon>
                                <path d="M160.318564,231.166844 C160.318564,232.986458 158.842874,234.46154 157.022512,234.46154 C155.202149,234.46154 153.726459,232.986458 153.726459,231.166844 C153.726459,229.347231 155.202149,227.872149 157.022512,227.872149 C158.842874,227.872149 160.318564,229.347231 160.318564,231.166844 Z" id="Fill-5" fill="#F1BC33"></path>
                                <polygon id="Fill-7" fill="#0E5D7D" points="270.893204 200.046372 314.58991 200.046372 314.58991 10.1203628 270.893204 10.1203628"></polygon>
                                <polygon id="Fill-9" fill="#0E5D7D" points="1.08778882 199.430735 44.7844945 199.430735 44.7844945 8.92344706 1.08778882 8.92344706"></polygon>
                                <path d="M244.336723,68.1717224 L70.8089926,68.1717224 C67.4347769,68.1717224 64.6995244,65.4375959 64.6995244,62.0647692 L64.6995244,41.8038047 C64.6995244,38.4314487 67.4347769,35.6968515 70.8089926,35.6968515 L244.336723,35.6968515 C247.710939,35.6968515 250.446192,38.4314487 250.446192,41.8038047 L250.446192,62.0647692 C250.446192,65.4375959 247.710939,68.1717224 244.336723,68.1717224" id="Fill-10" fill="#FFFFFF"></path>
                                <path d="M244.336723,135.285844 L70.8089926,135.285844 C67.4347769,135.285844 64.6995244,132.551717 64.6995244,129.17889 L64.6995244,83.4560495 C64.6995244,80.0836935 67.4347769,77.349567 70.8089926,77.349567 L244.336723,77.349567 C247.710939,77.349567 250.446192,80.0836935 250.446192,83.4560495 L250.446192,129.17889 C250.446192,132.551717 247.710939,135.285844 244.336723,135.285844" id="Fill-11" fill="#FFFFFF"></path>
                                <path id="Stroke-12" stroke="#D5D9DA"></path>
                                <path d="M76.8970364,46.0363587 L218.156416,46.0363587" id="Stroke-13" stroke="#BAC1C3" stroke-width="2" stroke-linecap="round" stroke-linejoin="round"></path>
                                <path d="M76.8970364,53.5670909 L218.156416,53.5670909" id="Stroke-14" stroke="#BAC1C3" stroke-width="2" stroke-linecap="round" stroke-linejoin="round"></path>
                                <path d="M76.8970364,87.5670909 L218.156416,87.5670909" id="Stroke-14" stroke="#BAC1C3" stroke-width="2" stroke-linecap="round" stroke-linejoin="round"></path>
                                <path id="Stroke-15" stroke="#BAC1C3" stroke-width="2" stroke-linecap="round" stroke-linejoin="round"></path>
                                <path id="Stroke-16" stroke="#BAC1C3" stroke-width="2" stroke-linecap="round" stroke-linejoin="round"></path>
                                <path id="Stroke-17" stroke="#BAC1C3" stroke-width="2" stroke-linecap="round" stroke-linejoin="round"></path>
                                <path d="M211.564312,62.5293981 L241.699646,62.1958981" id="Stroke-18" stroke="#BAC1C3" stroke-width="2" stroke-linecap="round" stroke-linejoin="round"></path>
                                <path d="M244.807588,175.955328 L71.2798572,175.955328 C67.9056415,175.955328 65.170389,173.221201 65.170389,169.848375 L65.170389,149.58741 C65.170389,146.215054 67.9056415,143.480457 71.2798572,143.480457 L244.807588,143.480457 C248.181804,143.480457 250.917056,146.215054 250.917056,149.58741 L250.917056,169.848375 C250.917056,173.221201 248.181804,175.955328 244.807588,175.955328" id="Fill-19" fill="#FFFFFF"></path>
                                <path id="Stroke-20" stroke="#BAC1C3" stroke-width="2" stroke-linecap="round" stroke-linejoin="round"></path>
                                <path id="Stroke-21" stroke="#BAC1C3" stroke-width="2" stroke-linecap="round" stroke-linejoin="round"></path>
                                <path id="Stroke-22" stroke="#BAC1C3" stroke-width="2" stroke-linecap="round" stroke-linejoin="round"></path>
                                <path d="M211,97.0255348 L242.641376,97.0255348" id="Stroke-23" stroke="#BAC1C3" stroke-width="2" stroke-linecap="round" stroke-linejoin="round"></path>
                                <path id="Stroke-24" stroke="#BAC1C3" stroke-width="2" stroke-linecap="round" stroke-linejoin="round"></path>
                                <polygon id="Fill-41" fill="#F1BB33" points="238.439709 39.4691836 239.614046 41.847483 242.239587 42.2287263 240.339648 44.0798744 240.787911 46.6935092 238.439709 45.4594104 236.091508 46.6935092 236.539771 44.0798744 234.639832 42.2287263 237.265373 41.847483"></polygon>
                                <polygon id="Fill-41" fill="#F1BB33" points="238.439709 147.469184 239.614046 149.847483 242.239587 150.228726 240.339648 152.079874 240.787911 154.693509 238.439709 153.45941 236.091508 154.693509 236.539771 152.079874 234.639832 150.228726 237.265373 149.847483"></polygon>
                                <path d="M82.7188064,62.1876613 C82.7188064,64.0115106 81.2393498,65.4903581 79.4147495,65.4903581 C77.5896783,65.4903581 76.1106926,64.0115106 76.1106926,62.1876613 C76.1106926,60.3638121 77.5896783,58.8849646 79.4147495,58.8849646 C81.2393498,58.8849646 82.7188064,60.3638121 82.7188064,62.1876613" id="Fill-42" fill="#FFE25F"></path>
                                <path d="M81.1727224,62.602793 C81.1703681,63.756407 80.3821408,64.6897471 79.4116888,64.6878645 C78.4412369,64.6859818 77.6567765,63.7493469 77.6586599,62.5957329 L81.1727224,62.602793 Z" id="Fill-43" fill="#3A434C"></path>
                                <path d="M77.7876298,62.7218256 C77.8394249,63.7460052 78.5476052,64.5602656 79.4121126,64.5621483 L79.4144669,64.5621483 C80.2780326,64.5621483 80.9876256,63.7511826 81.0436585,62.7279443 L77.7876298,62.7218256 Z M79.4144669,64.8134865 L79.4116418,64.8134865 C78.3733853,64.8116038 77.5305377,63.8166058 77.5333629,62.5956858 C77.5333629,62.5622682 77.5465471,62.5302626 77.5700903,62.5067291 C77.5936335,62.4831955 77.6256523,62.4700167 77.6586129,62.4700167 L77.6590837,62.4700167 L81.1731462,62.4770768 C81.2061067,62.4770768 81.2381255,62.4907262 81.2616688,62.5142598 C81.285212,62.5377933 81.2983962,62.5697989 81.2983962,62.6032166 C81.2960419,63.8227245 80.4513108,64.8134865 79.4144669,64.8134865 L79.4144669,64.8134865 Z" id="Fill-44" fill="#3A434C"></path>
                                <path d="M77.6888894,62.9872839 C77.6691131,62.8606735 77.6587541,62.729827 77.6587541,62.5956858 L81.1728166,62.6027459 C81.1723458,62.7467711 81.1601033,62.8554961 81.1360892,62.9910493" id="Fill-45" fill="#FFFFFF"></path>
                                <path d="M81.1364188,63.1168596 C81.1293558,63.1168596 81.121822,63.1163889 81.114759,63.1149769 C81.0464836,63.1032101 81.0003389,63.0382575 81.0125814,62.9695396 C81.0267073,62.8867016 81.0375372,62.8118649 81.0431876,62.7280855 L77.7876298,62.7219668 C77.7918675,62.8048048 77.8003431,62.8871722 77.8130564,62.9676569 C77.8238863,63.0363749 77.7767999,63.1008568 77.7085245,63.1112115 C77.6397783,63.1220369 77.5752698,63.0754405 77.5649108,63.0067226 C77.5437219,62.8721108 77.532892,62.7337336 77.5333629,62.595827 C77.5333629,62.5624094 77.5465471,62.5304038 77.5700903,62.5068703 C77.5936335,62.4833367 77.6256523,62.4701579 77.6590837,62.4701579 L77.6590837,62.4701579 L81.1731462,62.477218 C81.2423633,62.477218 81.2983962,62.5336985 81.2983962,62.6028871 C81.2983962,62.7624445 81.2837994,62.8777588 81.2602562,63.0128413 C81.2494263,63.0740285 81.1962186,63.1168596 81.1364188,63.1168596" id="Fill-46" fill="#3A434C"></path>
                                <path d="M79.4185635,63.8123227 C79.0969629,63.8137347 78.8375165,64.0744863 78.8379874,64.3954838 L78.8379874,64.3959544 L78.8379874,64.3973665 L78.8379874,64.3973665 C78.8356331,64.4340788 78.8544677,64.4707911 78.8893117,64.4891473 C78.975009,64.533861 79.0630607,64.5588065 79.1501706,64.572456 C79.2377515,64.5861054 79.3248614,64.5884588 79.4129131,64.5884588 C79.5268623,64.5889295 79.6408116,64.5813987 79.7533482,64.5540998 C79.8206818,64.5376263 79.8875446,64.5136221 79.9520531,64.4797338 C79.9854844,64.462319 80.0033773,64.4279601 80.0029064,64.3926597 L80.0038482,64.3926597 C80.0024356,64.0707209 79.7406349,63.8109107 79.4185635,63.8123227" id="Fill-47" fill="#EF866E"></path>
                                <path d="M78.6695591,61.1023416 C78.6695591,61.4195737 78.5410131,61.67656 78.3823317,61.67656 C78.2236504,61.67656 78.0951043,61.4195737 78.0951043,61.1023416 C78.0951043,60.7851095 78.2236504,60.5281233 78.3823317,60.5281233 C78.5410131,60.5281233 78.6695591,60.7851095 78.6695591,61.1023416" id="Fill-48" fill="#3A434C"></path>
                                <path d="M80.7343946,61.1023416 C80.7343946,61.4195737 80.6058486,61.67656 80.4471672,61.67656 C80.2884858,61.67656 80.1599398,61.4195737 80.1599398,61.1023416 C80.1599398,60.7851095 80.2884858,60.5281233 80.4471672,60.5281233 C80.6058486,60.5281233 80.7343946,60.7851095 80.7343946,61.1023416" id="Fill-49" fill="#3A434C"></path>
                                <path d="M90.0003978,62.1282627 C90.0003978,63.9525826 88.5209412,65.4309595 86.6963409,65.4309595 C84.8712697,65.4309595 83.392284,63.9525826 83.392284,62.1282627 C83.392284,60.3044135 84.8712697,58.8255659 86.6963409,58.8255659 C88.5209412,58.8255659 90.0003978,60.3044135 90.0003978,62.1282627" id="Fill-50" fill="#47B387"></path>
                                <path d="M88.491983,61.6767482 C88.491983,61.5247216 88.3686165,61.4009352 88.2160564,61.4009352 L87.7508422,61.4009352 L86.958377,61.4009352 C87.1316552,61.1707771 87.1980471,60.8841387 87.1980471,60.5744373 C87.1980471,60.42194 87.0742097,60.2986242 86.9221205,60.2986242 C86.7700312,60.2986242 86.6466647,60.42194 86.6466647,60.5744373 C86.6466647,61.0088664 86.3787427,61.3656348 85.9582606,61.3981111 L85.9041112,61.3981111 C85.8165304,61.3981111 85.7444881,61.4696531 85.7444881,61.5576685 L85.7444881,63.2398458 C85.7444881,63.3231546 85.8094674,63.3914018 85.8913979,63.3979912 L85.8913979,63.3994032 L85.9041112,63.3994032 L85.9041112,63.3994032 L86.3665002,63.3994032 L86.3665002,63.3994032 L86.7723855,63.3994032 L87.4617313,63.3994032 L87.5441326,63.3994032 L87.8026373,63.3994032 C87.9547265,63.3994032 88.0785639,63.2760875 88.0785639,63.1235902 C88.0785639,63.0398108 88.0404239,62.9645034 87.9810949,62.913671 C88.1138788,62.8939028 88.2160564,62.7800005 88.2160564,62.6416233 C88.2160564,62.5573732 88.1783872,62.4820659 88.1190583,62.4312335 C88.2518421,62.411936 88.3540197,62.297563 88.3540197,62.1591858 C88.3540197,62.0749357 88.3163505,61.9996284 88.2565507,61.9492666 C88.3898054,61.9294984 88.491983,61.8151254 88.491983,61.6767482" id="Fill-51" fill="#FFFFFF"></path>
                                <path d="M85.3132703,61.3978758 L85.0599451,61.3978758 C84.9723643,61.3978758 84.900322,61.4698884 84.900322,61.5574332 L84.900322,63.2400812 C84.900322,63.3276259 84.9723643,63.3996386 85.0599451,63.3996386 L85.3132703,63.3996386 C85.4008511,63.3996386 85.4728934,63.3276259 85.4728934,63.2400812 L85.4728934,61.5574332 C85.4728934,61.4698884 85.4008511,61.3978758 85.3132703,61.3978758" id="Fill-52" fill="#FFFFFF"></path>
                                <path d="M98.8202097,96.7953297 C98.8202097,98.6733061 97.2969627,100.195926 95.418213,100.195926 C93.5394632,100.195926 92.0166871,98.6733061 92.0166871,96.7953297 C92.0166871,94.9173534 93.5394632,93.3947334 95.418213,93.3947334 C97.2969627,93.3947334 98.8202097,94.9173534 98.8202097,96.7953297" id="Fill-53" fill="#FFE25F"></path>
                                <path d="M97.2284519,97.2226988 C97.2260976,98.4102011 96.414327,99.3713108 95.4151523,99.3694282 C94.4164485,99.3675455 93.6084449,98.4031411 93.6107992,97.2156387 L97.2284519,97.2226988 Z" id="Fill-54" fill="#3A434C"></path>
                                <path d="M93.7432534,97.3452615 C93.796932,98.399564 94.5258304,99.2382993 95.4152936,99.240182 L95.4181188,99.240182 C96.3071111,99.240182 97.037893,98.4047413 97.0953385,97.3518508 L93.7432534,97.3452615 Z M95.4181188,99.4985802 L95.4148227,99.4985802 C94.346431,99.4966975 93.4786275,98.4725179 93.4814527,97.2153563 C93.4814527,97.1809974 93.4951078,97.1480504 93.5191219,97.1240462 C93.5436068,97.100042 93.5765673,97.0863925 93.6104696,97.0863925 L93.6109404,97.0863925 L97.2285932,97.0934526 C97.2629663,97.0934526 97.2959268,97.107102 97.3199409,97.1315769 C97.3444259,97.1555811 97.3580809,97.1885281 97.3580809,97.2228871 C97.3552557,98.4786367 96.4855688,99.4985802 95.4181188,99.4985802 L95.4181188,99.4985802 Z" id="Fill-55" fill="#3A434C"></path>
                                <path d="M93.6415937,97.618627 C93.6208757,97.4882512 93.6105167,97.3531687 93.6105167,97.2157329 L97.2286403,97.2227929 C97.2281694,97.3710542 97.215456,97.4826032 97.1909711,97.6223924" id="Fill-56" fill="#FFFFFF"></path>
                                <path d="M97.1910182,97.7519681 C97.1834843,97.7519681 97.1764214,97.7514974 97.1688875,97.7500854 C97.0982578,97.7378479 97.0511714,97.6710127 97.0634139,97.6004121 C97.0780107,97.5152207 97.0893114,97.4380307 97.0949618,97.3518979 L93.7433476,97.3453085 C93.7475854,97.4304999 93.7565318,97.5152207 93.7692451,97.5985294 C93.7805459,97.66913 93.7320468,97.7354946 93.6614171,97.74632 C93.5907874,97.7580868 93.5248664,97.709137 93.5135656,97.6385364 C93.4919059,97.5001592 93.481076,97.357546 93.481076,97.2154034 C93.481076,97.1810444 93.4947311,97.1480975 93.519216,97.1240933 C93.543701,97.0996184 93.5761906,97.0864396 93.6105638,97.0864396 L93.6110346,97.0864396 L97.2286873,97.0934997 C97.3002588,97.0934997 97.3581751,97.1513922 97.3577042,97.2229341 C97.3577042,97.3871982 97.3426366,97.5062779 97.3186225,97.6446551 C97.3073217,97.707725 97.2527014,97.7519681 97.1910182,97.7519681" id="Fill-57" fill="#3A434C"></path>
                                <path d="M95.4224036,98.4679995 C95.0913858,98.4694115 94.8244056,98.7381645 94.8248765,99.0685754 L94.8248765,99.0685754 C94.8248765,99.0695167 94.8244056,99.0699874 94.8244056,99.0704581 L94.8248765,99.0704581 C94.8225221,99.1081117 94.8418276,99.1462361 94.8776133,99.1650629 C94.9661359,99.210718 95.0565419,99.2366049 95.146477,99.250725 C95.2364121,99.2643744 95.3258764,99.2671985 95.4167533,99.2671985 C95.5339986,99.2676691 95.6512438,99.2601384 95.7670765,99.2318982 C95.8367645,99.2144833 95.9055107,99.1900085 95.9719026,99.1551788 C96.0058049,99.1372933 96.0241686,99.101993 96.0236977,99.0657514 L96.0251103,99.0657514 C96.0236977,98.7343992 95.7538923,98.4665875 95.4224036,98.4679995" id="Fill-58" fill="#EF866E"></path>
                                <path d="M94.6512216,95.6779103 C94.6512216,96.0045558 94.5189087,96.2690727 94.3555186,96.2690727 C94.1921286,96.2690727 94.0598157,96.0045558 94.0598157,95.6779103 C94.0598157,95.3512648 94.1921286,95.0867478 94.3555186,95.0867478 C94.5189087,95.0867478 94.6512216,95.3512648 94.6512216,95.6779103" id="Fill-59" fill="#3A434C"></path>
                                <path d="M96.7771282,95.6779103 C96.7771282,96.0045558 96.6448152,96.2690727 96.4814252,96.2690727 C96.3180352,96.2690727 96.1857223,96.0045558 96.1857223,95.6779103 C96.1857223,95.3512648 96.3180352,95.0867478 96.4814252,95.0867478 C96.6448152,95.0867478 96.7771282,95.3512648 96.7771282,95.6779103" id="Fill-60" fill="#3A434C"></path>
                                <path d="M83.003444,96.7605942 C83.003444,98.6385706 81.480197,100.161191 79.6014473,100.161191 C77.7226975,100.161191 76.1999214,98.6385706 76.1999214,96.7605942 C76.1999214,94.8826179 77.7226975,93.3599979 79.6014473,93.3599979 C81.480197,93.3599979 83.003444,94.8826179 83.003444,96.7605942" id="Fill-61" fill="#FFE25F"></path>
                                <path d="M79.7442605,98.7957746 C79.6783395,98.7957746 79.6180688,98.7515316 79.6011177,98.6846963 C79.5808705,98.6056236 79.6284278,98.5251389 79.7075331,98.5049001 L81.4685667,98.0539975 C81.5476719,98.033288 81.6281898,98.0812964 81.6484369,98.1603691 C81.6686841,98.2394418 81.6211268,98.3199265 81.5420215,98.3401653 L79.7809879,98.7910679 C79.7687455,98.7943626 79.756503,98.7957746 79.7442605,98.7957746" id="Fill-62" fill="#3A434C"></path>
                                <path d="M79.168346,95.8139812 C79.168346,96.2220527 78.8373282,96.553405 78.4286177,96.553405 C78.0203781,96.553405 77.6893603,96.2220527 77.6893603,95.8139812 C77.6893603,95.4059096 78.0203781,95.0745574 78.4286177,95.0745574 C78.8373282,95.0745574 79.168346,95.4059096 79.168346,95.8139812" id="Fill-63" fill="#FFFFFF"></path>
                                <path d="M78.4288061,95.204086 C78.0926088,95.204086 77.8185656,95.4775457 77.8185656,95.8140753 C77.8185656,96.1501342 78.0926088,96.423594 78.4288061,96.423594 C78.7650034,96.423594 79.0390466,96.1501342 79.0390466,95.8140753 C79.0390466,95.4775457 78.7650034,95.204086 78.4288061,95.204086 M78.4288061,96.6824629 C77.9494659,96.6824629 77.5600609,96.2927475 77.5600609,95.8140753 C77.5600609,95.3349325 77.9494659,94.9452171 78.4288061,94.9452171 C78.9081462,94.9452171 79.2975513,95.3349325 79.2975513,95.8140753 C79.2975513,96.2927475 78.9081462,96.6824629 78.4288061,96.6824629" id="Fill-64" fill="#3A434C"></path>
                                <path d="M78.9834375,95.4931249 C78.9834375,95.6766865 78.8346443,95.8258892 78.6505362,95.8258892 C78.466899,95.8258892 78.3176349,95.6766865 78.3176349,95.4931249 C78.3176349,95.3095633 78.466899,95.1603607 78.6505362,95.1603607 C78.8346443,95.1603607 78.9834375,95.3095633 78.9834375,95.4931249" id="Fill-65" fill="#3A434C"></path>
                                <path d="M81.513958,95.8139812 C81.513958,96.2220527 81.1829402,96.553405 80.7742297,96.553405 C80.3659901,96.553405 80.0349723,96.2220527 80.0349723,95.8139812 C80.0349723,95.4059096 80.3659901,95.0745574 80.7742297,95.0745574 C81.1829402,95.0745574 81.513958,95.4059096 81.513958,95.8139812" id="Fill-66" fill="#FFFFFF"></path>
                                <path d="M80.7744181,95.204086 C80.4382208,95.204086 80.1641776,95.4775457 80.1641776,95.8140753 C80.1641776,96.1501342 80.4382208,96.423594 80.7744181,96.423594 C81.1106154,96.423594 81.3846586,96.1501342 81.3846586,95.8140753 C81.3846586,95.4775457 81.1106154,95.204086 80.7744181,95.204086 M80.7744181,96.6824629 C80.2955488,96.6824629 79.9056729,96.2927475 79.9056729,95.8140753 C79.9056729,95.3349325 80.2955488,94.9452171 80.7744181,94.9452171 C81.2537582,94.9452171 81.6431633,95.3349325 81.6431633,95.8140753 C81.6431633,96.2927475 81.2537582,96.6824629 80.7744181,96.6824629" id="Fill-67" fill="#3A434C"></path>
                                <path d="M81.3956297,95.4931249 C81.3956297,95.6766865 81.2468365,95.8258892 81.0627285,95.8258892 C80.8790913,95.8258892 80.7298272,95.6766865 80.7298272,95.4931249 C80.7298272,95.3095633 80.8790913,95.1603607 81.0627285,95.1603607 C81.2468365,95.1603607 81.3956297,95.3095633 81.3956297,95.4931249" id="Fill-68" fill="#3A434C"></path>
                                <path d="M90.7229866,96.916904 C90.7229866,98.7948803 89.1997396,100.3175 87.3209899,100.3175 C85.4422401,100.3175 83.919464,98.7948803 83.919464,96.916904 C83.919464,95.0389276 85.4422401,93.5163077 87.3209899,93.5163077 C89.1997396,93.5163077 90.7229866,95.0389276 90.7229866,96.916904" id="Fill-69" fill="#FFE25F"></path>
                                <path d="M87.3258398,98.9575442 C86.789525,98.9575442 86.2885251,98.6930272 85.9852883,98.2505967 C85.9391435,98.1832908 85.9560947,98.0910393 86.0234283,98.0449135 C86.0907619,97.9987878 86.1830514,98.0162026 86.2291961,98.0835086 C86.4773418,98.4454544 86.8874648,98.6619629 87.3258398,98.6619629 C87.7679816,98.6619629 88.1795173,98.443101 88.4271921,98.0764485 C88.4728659,98.0086719 88.5651554,97.9907864 88.632489,98.0369121 C88.7002935,98.0825672 88.7181864,98.174348 88.6725125,98.2421246 C88.3697466,98.6902032 87.8663923,98.9575442 87.3258398,98.9575442" id="Fill-70" fill="#3A434C"></path>
                                <path d="M88.6795755,96.0843345 C88.6795755,96.2678961 88.5307823,96.4170987 88.3466742,96.4170987 C88.163037,96.4170987 88.013773,96.2678961 88.013773,96.0843345 C88.013773,95.9007729 88.163037,95.7515702 88.3466742,95.7515702 C88.5307823,95.7515702 88.6795755,95.9007729 88.6795755,96.0843345" id="Fill-71" fill="#3A434C"></path>
                                <path d="M86.6282539,96.0843345 C86.6282539,96.2678961 86.4794607,96.4170987 86.2953526,96.4170987 C86.1117154,96.4170987 85.9624513,96.2678961 85.9624513,96.0843345 C85.9624513,95.9007729 86.1117154,95.7515702 86.2953526,95.7515702 C86.4794607,95.7515702 86.6282539,95.9007729 86.6282539,96.0843345" id="Fill-72" fill="#3A434C"></path>
                                <path d="M99.9080011,169.90622 C99.9080011,171.784197 98.3847541,173.306816 96.5060044,173.306816 C94.6272546,173.306816 93.1044785,171.784197 93.1044785,169.90622 C93.1044785,168.028244 94.6272546,166.505624 96.5060044,166.505624 C98.3847541,166.505624 99.9080011,168.028244 99.9080011,169.90622" id="Fill-73" fill="#FFE25F"></path>
                                <path d="M98.3161962,170.333589 C98.3138419,171.521092 97.5020713,172.482201 96.5028966,172.480319 C95.5041928,172.478436 94.6961892,171.514032 94.6985435,170.326529 L98.3161962,170.333589 Z" id="Fill-74" fill="#3A434C"></path>
                                <path d="M94.8310448,170.456105 C94.8847234,171.510407 95.6131509,172.349143 96.503085,172.351025 L96.5059102,172.351025 C97.3949025,172.351025 98.1256844,171.515585 98.1831299,170.462694 L94.8310448,170.456105 Z M96.5059102,172.609424 L96.5026141,172.609424 C95.4342223,172.607541 94.5664189,171.583361 94.5692441,170.3262 C94.5692441,170.291841 94.5828992,170.258894 94.6069132,170.23489 C94.6313982,170.210885 94.6643587,170.197236 94.698261,170.197236 L94.6987318,170.197236 L98.3163846,170.204296 C98.3507577,170.204296 98.3837182,170.217945 98.4077323,170.24242 C98.4322173,170.266425 98.4458723,170.299371 98.4458723,170.33373 C98.4430471,171.58948 97.5733602,172.609424 96.5059102,172.609424 L96.5059102,172.609424 Z" id="Fill-75" fill="#3A434C"></path>
                                <path d="M94.729338,170.72947 C94.70862,170.599095 94.698261,170.464012 94.698261,170.326576 L98.3163846,170.333636 C98.3159137,170.481898 98.3032004,170.593447 98.2787154,170.733706" id="Fill-76" fill="#FFFFFF"></path>
                                <path d="M98.2788096,170.862859 C98.2712757,170.862859 98.2642128,170.862388 98.2566789,170.860976 C98.1860492,170.848738 98.1389628,170.781903 98.1512053,170.711303 C98.1658021,170.626111 98.1771028,170.548921 98.1827532,170.462788 L94.831139,170.456199 C94.8353768,170.54139 94.8443232,170.626111 94.8570365,170.70942 C94.8683373,170.78002 94.8198382,170.846385 94.7492085,170.85721 C94.6785788,170.868977 94.6126578,170.820027 94.601357,170.749427 C94.5796973,170.61105 94.5688674,170.468436 94.5688674,170.326294 C94.5688674,170.291935 94.5825225,170.258988 94.6070074,170.234984 C94.6314924,170.210509 94.663982,170.19733 94.6983552,170.19733 L94.698826,170.19733 L98.3164787,170.20439 C98.3880502,170.20439 98.4459665,170.262283 98.4454956,170.333825 C98.4454956,170.498089 98.430428,170.617168 98.4064139,170.755546 C98.3951131,170.818615 98.3404928,170.862859 98.2788096,170.862859" id="Fill-77" fill="#3A434C"></path>
                                <path d="M96.510195,171.57889 C96.1791772,171.580302 95.912197,171.849055 95.9126679,172.179466 L95.9126679,172.179466 C95.9126679,172.180407 95.912197,172.180878 95.912197,172.181349 L95.9126679,172.181349 C95.9103135,172.219002 95.929619,172.257127 95.9654047,172.275953 C96.0539272,172.321608 96.1443333,172.347495 96.2342684,172.361615 C96.3242035,172.375265 96.4136678,172.378089 96.5045447,172.378089 C96.62179,172.37856 96.7390352,172.371029 96.8548679,172.342789 C96.9245559,172.325374 96.9933021,172.300899 97.059694,172.266069 C97.0935963,172.248184 97.11196,172.212883 97.1114891,172.176642 L97.1129017,172.176642 C97.1114891,171.84529 96.8416837,171.577478 96.510195,171.57889" id="Fill-78" fill="#EF866E"></path>
                                <path d="M95.7389659,168.788754 C95.7389659,169.115399 95.606653,169.379916 95.443263,169.379916 C95.2798729,169.379916 95.14756,169.115399 95.14756,168.788754 C95.14756,168.462108 95.2798729,168.197591 95.443263,168.197591 C95.606653,168.197591 95.7389659,168.462108 95.7389659,168.788754" id="Fill-79" fill="#3A434C"></path>
                                <path d="M97.8649196,168.788754 C97.8649196,169.115399 97.7326066,169.379916 97.5692166,169.379916 C97.4058266,169.379916 97.2735136,169.115399 97.2735136,168.788754 C97.2735136,168.462108 97.4058266,168.197591 97.5692166,168.197591 C97.7326066,168.197591 97.8649196,168.462108 97.8649196,168.788754" id="Fill-80" fill="#3A434C"></path>
                                <path d="M84.0911883,169.871438 C84.0911883,171.749414 82.5679413,173.272034 80.6891916,173.272034 C78.8104418,173.272034 77.2876657,171.749414 77.2876657,169.871438 C77.2876657,167.993461 78.8104418,166.470841 80.6891916,166.470841 C82.5679413,166.470841 84.0911883,167.993461 84.0911883,169.871438" id="Fill-81" fill="#FFE25F"></path>
                                <path d="M80.8320519,171.906665 C80.7661309,171.906665 80.7058602,171.862422 80.6889091,171.795587 C80.6686619,171.716514 80.7162192,171.636029 80.7953245,171.615791 L82.5563581,171.164888 C82.6354633,171.144178 82.7159812,171.192187 82.7362283,171.27126 C82.7564755,171.350332 82.7089182,171.430817 82.6298129,171.451056 L80.8687793,171.901958 C80.8565369,171.905253 80.8442944,171.906665 80.8320519,171.906665" id="Fill-82" fill="#3A434C"></path>
                                <path d="M80.2560903,168.924872 C80.2560903,169.332943 79.9250725,169.664295 79.516362,169.664295 C79.1081224,169.664295 78.7771046,169.332943 78.7771046,168.924872 C78.7771046,168.5168 79.1081224,168.185448 79.516362,168.185448 C79.9250725,168.185448 80.2560903,168.5168 80.2560903,168.924872" id="Fill-83" fill="#FFFFFF"></path>
                                <path d="M79.5165504,168.314976 C79.1803531,168.314976 78.9063099,168.588436 78.9063099,168.924966 C78.9063099,169.261025 79.1803531,169.534484 79.5165504,169.534484 C79.8527477,169.534484 80.1267909,169.261025 80.1267909,168.924966 C80.1267909,168.588436 79.8527477,168.314976 79.5165504,168.314976 M79.5165504,169.793353 C79.0372102,169.793353 78.6478052,169.403638 78.6478052,168.924966 C78.6478052,168.445823 79.0372102,168.056108 79.5165504,168.056108 C79.9958905,168.056108 80.3852956,168.445823 80.3852956,168.924966 C80.3852956,169.403638 79.9958905,169.793353 79.5165504,169.793353" id="Fill-84" fill="#3A434C"></path>
                                <path d="M80.0712289,168.604015 C80.0712289,168.787577 79.9224357,168.93678 79.7383276,168.93678 C79.5546904,168.93678 79.4054263,168.787577 79.4054263,168.604015 C79.4054263,168.420454 79.5546904,168.271251 79.7383276,168.271251 C79.9224357,168.271251 80.0712289,168.420454 80.0712289,168.604015" id="Fill-85" fill="#3A434C"></path>
                                <path d="M82.6017023,168.924872 C82.6017023,169.332943 82.2706845,169.664295 81.861974,169.664295 C81.4537344,169.664295 81.1227166,169.332943 81.1227166,168.924872 C81.1227166,168.5168 81.4537344,168.185448 81.861974,168.185448 C82.2706845,168.185448 82.6017023,168.5168 82.6017023,168.924872" id="Fill-86" fill="#FFFFFF"></path>
                                <path d="M81.8622095,168.314976 C81.5260122,168.314976 81.251969,168.588436 81.251969,168.924966 C81.251969,169.261025 81.5260122,169.534484 81.8622095,169.534484 C82.1984068,169.534484 82.47245,169.261025 82.47245,168.924966 C82.47245,168.588436 82.1984068,168.314976 81.8622095,168.314976 M81.8622095,169.793353 C81.3828693,169.793353 80.9934643,169.403638 80.9934643,168.924966 C80.9934643,168.445823 81.3828693,168.056108 81.8622095,168.056108 C82.3415496,168.056108 82.7309547,168.445823 82.7309547,168.924966 C82.7309547,169.403638 82.3415496,169.793353 81.8622095,169.793353" id="Fill-87" fill="#3A434C"></path>
                                <path d="M82.4833741,168.604015 C82.4833741,168.787577 82.3345808,168.93678 82.1504728,168.93678 C81.9668356,168.93678 81.8175715,168.787577 81.8175715,168.604015 C81.8175715,168.420454 81.9668356,168.271251 82.1504728,168.271251 C82.3345808,168.271251 82.4833741,168.420454 82.4833741,168.604015" id="Fill-88" fill="#3A434C"></path>
                                <path d="M91.810778,170.027794 C91.810778,171.905771 90.287531,173.428391 88.4087813,173.428391 C86.5300315,173.428391 85.0072554,171.905771 85.0072554,170.027794 C85.0072554,168.149818 86.5300315,166.627198 88.4087813,166.627198 C90.287531,166.627198 91.810778,168.149818 91.810778,170.027794" id="Fill-89" fill="#FFE25F"></path>
                                <path d="M88.4136312,172.068435 C87.8773164,172.068435 87.3763165,171.803918 87.0730797,171.361487 C87.0269349,171.294181 87.043886,171.20193 87.1112197,171.155804 C87.1785533,171.109678 87.2708428,171.127093 87.3169875,171.194399 C87.5651332,171.556345 87.9752562,171.772853 88.4136312,171.772853 C88.8553022,171.772853 89.2673087,171.553991 89.5149835,171.187339 C89.5606573,171.119562 89.6524759,171.101677 89.7202804,171.147803 C89.7880849,171.193458 89.8059778,171.285238 89.7603039,171.353015 C89.457538,171.801094 88.9541837,172.068435 88.4136312,172.068435" id="Fill-90" fill="#3A434C"></path>
                                <path d="M89.7673198,169.195225 C89.7673198,169.378787 89.6185266,169.527989 89.4344185,169.527989 C89.2507813,169.527989 89.1015173,169.378787 89.1015173,169.195225 C89.1015173,169.011663 89.2507813,168.862461 89.4344185,168.862461 C89.6185266,168.862461 89.7673198,169.011663 89.7673198,169.195225" id="Fill-91" fill="#3A434C"></path>
                                <path d="M87.7159982,169.195225 C87.7159982,169.378787 87.567205,169.527989 87.3830969,169.527989 C87.1994597,169.527989 87.0501956,169.378787 87.0501956,169.195225 C87.0501956,169.011663 87.1994597,168.862461 87.3830969,168.862461 C87.567205,168.862461 87.7159982,169.011663 87.7159982,169.195225" id="Fill-92" fill="#3A434C"></path>
                                <g id="Group" transform="translate(65.000000, 104.000000)">
                                    <path d="M11.8970364,12.0363587 L153.156416,12.0363587" id="Stroke-13" stroke="#BAC1C3" stroke-width="2" stroke-linecap="round" stroke-linejoin="round"></path>
                                    <path d="M11.8970364,19.5670909 L153.156416,19.5670909" id="Stroke-14" stroke="#BAC1C3" stroke-width="2" stroke-linecap="round" stroke-linejoin="round"></path>
                                    <path d="M13,49 L154.25938,49" id="Stroke-14" stroke="#BAC1C3" stroke-width="2" stroke-linecap="round" stroke-linejoin="round"></path>
                                    <path d="M13,56 L154.25938,56" id="Stroke-14" stroke="#BAC1C3" stroke-width="2" stroke-linecap="round" stroke-linejoin="round"></path>
                                    <path d="M0.174804688,0.5 L185.685564,0.5" id="Path-5" stroke="#D5D9DA"></path>
                                </g>
                            </g>
                            <g id="projo" transform="translate(91.952601, 246.000000)">
                                <polygon id="Fill-26" fill="#A1A9AE" points="0.564254715 48.0876856 119.846683 48.0876856 119.846683 4.43821592 0.564254715 4.43821592"></polygon>
                                <path d="M115.998767,26.7989888 C115.998767,35.7232087 108.763465,42.957593 99.8381139,42.957593 C90.9122493,42.957593 83.6769476,35.7232087 83.6769476,26.7989888 C83.6769476,17.8747689 90.9122493,10.6403846 99.8381139,10.6403846 C108.763465,10.6403846 115.998767,17.8747689 115.998767,26.7989888" id="Fill-27" fill="#D5D9DA"></path>
                                <path d="M110.647917,26.7989888 C110.647917,32.7683049 105.808136,37.6074729 99.8380626,37.6074729 C93.8674765,37.6074729 89.0276949,32.7683049 89.0276949,26.7989888 C89.0276949,20.8296727 93.8674765,15.9905047 99.8380626,15.9905047 C105.808136,15.9905047 110.647917,20.8296727 110.647917,26.7989888" id="Fill-28" fill="#FFFFFF"></path>
                                <polygon id="Fill-29" fill="#505F65" points="8.25977942 51.9352166 16.7249079 51.9352166 16.7249079 46.5491862 8.25977942 46.5491862"></polygon>
                                <polygon id="Fill-30" fill="#505F65" points="105.994328 51.9352166 114.459457 51.9352166 114.459457 46.5491862 105.994328 46.5491862"></polygon>
                                <polygon id="Fill-31" fill="#708188" points="33.6551649 7.30590903 95.9899924 7.30590903 95.9899924 0.380866235 33.6551649 0.380866235"></polygon>
                            </g>
                        </g>
                    </g>
                </g>
            </g>
        </g>
    </g>
</svg>