<?xml version="1.0" encoding="UTF-8"?>
<svg width="406px" height="140px" viewBox="0 0 406 140" version="1.1" xmlns="http://www.w3.org/2000/svg" xmlns:xlink="http://www.w3.org/1999/xlink">
    <!-- Generator: Sketch 40.3 (33839) - http://www.bohemiancoding.com/sketch -->
    <title>Group 17</title>
    <desc>Created with Sketch.</desc>
    <defs></defs>
    <g id="Voeux-2016" stroke="none" stroke-width="1" fill="none" fill-rule="evenodd">
        <g id="Voeux_2016_wisembly_EN" transform="translate(-435.000000, -1400.000000)">
            <g id="1/-EN-BREF" transform="translate(-1.000000, 398.000000)">
                <g id="uptime" transform="translate(1.000000, 943.000000)">
                    <g id="content" transform="translate(339.000000, 59.000000)">
                        <g id="Group-17" transform="translate(61.000000, 0.000000)">
                            <path d="M38,123 L438,123" id="Line" stroke="#10526D" stroke-width="5" stroke-linecap="square"></path>
                            <g id="illus">
                                <g id="gauche" transform="translate(0.000000, 27.000000)">
                                    <g id="serveur-01" transform="translate(40.000000, 0.000000)">
                                        <polygon id="Fill-1" fill="#FFFFFF" points="54.8260741 90.9535899 62.2531852 90.9535899 62.2531852 68.5688095 54.8260741 68.5688095"></polygon>
                                        <polygon id="Fill-3" fill="#D5A82D" points="30.3196296 20.6034109 86.7608889 20.6034109 86.7608889 0.137904316 30.3196296 0.137904316"></polygon>
                                        <path d="M82.9408,10.1219238 C82.9408,11.8881112 81.5153185,13.3190266 79.7573926,13.3190266 C78.0007259,13.3190266 76.5752444,11.8881112 76.5752444,10.1219238 C76.5752444,8.35573639 78.0007259,6.92355578 79.7573926,6.92355578 C81.5153185,6.92355578 82.9408,8.35573639 82.9408,10.1219238 Z" id="Fill-4" fill="#FFFFFF"></path>
                                        <path d="M72.9682222,10.1219238 C72.9682222,11.2403404 72.0653333,12.1474725 70.9521481,12.1474725 C69.838963,12.1474725 68.9360741,11.2403404 68.9360741,10.1219238 C68.9360741,9.00350712 69.838963,8.09764024 70.9521481,8.09764024 C72.0653333,8.09764024 72.9682222,9.00350712 72.9682222,10.1219238" id="Fill-6" fill="#FFFFFF"></path>
                                        <path d="M64.1627259,10.1219238 C64.1627259,11.2403404 63.259837,12.1474725 62.1466519,12.1474725 C61.0334667,12.1474725 60.1305778,11.2403404 60.1305778,10.1219238 C60.1305778,9.00350712 61.0334667,8.09764024 62.1466519,8.09764024 C63.259837,8.09764024 64.1627259,9.00350712 64.1627259,10.1219238" id="Fill-8" fill="#FFFFFF"></path>
                                        <polygon id="Fill-10" fill="#F1BC33" points="30.3183704 45.3325647 86.7596296 45.3325647 86.7596296 24.8670581 30.3183704 24.8670581"></polygon>
                                        <path d="M82.9408,34.850698 C82.9408,36.6168854 81.5153185,38.049066 79.7573926,38.049066 C78.0007259,38.049066 76.5752444,36.6168854 76.5752444,34.850698 C76.5752444,33.0845107 78.0007259,31.6535952 79.7573926,31.6535952 C81.5153185,31.6535952 82.9408,33.0845107 82.9408,34.850698" id="Fill-12" fill="#FFFFFF"></path>
                                        <path d="M72.9682222,34.850698 C72.9682222,35.9691147 72.0653333,36.8762468 70.9521481,36.8762468 C69.838963,36.8762468 68.9360741,35.9691147 68.9360741,34.850698 C68.9360741,33.7322814 69.838963,32.8264145 70.9521481,32.8264145 C72.0653333,32.8264145 72.9682222,33.7322814 72.9682222,34.850698" id="Fill-13" fill="#FFFFFF"></path>
                                        <path d="M64.1627259,34.850698 C64.1627259,35.9691147 63.259837,36.8762468 62.1466519,36.8762468 C61.0334667,36.8762468 60.1305778,35.9691147 60.1305778,34.850698 C60.1305778,33.7322814 61.0334667,32.8264145 62.1466519,32.8264145 C63.259837,32.8264145 64.1627259,33.7322814 64.1627259,34.850698" id="Fill-14" fill="#FFFFFF"></path>
                                        <polygon id="Fill-15" fill="#FFE35F" points="30.3183704 70.0604534 86.7596296 70.0604534 86.7596296 49.5949468 30.3183704 49.5949468"></polygon>
                                        <path d="M82.9408,59.5794723 C82.9408,61.3456597 81.5153185,62.7765751 79.7573926,62.7765751 C78.0007259,62.7765751 76.5752444,61.3456597 76.5752444,59.5794723 C76.5752444,57.8132849 78.0007259,56.3811043 79.7573926,56.3811043 C81.5153185,56.3811043 82.9408,57.8132849 82.9408,59.5794723" id="Fill-16" fill="#FFFFFF"></path>
                                        <path d="M72.9682222,59.5794723 C72.9682222,60.697889 72.0653333,61.605021 70.9521481,61.605021 C69.838963,61.605021 68.9360741,60.697889 68.9360741,59.5794723 C68.9360741,58.4610557 69.838963,57.5551888 70.9521481,57.5551888 C72.0653333,57.5551888 72.9682222,58.4610557 72.9682222,59.5794723" id="Fill-17" fill="#FFFFFF"></path>
                                        <path d="M64.1627259,59.5794723 C64.1627259,60.697889 63.259837,61.605021 62.1466519,61.605021 C61.0334667,61.605021 60.1305778,60.697889 60.1305778,59.5794723 C60.1305778,58.4610557 61.0334667,57.5551888 62.1466519,57.5551888 C63.259837,57.5551888 64.1627259,58.4610557 64.1627259,59.5794723" id="Fill-18" fill="#FFFFFF"></path>
                                        <polygon id="Fill-19" fill="#06698D" points="37.2140741 103.744532 79.8639259 103.744532 79.8639259 86.263578 37.2140741 86.263578"></polygon>
                                        <polygon id="Fill-20" fill="#46B489" points="46.763037 90.7397749 70.3162222 90.7397749 70.3162222 81.573566 46.763037 81.573566"></polygon>
                                    </g>
                                </g>
                                <g id="droite" transform="translate(269.000000, 27.000000)">
                                    <g id="serveur-02" transform="translate(85.500000, 52.000000) scale(-1, 1) translate(-85.500000, -52.000000) ">
                                        <polygon id="Fill-1" fill="#FFFFFF" points="54.8260741 90.9535899 62.2531852 90.9535899 62.2531852 68.5688095 54.8260741 68.5688095"></polygon>
                                        <polygon id="Fill-3" fill="#D5A82D" points="30.3196296 20.6034109 86.7608889 20.6034109 86.7608889 0.137904316 30.3196296 0.137904316"></polygon>
                                        <path d="M82.9408,10.1219238 C82.9408,11.8881112 81.5153185,13.3190266 79.7573926,13.3190266 C78.0007259,13.3190266 76.5752444,11.8881112 76.5752444,10.1219238 C76.5752444,8.35573639 78.0007259,6.92355578 79.7573926,6.92355578 C81.5153185,6.92355578 82.9408,8.35573639 82.9408,10.1219238 Z" id="Fill-4" fill="#FFFFFF"></path>
                                        <path d="M72.9682222,10.1219238 C72.9682222,11.2403404 72.0653333,12.1474725 70.9521481,12.1474725 C69.838963,12.1474725 68.9360741,11.2403404 68.9360741,10.1219238 C68.9360741,9.00350712 69.838963,8.09764024 70.9521481,8.09764024 C72.0653333,8.09764024 72.9682222,9.00350712 72.9682222,10.1219238" id="Fill-6" fill="#FFFFFF"></path>
                                        <path d="M64.1627259,10.1219238 C64.1627259,11.2403404 63.259837,12.1474725 62.1466519,12.1474725 C61.0334667,12.1474725 60.1305778,11.2403404 60.1305778,10.1219238 C60.1305778,9.00350712 61.0334667,8.09764024 62.1466519,8.09764024 C63.259837,8.09764024 64.1627259,9.00350712 64.1627259,10.1219238" id="Fill-8" fill="#FFFFFF"></path>
                                        <polygon id="Fill-10" fill="#F1BC33" points="30.3183704 45.3325647 86.7596296 45.3325647 86.7596296 24.8670581 30.3183704 24.8670581"></polygon>
                                        <path d="M82.9408,34.850698 C82.9408,36.6168854 81.5153185,38.049066 79.7573926,38.049066 C78.0007259,38.049066 76.5752444,36.6168854 76.5752444,34.850698 C76.5752444,33.0845107 78.0007259,31.6535952 79.7573926,31.6535952 C81.5153185,31.6535952 82.9408,33.0845107 82.9408,34.850698" id="Fill-12" fill="#FFFFFF"></path>
                                        <path d="M72.9682222,34.850698 C72.9682222,35.9691147 72.0653333,36.8762468 70.9521481,36.8762468 C69.838963,36.8762468 68.9360741,35.9691147 68.9360741,34.850698 C68.9360741,33.7322814 69.838963,32.8264145 70.9521481,32.8264145 C72.0653333,32.8264145 72.9682222,33.7322814 72.9682222,34.850698" id="Fill-13" fill="#FFFFFF"></path>
                                        <path d="M64.1627259,34.850698 C64.1627259,35.9691147 63.259837,36.8762468 62.1466519,36.8762468 C61.0334667,36.8762468 60.1305778,35.9691147 60.1305778,34.850698 C60.1305778,33.7322814 61.0334667,32.8264145 62.1466519,32.8264145 C63.259837,32.8264145 64.1627259,33.7322814 64.1627259,34.850698" id="Fill-14" fill="#FFFFFF"></path>
                                        <polygon id="Fill-15" fill="#FFE35F" points="30.3183704 70.0604534 86.7596296 70.0604534 86.7596296 49.5949468 30.3183704 49.5949468"></polygon>
                                        <path d="M82.9408,59.5794723 C82.9408,61.3456597 81.5153185,62.7765751 79.7573926,62.7765751 C78.0007259,62.7765751 76.5752444,61.3456597 76.5752444,59.5794723 C76.5752444,57.8132849 78.0007259,56.3811043 79.7573926,56.3811043 C81.5153185,56.3811043 82.9408,57.8132849 82.9408,59.5794723" id="Fill-16" fill="#FFFFFF"></path>
                                        <path d="M72.9682222,59.5794723 C72.9682222,60.697889 72.0653333,61.605021 70.9521481,61.605021 C69.838963,61.605021 68.9360741,60.697889 68.9360741,59.5794723 C68.9360741,58.4610557 69.838963,57.5551888 70.9521481,57.5551888 C72.0653333,57.5551888 72.9682222,58.4610557 72.9682222,59.5794723" id="Fill-17" fill="#FFFFFF"></path>
                                        <path d="M64.1627259,59.5794723 C64.1627259,60.697889 63.259837,61.605021 62.1466519,61.605021 C61.0334667,61.605021 60.1305778,60.697889 60.1305778,59.5794723 C60.1305778,58.4610557 61.0334667,57.5551888 62.1466519,57.5551888 C63.259837,57.5551888 64.1627259,58.4610557 64.1627259,59.5794723" id="Fill-18" fill="#FFFFFF"></path>
                                        <polygon id="Fill-19" fill="#06698D" points="37.2140741 103.744532 79.8639259 103.744532 79.8639259 86.263578 37.2140741 86.263578"></polygon>
                                        <polygon id="Fill-20" fill="#46B489" points="46.763037 90.7397749 70.3162222 90.7397749 70.3162222 81.573566 46.763037 81.573566"></polygon>
                                    </g>
                                </g>
                                <g id="picto" transform="translate(169.000000, 0.000000)">
                                    <path d="M69.99965,140 C31.3398167,140 -0.00035,108.659833 -0.00035,69.9988333 C-0.00035,31.3401667 31.3398167,0 69.99965,0 C108.659483,0 139.99965,31.3401667 139.99965,69.9988333 C139.99965,108.659833 108.659483,140 69.99965,140" id="Fill-1" fill="#FFFFFF"></path>
                                    <path d="M21.1936667,95.517325 L118.587,95.517325 L118.587,50.6214833 L21.1936667,50.6214833 L21.1936667,95.517325 Z M119.203,43.7155 L22.0803333,43.7155 C19.7831667,43.7155 17.7146667,45.82135 17.7146667,48.1079 L17.7146667,104.88245 C17.7146667,107.170158 19.7831667,109.331608 22.0803333,109.331608 L58.7731667,109.331608 C58.7731667,109.331608 58.3228333,115.678117 57.568,118.117567 C56.6043333,121.22885 55.9766667,121.1107 50.7593333,121.824233 L50.7593333,124.871808 L90.7596667,124.871808 L90.7596667,121.824233 C87.2818333,121.1107 84.798,121.22885 83.8343333,118.117567 C83.0795,115.678117 82.5148333,109.331608 82.5148333,109.331608 L119.203,109.331608 C121.5025,109.331608 122.064833,107.170158 122.064833,104.88245 L122.064833,48.1079 C122.064833,45.82135 121.5025,43.7155 119.203,43.7155 L119.203,43.7155 Z" id="Fill-4" fill="#06698D"></path>
                                    <polygon id="Fill-6" fill="#FCFDFF" points="21.1936667 95.517325 118.587 95.517325 118.587 50.6214833 21.1936667 50.6214833"></polygon>
                                    <path d="M70.0742,51.3260975 C75.7185333,52.9662975 85.1370333,54.4790808 90.2668667,50.3785808 L90.2668667,56.6961308 L91.3868667,56.6961308 C92.3400333,56.6961308 93.0318667,57.0019308 93.5032,57.5266558 C93.6630333,56.4250808 93.7738667,55.3072892 93.7738667,54.1616975 C93.7738667,52.1566225 93.5195333,50.2106225 93.0423667,48.3526558 C96.3440333,42.9745142 96.3545333,32.9584058 96.3545333,32.9584058 C96.3545333,32.9584058 87.8728667,35.2797058 82.7512,34.3217642 L82.7220333,34.3171308 C79.0843667,32.0433225 74.7817,30.7228225 70.1663667,30.7228225 C57.1277,30.7228225 46.5588667,41.2173225 46.5588667,54.1616975 C46.5588667,58.3270642 47.6648667,62.2318058 49.5828667,65.6210892 L49.5828667,62.9024808 C50.3808667,52.2400225 64.4298667,49.6858975 70.0742,51.3260975" id="Fill-7" fill="#F1BB33"></path>
                                    <path d="M78.7614333,81.0936425 C78.7614333,84.2315675 73.3142667,86.7752675 70.1537667,86.7752675 C66.9932667,86.7752675 61.5449333,84.2315675 61.5449333,81.0936425 L61.5449333,79.9399425 L78.7614333,79.9399425 L78.7614333,81.0936425 Z M93.5034333,57.5261925 C93.0321,57.0014675 92.3402667,56.6956675 91.3859333,56.6956675 L90.2671,56.6956675 L90.2671,50.3792758 C85.1372667,54.4797758 75.7187667,52.9658342 70.0744333,51.3256342 C64.4289333,49.6854342 50.3811,52.2395592 49.5831,62.9020175 L49.5831,65.6217842 L49.5831,66.9920925 L49.5831,74.7019592 C49.5831,86.0177175 58.3984333,95.5044675 69.7944333,95.5044675 L70.5376,95.5044675 C81.9336,95.5044675 90.2671,86.0177175 90.2671,74.7019592 L90.2671,66.9920925 L91.3859333,66.9920925 C93.3576,66.9920925 94.2559333,65.6148342 94.2559333,63.6584092 L94.2559333,59.9077258 C94.2559333,58.8976592 94.0051,58.0868258 93.5034333,57.5261925 L93.5034333,57.5261925 Z" id="Fill-8" fill="#F0DBCB"></path>
                                    <path d="M61.5454,81.0936425 C61.5454,84.2315675 66.9925667,86.7752675 70.1530667,86.7752675 C73.3135667,86.7752675 78.7619,84.2315675 78.7619,81.0936425 L78.7619,79.9399425 L61.5454,79.9399425 L61.5454,81.0936425 Z" id="Fill-9" fill="#FFFFFF"></path>
                                    <path d="M70.54075,21.9726567 C69.49775,21.9726567 68.6519167,21.132865 68.6519167,20.097315 L68.6519167,14.0600817 C68.6519167,13.0245317 69.49775,12.18474 70.54075,12.18474 C71.5849167,12.18474 72.43075,13.0245317 72.43075,14.0600817 L72.43075,20.097315 C72.43075,21.132865 71.5849167,21.9726567 70.54075,21.9726567" id="Fill-10" fill="#47B388"></path>
                                    <path d="M83.4184167,25.41198 C83.09875,25.41198 82.77325,25.332055 82.4769167,25.1594633 C81.5739167,24.6428467 81.2635833,23.4960967 81.7850833,22.5983883 L84.82775,17.37083 C85.34925,16.47428 86.5030833,16.1638467 87.4060833,16.6850967 C88.31025,17.2028717 88.6205833,18.3484633 88.0979167,19.24733 L85.0564167,24.4748883 C84.70525,25.0760633 84.07175,25.41198 83.4184167,25.41198" id="Fill-11" fill="#47B388"></path>
                                    <path d="M56.7562333,25.41198 C57.0759,25.41198 57.4014,25.332055 57.6977333,25.1594633 C58.6007333,24.6428467 58.9110667,23.4960967 58.3895667,22.5983883 L55.3469,17.37083 C54.8254,16.47428 53.6715667,16.1638467 52.7685667,16.6850967 C51.8644,17.2028717 51.5540667,18.3484633 52.0779,19.24733 L55.1182333,24.4748883 C55.4694,25.0760633 56.1029,25.41198 56.7562333,25.41198" id="Fill-12" fill="#47B388"></path>
                                </g>
                            </g>
                        </g>
                    </g>
                </g>
            </g>
        </g>
    </g>
</svg>