<?xml version="1.0" encoding="UTF-8"?>
<svg width="280px" height="63px" viewBox="0 0 280 63" version="1.1" xmlns="http://www.w3.org/2000/svg" xmlns:xlink="http://www.w3.org/1999/xlink">
    <!-- Generator: Sketch 40.3 (33839) - http://www.bohemiancoding.com/sketch -->
    <title>logo Wisembly couleurs</title>
    <desc>Created with Sketch.</desc>
    <defs></defs>
    <g id="Voeux-2016" stroke="none" stroke-width="1" fill="none" fill-rule="evenodd">
        <g id="Voeux_2016_wisembly_EN" transform="translate(-501.000000, -78.000000)">
            <g id="HEADER" transform="translate(0.000000, 78.000000)">
                <g id="logo-Wisembly-couleurs" transform="translate(501.000000, 0.000000)">
                    <path d="M279.053112,20.6532866 L273.172955,20.6532866 L267.194369,37.4833829 L260.646862,20.6532866 L254.205659,20.6532866 L264.231652,44.3351382 C263.343821,46.2393722 262.570168,46.7410981 261.170505,46.7643441 C260.105502,46.7643441 259.070027,46.4272773 258.109359,45.910054 L257.837695,45.7647666 L255.749028,50.2725513 L255.987227,50.4004043 C257.680208,51.3031235 259.412561,51.8532786 261.755174,51.8513414 C265.696277,51.8765246 267.985739,49.9335473 269.863767,45.1100045 L279.47242,20.6532866 L279.053112,20.6532866 Z" id="Fill-1" fill="#0A698D"></path>
                    <path d="M228.212295,25.8508961 C231.739995,25.8586448 234.714524,28.6210432 234.726335,33.1036448 C234.712555,37.6308012 231.78921,39.6396421 228.212295,39.6473908 C224.680657,39.6435164 221.570296,37.067086 221.562422,32.638725 C221.570296,28.210364 224.680657,25.8567076 228.212295,25.8508961 M229.474156,20.6399202 C225.901179,20.6360459 223.450293,21.8370886 221.698254,24.0009028 L221.698254,11.8141929 L215.670454,11.8141929 L215.670454,44.8583667 L221.698254,44.8583667 L221.698254,41.5051328 C223.38533,43.459733 225.834247,44.862241 229.474156,44.8583667 C235.30313,44.8467437 240.594681,41.0421501 240.606492,33.1036448 C240.594681,25.1612651 235.259821,20.6534803 229.474156,20.6399202" id="Fill-3" fill="#0A698D"></path>
                    <path d="M203.01286,20.652318 C199.477285,20.6465066 196.926002,22.217548 194.990885,24.5653929 C193.644374,22.2039878 191.21908,20.6445694 187.876426,20.652318 C184.514087,20.6465066 182.421483,22.2776001 180.91158,24.1314678 L180.91158,20.6542552 L174.88378,20.6542552 L174.88378,44.8475186 L180.91158,44.8475186 L180.91158,31.6651055 C180.935203,28.1317151 182.858509,26.1112512 185.714922,26.0957539 C188.573305,26.1189999 190.213134,27.9360614 190.244632,31.4868862 L190.244632,44.8475186 L196.272432,44.8475186 L196.272432,31.6205507 C196.298024,27.955433 198.250858,26.1170627 201.075774,26.0957539 C203.98534,26.1228742 205.570049,27.8837579 205.607452,31.531441 L205.607452,44.8475186 L211.633284,44.8475186 L211.633284,29.8906616 C211.635253,26.9810386 210.830102,24.6641884 209.332011,23.0757124 C207.835888,21.4852993 205.660604,20.6503809 203.01286,20.652318" id="Fill-5" fill="#0A698D"></path>
                    <polygon id="Fill-7" fill="#0A698D" points="244.709216 44.8234977 250.737016 44.8234977 250.737016 11.8277531 244.709216 11.8277531"></polygon>
                    <polygon id="Fill-9" fill="#0A698D" points="99.3748484 36.0492991 94.2801561 20.6449568 94.0714863 20.6449568 89.2208982 20.6449568 84.1714832 36.0396132 79.6004339 20.6527055 73.4033352 20.6527055 81.289478 44.8265972 86.5751229 44.8265972 91.7269041 29.4532496 96.833408 44.8265972 102.119053 44.8265972 110.099688 20.6527055 104.036453 20.6527055"></polygon>
                    <polygon id="Fill-10" fill="#0A698D" points="114.641996 44.8318275 120.669796 44.8318275 120.669796 44.5490013 120.669796 20.6501872 114.641996 20.6501872"></polygon>
                    <path d="M136.630869,30.2860372 C133.798078,29.4220612 131.380659,28.9590786 131.471213,27.6185599 L131.471213,27.5294503 C131.477119,26.3535906 132.475191,25.4838032 134.51858,25.4644316 C136.418262,25.4605572 138.815996,26.2819155 141.077898,27.6379316 L141.333813,27.7929048 L143.772887,23.4923968 L143.550438,23.3471094 C140.979468,21.6753353 137.691935,20.6408888 134.654412,20.6408888 C129.821541,20.6467003 125.902093,23.4459048 125.894218,28.0621709 L125.894218,28.1512805 C125.900124,32.843096 130.036116,33.9937725 133.538225,34.9546067 C136.374953,35.7798393 138.723472,36.2466963 138.644729,37.7325024 L138.644729,37.821612 C138.638823,39.1698794 137.522637,39.995112 135.239081,40.018358 C132.884656,40.0202952 130.144389,39.0691468 127.618697,37.1939703 L127.372624,37.0118767 L124.624482,41.1186682 L124.833152,41.2794529 C127.860832,43.6253607 131.65626,44.8399636 135.103249,44.8419008 C140.138884,44.8341521 144.211881,42.3468313 144.221724,37.2462738 L144.221724,37.1571642 C144.209913,32.7210545 140.0877,31.3417925 136.630869,30.2860372" id="Fill-11" fill="#0A698D"></path>
                    <path d="M153.236849,31.1800392 C153.821518,27.8229309 155.988928,25.5913159 159.05598,25.5855044 C162.376979,25.5932531 164.294379,27.9682183 164.75109,31.1800392 L153.236849,31.1800392 Z M170.780859,33.3264189 L170.778891,33.3593507 C170.69621,26.5637731 166.776762,20.6418574 159.101258,20.6302344 C152.126569,20.6418574 147.201174,25.9303199 147.189363,32.7995098 C147.203143,40.2130432 152.650212,44.7983146 159.685927,44.8099376 C164.134924,44.8157491 167.345682,43.0354937 169.639081,40.3195873 L166.016889,37.1406983 C164.150673,38.9287023 162.359262,39.848856 159.776481,39.8546675 C156.492885,39.8411074 154.018377,38.7679175 153.293938,35.2945793 L170.672587,35.2945793 L170.672587,35.2926421 L170.798577,35.2926421 C170.798577,34.0780392 170.798577,33.6944803 170.780859,33.3264189 L170.780859,33.3264189 Z" id="Fill-12" fill="#0A698D"></path>
                    <polygon id="Fill-13" fill="#0A698D" points="114.639043 17.7942237 120.704246 17.7942237 120.704246 11.8258159 114.639043 11.8258159"></polygon>
                    <polygon id="Fill-14" fill="#0A698D" points="37.9546706 0 5.55179728 10.3502767 5.54195437 10.3599626 5.54195437 10.3735227 13.5068405 25.0339933 13.5206206 25.0436791 13.5363692 25.0378676 37.9723878 0.0290574866 37.9743564 0.0077486631"></polygon>
                    <polygon id="Fill-15" fill="#F0BB32" points="41.0219195 4.15986979 29.2832601 16.1780463 29.3049145 16.1877321 61.0916214 31.3596144"></polygon>
                    <polygon id="Fill-16" fill="#F0886E" points="42.7414766 28.2241179 37.9105743 62.5933131 57.9428731 35.4788037"></polygon>
                    <polygon id="Fill-17" fill="#FEFEFE" points="42.7414766 28.2241179 42.7237593 28.2221807 37.8830142 62.6553024 57.9684647 35.4710551 42.7276965 28.1989348 42.7237593 28.2221807 42.7414766 28.2241179 42.7336022 28.2396152 57.915313 35.4826781 37.9381345 62.5274495 42.7591938 28.2260551 42.7414766 28.2241179 42.7336022 28.2396152"></polygon>
                    <polygon id="Fill-18" fill="#E15C5A" points="35.2392074 44.4837189 0.460254664 50.5935397 32.9438398 60.9903084 35.2628304 44.4798445"></polygon>
                    <polygon id="Fill-19" fill="#47B389" points="17.2335646 42.5163333 0.581322508 11.8587477 0.569511011 45.4685739 17.2434075 42.5376421"></polygon>
                </g>
            </g>
        </g>
    </g>
</svg>