<?xml version="1.0" encoding="UTF-8"?>
<svg width="140px" height="130px" viewBox="0 0 140 130" version="1.1" xmlns="http://www.w3.org/2000/svg" xmlns:xlink="http://www.w3.org/1999/xlink">
    <!-- Generator: Sketch 40.3 (33839) - http://www.bohemiancoding.com/sketch -->
    <title>picto</title>
    <desc>Created with Sketch.</desc>
    <defs></defs>
    <g id="Voeux-2016" stroke="none" stroke-width="1" fill="none" fill-rule="evenodd">
        <g id="Voeux_2016_wisembly_EN" transform="translate(-217.000000, -982.000000)">
            <g id="1/-EN-BREF" transform="translate(-1.000000, 398.000000)">
                <g id="messages-sent" transform="translate(148.000000, 584.000000)">
                    <g id="picto" transform="translate(70.000000, 0.000000)">
                        <path d="M65.1159535,130 C29.1533178,130 -0.000325581395,100.898417 -0.000325581395,64.9989167 C-0.000325581395,29.1015833 29.1533178,0 65.1159535,0 C101.078589,0 130.232233,29.1015833 130.232233,64.9989167 C130.232233,100.898417 101.078589,130 65.1159535,130" id="Fill-1" fill="#FFFFFF"></path>
                        <path d="M113.668822,61.665175 L89.6832403,61.665175 C75.6202946,61.665175 64.2206047,73.0445083 64.2206047,87.0823417 L64.2206047,87.102925 C64.2206047,101.140758 75.6202946,112.520092 89.6832403,112.520092 L109.30386,112.520092 L121.772543,126.460425 L122.333628,110.978508 C132.12386,107.436008 139.131457,98.0987583 139.131457,87.102925 L139.131457,87.0823417 C139.131457,73.0445083 127.731767,61.665175 113.668822,61.665175" id="Fill-4" fill="#F2BC33"></path>
                        <path d="M104.366419,86.8501833 C104.366419,88.3332667 103.161767,89.5357667 101.676031,89.5357667 C100.190295,89.5357667 98.9856434,88.3332667 98.9856434,86.8501833 C98.9856434,85.3671 100.190295,84.1646 101.676031,84.1646 C103.161767,84.1646 104.366419,85.3671 104.366419,86.8501833" id="Fill-6" fill="#FFFFFF"></path>
                        <path d="M115.737349,86.8501833 C115.737349,88.3332667 114.532698,89.5357667 113.046961,89.5357667 C111.561225,89.5357667 110.356574,88.3332667 110.356574,86.8501833 C110.356574,85.3671 111.561225,84.1646 113.046961,84.1646 C114.532698,84.1646 115.737349,85.3671 115.737349,86.8501833" id="Fill-8" fill="#FFFFFF"></path>
                        <path d="M92.9954884,86.8501833 C92.9954884,88.3332667 91.7908372,89.5357667 90.3051008,89.5357667 C88.8193643,89.5357667 87.6147132,88.3332667 87.6147132,86.8501833 C87.6147132,85.3671 88.8193643,84.1646 90.3051008,84.1646 C91.7908372,84.1646 92.9954884,85.3671 92.9954884,86.8501833" id="Fill-10" fill="#FFFFFF"></path>
                        <path d="M52.3705271,26.5659333 L76.7934729,26.5659333 C91.1125426,26.5659333 102.72169,38.1532667 102.72169,52.44785 L102.72169,52.4684333 C102.72169,66.7619333 91.1125426,78.3492667 76.7934729,78.3492667 L56.8147132,78.3492667 L44.118124,92.5441833 L43.5472713,76.7795167 C33.5790543,73.1720167 26.4423101,63.6646833 26.4423101,52.4684333 L26.4423101,52.44785 C26.4423101,38.1532667 38.0514574,26.5659333 52.3705271,26.5659333" id="Fill-12" fill="#06698D"></path>
                        <path d="M83.6236279,58.52145 L46.4444031,58.52145" id="Stroke-14" stroke="#FFFFFF" stroke-width="2.75166667" stroke-linecap="round" stroke-linejoin="round"></path>
                        <path d="M83.6236279,46.4963417 L46.4444031,46.4963417" id="Stroke-16" stroke="#FFFFFF" stroke-width="2.75166667" stroke-linecap="round" stroke-linejoin="round"></path>
                        <path d="M90.8520775,26.7274583 C90.8520775,29.599375 88.5198295,31.9274583 85.6427752,31.9274583 C82.7657209,31.9274583 80.4334729,29.599375 80.4334729,26.7274583 C80.4334729,23.8555417 82.7657209,21.5274583 85.6427752,21.5274583 C88.5198295,21.5274583 90.8520775,23.8555417 90.8520775,26.7274583" id="Fill-18" fill="#47B388"></path>
                    </g>
                </g>
            </g>
        </g>
    </g>
</svg>