<?xml version="1.0" encoding="UTF-8"?>
<svg width="374px" height="679px" viewBox="0 0 374 679" version="1.1" xmlns="http://www.w3.org/2000/svg" xmlns:xlink="http://www.w3.org/1999/xlink">
    <!-- Generator: Sketch 40.3 (33839) - http://www.bohemiancoding.com/sketch -->
    <title>mobile-cloud-fr</title>
    <desc>Created with Sketch.</desc>
    <defs>
        <rect id="path-1" x="0.2" y="0.936160757" width="91.2" height="108.880286"></rect>
        <path d="M35.1172592,10.7926384 C76.1674375,-21.1736897 105.530978,40.3997585 82.5179992,57.8359375 C59.5050204,75.2721165 9.00856842,86.8889183 1.53074978,109.016447 C1.53074978,109.016447 -5.93291899,42.7589665 35.1172592,10.7926384 L35.1172592,10.7926384 Z" id="path-3"></path>
        <rect id="path-5" x="0.2" y="0.221684669" width="165.164755" height="179.426282"></rect>
        <path d="M52.0635929,49.3578287 C65,-23 152.15729,-4.24110758 162.716149,41.2558621 C172.109218,81.7294759 144.120657,112.459508 114.6,134.6 C89,153.8 1,178.847966 1,178.847966 C1,178.847966 39.1271858,121.715657 52.0635929,49.3578287 L52.0635929,49.3578287 Z" id="path-7"></path>
        <rect id="path-9" x="0.44800642" y="0.44800642" width="186.103987" height="326.103987"></rect>
        <path d="M54.1202776,130.462059 C-16.3973297,101.823356 4.53486617,52.935558 6.08237081,49.616353 C7.6298754,46.297148 47.9181455,-51.8240087 155.711836,43.6235965 C186.722497,75.4394649 200.677294,134.415221 159.059486,209.395984 C117.441678,284.376746 39.8386102,325 39.8386102,325 C39.8386102,325 100.690932,295.166705 116.214484,224.934158 C116.214484,224.934158 129.808327,161.200588 54.1202776,130.462059 L54.1202776,130.462059 Z" id="path-11"></path>
        <rect id="path-13" x="0.888148455" y="0.484010094" width="100.111852" height="218.802828"></rect>
        <path d="M40.7924676,197.1583 C40.7924676,197.1583 -7.28935124,91.8397241 3.17935681,47.8585354 C13,6.6 61.2110134,-23.5456999 92.3761623,30.2393085 C123.541311,84.0243169 51.5390706,218.486838 51.5390706,218.486838 L40.7924676,197.1583 L40.7924676,197.1583 Z" id="path-15"></path>
        <rect id="path-17" x="0.147324359" y="0.147324359" width="217.705351" height="77.7053513"></rect>
        <path d="M35.3800885,77 C-16.6331256,77 -3.842991,18.0786517 35.3800885,6.97752809 C74.603168,-4.12359551 140.259192,-2.41573034 162.428759,35.1573034 C185.707541,74.6102383 217,77 217,77 L35.3800885,77 L35.3800885,77 Z" id="path-19"></path>
    </defs>
    <g id="Page-1" stroke="none" stroke-width="1" fill="none" fill-rule="evenodd">
        <g id="mobile-cloud-fr" transform="translate(-1.000000, -1.000000)">
            <g id="Voeux-2016">
                <g id="Voeux_2016_wisembly_mobile_FR">
                    <g id="4-/-MOT-DE-LA-TEAM">
                        <g id="illustration-nuage-de-mots" transform="translate(0.400000, 0.200000)">
                            <polygon id="ligne" fill="#07698D" points="42.6 679.8 363.6 679.8 363.6 675.8 42.6 675.8"></polygon>
                            <g id="bulles">
                                <g id="mobilité" transform="translate(263.600000, 283.000000)">
                                    <g id="Fill-1">
                                        <g id="path-1-link" transform="translate(1.000000, 1.000000)" fill="#07698D">
                                            <path d="M34.1172592,9.79263839 C75.1674375,-22.1736897 104.530978,39.3997585 81.5179992,56.8359375 C58.5050204,74.2721165 8.00856842,85.8889183 0.530749779,108.016447 C0.530749779,108.016447 -6.93291899,41.7589665 34.1172592,9.79263839 L34.1172592,9.79263839 Z" id="path-1"></path>
                                        </g>
                                        <g id="Clipped">
                                            <mask id="mask-2" fill="white">
                                                <use xlink:href="#path-1"></use>
                                            </mask>
                                            <g id="Rectangle-path"></g>
                                            <g id="path-1-link" mask="url(#mask-2)" stroke="#07698D" stroke-width="1.6">
                                                <g transform="translate(1.000000, 1.000000)" id="path-1">
                                                    <path d="M34.1172592,9.79263839 C75.1674375,-22.1736897 104.530978,39.3997585 81.5179992,56.8359375 C58.5050204,74.2721165 8.00856842,85.8889183 0.530749779,108.016447 C0.530749779,108.016447 -6.93291899,41.7589665 34.1172592,9.79263839 L34.1172592,9.79263839 Z"></path>
                                                </g>
                                            </g>
                                            <mask id="mask-4" fill="white">
                                                <use xlink:href="#path-3"></use>
                                            </mask>
                                            <g id="path-1"></g>
                                        </g>
                                    </g>
                                    <g id="Mobilité" transform="translate(26.000000, 29.000000)" fill="#FFFFFF">
                                        <path d="M9.773,10 L9.773,0.662 L7.463,0.662 L4.929,7.074 L2.381,0.662 L0.071,0.662 L0.071,10 L1.709,10 L1.709,2.79 L4.579,10 L5.279,10 L8.135,2.79 L8.135,10 L9.773,10 Z M14.785,10.168 C16.941,10.168 18.257,8.544 18.257,6.612 C18.257,4.666 16.941,3.07 14.785,3.07 C12.629,3.07 11.313,4.666 11.313,6.612 C11.313,8.544 12.629,10.168 14.785,10.168 L14.785,10.168 Z M14.785,8.866 C13.539,8.866 12.839,7.816 12.839,6.612 C12.839,5.422 13.539,4.372 14.785,4.372 C16.045,4.372 16.731,5.422 16.731,6.612 C16.731,7.816 16.045,8.866 14.785,8.866 L14.785,8.866 Z M21.225,7.97 L21.225,5.282 C21.561,4.778 22.275,4.372 22.975,4.372 C24.137,4.372 24.879,5.31 24.879,6.612 C24.879,7.928 24.137,8.866 22.975,8.866 C22.275,8.866 21.561,8.474 21.225,7.97 L21.225,7.97 Z M21.225,10 L21.225,9.076 C21.743,9.748 22.527,10.168 23.395,10.168 C25.131,10.168 26.405,8.852 26.405,6.612 C26.405,4.428 25.145,3.07 23.395,3.07 C22.555,3.07 21.771,3.448 21.225,4.176 L21.225,0.662 L19.755,0.662 L19.755,10 L21.225,10 Z M28.631,2.412 C29.135,2.412 29.541,2.006 29.541,1.502 C29.541,0.998 29.135,0.592 28.631,0.592 C28.127,0.592 27.721,0.998 27.721,1.502 C27.721,2.006 28.127,2.412 28.631,2.412 L28.631,2.412 Z M29.359,10 L29.359,3.238 L27.889,3.238 L27.889,10 L29.359,10 Z M32.733,10 L32.733,0.662 L31.263,0.662 L31.263,10 L32.733,10 Z M35.379,2.412 C35.883,2.412 36.289,2.006 36.289,1.502 C36.289,0.998 35.883,0.592 35.379,0.592 C34.875,0.592 34.469,0.998 34.469,1.502 C34.469,2.006 34.875,2.412 35.379,2.412 L35.379,2.412 Z M36.107,10 L36.107,3.238 L34.637,3.238 L34.637,10 L36.107,10 Z M40.055,10.168 C40.727,10.168 41.161,9.972 41.427,9.734 L41.077,8.614 C40.965,8.74 40.713,8.866 40.433,8.866 C40.013,8.866 39.789,8.516 39.789,8.054 L39.789,4.512 L41.161,4.512 L41.161,3.238 L39.789,3.238 L39.789,1.39 L38.319,1.39 L38.319,3.238 L37.199,3.238 L37.199,4.512 L38.319,4.512 L38.319,8.418 C38.319,9.552 38.907,10.168 40.055,10.168 L40.055,10.168 Z M45.613,10.168 C46.677,10.168 47.671,9.818 48.357,9.174 L47.685,8.208 C47.195,8.698 46.425,8.964 45.753,8.964 C44.479,8.964 43.723,8.11 43.611,7.102 L48.819,7.102 L48.819,6.738 C48.819,4.61 47.531,3.07 45.501,3.07 C43.499,3.07 42.071,4.652 42.071,6.612 C42.071,8.754 43.569,10.168 45.613,10.168 L45.613,10.168 Z M47.405,6.052 L43.597,6.052 C43.653,5.24 44.241,4.274 45.487,4.274 C46.817,4.274 47.363,5.254 47.405,6.052 L47.405,6.052 Z M47.825,0.2 L46.425,0.2 L44.465,2.216 L45.515,2.216 L47.825,0.2 Z"></path>
                                    </g>
                                </g>
                                <g id="transparence" transform="translate(227.600000, 467.600000)">
                                    <path d="M35.0426405,116.855218 C44.0194476,109.489378 55.5225655,101.166875 69.87137,92.7207977 C113.471194,67.0563267 144.214746,67.0563267 145.332748,43.1028964 C146.450749,19.1498464 120.738204,-15.6397953 63.7227342,7.74328804 C5.35783608,31.6799881 0.07138147,89.608607 0.0242233669,119.2 C-2.80452744e-12,134.4 1.94718603,148.519739 0.0242233669,159.311463 C8.86016226,143.06304 20.7501087,128.582692 35.0426405,116.855218 L35.0426405,116.855218 Z" id="Page-1" stroke="#07698D" stroke-width="1.6" fill="#07698D"></path>
                                    <g id="Transparence" transform="translate(37.000000, 34.000000)" fill="#FFFFFF">
                                        <path d="M5.375,9.6 L5.375,1.704 L8.203,1.704 L8.203,0.262 L0.909,0.262 L0.909,1.704 L3.737,1.704 L3.737,9.6 L5.375,9.6 Z M9.967,9.6 L9.967,4.994 C10.261,4.504 11.087,4.084 11.717,4.084 C11.899,4.084 12.039,4.098 12.165,4.126 L12.165,2.67 C11.297,2.67 10.485,3.174 9.967,3.818 L9.967,2.838 L8.497,2.838 L8.497,9.6 L9.967,9.6 Z M18.969,9.6 L18.969,5.106 C18.969,3.3 17.653,2.67 16.141,2.67 C15.063,2.67 14.083,3.006 13.299,3.762 L13.915,4.784 C14.489,4.196 15.161,3.916 15.917,3.916 C16.841,3.916 17.499,4.392 17.499,5.176 L17.499,6.184 C16.995,5.61 16.225,5.316 15.301,5.316 C14.195,5.316 12.963,5.96 12.963,7.528 C12.963,9.012 14.209,9.768 15.301,9.768 C16.197,9.768 16.995,9.446 17.499,8.858 L17.499,9.6 L18.969,9.6 Z M15.889,8.76 C15.063,8.76 14.433,8.284 14.433,7.542 C14.433,6.814 15.063,6.324 15.889,6.324 C16.519,6.324 17.149,6.562 17.499,7.024 L17.499,8.06 C17.149,8.522 16.519,8.76 15.889,8.76 L15.889,8.76 Z M26.921,9.6 L26.921,4.84 C26.921,3.454 26.193,2.67 24.737,2.67 C23.673,2.67 22.791,3.216 22.343,3.748 L22.343,2.838 L20.873,2.838 L20.873,9.6 L22.343,9.6 L22.343,4.868 C22.693,4.42 23.337,3.972 24.079,3.972 C24.905,3.972 25.451,4.308 25.451,5.372 L25.451,9.6 L26.921,9.6 Z M31.149,9.768 C32.969,9.768 33.963,8.858 33.963,7.654 C33.963,4.966 29.875,5.862 29.875,4.672 C29.875,4.196 30.351,3.832 31.121,3.832 C31.975,3.832 32.717,4.196 33.123,4.644 L33.739,3.608 C33.137,3.076 32.269,2.67 31.121,2.67 C29.413,2.67 28.461,3.608 28.461,4.714 C28.461,7.318 32.549,6.366 32.549,7.696 C32.549,8.228 32.087,8.592 31.205,8.592 C30.337,8.592 29.399,8.144 28.923,7.654 L28.251,8.704 C28.951,9.39 29.987,9.768 31.149,9.768 L31.149,9.768 Z M39.073,9.768 C40.823,9.768 42.069,8.438 42.069,6.212 C42.069,3.986 40.823,2.67 39.073,2.67 C38.191,2.67 37.407,3.09 36.903,3.762 L36.903,2.838 L35.433,2.838 L35.433,12.176 L36.903,12.176 L36.903,8.662 C37.463,9.376 38.219,9.768 39.073,9.768 L39.073,9.768 Z M38.639,8.466 C37.953,8.466 37.225,8.046 36.903,7.542 L36.903,4.868 C37.239,4.364 37.953,3.972 38.639,3.972 C39.801,3.972 40.557,4.896 40.557,6.212 C40.557,7.528 39.801,8.466 38.639,8.466 L38.639,8.466 Z M49.153,9.6 L49.153,5.106 C49.153,3.3 47.837,2.67 46.325,2.67 C45.247,2.67 44.267,3.006 43.483,3.762 L44.099,4.784 C44.673,4.196 45.345,3.916 46.101,3.916 C47.025,3.916 47.683,4.392 47.683,5.176 L47.683,6.184 C47.179,5.61 46.409,5.316 45.485,5.316 C44.379,5.316 43.147,5.96 43.147,7.528 C43.147,9.012 44.393,9.768 45.485,9.768 C46.381,9.768 47.179,9.446 47.683,8.858 L47.683,9.6 L49.153,9.6 Z M46.073,8.76 C45.247,8.76 44.617,8.284 44.617,7.542 C44.617,6.814 45.247,6.324 46.073,6.324 C46.703,6.324 47.333,6.562 47.683,7.024 L47.683,8.06 C47.333,8.522 46.703,8.76 46.073,8.76 L46.073,8.76 Z M52.527,9.6 L52.527,4.994 C52.821,4.504 53.647,4.084 54.277,4.084 C54.459,4.084 54.599,4.098 54.725,4.126 L54.725,2.67 C53.857,2.67 53.045,3.174 52.527,3.818 L52.527,2.838 L51.057,2.838 L51.057,9.6 L52.527,9.6 Z M59.051,9.768 C60.115,9.768 61.109,9.418 61.795,8.774 L61.123,7.808 C60.633,8.298 59.863,8.564 59.191,8.564 C57.917,8.564 57.161,7.71 57.049,6.702 L62.257,6.702 L62.257,6.338 C62.257,4.21 60.969,2.67 58.939,2.67 C56.937,2.67 55.509,4.252 55.509,6.212 C55.509,8.354 57.007,9.768 59.051,9.768 L59.051,9.768 Z M60.843,5.652 L57.035,5.652 C57.091,4.84 57.679,3.874 58.925,3.874 C60.255,3.874 60.801,4.854 60.843,5.652 L60.843,5.652 Z M69.761,9.6 L69.761,4.84 C69.761,3.454 69.033,2.67 67.577,2.67 C66.513,2.67 65.631,3.216 65.183,3.748 L65.183,2.838 L63.713,2.838 L63.713,9.6 L65.183,9.6 L65.183,4.868 C65.533,4.42 66.177,3.972 66.919,3.972 C67.745,3.972 68.291,4.308 68.291,5.372 L68.291,9.6 L69.761,9.6 Z M74.745,9.768 C76.075,9.768 76.859,9.194 77.335,8.564 L76.369,7.654 C75.991,8.186 75.473,8.466 74.815,8.466 C73.597,8.466 72.771,7.528 72.771,6.212 C72.771,4.896 73.597,3.972 74.815,3.972 C75.473,3.972 75.991,4.224 76.369,4.756 L77.335,3.874 C76.859,3.23 76.075,2.67 74.745,2.67 C72.701,2.67 71.259,4.168 71.259,6.212 C71.259,8.256 72.701,9.768 74.745,9.768 L74.745,9.768 Z M81.773,9.768 C82.837,9.768 83.831,9.418 84.517,8.774 L83.845,7.808 C83.355,8.298 82.585,8.564 81.913,8.564 C80.639,8.564 79.883,7.71 79.771,6.702 L84.979,6.702 L84.979,6.338 C84.979,4.21 83.691,2.67 81.661,2.67 C79.659,2.67 78.231,4.252 78.231,6.212 C78.231,8.354 79.729,9.768 81.773,9.768 L81.773,9.768 Z M83.565,5.652 L79.757,5.652 C79.813,4.84 80.401,3.874 81.647,3.874 C82.977,3.874 83.523,4.854 83.565,5.652 L83.565,5.652 Z"></path>
                                    </g>
                                </g>
                                <g id="productivité" transform="translate(0.600000, 447.400000)">
                                    <g id="Page-1">
                                        <g id="path-3-link" transform="translate(1.000000, 1.000000)" fill="#07698D">
                                            <path d="M51.0635929,48.3578287 C64,-24 151.15729,-5.24110758 161.716149,40.2558621 C171.109218,80.7294759 143.120657,111.459508 113.6,133.6 C88,152.8 0,177.847966 0,177.847966 C0,177.847966 38.1271858,120.715657 51.0635929,48.3578287 L51.0635929,48.3578287 Z" id="path-3"></path>
                                        </g>
                                        <g id="Clipped">
                                            <mask id="mask-6" fill="white">
                                                <use xlink:href="#path-5"></use>
                                            </mask>
                                            <g id="Rectangle-path"></g>
                                            <g id="path-3-link" mask="url(#mask-6)" stroke="#07698D" stroke-width="1.6">
                                                <g transform="translate(1.000000, 1.000000)" id="path-3">
                                                    <path d="M51.0635929,48.3578287 C64,-24 151.15729,-5.24110758 161.716149,40.2558621 C171.109218,80.7294759 143.120657,111.459508 113.6,133.6 C88,152.8 0,177.847966 0,177.847966 C0,177.847966 38.1271858,120.715657 51.0635929,48.3578287 L51.0635929,48.3578287 Z"></path>
                                                </g>
                                            </g>
                                            <mask id="mask-8" fill="white">
                                                <use xlink:href="#path-7"></use>
                                            </mask>
                                            <g id="path-3"></g>
                                        </g>
                                    </g>
                                    <g id="Productivité" transform="translate(67.000000, 54.000000)" fill="#FFFFFF">
                                        <path d="M2.34,9.8 L2.34,6.3 L4.818,6.3 C6.764,6.3 7.856,4.97 7.856,3.388 C7.856,1.792 6.778,0.462 4.818,0.462 L0.702,0.462 L0.702,9.8 L2.34,9.8 Z M4.594,4.858 L2.34,4.858 L2.34,1.904 L4.594,1.904 C5.518,1.904 6.176,2.492 6.176,3.388 C6.176,4.27 5.518,4.858 4.594,4.858 L4.594,4.858 Z M10.656,9.8 L10.656,5.194 C10.95,4.704 11.776,4.284 12.406,4.284 C12.588,4.284 12.728,4.298 12.854,4.326 L12.854,2.87 C11.986,2.87 11.174,3.374 10.656,4.018 L10.656,3.038 L9.186,3.038 L9.186,9.8 L10.656,9.8 Z M17.11,9.968 C19.266,9.968 20.582,8.344 20.582,6.412 C20.582,4.466 19.266,2.87 17.11,2.87 C14.954,2.87 13.638,4.466 13.638,6.412 C13.638,8.344 14.954,9.968 17.11,9.968 L17.11,9.968 Z M17.11,8.666 C15.864,8.666 15.164,7.616 15.164,6.412 C15.164,5.222 15.864,4.172 17.11,4.172 C18.37,4.172 19.056,5.222 19.056,6.412 C19.056,7.616 18.37,8.666 17.11,8.666 L17.11,8.666 Z M28.31,9.8 L28.31,0.462 L26.84,0.462 L26.84,3.976 C26.308,3.248 25.524,2.87 24.67,2.87 C22.934,2.87 21.674,4.228 21.674,6.412 C21.674,8.652 22.948,9.968 24.67,9.968 C25.552,9.968 26.322,9.548 26.84,8.876 L26.84,9.8 L28.31,9.8 Z M25.104,8.666 C23.928,8.666 23.186,7.728 23.186,6.412 C23.186,5.11 23.928,4.172 25.104,4.172 C25.79,4.172 26.518,4.578 26.84,5.082 L26.84,7.756 C26.518,8.26 25.79,8.666 25.104,8.666 L25.104,8.666 Z M36.248,9.8 L36.248,3.038 L34.778,3.038 L34.778,7.784 C34.442,8.232 33.798,8.666 33.056,8.666 C32.216,8.666 31.684,8.33 31.684,7.28 L31.684,3.038 L30.214,3.038 L30.214,7.826 C30.214,9.198 30.942,9.968 32.398,9.968 C33.462,9.968 34.302,9.436 34.778,8.904 L34.778,9.8 L36.248,9.8 Z M41.232,9.968 C42.562,9.968 43.346,9.394 43.822,8.764 L42.856,7.854 C42.478,8.386 41.96,8.666 41.302,8.666 C40.084,8.666 39.258,7.728 39.258,6.412 C39.258,5.096 40.084,4.172 41.302,4.172 C41.96,4.172 42.478,4.424 42.856,4.956 L43.822,4.074 C43.346,3.43 42.562,2.87 41.232,2.87 C39.188,2.87 37.746,4.368 37.746,6.412 C37.746,8.456 39.188,9.968 41.232,9.968 L41.232,9.968 Z M47.168,9.968 C47.84,9.968 48.274,9.772 48.54,9.534 L48.19,8.414 C48.078,8.54 47.826,8.666 47.546,8.666 C47.126,8.666 46.902,8.316 46.902,7.854 L46.902,4.312 L48.274,4.312 L48.274,3.038 L46.902,3.038 L46.902,1.19 L45.432,1.19 L45.432,3.038 L44.312,3.038 L44.312,4.312 L45.432,4.312 L45.432,8.218 C45.432,9.352 46.02,9.968 47.168,9.968 L47.168,9.968 Z M50.332,2.212 C50.836,2.212 51.242,1.806 51.242,1.302 C51.242,0.798 50.836,0.392 50.332,0.392 C49.828,0.392 49.422,0.798 49.422,1.302 C49.422,1.806 49.828,2.212 50.332,2.212 L50.332,2.212 Z M51.06,9.8 L51.06,3.038 L49.59,3.038 L49.59,9.8 L51.06,9.8 Z M56.324,9.8 L59.082,3.038 L57.514,3.038 L55.54,8.106 L53.566,3.038 L51.984,3.038 L54.742,9.8 L56.324,9.8 Z M60.748,2.212 C61.252,2.212 61.658,1.806 61.658,1.302 C61.658,0.798 61.252,0.392 60.748,0.392 C60.244,0.392 59.838,0.798 59.838,1.302 C59.838,1.806 60.244,2.212 60.748,2.212 L60.748,2.212 Z M61.476,9.8 L61.476,3.038 L60.006,3.038 L60.006,9.8 L61.476,9.8 Z M65.424,9.968 C66.096,9.968 66.53,9.772 66.796,9.534 L66.446,8.414 C66.334,8.54 66.082,8.666 65.802,8.666 C65.382,8.666 65.158,8.316 65.158,7.854 L65.158,4.312 L66.53,4.312 L66.53,3.038 L65.158,3.038 L65.158,1.19 L63.688,1.19 L63.688,3.038 L62.568,3.038 L62.568,4.312 L63.688,4.312 L63.688,8.218 C63.688,9.352 64.276,9.968 65.424,9.968 L65.424,9.968 Z M70.982,9.968 C72.046,9.968 73.04,9.618 73.726,8.974 L73.054,8.008 C72.564,8.498 71.794,8.764 71.122,8.764 C69.848,8.764 69.092,7.91 68.98,6.902 L74.188,6.902 L74.188,6.538 C74.188,4.41 72.9,2.87 70.87,2.87 C68.868,2.87 67.44,4.452 67.44,6.412 C67.44,8.554 68.938,9.968 70.982,9.968 L70.982,9.968 Z M72.774,5.852 L68.966,5.852 C69.022,5.04 69.61,4.074 70.856,4.074 C72.186,4.074 72.732,5.054 72.774,5.852 L72.774,5.852 Z M73.194,0 L71.794,0 L69.834,2.016 L70.884,2.016 L73.194,0 Z"></path>
                                    </g>
                                </g>
                                <g id="com-video" transform="translate(68.600000, 298.000000)">
                                    <g id="Fill-1">
                                        <g id="path-5-link" transform="translate(2.000000, 2.000000)" fill="#07698D">
                                            <path d="M52.1202776,128.462059 C-18.3973297,99.8233558 2.53486617,50.935558 4.08237081,47.616353 C5.6298754,44.297148 45.9181455,-53.8240087 153.711836,41.6235965 C184.722497,73.4394649 198.677294,132.415221 157.059486,207.395984 C115.441678,282.376746 37.8386102,323 37.8386102,323 C37.8386102,323 98.690932,293.166705 114.214484,222.934158 C114.214484,222.934158 127.808327,159.200588 52.1202776,128.462059 L52.1202776,128.462059 Z" id="path-5"></path>
                                        </g>
                                        <g id="Clipped">
                                            <mask id="mask-10" fill="white">
                                                <use xlink:href="#path-9"></use>
                                            </mask>
                                            <g id="Rectangle-path"></g>
                                            <g id="path-5-link" mask="url(#mask-10)" stroke="#07698D" stroke-width="3.10398716">
                                                <g transform="translate(2.000000, 2.000000)" id="path-5">
                                                    <path d="M52.1202776,128.462059 C-18.3973297,99.8233558 2.53486617,50.935558 4.08237081,47.616353 C5.6298754,44.297148 45.9181455,-53.8240087 153.711836,41.6235965 C184.722497,73.4394649 198.677294,132.415221 157.059486,207.395984 C115.441678,282.376746 37.8386102,323 37.8386102,323 C37.8386102,323 98.690932,293.166705 114.214484,222.934158 C114.214484,222.934158 127.808327,159.200588 52.1202776,128.462059 L52.1202776,128.462059 Z"></path>
                                                </g>
                                            </g>
                                            <mask id="mask-12" fill="white">
                                                <use xlink:href="#path-11"></use>
                                            </mask>
                                            <g id="path-5"></g>
                                        </g>
                                    </g>
                                    <g id="Communication-Vidéo" transform="translate(16.000000, 53.000000)" fill="#FFFFFF">
                                        <path d="M7.27,14.04 C9.95,14.04 11.61,12.62 12.63,11.02 L10.63,10.02 C9.99,11.12 8.69,11.96 7.27,11.96 C4.63,11.96 2.67,9.92 2.67,7.14 C2.67,4.32 4.63,2.32 7.27,2.32 C8.69,2.32 9.99,3.14 10.63,4.26 L12.61,3.22 C11.63,1.62 9.95,0.24 7.27,0.24 C3.33,0.24 0.27,3.02 0.27,7.14 C0.27,11.24 3.33,14.04 7.27,14.04 L7.27,14.04 Z M18.81,14.04 C21.89,14.04 23.77,11.72 23.77,8.96 C23.77,6.18 21.89,3.9 18.81,3.9 C15.73,3.9 13.85,6.18 13.85,8.96 C13.85,11.72 15.73,14.04 18.81,14.04 L18.81,14.04 Z M18.81,12.18 C17.03,12.18 16.03,10.68 16.03,8.96 C16.03,7.26 17.03,5.76 18.81,5.76 C20.61,5.76 21.59,7.26 21.59,8.96 C21.59,10.68 20.61,12.18 18.81,12.18 L18.81,12.18 Z M39.87,13.8 L39.87,6.82 C39.87,4.86 38.85,3.9 37.09,3.9 C35.63,3.9 34.35,4.8 33.81,5.66 C33.49,4.62 32.61,3.9 31.17,3.9 C29.69,3.9 28.43,4.86 28.01,5.44 L28.01,4.14 L25.91,4.14 L25.91,13.8 L28.01,13.8 L28.01,7.04 C28.45,6.42 29.31,5.76 30.25,5.76 C31.39,5.76 31.83,6.46 31.83,7.5 L31.83,13.8 L33.93,13.8 L33.93,7.04 C34.35,6.4 35.23,5.76 36.17,5.76 C37.31,5.76 37.77,6.46 37.77,7.5 L37.77,13.8 L39.87,13.8 Z M56.55,13.8 L56.55,6.82 C56.55,4.86 55.53,3.9 53.77,3.9 C52.31,3.9 51.03,4.8 50.49,5.66 C50.17,4.62 49.29,3.9 47.85,3.9 C46.37,3.9 45.11,4.86 44.69,5.44 L44.69,4.14 L42.59,4.14 L42.59,13.8 L44.69,13.8 L44.69,7.04 C45.13,6.42 45.99,5.76 46.93,5.76 C48.07,5.76 48.51,6.46 48.51,7.5 L48.51,13.8 L50.61,13.8 L50.61,7.04 C51.03,6.4 51.91,5.76 52.85,5.76 C53.99,5.76 54.45,6.46 54.45,7.5 L54.45,13.8 L56.55,13.8 Z M67.89,13.8 L67.89,4.14 L65.79,4.14 L65.79,10.92 C65.31,11.56 64.39,12.18 63.33,12.18 C62.13,12.18 61.37,11.7 61.37,10.2 L61.37,4.14 L59.27,4.14 L59.27,10.98 C59.27,12.94 60.31,14.04 62.39,14.04 C63.91,14.04 65.11,13.28 65.79,12.52 L65.79,13.8 L67.89,13.8 Z M79.25,13.8 L79.25,7 C79.25,5.02 78.21,3.9 76.13,3.9 C74.61,3.9 73.35,4.68 72.71,5.44 L72.71,4.14 L70.61,4.14 L70.61,13.8 L72.71,13.8 L72.71,7.04 C73.21,6.4 74.13,5.76 75.19,5.76 C76.37,5.76 77.15,6.24 77.15,7.76 L77.15,13.8 L79.25,13.8 Z M83.03,2.96 C83.75,2.96 84.33,2.38 84.33,1.66 C84.33,0.94 83.75,0.36 83.03,0.36 C82.31,0.36 81.73,0.94 81.73,1.66 C81.73,2.38 82.31,2.96 83.03,2.96 L83.03,2.96 Z M84.07,13.8 L84.07,4.14 L81.97,4.14 L81.97,13.8 L84.07,13.8 Z M91.19,14.04 C93.09,14.04 94.21,13.22 94.89,12.32 L93.51,11.02 C92.97,11.78 92.23,12.18 91.29,12.18 C89.55,12.18 88.37,10.84 88.37,8.96 C88.37,7.08 89.55,5.76 91.29,5.76 C92.23,5.76 92.97,6.12 93.51,6.88 L94.89,5.62 C94.21,4.7 93.09,3.9 91.19,3.9 C88.27,3.9 86.21,6.04 86.21,8.96 C86.21,11.88 88.27,14.04 91.19,14.04 L91.19,14.04 Z M104.77,13.8 L104.77,7.38 C104.77,4.8 102.89,3.9 100.73,3.9 C99.19,3.9 97.79,4.38 96.67,5.46 L97.55,6.92 C98.37,6.08 99.33,5.68 100.41,5.68 C101.73,5.68 102.67,6.36 102.67,7.48 L102.67,8.92 C101.95,8.1 100.85,7.68 99.53,7.68 C97.95,7.68 96.19,8.6 96.19,10.84 C96.19,12.96 97.97,14.04 99.53,14.04 C100.81,14.04 101.95,13.58 102.67,12.74 L102.67,13.8 L104.77,13.8 Z M100.37,12.6 C99.19,12.6 98.29,11.92 98.29,10.86 C98.29,9.82 99.19,9.12 100.37,9.12 C101.27,9.12 102.17,9.46 102.67,10.12 L102.67,11.6 C102.17,12.26 101.27,12.6 100.37,12.6 L100.37,12.6 Z M110.41,14.04 C111.37,14.04 111.99,13.76 112.37,13.42 L111.87,11.82 C111.71,12 111.35,12.18 110.95,12.18 C110.35,12.18 110.03,11.68 110.03,11.02 L110.03,5.96 L111.99,5.96 L111.99,4.14 L110.03,4.14 L110.03,1.5 L107.93,1.5 L107.93,4.14 L106.33,4.14 L106.33,5.96 L107.93,5.96 L107.93,11.54 C107.93,13.16 108.77,14.04 110.41,14.04 L110.41,14.04 Z M114.93,2.96 C115.65,2.96 116.23,2.38 116.23,1.66 C116.23,0.94 115.65,0.36 114.93,0.36 C114.21,0.36 113.63,0.94 113.63,1.66 C113.63,2.38 114.21,2.96 114.93,2.96 L114.93,2.96 Z M115.97,13.8 L115.97,4.14 L113.87,4.14 L113.87,13.8 L115.97,13.8 Z M123.07,14.04 C126.15,14.04 128.03,11.72 128.03,8.96 C128.03,6.18 126.15,3.9 123.07,3.9 C119.99,3.9 118.11,6.18 118.11,8.96 C118.11,11.72 119.99,14.04 123.07,14.04 L123.07,14.04 Z M123.07,12.18 C121.29,12.18 120.29,10.68 120.29,8.96 C120.29,7.26 121.29,5.76 123.07,5.76 C124.87,5.76 125.85,7.26 125.85,8.96 C125.85,10.68 124.87,12.18 123.07,12.18 L123.07,12.18 Z M138.81,13.8 L138.81,7 C138.81,5.02 137.77,3.9 135.69,3.9 C134.17,3.9 132.91,4.68 132.27,5.44 L132.27,4.14 L130.17,4.14 L130.17,13.8 L132.27,13.8 L132.27,7.04 C132.77,6.4 133.69,5.76 134.75,5.76 C135.93,5.76 136.71,6.24 136.71,7.76 L136.71,13.8 L138.81,13.8 Z" id="Communication"></path>
                                        <path d="M51.74,41.8 L56.98,28.46 L54.32,28.46 L50.28,39.24 L46.24,28.46 L43.58,28.46 L48.82,41.8 L51.74,41.8 Z M59.42,30.96 C60.14,30.96 60.72,30.38 60.72,29.66 C60.72,28.94 60.14,28.36 59.42,28.36 C58.7,28.36 58.12,28.94 58.12,29.66 C58.12,30.38 58.7,30.96 59.42,30.96 L59.42,30.96 Z M60.46,41.8 L60.46,32.14 L58.36,32.14 L58.36,41.8 L60.46,41.8 Z M72.08,41.8 L72.08,28.46 L69.98,28.46 L69.98,33.48 C69.22,32.44 68.1,31.9 66.88,31.9 C64.4,31.9 62.6,33.84 62.6,36.96 C62.6,40.16 64.42,42.04 66.88,42.04 C68.14,42.04 69.24,41.44 69.98,40.48 L69.98,41.8 L72.08,41.8 Z M67.5,40.18 C65.82,40.18 64.76,38.84 64.76,36.96 C64.76,35.1 65.82,33.76 67.5,33.76 C68.48,33.76 69.52,34.34 69.98,35.06 L69.98,38.88 C69.52,39.6 68.48,40.18 67.5,40.18 L67.5,40.18 Z M79.28,42.04 C80.8,42.04 82.22,41.54 83.2,40.62 L82.24,39.24 C81.54,39.94 80.44,40.32 79.48,40.32 C77.66,40.32 76.58,39.1 76.42,37.66 L83.86,37.66 L83.86,37.14 C83.86,34.1 82.02,31.9 79.12,31.9 C76.26,31.9 74.22,34.16 74.22,36.96 C74.22,40.02 76.36,42.04 79.28,42.04 L79.28,42.04 Z M81.84,36.16 L76.4,36.16 C76.48,35 77.32,33.62 79.1,33.62 C81,33.62 81.78,35.02 81.84,36.16 L81.84,36.16 Z M82.44,27.8 L80.44,27.8 L77.64,30.68 L79.14,30.68 L82.44,27.8 Z M90.32,42.04 C93.4,42.04 95.28,39.72 95.28,36.96 C95.28,34.18 93.4,31.9 90.32,31.9 C87.24,31.9 85.36,34.18 85.36,36.96 C85.36,39.72 87.24,42.04 90.32,42.04 L90.32,42.04 Z M90.32,40.18 C88.54,40.18 87.54,38.68 87.54,36.96 C87.54,35.26 88.54,33.76 90.32,33.76 C92.12,33.76 93.1,35.26 93.1,36.96 C93.1,38.68 92.12,40.18 90.32,40.18 L90.32,40.18 Z" id="Vidéo"></path>
                                    </g>
                                </g>
                                <g id="cohésion" transform="translate(268.600000, 7.200000)">
                                    <g id="Page-1">
                                        <g id="path-7-link" transform="translate(1.000000, 1.000000)" fill="#07698D">
                                            <path d="M39.7924676,196.1583 C39.7924676,196.1583 -8.28935124,90.8397241 2.17935681,46.8585354 C12,5.6 60.2110134,-24.5456999 91.3761623,29.2393085 C122.541311,83.0243169 50.5390706,217.486838 50.5390706,217.486838 L39.7924676,196.1583 L39.7924676,196.1583 Z" id="path-7"></path>
                                        </g>
                                        <g id="Clipped">
                                            <mask id="mask-14" fill="white">
                                                <use xlink:href="#path-13"></use>
                                            </mask>
                                            <g id="Rectangle-path"></g>
                                            <g id="path-7-link" mask="url(#mask-14)" stroke="#07698D" stroke-width="1.6">
                                                <g transform="translate(1.000000, 1.000000)" id="path-7">
                                                    <path d="M39.7924676,196.1583 C39.7924676,196.1583 -8.28935124,90.8397241 2.17935681,46.8585354 C12,5.6 60.2110134,-24.5456999 91.3761623,29.2393085 C122.541311,83.0243169 50.5390706,217.486838 50.5390706,217.486838 L39.7924676,196.1583 L39.7924676,196.1583 Z"></path>
                                                </g>
                                            </g>
                                            <mask id="mask-16" fill="white">
                                                <use xlink:href="#path-15"></use>
                                            </mask>
                                            <g id="path-7"></g>
                                        </g>
                                    </g>
                                    <g id="Cohésion" transform="translate(21.000000, 52.000000)" fill="#FFFFFF">
                                        <path d="M5.836,10.368 C7.712,10.368 8.874,9.374 9.588,8.254 L8.188,7.554 C7.74,8.324 6.83,8.912 5.836,8.912 C3.988,8.912 2.616,7.484 2.616,5.538 C2.616,3.564 3.988,2.164 5.836,2.164 C6.83,2.164 7.74,2.738 8.188,3.522 L9.574,2.794 C8.888,1.674 7.712,0.708 5.836,0.708 C3.078,0.708 0.936,2.654 0.936,5.538 C0.936,8.408 3.078,10.368 5.836,10.368 L5.836,10.368 Z M13.914,10.368 C16.07,10.368 17.386,8.744 17.386,6.812 C17.386,4.866 16.07,3.27 13.914,3.27 C11.758,3.27 10.442,4.866 10.442,6.812 C10.442,8.744 11.758,10.368 13.914,10.368 L13.914,10.368 Z M13.914,9.066 C12.668,9.066 11.968,8.016 11.968,6.812 C11.968,5.622 12.668,4.572 13.914,4.572 C15.174,4.572 15.86,5.622 15.86,6.812 C15.86,8.016 15.174,9.066 13.914,9.066 L13.914,9.066 Z M24.932,10.2 L24.932,5.412 C24.932,4.026 24.204,3.27 22.748,3.27 C21.684,3.27 20.816,3.816 20.368,4.348 L20.368,0.862 L18.898,0.862 L18.898,10.2 L20.368,10.2 L20.368,5.468 C20.704,5.02 21.348,4.572 22.104,4.572 C22.93,4.572 23.462,4.88 23.462,5.944 L23.462,10.2 L24.932,10.2 Z M29.972,10.368 C31.036,10.368 32.03,10.018 32.716,9.374 L32.044,8.408 C31.554,8.898 30.784,9.164 30.112,9.164 C28.838,9.164 28.082,8.31 27.97,7.302 L33.178,7.302 L33.178,6.938 C33.178,4.81 31.89,3.27 29.86,3.27 C27.858,3.27 26.43,4.852 26.43,6.812 C26.43,8.954 27.928,10.368 29.972,10.368 L29.972,10.368 Z M31.764,6.252 L27.956,6.252 C28.012,5.44 28.6,4.474 29.846,4.474 C31.176,4.474 31.722,5.454 31.764,6.252 L31.764,6.252 Z M32.184,0.4 L30.784,0.4 L28.824,2.416 L29.874,2.416 L32.184,0.4 Z M36.958,10.368 C38.778,10.368 39.772,9.458 39.772,8.254 C39.772,5.566 35.684,6.462 35.684,5.272 C35.684,4.796 36.16,4.432 36.93,4.432 C37.784,4.432 38.526,4.796 38.932,5.244 L39.548,4.208 C38.946,3.676 38.078,3.27 36.93,3.27 C35.222,3.27 34.27,4.208 34.27,5.314 C34.27,7.918 38.358,6.966 38.358,8.296 C38.358,8.828 37.896,9.192 37.014,9.192 C36.146,9.192 35.208,8.744 34.732,8.254 L34.06,9.304 C34.76,9.99 35.796,10.368 36.958,10.368 L36.958,10.368 Z M41.984,2.612 C42.488,2.612 42.894,2.206 42.894,1.702 C42.894,1.198 42.488,0.792 41.984,0.792 C41.48,0.792 41.074,1.198 41.074,1.702 C41.074,2.206 41.48,2.612 41.984,2.612 L41.984,2.612 Z M42.712,10.2 L42.712,3.438 L41.242,3.438 L41.242,10.2 L42.712,10.2 Z M47.682,10.368 C49.838,10.368 51.154,8.744 51.154,6.812 C51.154,4.866 49.838,3.27 47.682,3.27 C45.526,3.27 44.21,4.866 44.21,6.812 C44.21,8.744 45.526,10.368 47.682,10.368 L47.682,10.368 Z M47.682,9.066 C46.436,9.066 45.736,8.016 45.736,6.812 C45.736,5.622 46.436,4.572 47.682,4.572 C48.942,4.572 49.628,5.622 49.628,6.812 C49.628,8.016 48.942,9.066 47.682,9.066 L47.682,9.066 Z M58.7,10.2 L58.7,5.44 C58.7,4.054 57.972,3.27 56.516,3.27 C55.452,3.27 54.57,3.816 54.122,4.348 L54.122,3.438 L52.652,3.438 L52.652,10.2 L54.122,10.2 L54.122,5.468 C54.472,5.02 55.116,4.572 55.858,4.572 C56.684,4.572 57.23,4.908 57.23,5.972 L57.23,10.2 L58.7,10.2 Z"></path>
                                    </g>
                                </g>
                                <g id="teletravail" transform="translate(47.800000, 211.200000)">
                                    <g id="Fill-1">
                                        <g id="path-9-link" transform="translate(1.000000, 1.000000)" fill="#07698D">
                                            <path d="M34.3800885,76 C-17.6331256,76 -4.842991,17.0786517 34.3800885,5.97752809 C73.603168,-5.12359551 139.259192,-3.41573034 161.428759,34.1573034 C184.707541,73.6102383 216,76 216,76 L34.3800885,76 L34.3800885,76 Z" id="path-9"></path>
                                        </g>
                                        <g id="Clipped">
                                            <mask id="mask-18" fill="white">
                                                <use xlink:href="#path-17"></use>
                                            </mask>
                                            <g id="Rectangle-path"></g>
                                            <g id="path-9-link" mask="url(#mask-18)" stroke="#07698D" stroke-width="1.70535128">
                                                <g transform="translate(1.000000, 1.000000)" id="path-9">
                                                    <path d="M34.3800885,76 C-17.6331256,76 -4.842991,17.0786517 34.3800885,5.97752809 C73.603168,-5.12359551 139.259192,-3.41573034 161.428759,34.1573034 C184.707541,73.6102383 216,76 216,76 L34.3800885,76 L34.3800885,76 Z"></path>
                                                </g>
                                            </g>
                                            <mask id="mask-20" fill="white">
                                                <use xlink:href="#path-19"></use>
                                            </mask>
                                            <g id="path-9"></g>
                                        </g>
                                    </g>
                                    <g id="Télétravail" transform="translate(38.000000, 37.000000)" fill="#FFFFFF">
                                        <path d="M7.37,14.4 L7.37,3.12 L11.41,3.12 L11.41,1.06 L0.99,1.06 L0.99,3.12 L5.03,3.12 L5.03,14.4 L7.37,14.4 Z M17.81,14.64 C19.33,14.64 20.75,14.14 21.73,13.22 L20.77,11.84 C20.07,12.54 18.97,12.92 18.01,12.92 C16.19,12.92 15.11,11.7 14.95,10.26 L22.39,10.26 L22.39,9.74 C22.39,6.7 20.55,4.5 17.65,4.5 C14.79,4.5 12.75,6.76 12.75,9.56 C12.75,12.62 14.89,14.64 17.81,14.64 L17.81,14.64 Z M20.37,8.76 L14.93,8.76 C15.01,7.6 15.85,6.22 17.63,6.22 C19.53,6.22 20.31,7.62 20.37,8.76 L20.37,8.76 Z M20.97,0.4 L18.97,0.4 L16.17,3.28 L17.67,3.28 L20.97,0.4 Z M26.57,14.4 L26.57,1.06 L24.47,1.06 L24.47,14.4 L26.57,14.4 Z M33.77,14.64 C35.29,14.64 36.71,14.14 37.69,13.22 L36.73,11.84 C36.03,12.54 34.93,12.92 33.97,12.92 C32.15,12.92 31.07,11.7 30.91,10.26 L38.35,10.26 L38.35,9.74 C38.35,6.7 36.51,4.5 33.61,4.5 C30.75,4.5 28.71,6.76 28.71,9.56 C28.71,12.62 30.85,14.64 33.77,14.64 L33.77,14.64 Z M36.33,8.76 L30.89,8.76 C30.97,7.6 31.81,6.22 33.59,6.22 C35.49,6.22 36.27,7.62 36.33,8.76 L36.33,8.76 Z M36.93,0.4 L34.93,0.4 L32.13,3.28 L33.63,3.28 L36.93,0.4 Z M43.35,14.64 C44.31,14.64 44.93,14.36 45.31,14.02 L44.81,12.42 C44.65,12.6 44.29,12.78 43.89,12.78 C43.29,12.78 42.97,12.28 42.97,11.62 L42.97,6.56 L44.93,6.56 L44.93,4.74 L42.97,4.74 L42.97,2.1 L40.87,2.1 L40.87,4.74 L39.27,4.74 L39.27,6.56 L40.87,6.56 L40.87,12.14 C40.87,13.76 41.71,14.64 43.35,14.64 L43.35,14.64 Z M48.91,14.4 L48.91,7.82 C49.33,7.12 50.51,6.52 51.41,6.52 C51.67,6.52 51.87,6.54 52.05,6.58 L52.05,4.5 C50.81,4.5 49.65,5.22 48.91,6.14 L48.91,4.74 L46.81,4.74 L46.81,14.4 L48.91,14.4 Z M61.77,14.4 L61.77,7.98 C61.77,5.4 59.89,4.5 57.73,4.5 C56.19,4.5 54.79,4.98 53.67,6.06 L54.55,7.52 C55.37,6.68 56.33,6.28 57.41,6.28 C58.73,6.28 59.67,6.96 59.67,8.08 L59.67,9.52 C58.95,8.7 57.85,8.28 56.53,8.28 C54.95,8.28 53.19,9.2 53.19,11.44 C53.19,13.56 54.97,14.64 56.53,14.64 C57.81,14.64 58.95,14.18 59.67,13.34 L59.67,14.4 L61.77,14.4 Z M57.37,13.2 C56.19,13.2 55.29,12.52 55.29,11.46 C55.29,10.42 56.19,9.72 57.37,9.72 C58.27,9.72 59.17,10.06 59.67,10.72 L59.67,12.2 C59.17,12.86 58.27,13.2 57.37,13.2 L57.37,13.2 Z M69.29,14.4 L73.23,4.74 L70.99,4.74 L68.17,11.98 L65.35,4.74 L63.09,4.74 L67.03,14.4 L69.29,14.4 Z M82.57,14.4 L82.57,7.98 C82.57,5.4 80.69,4.5 78.53,4.5 C76.99,4.5 75.59,4.98 74.47,6.06 L75.35,7.52 C76.17,6.68 77.13,6.28 78.21,6.28 C79.53,6.28 80.47,6.96 80.47,8.08 L80.47,9.52 C79.75,8.7 78.65,8.28 77.33,8.28 C75.75,8.28 73.99,9.2 73.99,11.44 C73.99,13.56 75.77,14.64 77.33,14.64 C78.61,14.64 79.75,14.18 80.47,13.34 L80.47,14.4 L82.57,14.4 Z M78.17,13.2 C76.99,13.2 76.09,12.52 76.09,11.46 C76.09,10.42 76.99,9.72 78.17,9.72 C79.07,9.72 79.97,10.06 80.47,10.72 L80.47,12.2 C79.97,12.86 79.07,13.2 78.17,13.2 L78.17,13.2 Z M86.35,3.56 C87.07,3.56 87.65,2.98 87.65,2.26 C87.65,1.54 87.07,0.96 86.35,0.96 C85.63,0.96 85.05,1.54 85.05,2.26 C85.05,2.98 85.63,3.56 86.35,3.56 L86.35,3.56 Z M87.39,14.4 L87.39,4.74 L85.29,4.74 L85.29,14.4 L87.39,14.4 Z M92.21,14.4 L92.21,1.06 L90.11,1.06 L90.11,14.4 L92.21,14.4 Z"></path>
                                    </g>
                                </g>
                                <g id="engagement" transform="translate(0.000000, 0.200000)">
                                    <path d="M172.910457,199.337885 C31.4209147,182.675769 30.7879366,169.543614 10.1787838,141.83936 C-15.5043425,107.314208 2.28167302,-40.5971152 164.231435,11.6540211 C299.2,55.2 281.6,284.8 281.6,284.8 C269.384195,295.858243 314.4,216 172.910457,199.337885 L172.910457,199.337885 Z" id="Fill-1" fill="#07698D"></path>
                                    <g id="Engagement" transform="translate(60.000000, 91.000000)" fill="#FFFFFF">
                                        <path d="M11.324,16.2 L11.324,13.728 L3.164,13.728 L3.164,9.264 L11.156,9.264 L11.156,6.792 L3.164,6.792 L3.164,2.664 L11.324,2.664 L11.324,0.192 L0.356,0.192 L0.356,16.2 L11.324,16.2 Z M24.5,16.2 L24.5,8.04 C24.5,5.664 23.252,4.32 20.756,4.32 C18.932,4.32 17.42,5.256 16.652,6.168 L16.652,4.608 L14.132,4.608 L14.132,16.2 L16.652,16.2 L16.652,8.088 C17.252,7.32 18.356,6.552 19.628,6.552 C21.044,6.552 21.98,7.128 21.98,8.952 L21.98,16.2 L24.5,16.2 Z M32.492,20.904 C35.324,20.904 38.444,19.776 38.444,15.6 L38.444,4.608 L35.924,4.608 L35.924,6.216 C34.988,4.968 33.668,4.32 32.204,4.32 C29.204,4.32 27.068,6.504 27.068,10.272 C27.068,14.088 29.252,16.224 32.204,16.224 C33.716,16.224 35.036,15.456 35.924,14.28 L35.924,15.6 C35.924,18.072 34.148,18.84 32.492,18.84 C30.956,18.84 29.756,18.432 28.796,17.352 L27.62,19.176 C29.06,20.472 30.524,20.904 32.492,20.904 L32.492,20.904 Z M32.948,13.968 C30.932,13.968 29.66,12.504 29.66,10.272 C29.66,8.04 30.932,6.552 32.948,6.552 C34.124,6.552 35.348,7.248 35.924,8.088 L35.924,12.432 C35.348,13.272 34.124,13.968 32.948,13.968 L32.948,13.968 Z M51.332,16.2 L51.332,8.496 C51.332,5.4 49.076,4.32 46.484,4.32 C44.636,4.32 42.956,4.896 41.612,6.192 L42.668,7.944 C43.652,6.936 44.804,6.456 46.1,6.456 C47.684,6.456 48.812,7.272 48.812,8.616 L48.812,10.344 C47.948,9.36 46.628,8.856 45.044,8.856 C43.148,8.856 41.036,9.96 41.036,12.648 C41.036,15.192 43.172,16.488 45.044,16.488 C46.58,16.488 47.948,15.936 48.812,14.928 L48.812,16.2 L51.332,16.2 Z M46.052,14.76 C44.636,14.76 43.556,13.944 43.556,12.672 C43.556,11.424 44.636,10.584 46.052,10.584 C47.132,10.584 48.212,10.992 48.812,11.784 L48.812,13.56 C48.212,14.352 47.132,14.76 46.052,14.76 L46.052,14.76 Z M59.324,20.904 C62.156,20.904 65.276,19.776 65.276,15.6 L65.276,4.608 L62.756,4.608 L62.756,6.216 C61.82,4.968 60.5,4.32 59.036,4.32 C56.036,4.32 53.9,6.504 53.9,10.272 C53.9,14.088 56.084,16.224 59.036,16.224 C60.548,16.224 61.868,15.456 62.756,14.28 L62.756,15.6 C62.756,18.072 60.98,18.84 59.324,18.84 C57.788,18.84 56.588,18.432 55.628,17.352 L54.452,19.176 C55.892,20.472 57.356,20.904 59.324,20.904 L59.324,20.904 Z M59.78,13.968 C57.764,13.968 56.492,12.504 56.492,10.272 C56.492,8.04 57.764,6.552 59.78,6.552 C60.956,6.552 62.18,7.248 62.756,8.088 L62.756,12.432 C62.18,13.272 60.956,13.968 59.78,13.968 L59.78,13.968 Z M73.916,16.488 C75.74,16.488 77.444,15.888 78.62,14.784 L77.468,13.128 C76.628,13.968 75.308,14.424 74.156,14.424 C71.972,14.424 70.676,12.96 70.484,11.232 L79.412,11.232 L79.412,10.608 C79.412,6.96 77.204,4.32 73.724,4.32 C70.292,4.32 67.844,7.032 67.844,10.392 C67.844,14.064 70.412,16.488 73.916,16.488 L73.916,16.488 Z M76.988,9.432 L70.46,9.432 C70.556,8.04 71.564,6.384 73.7,6.384 C75.98,6.384 76.916,8.064 76.988,9.432 L76.988,9.432 Z M98.66,16.2 L98.66,7.824 C98.66,5.472 97.436,4.32 95.324,4.32 C93.572,4.32 92.036,5.4 91.388,6.432 C91.004,5.184 89.948,4.32 88.22,4.32 C86.444,4.32 84.932,5.472 84.428,6.168 L84.428,4.608 L81.908,4.608 L81.908,16.2 L84.428,16.2 L84.428,8.088 C84.956,7.344 85.988,6.552 87.116,6.552 C88.484,6.552 89.012,7.392 89.012,8.64 L89.012,16.2 L91.532,16.2 L91.532,8.088 C92.036,7.32 93.092,6.552 94.22,6.552 C95.588,6.552 96.14,7.392 96.14,8.64 L96.14,16.2 L98.66,16.2 Z M107.3,16.488 C109.124,16.488 110.828,15.888 112.004,14.784 L110.852,13.128 C110.012,13.968 108.692,14.424 107.54,14.424 C105.356,14.424 104.06,12.96 103.868,11.232 L112.796,11.232 L112.796,10.608 C112.796,6.96 110.588,4.32 107.108,4.32 C103.676,4.32 101.228,7.032 101.228,10.392 C101.228,14.064 103.796,16.488 107.3,16.488 L107.3,16.488 Z M110.372,9.432 L103.844,9.432 C103.94,8.04 104.948,6.384 107.084,6.384 C109.364,6.384 110.3,8.064 110.372,9.432 L110.372,9.432 Z M125.66,16.2 L125.66,8.04 C125.66,5.664 124.412,4.32 121.916,4.32 C120.092,4.32 118.58,5.256 117.812,6.168 L117.812,4.608 L115.292,4.608 L115.292,16.2 L117.812,16.2 L117.812,8.088 C118.412,7.32 119.516,6.552 120.788,6.552 C122.204,6.552 123.14,7.128 123.14,8.952 L123.14,16.2 L125.66,16.2 Z M132.428,16.488 C133.58,16.488 134.324,16.152 134.78,15.744 L134.18,13.824 C133.988,14.04 133.556,14.256 133.076,14.256 C132.356,14.256 131.972,13.656 131.972,12.864 L131.972,6.792 L134.324,6.792 L134.324,4.608 L131.972,4.608 L131.972,1.44 L129.452,1.44 L129.452,4.608 L127.532,4.608 L127.532,6.792 L129.452,6.792 L129.452,13.488 C129.452,15.432 130.46,16.488 132.428,16.488 L132.428,16.488 Z"></path>
                                    </g>
                                </g>
                            </g>
                        </g>
                    </g>
                </g>
            </g>
        </g>
    </g>
</svg>