<?xml version="1.0" encoding="UTF-8"?>
<svg width="374px" height="679px" viewBox="0 0 374 679" version="1.1" xmlns="http://www.w3.org/2000/svg" xmlns:xlink="http://www.w3.org/1999/xlink">
    <!-- Generator: Sketch 40.3 (33839) - http://www.bohemiancoding.com/sketch -->
    <title>mobile-cloud-en</title>
    <desc>Created with Sketch.</desc>
    <defs>
        <rect id="path-1" x="0.2" y="0.936160757" width="91.2" height="108.880286"></rect>
        <path d="M35.1172592,10.7926384 C76.1674375,-21.1736897 105.530978,40.3997585 82.5179992,57.8359375 C59.5050204,75.2721165 9.00856842,86.8889183 1.53074978,109.016447 C1.53074978,109.016447 -5.93291899,42.7589665 35.1172592,10.7926384 L35.1172592,10.7926384 Z" id="path-3"></path>
        <rect id="path-5" x="0.2" y="0.221684669" width="165.164755" height="179.426282"></rect>
        <path d="M52.0635929,49.3578287 C65,-23 152.15729,-4.24110758 162.716149,41.2558621 C172.109218,81.7294759 144.120657,112.459508 114.6,134.6 C89,153.8 1,178.847966 1,178.847966 C1,178.847966 39.1271858,121.715657 52.0635929,49.3578287 L52.0635929,49.3578287 Z" id="path-7"></path>
        <rect id="path-9" x="0.448006419" y="0.44800642" width="186.103987" height="326.103987"></rect>
        <path d="M54.1202776,130.462059 C-16.3973297,101.823356 4.53486617,52.935558 6.08237081,49.616353 C7.62987545,46.297148 47.9181455,-51.8240087 155.711836,43.6235965 C186.722497,75.4394649 200.677294,134.415221 159.059486,209.395984 C117.441678,284.376746 39.8386102,325 39.8386102,325 C39.8386102,325 100.690932,295.166705 116.214484,224.934158 C116.214484,224.934158 129.808327,161.200588 54.1202776,130.462059 L54.1202776,130.462059 Z" id="path-11"></path>
        <rect id="path-13" x="0.888148455" y="0.484010094" width="100.111852" height="218.802828"></rect>
        <path d="M40.7924676,197.1583 C40.7924676,197.1583 -7.28935124,91.8397241 3.17935681,47.8585354 C13,6.6 61.2110134,-23.5456999 92.3761623,30.2393085 C123.541311,84.0243169 51.5390706,218.486838 51.5390706,218.486838 L40.7924676,197.1583 L40.7924676,197.1583 Z" id="path-15"></path>
        <rect id="path-17" x="0.147324359" y="0.147324359" width="217.705351" height="77.7053513"></rect>
        <path d="M35.3800885,77 C-16.6331256,77 -3.842991,18.0786517 35.3800885,6.97752809 C74.603168,-4.12359551 140.259192,-2.41573034 162.428759,35.1573034 C185.707541,74.6102383 217,77 217,77 L35.3800885,77 L35.3800885,77 Z" id="path-19"></path>
    </defs>
    <g id="Page-1" stroke="none" stroke-width="1" fill="none" fill-rule="evenodd">
        <g id="mobile-cloud-en" transform="translate(-1.000000, -1.000000)">
            <g id="Voeux-2016">
                <g id="Voeux_2016_wisembly_mobile_FR">
                    <g id="4-/-MOT-DE-LA-TEAM">
                        <g id="illustration-nuage-de-mots" transform="translate(0.400000, 0.200000)">
                            <polygon id="ligne" fill="#07698D" points="42.6 679.8 363.6 679.8 363.6 675.8 42.6 675.8"></polygon>
                            <g id="bulles">
                                <g id="mobilité" transform="translate(263.600000, 283.000000)">
                                    <g id="Fill-1">
                                        <g id="path-1-link" transform="translate(1.000000, 1.000000)" fill="#07698D">
                                            <path d="M34.1172592,9.79263839 C75.1674375,-22.1736897 104.530978,39.3997585 81.5179992,56.8359375 C58.5050204,74.2721165 8.00856842,85.8889183 0.530749779,108.016447 C0.530749779,108.016447 -6.93291899,41.7589665 34.1172592,9.79263839 L34.1172592,9.79263839 Z" id="path-1"></path>
                                        </g>
                                        <g id="Clipped">
                                            <mask id="mask-2" fill="white">
                                                <use xlink:href="#path-1"></use>
                                            </mask>
                                            <g id="Rectangle-path"></g>
                                            <g id="path-1-link" mask="url(#mask-2)" stroke="#07698D" stroke-width="1.6">
                                                <g transform="translate(1.000000, 1.000000)" id="path-1">
                                                    <path d="M34.1172592,9.79263839 C75.1674375,-22.1736897 104.530978,39.3997585 81.5179992,56.8359375 C58.5050204,74.2721165 8.00856842,85.8889183 0.530749779,108.016447 C0.530749779,108.016447 -6.93291899,41.7589665 34.1172592,9.79263839 L34.1172592,9.79263839 Z"></path>
                                                </g>
                                            </g>
                                            <mask id="mask-4" fill="white">
                                                <use xlink:href="#path-3"></use>
                                            </mask>
                                            <g id="path-1"></g>
                                        </g>
                                    </g>
                                    <g id="Mobility" transform="translate(26.000000, 29.000000)" fill="#FFFFFF">
                                        <path d="M10.151,10 L10.151,0.662 L7.841,0.662 L5.307,7.074 L2.759,0.662 L0.449,0.662 L0.449,10 L2.087,10 L2.087,2.79 L4.957,10 L5.657,10 L8.513,2.79 L8.513,10 L10.151,10 Z M15.163,10.168 C17.319,10.168 18.635,8.544 18.635,6.612 C18.635,4.666 17.319,3.07 15.163,3.07 C13.007,3.07 11.691,4.666 11.691,6.612 C11.691,8.544 13.007,10.168 15.163,10.168 L15.163,10.168 Z M15.163,8.866 C13.917,8.866 13.217,7.816 13.217,6.612 C13.217,5.422 13.917,4.372 15.163,4.372 C16.423,4.372 17.109,5.422 17.109,6.612 C17.109,7.816 16.423,8.866 15.163,8.866 L15.163,8.866 Z M21.603,7.97 L21.603,5.282 C21.939,4.778 22.653,4.372 23.353,4.372 C24.515,4.372 25.257,5.31 25.257,6.612 C25.257,7.928 24.515,8.866 23.353,8.866 C22.653,8.866 21.939,8.474 21.603,7.97 L21.603,7.97 Z M21.603,10 L21.603,9.076 C22.121,9.748 22.905,10.168 23.773,10.168 C25.509,10.168 26.783,8.852 26.783,6.612 C26.783,4.428 25.523,3.07 23.773,3.07 C22.933,3.07 22.149,3.448 21.603,4.176 L21.603,0.662 L20.133,0.662 L20.133,10 L21.603,10 Z M29.009,2.412 C29.513,2.412 29.919,2.006 29.919,1.502 C29.919,0.998 29.513,0.592 29.009,0.592 C28.505,0.592 28.099,0.998 28.099,1.502 C28.099,2.006 28.505,2.412 29.009,2.412 L29.009,2.412 Z M29.737,10 L29.737,3.238 L28.267,3.238 L28.267,10 L29.737,10 Z M33.111,10 L33.111,0.662 L31.641,0.662 L31.641,10 L33.111,10 Z M35.757,2.412 C36.261,2.412 36.667,2.006 36.667,1.502 C36.667,0.998 36.261,0.592 35.757,0.592 C35.253,0.592 34.847,0.998 34.847,1.502 C34.847,2.006 35.253,2.412 35.757,2.412 L35.757,2.412 Z M36.485,10 L36.485,3.238 L35.015,3.238 L35.015,10 L36.485,10 Z M40.433,10.168 C41.105,10.168 41.539,9.972 41.805,9.734 L41.455,8.614 C41.343,8.74 41.091,8.866 40.811,8.866 C40.391,8.866 40.167,8.516 40.167,8.054 L40.167,4.512 L41.539,4.512 L41.539,3.238 L40.167,3.238 L40.167,1.39 L38.697,1.39 L38.697,3.238 L37.577,3.238 L37.577,4.512 L38.697,4.512 L38.697,8.418 C38.697,9.552 39.285,10.168 40.433,10.168 L40.433,10.168 Z M42.575,12.646 C42.771,12.702 43.191,12.744 43.401,12.744 C44.451,12.73 45.249,12.366 45.711,11.218 L48.973,3.238 L47.405,3.238 L45.431,8.306 L43.457,3.238 L41.875,3.238 L44.661,10.084 L44.325,10.854 C44.129,11.302 43.821,11.442 43.345,11.442 C43.177,11.442 42.939,11.4 42.785,11.33 L42.575,12.646 Z"></path>
                                    </g>
                                </g>
                                <g id="transparence" transform="translate(227.600000, 467.600000)">
                                    <path d="M35.0426405,116.855218 C44.0194476,109.489378 55.5225655,101.166875 69.87137,92.7207977 C113.471194,67.0563267 144.214746,67.0563267 145.332748,43.1028964 C146.450749,19.1498464 120.738204,-15.6397953 63.7227342,7.74328804 C5.35783608,31.6799881 0.07138147,89.608607 0.0242233669,119.2 C-2.80452744e-12,134.4 1.94718603,148.519739 0.0242233669,159.311463 C8.86016226,143.06304 20.7501087,128.582692 35.0426405,116.855218 L35.0426405,116.855218 Z" id="Page-1" stroke="#07698D" stroke-width="1.6" fill="#07698D"></path>
                                    <g id="Transparency" transform="translate(38.000000, 34.000000)" fill="#FFFFFF">
                                        <path d="M4.753,9.6 L4.753,1.704 L7.581,1.704 L7.581,0.262 L0.287,0.262 L0.287,1.704 L3.115,1.704 L3.115,9.6 L4.753,9.6 Z M9.345,9.6 L9.345,4.994 C9.639,4.504 10.465,4.084 11.095,4.084 C11.277,4.084 11.417,4.098 11.543,4.126 L11.543,2.67 C10.675,2.67 9.863,3.174 9.345,3.818 L9.345,2.838 L7.875,2.838 L7.875,9.6 L9.345,9.6 Z M18.347,9.6 L18.347,5.106 C18.347,3.3 17.031,2.67 15.519,2.67 C14.441,2.67 13.461,3.006 12.677,3.762 L13.293,4.784 C13.867,4.196 14.539,3.916 15.295,3.916 C16.219,3.916 16.877,4.392 16.877,5.176 L16.877,6.184 C16.373,5.61 15.603,5.316 14.679,5.316 C13.573,5.316 12.341,5.96 12.341,7.528 C12.341,9.012 13.587,9.768 14.679,9.768 C15.575,9.768 16.373,9.446 16.877,8.858 L16.877,9.6 L18.347,9.6 Z M15.267,8.76 C14.441,8.76 13.811,8.284 13.811,7.542 C13.811,6.814 14.441,6.324 15.267,6.324 C15.897,6.324 16.527,6.562 16.877,7.024 L16.877,8.06 C16.527,8.522 15.897,8.76 15.267,8.76 L15.267,8.76 Z M26.299,9.6 L26.299,4.84 C26.299,3.454 25.571,2.67 24.115,2.67 C23.051,2.67 22.169,3.216 21.721,3.748 L21.721,2.838 L20.251,2.838 L20.251,9.6 L21.721,9.6 L21.721,4.868 C22.071,4.42 22.715,3.972 23.457,3.972 C24.283,3.972 24.829,4.308 24.829,5.372 L24.829,9.6 L26.299,9.6 Z M30.527,9.768 C32.347,9.768 33.341,8.858 33.341,7.654 C33.341,4.966 29.253,5.862 29.253,4.672 C29.253,4.196 29.729,3.832 30.499,3.832 C31.353,3.832 32.095,4.196 32.501,4.644 L33.117,3.608 C32.515,3.076 31.647,2.67 30.499,2.67 C28.791,2.67 27.839,3.608 27.839,4.714 C27.839,7.318 31.927,6.366 31.927,7.696 C31.927,8.228 31.465,8.592 30.583,8.592 C29.715,8.592 28.777,8.144 28.301,7.654 L27.629,8.704 C28.329,9.39 29.365,9.768 30.527,9.768 L30.527,9.768 Z M38.451,9.768 C40.201,9.768 41.447,8.438 41.447,6.212 C41.447,3.986 40.201,2.67 38.451,2.67 C37.569,2.67 36.785,3.09 36.281,3.762 L36.281,2.838 L34.811,2.838 L34.811,12.176 L36.281,12.176 L36.281,8.662 C36.841,9.376 37.597,9.768 38.451,9.768 L38.451,9.768 Z M38.017,8.466 C37.331,8.466 36.603,8.046 36.281,7.542 L36.281,4.868 C36.617,4.364 37.331,3.972 38.017,3.972 C39.179,3.972 39.935,4.896 39.935,6.212 C39.935,7.528 39.179,8.466 38.017,8.466 L38.017,8.466 Z M48.531,9.6 L48.531,5.106 C48.531,3.3 47.215,2.67 45.703,2.67 C44.625,2.67 43.645,3.006 42.861,3.762 L43.477,4.784 C44.051,4.196 44.723,3.916 45.479,3.916 C46.403,3.916 47.061,4.392 47.061,5.176 L47.061,6.184 C46.557,5.61 45.787,5.316 44.863,5.316 C43.757,5.316 42.525,5.96 42.525,7.528 C42.525,9.012 43.771,9.768 44.863,9.768 C45.759,9.768 46.557,9.446 47.061,8.858 L47.061,9.6 L48.531,9.6 Z M45.451,8.76 C44.625,8.76 43.995,8.284 43.995,7.542 C43.995,6.814 44.625,6.324 45.451,6.324 C46.081,6.324 46.711,6.562 47.061,7.024 L47.061,8.06 C46.711,8.522 46.081,8.76 45.451,8.76 L45.451,8.76 Z M51.905,9.6 L51.905,4.994 C52.199,4.504 53.025,4.084 53.655,4.084 C53.837,4.084 53.977,4.098 54.103,4.126 L54.103,2.67 C53.235,2.67 52.423,3.174 51.905,3.818 L51.905,2.838 L50.435,2.838 L50.435,9.6 L51.905,9.6 Z M58.429,9.768 C59.493,9.768 60.487,9.418 61.173,8.774 L60.501,7.808 C60.011,8.298 59.241,8.564 58.569,8.564 C57.295,8.564 56.539,7.71 56.427,6.702 L61.635,6.702 L61.635,6.338 C61.635,4.21 60.347,2.67 58.317,2.67 C56.315,2.67 54.887,4.252 54.887,6.212 C54.887,8.354 56.385,9.768 58.429,9.768 L58.429,9.768 Z M60.221,5.652 L56.413,5.652 C56.469,4.84 57.057,3.874 58.303,3.874 C59.633,3.874 60.179,4.854 60.221,5.652 L60.221,5.652 Z M69.139,9.6 L69.139,4.84 C69.139,3.454 68.411,2.67 66.955,2.67 C65.891,2.67 65.009,3.216 64.561,3.748 L64.561,2.838 L63.091,2.838 L63.091,9.6 L64.561,9.6 L64.561,4.868 C64.911,4.42 65.555,3.972 66.297,3.972 C67.123,3.972 67.669,4.308 67.669,5.372 L67.669,9.6 L69.139,9.6 Z M74.123,9.768 C75.453,9.768 76.237,9.194 76.713,8.564 L75.747,7.654 C75.369,8.186 74.851,8.466 74.193,8.466 C72.975,8.466 72.149,7.528 72.149,6.212 C72.149,4.896 72.975,3.972 74.193,3.972 C74.851,3.972 75.369,4.224 75.747,4.756 L76.713,3.874 C76.237,3.23 75.453,2.67 74.123,2.67 C72.079,2.67 70.637,4.168 70.637,6.212 C70.637,8.256 72.079,9.768 74.123,9.768 L74.123,9.768 Z M77.735,12.246 C77.931,12.302 78.351,12.344 78.561,12.344 C79.611,12.33 80.409,11.966 80.871,10.818 L84.133,2.838 L82.565,2.838 L80.591,7.906 L78.617,2.838 L77.035,2.838 L79.821,9.684 L79.485,10.454 C79.289,10.902 78.981,11.042 78.505,11.042 C78.337,11.042 78.099,11 77.945,10.93 L77.735,12.246 Z"></path>
                                    </g>
                                </g>
                                <g id="productivité" transform="translate(0.600000, 447.400000)">
                                    <g id="Page-1">
                                        <g id="path-3-link" transform="translate(1.000000, 1.000000)" fill="#07698D">
                                            <path d="M51.0635929,48.3578287 C64,-24 151.15729,-5.24110758 161.716149,40.2558621 C171.109218,80.7294759 143.120657,111.459508 113.6,133.6 C88,152.8 0,177.847966 0,177.847966 C0,177.847966 38.1271858,120.715657 51.0635929,48.3578287 L51.0635929,48.3578287 Z" id="path-3"></path>
                                        </g>
                                        <g id="Clipped">
                                            <mask id="mask-6" fill="white">
                                                <use xlink:href="#path-5"></use>
                                            </mask>
                                            <g id="Rectangle-path"></g>
                                            <g id="path-3-link" mask="url(#mask-6)" stroke="#07698D" stroke-width="1.6">
                                                <g transform="translate(1.000000, 1.000000)" id="path-3">
                                                    <path d="M51.0635929,48.3578287 C64,-24 151.15729,-5.24110758 161.716149,40.2558621 C171.109218,80.7294759 143.120657,111.459508 113.6,133.6 C88,152.8 0,177.847966 0,177.847966 C0,177.847966 38.1271858,120.715657 51.0635929,48.3578287 L51.0635929,48.3578287 Z"></path>
                                                </g>
                                            </g>
                                            <mask id="mask-8" fill="white">
                                                <use xlink:href="#path-7"></use>
                                            </mask>
                                            <g id="path-3"></g>
                                        </g>
                                    </g>
                                    <g id="Productivity" transform="translate(68.000000, 54.000000)" fill="#FFFFFF">
                                        <path d="M1.718,9.8 L1.718,6.3 L4.196,6.3 C6.142,6.3 7.234,4.97 7.234,3.388 C7.234,1.792 6.156,0.462 4.196,0.462 L0.08,0.462 L0.08,9.8 L1.718,9.8 Z M3.972,4.858 L1.718,4.858 L1.718,1.904 L3.972,1.904 C4.896,1.904 5.554,2.492 5.554,3.388 C5.554,4.27 4.896,4.858 3.972,4.858 L3.972,4.858 Z M10.034,9.8 L10.034,5.194 C10.328,4.704 11.154,4.284 11.784,4.284 C11.966,4.284 12.106,4.298 12.232,4.326 L12.232,2.87 C11.364,2.87 10.552,3.374 10.034,4.018 L10.034,3.038 L8.564,3.038 L8.564,9.8 L10.034,9.8 Z M16.488,9.968 C18.644,9.968 19.96,8.344 19.96,6.412 C19.96,4.466 18.644,2.87 16.488,2.87 C14.332,2.87 13.016,4.466 13.016,6.412 C13.016,8.344 14.332,9.968 16.488,9.968 L16.488,9.968 Z M16.488,8.666 C15.242,8.666 14.542,7.616 14.542,6.412 C14.542,5.222 15.242,4.172 16.488,4.172 C17.748,4.172 18.434,5.222 18.434,6.412 C18.434,7.616 17.748,8.666 16.488,8.666 L16.488,8.666 Z M27.688,9.8 L27.688,0.462 L26.218,0.462 L26.218,3.976 C25.686,3.248 24.902,2.87 24.048,2.87 C22.312,2.87 21.052,4.228 21.052,6.412 C21.052,8.652 22.326,9.968 24.048,9.968 C24.93,9.968 25.7,9.548 26.218,8.876 L26.218,9.8 L27.688,9.8 Z M24.482,8.666 C23.306,8.666 22.564,7.728 22.564,6.412 C22.564,5.11 23.306,4.172 24.482,4.172 C25.168,4.172 25.896,4.578 26.218,5.082 L26.218,7.756 C25.896,8.26 25.168,8.666 24.482,8.666 L24.482,8.666 Z M35.626,9.8 L35.626,3.038 L34.156,3.038 L34.156,7.784 C33.82,8.232 33.176,8.666 32.434,8.666 C31.594,8.666 31.062,8.33 31.062,7.28 L31.062,3.038 L29.592,3.038 L29.592,7.826 C29.592,9.198 30.32,9.968 31.776,9.968 C32.84,9.968 33.68,9.436 34.156,8.904 L34.156,9.8 L35.626,9.8 Z M40.61,9.968 C41.94,9.968 42.724,9.394 43.2,8.764 L42.234,7.854 C41.856,8.386 41.338,8.666 40.68,8.666 C39.462,8.666 38.636,7.728 38.636,6.412 C38.636,5.096 39.462,4.172 40.68,4.172 C41.338,4.172 41.856,4.424 42.234,4.956 L43.2,4.074 C42.724,3.43 41.94,2.87 40.61,2.87 C38.566,2.87 37.124,4.368 37.124,6.412 C37.124,8.456 38.566,9.968 40.61,9.968 L40.61,9.968 Z M46.546,9.968 C47.218,9.968 47.652,9.772 47.918,9.534 L47.568,8.414 C47.456,8.54 47.204,8.666 46.924,8.666 C46.504,8.666 46.28,8.316 46.28,7.854 L46.28,4.312 L47.652,4.312 L47.652,3.038 L46.28,3.038 L46.28,1.19 L44.81,1.19 L44.81,3.038 L43.69,3.038 L43.69,4.312 L44.81,4.312 L44.81,8.218 C44.81,9.352 45.398,9.968 46.546,9.968 L46.546,9.968 Z M49.71,2.212 C50.214,2.212 50.62,1.806 50.62,1.302 C50.62,0.798 50.214,0.392 49.71,0.392 C49.206,0.392 48.8,0.798 48.8,1.302 C48.8,1.806 49.206,2.212 49.71,2.212 L49.71,2.212 Z M50.438,9.8 L50.438,3.038 L48.968,3.038 L48.968,9.8 L50.438,9.8 Z M55.702,9.8 L58.46,3.038 L56.892,3.038 L54.918,8.106 L52.944,3.038 L51.362,3.038 L54.12,9.8 L55.702,9.8 Z M60.126,2.212 C60.63,2.212 61.036,1.806 61.036,1.302 C61.036,0.798 60.63,0.392 60.126,0.392 C59.622,0.392 59.216,0.798 59.216,1.302 C59.216,1.806 59.622,2.212 60.126,2.212 L60.126,2.212 Z M60.854,9.8 L60.854,3.038 L59.384,3.038 L59.384,9.8 L60.854,9.8 Z M64.802,9.968 C65.474,9.968 65.908,9.772 66.174,9.534 L65.824,8.414 C65.712,8.54 65.46,8.666 65.18,8.666 C64.76,8.666 64.536,8.316 64.536,7.854 L64.536,4.312 L65.908,4.312 L65.908,3.038 L64.536,3.038 L64.536,1.19 L63.066,1.19 L63.066,3.038 L61.946,3.038 L61.946,4.312 L63.066,4.312 L63.066,8.218 C63.066,9.352 63.654,9.968 64.802,9.968 L64.802,9.968 Z M66.944,12.446 C67.14,12.502 67.56,12.544 67.77,12.544 C68.82,12.53 69.618,12.166 70.08,11.018 L73.342,3.038 L71.774,3.038 L69.8,8.106 L67.826,3.038 L66.244,3.038 L69.03,9.884 L68.694,10.654 C68.498,11.102 68.19,11.242 67.714,11.242 C67.546,11.242 67.308,11.2 67.154,11.13 L66.944,12.446 Z"></path>
                                    </g>
                                </g>
                                <g id="com-video" transform="translate(68.600000, 298.000000)">
                                    <g id="Fill-1">
                                        <g id="path-5-link" transform="translate(2.000000, 2.000000)" fill="#07698D">
                                            <path d="M52.1202776,128.462059 C-18.3973297,99.8233558 2.53486617,50.935558 4.08237081,47.616353 C5.62987545,44.297148 45.9181455,-53.8240087 153.711836,41.6235965 C184.722497,73.4394649 198.677294,132.415221 157.059486,207.395984 C115.441678,282.376746 37.8386102,323 37.8386102,323 C37.8386102,323 98.6909321,293.166705 114.214484,222.934158 C114.214484,222.934158 127.808327,159.200588 52.1202776,128.462059 L52.1202776,128.462059 Z" id="path-5"></path>
                                        </g>
                                        <g id="Clipped">
                                            <mask id="mask-10" fill="white">
                                                <use xlink:href="#path-9"></use>
                                            </mask>
                                            <g id="Rectangle-path"></g>
                                            <g id="path-5-link" mask="url(#mask-10)" stroke="#07698D" stroke-width="3.10398716">
                                                <g transform="translate(2.000000, 2.000000)" id="path-5">
                                                    <path d="M52.1202776,128.462059 C-18.3973297,99.8233558 2.53486617,50.935558 4.08237081,47.616353 C5.62987545,44.297148 45.9181455,-53.8240087 153.711836,41.6235965 C184.722497,73.4394649 198.677294,132.415221 157.059486,207.395984 C115.441678,282.376746 37.8386102,323 37.8386102,323 C37.8386102,323 98.6909321,293.166705 114.214484,222.934158 C114.214484,222.934158 127.808327,159.200588 52.1202776,128.462059 L52.1202776,128.462059 Z"></path>
                                                </g>
                                            </g>
                                            <mask id="mask-12" fill="white">
                                                <use xlink:href="#path-11"></use>
                                            </mask>
                                            <g id="path-5"></g>
                                        </g>
                                    </g>
                                    <g id="Video-Communication" transform="translate(20.000000, 47.000000)" fill="#FFFFFF">
                                        <path d="M51.74,13.8 L56.98,0.46 L54.32,0.46 L50.28,11.24 L46.24,0.46 L43.58,0.46 L48.82,13.8 L51.74,13.8 Z M59.42,2.96 C60.14,2.96 60.72,2.38 60.72,1.66 C60.72,0.94 60.14,0.36 59.42,0.36 C58.7,0.36 58.12,0.94 58.12,1.66 C58.12,2.38 58.7,2.96 59.42,2.96 L59.42,2.96 Z M60.46,13.8 L60.46,4.14 L58.36,4.14 L58.36,13.8 L60.46,13.8 Z M72.08,13.8 L72.08,0.46 L69.98,0.46 L69.98,5.48 C69.22,4.44 68.1,3.9 66.88,3.9 C64.4,3.9 62.6,5.84 62.6,8.96 C62.6,12.16 64.42,14.04 66.88,14.04 C68.14,14.04 69.24,13.44 69.98,12.48 L69.98,13.8 L72.08,13.8 Z M67.5,12.18 C65.82,12.18 64.76,10.84 64.76,8.96 C64.76,7.1 65.82,5.76 67.5,5.76 C68.48,5.76 69.52,6.34 69.98,7.06 L69.98,10.88 C69.52,11.6 68.48,12.18 67.5,12.18 L67.5,12.18 Z M79.28,14.04 C80.8,14.04 82.22,13.54 83.2,12.62 L82.24,11.24 C81.54,11.94 80.44,12.32 79.48,12.32 C77.66,12.32 76.58,11.1 76.42,9.66 L83.86,9.66 L83.86,9.14 C83.86,6.1 82.02,3.9 79.12,3.9 C76.26,3.9 74.22,6.16 74.22,8.96 C74.22,12.02 76.36,14.04 79.28,14.04 L79.28,14.04 Z M81.84,8.16 L76.4,8.16 C76.48,7 77.32,5.62 79.1,5.62 C81,5.62 81.78,7.02 81.84,8.16 L81.84,8.16 Z M90.32,14.04 C93.4,14.04 95.28,11.72 95.28,8.96 C95.28,6.18 93.4,3.9 90.32,3.9 C87.24,3.9 85.36,6.18 85.36,8.96 C85.36,11.72 87.24,14.04 90.32,14.04 L90.32,14.04 Z M90.32,12.18 C88.54,12.18 87.54,10.68 87.54,8.96 C87.54,7.26 88.54,5.76 90.32,5.76 C92.12,5.76 93.1,7.26 93.1,8.96 C93.1,10.68 92.12,12.18 90.32,12.18 L90.32,12.18 Z" id="Video"></path>
                                        <path d="M7.27,42.04 C9.95,42.04 11.61,40.62 12.63,39.02 L10.63,38.02 C9.99,39.12 8.69,39.96 7.27,39.96 C4.63,39.96 2.67,37.92 2.67,35.14 C2.67,32.32 4.63,30.32 7.27,30.32 C8.69,30.32 9.99,31.14 10.63,32.26 L12.61,31.22 C11.63,29.62 9.95,28.24 7.27,28.24 C3.33,28.24 0.27,31.02 0.27,35.14 C0.27,39.24 3.33,42.04 7.27,42.04 L7.27,42.04 Z M18.81,42.04 C21.89,42.04 23.77,39.72 23.77,36.96 C23.77,34.18 21.89,31.9 18.81,31.9 C15.73,31.9 13.85,34.18 13.85,36.96 C13.85,39.72 15.73,42.04 18.81,42.04 L18.81,42.04 Z M18.81,40.18 C17.03,40.18 16.03,38.68 16.03,36.96 C16.03,35.26 17.03,33.76 18.81,33.76 C20.61,33.76 21.59,35.26 21.59,36.96 C21.59,38.68 20.61,40.18 18.81,40.18 L18.81,40.18 Z M39.87,41.8 L39.87,34.82 C39.87,32.86 38.85,31.9 37.09,31.9 C35.63,31.9 34.35,32.8 33.81,33.66 C33.49,32.62 32.61,31.9 31.17,31.9 C29.69,31.9 28.43,32.86 28.01,33.44 L28.01,32.14 L25.91,32.14 L25.91,41.8 L28.01,41.8 L28.01,35.04 C28.45,34.42 29.31,33.76 30.25,33.76 C31.39,33.76 31.83,34.46 31.83,35.5 L31.83,41.8 L33.93,41.8 L33.93,35.04 C34.35,34.4 35.23,33.76 36.17,33.76 C37.31,33.76 37.77,34.46 37.77,35.5 L37.77,41.8 L39.87,41.8 Z M56.55,41.8 L56.55,34.82 C56.55,32.86 55.53,31.9 53.77,31.9 C52.31,31.9 51.03,32.8 50.49,33.66 C50.17,32.62 49.29,31.9 47.85,31.9 C46.37,31.9 45.11,32.86 44.69,33.44 L44.69,32.14 L42.59,32.14 L42.59,41.8 L44.69,41.8 L44.69,35.04 C45.13,34.42 45.99,33.76 46.93,33.76 C48.07,33.76 48.51,34.46 48.51,35.5 L48.51,41.8 L50.61,41.8 L50.61,35.04 C51.03,34.4 51.91,33.76 52.85,33.76 C53.99,33.76 54.45,34.46 54.45,35.5 L54.45,41.8 L56.55,41.8 Z M67.89,41.8 L67.89,32.14 L65.79,32.14 L65.79,38.92 C65.31,39.56 64.39,40.18 63.33,40.18 C62.13,40.18 61.37,39.7 61.37,38.2 L61.37,32.14 L59.27,32.14 L59.27,38.98 C59.27,40.94 60.31,42.04 62.39,42.04 C63.91,42.04 65.11,41.28 65.79,40.52 L65.79,41.8 L67.89,41.8 Z M79.25,41.8 L79.25,35 C79.25,33.02 78.21,31.9 76.13,31.9 C74.61,31.9 73.35,32.68 72.71,33.44 L72.71,32.14 L70.61,32.14 L70.61,41.8 L72.71,41.8 L72.71,35.04 C73.21,34.4 74.13,33.76 75.19,33.76 C76.37,33.76 77.15,34.24 77.15,35.76 L77.15,41.8 L79.25,41.8 Z M83.03,30.96 C83.75,30.96 84.33,30.38 84.33,29.66 C84.33,28.94 83.75,28.36 83.03,28.36 C82.31,28.36 81.73,28.94 81.73,29.66 C81.73,30.38 82.31,30.96 83.03,30.96 L83.03,30.96 Z M84.07,41.8 L84.07,32.14 L81.97,32.14 L81.97,41.8 L84.07,41.8 Z M91.19,42.04 C93.09,42.04 94.21,41.22 94.89,40.32 L93.51,39.02 C92.97,39.78 92.23,40.18 91.29,40.18 C89.55,40.18 88.37,38.84 88.37,36.96 C88.37,35.08 89.55,33.76 91.29,33.76 C92.23,33.76 92.97,34.12 93.51,34.88 L94.89,33.62 C94.21,32.7 93.09,31.9 91.19,31.9 C88.27,31.9 86.21,34.04 86.21,36.96 C86.21,39.88 88.27,42.04 91.19,42.04 L91.19,42.04 Z M104.77,41.8 L104.77,35.38 C104.77,32.8 102.89,31.9 100.73,31.9 C99.19,31.9 97.79,32.38 96.67,33.46 L97.55,34.92 C98.37,34.08 99.33,33.68 100.41,33.68 C101.73,33.68 102.67,34.36 102.67,35.48 L102.67,36.92 C101.95,36.1 100.85,35.68 99.53,35.68 C97.95,35.68 96.19,36.6 96.19,38.84 C96.19,40.96 97.97,42.04 99.53,42.04 C100.81,42.04 101.95,41.58 102.67,40.74 L102.67,41.8 L104.77,41.8 Z M100.37,40.6 C99.19,40.6 98.29,39.92 98.29,38.86 C98.29,37.82 99.19,37.12 100.37,37.12 C101.27,37.12 102.17,37.46 102.67,38.12 L102.67,39.6 C102.17,40.26 101.27,40.6 100.37,40.6 L100.37,40.6 Z M110.41,42.04 C111.37,42.04 111.99,41.76 112.37,41.42 L111.87,39.82 C111.71,40 111.35,40.18 110.95,40.18 C110.35,40.18 110.03,39.68 110.03,39.02 L110.03,33.96 L111.99,33.96 L111.99,32.14 L110.03,32.14 L110.03,29.5 L107.93,29.5 L107.93,32.14 L106.33,32.14 L106.33,33.96 L107.93,33.96 L107.93,39.54 C107.93,41.16 108.77,42.04 110.41,42.04 L110.41,42.04 Z M114.93,30.96 C115.65,30.96 116.23,30.38 116.23,29.66 C116.23,28.94 115.65,28.36 114.93,28.36 C114.21,28.36 113.63,28.94 113.63,29.66 C113.63,30.38 114.21,30.96 114.93,30.96 L114.93,30.96 Z M115.97,41.8 L115.97,32.14 L113.87,32.14 L113.87,41.8 L115.97,41.8 Z M123.07,42.04 C126.15,42.04 128.03,39.72 128.03,36.96 C128.03,34.18 126.15,31.9 123.07,31.9 C119.99,31.9 118.11,34.18 118.11,36.96 C118.11,39.72 119.99,42.04 123.07,42.04 L123.07,42.04 Z M123.07,40.18 C121.29,40.18 120.29,38.68 120.29,36.96 C120.29,35.26 121.29,33.76 123.07,33.76 C124.87,33.76 125.85,35.26 125.85,36.96 C125.85,38.68 124.87,40.18 123.07,40.18 L123.07,40.18 Z M138.81,41.8 L138.81,35 C138.81,33.02 137.77,31.9 135.69,31.9 C134.17,31.9 132.91,32.68 132.27,33.44 L132.27,32.14 L130.17,32.14 L130.17,41.8 L132.27,41.8 L132.27,35.04 C132.77,34.4 133.69,33.76 134.75,33.76 C135.93,33.76 136.71,34.24 136.71,35.76 L136.71,41.8 L138.81,41.8 Z" id="Communication"></path>
                                    </g>
                                </g>
                                <g id="cohésion" transform="translate(268.600000, 7.200000)">
                                    <g id="Page-1">
                                        <g id="path-7-link" transform="translate(1.000000, 1.000000)" fill="#07698D">
                                            <path d="M39.7924676,196.1583 C39.7924676,196.1583 -8.28935124,90.8397241 2.17935681,46.8585354 C12,5.6 60.2110134,-24.5456999 91.3761623,29.2393085 C122.541311,83.0243169 50.5390706,217.486838 50.5390706,217.486838 L39.7924676,196.1583 L39.7924676,196.1583 Z" id="path-7"></path>
                                        </g>
                                        <g id="Clipped">
                                            <mask id="mask-14" fill="white">
                                                <use xlink:href="#path-13"></use>
                                            </mask>
                                            <g id="Rectangle-path"></g>
                                            <g id="path-7-link" mask="url(#mask-14)" stroke="#07698D" stroke-width="1.6">
                                                <g transform="translate(1.000000, 1.000000)" id="path-7">
                                                    <path d="M39.7924676,196.1583 C39.7924676,196.1583 -8.28935124,90.8397241 2.17935681,46.8585354 C12,5.6 60.2110134,-24.5456999 91.3761623,29.2393085 C122.541311,83.0243169 50.5390706,217.486838 50.5390706,217.486838 L39.7924676,196.1583 L39.7924676,196.1583 Z"></path>
                                                </g>
                                            </g>
                                            <mask id="mask-16" fill="white">
                                                <use xlink:href="#path-15"></use>
                                            </mask>
                                            <g id="path-7"></g>
                                        </g>
                                    </g>
                                    <g id="Cohesion" transform="translate(21.000000, 52.000000)" fill="#FFFFFF">
                                        <path d="M5.836,10.368 C7.712,10.368 8.874,9.374 9.588,8.254 L8.188,7.554 C7.74,8.324 6.83,8.912 5.836,8.912 C3.988,8.912 2.616,7.484 2.616,5.538 C2.616,3.564 3.988,2.164 5.836,2.164 C6.83,2.164 7.74,2.738 8.188,3.522 L9.574,2.794 C8.888,1.674 7.712,0.708 5.836,0.708 C3.078,0.708 0.936,2.654 0.936,5.538 C0.936,8.408 3.078,10.368 5.836,10.368 L5.836,10.368 Z M13.914,10.368 C16.07,10.368 17.386,8.744 17.386,6.812 C17.386,4.866 16.07,3.27 13.914,3.27 C11.758,3.27 10.442,4.866 10.442,6.812 C10.442,8.744 11.758,10.368 13.914,10.368 L13.914,10.368 Z M13.914,9.066 C12.668,9.066 11.968,8.016 11.968,6.812 C11.968,5.622 12.668,4.572 13.914,4.572 C15.174,4.572 15.86,5.622 15.86,6.812 C15.86,8.016 15.174,9.066 13.914,9.066 L13.914,9.066 Z M24.932,10.2 L24.932,5.412 C24.932,4.026 24.204,3.27 22.748,3.27 C21.684,3.27 20.816,3.816 20.368,4.348 L20.368,0.862 L18.898,0.862 L18.898,10.2 L20.368,10.2 L20.368,5.468 C20.704,5.02 21.348,4.572 22.104,4.572 C22.93,4.572 23.462,4.88 23.462,5.944 L23.462,10.2 L24.932,10.2 Z M29.972,10.368 C31.036,10.368 32.03,10.018 32.716,9.374 L32.044,8.408 C31.554,8.898 30.784,9.164 30.112,9.164 C28.838,9.164 28.082,8.31 27.97,7.302 L33.178,7.302 L33.178,6.938 C33.178,4.81 31.89,3.27 29.86,3.27 C27.858,3.27 26.43,4.852 26.43,6.812 C26.43,8.954 27.928,10.368 29.972,10.368 L29.972,10.368 Z M31.764,6.252 L27.956,6.252 C28.012,5.44 28.6,4.474 29.846,4.474 C31.176,4.474 31.722,5.454 31.764,6.252 L31.764,6.252 Z M36.958,10.368 C38.778,10.368 39.772,9.458 39.772,8.254 C39.772,5.566 35.684,6.462 35.684,5.272 C35.684,4.796 36.16,4.432 36.93,4.432 C37.784,4.432 38.526,4.796 38.932,5.244 L39.548,4.208 C38.946,3.676 38.078,3.27 36.93,3.27 C35.222,3.27 34.27,4.208 34.27,5.314 C34.27,7.918 38.358,6.966 38.358,8.296 C38.358,8.828 37.896,9.192 37.014,9.192 C36.146,9.192 35.208,8.744 34.732,8.254 L34.06,9.304 C34.76,9.99 35.796,10.368 36.958,10.368 L36.958,10.368 Z M41.984,2.612 C42.488,2.612 42.894,2.206 42.894,1.702 C42.894,1.198 42.488,0.792 41.984,0.792 C41.48,0.792 41.074,1.198 41.074,1.702 C41.074,2.206 41.48,2.612 41.984,2.612 L41.984,2.612 Z M42.712,10.2 L42.712,3.438 L41.242,3.438 L41.242,10.2 L42.712,10.2 Z M47.682,10.368 C49.838,10.368 51.154,8.744 51.154,6.812 C51.154,4.866 49.838,3.27 47.682,3.27 C45.526,3.27 44.21,4.866 44.21,6.812 C44.21,8.744 45.526,10.368 47.682,10.368 L47.682,10.368 Z M47.682,9.066 C46.436,9.066 45.736,8.016 45.736,6.812 C45.736,5.622 46.436,4.572 47.682,4.572 C48.942,4.572 49.628,5.622 49.628,6.812 C49.628,8.016 48.942,9.066 47.682,9.066 L47.682,9.066 Z M58.7,10.2 L58.7,5.44 C58.7,4.054 57.972,3.27 56.516,3.27 C55.452,3.27 54.57,3.816 54.122,4.348 L54.122,3.438 L52.652,3.438 L52.652,10.2 L54.122,10.2 L54.122,5.468 C54.472,5.02 55.116,4.572 55.858,4.572 C56.684,4.572 57.23,4.908 57.23,5.972 L57.23,10.2 L58.7,10.2 Z"></path>
                                    </g>
                                </g>
                                <g id="teletravail" transform="translate(47.800000, 211.200000)">
                                    <g id="Fill-1">
                                        <g id="path-9-link" transform="translate(1.000000, 1.000000)" fill="#07698D">
                                            <path d="M34.3800885,76 C-17.6331256,76 -4.842991,17.0786517 34.3800885,5.97752809 C73.603168,-5.12359551 139.259192,-3.41573034 161.428759,34.1573034 C184.707541,73.6102383 216,76 216,76 L34.3800885,76 L34.3800885,76 Z" id="path-9"></path>
                                        </g>
                                        <g id="Clipped">
                                            <mask id="mask-18" fill="white">
                                                <use xlink:href="#path-17"></use>
                                            </mask>
                                            <g id="Rectangle-path"></g>
                                            <g id="path-9-link" mask="url(#mask-18)" stroke="#07698D" stroke-width="1.70535128">
                                                <g transform="translate(1.000000, 1.000000)" id="path-9">
                                                    <path d="M34.3800885,76 C-17.6331256,76 -4.842991,17.0786517 34.3800885,5.97752809 C73.603168,-5.12359551 139.259192,-3.41573034 161.428759,34.1573034 C184.707541,73.6102383 216,76 216,76 L34.3800885,76 L34.3800885,76 Z"></path>
                                                </g>
                                            </g>
                                            <mask id="mask-20" fill="white">
                                                <use xlink:href="#path-19"></use>
                                            </mask>
                                            <g id="path-9"></g>
                                        </g>
                                    </g>
                                    <g id="Remote-work" transform="translate(27.000000, 38.000000)" fill="#FFFFFF">
                                        <path d="M10.75,13.4 L7.47,8.16 C9.09,7.9 10.65,6.6 10.65,4.24 C10.65,1.76 8.91,0.06 6.27,0.06 L0.41,0.06 L0.41,13.4 L2.75,13.4 L2.75,8.42 L5.09,8.42 L8.03,13.4 L10.75,13.4 Z M5.97,6.36 L2.75,6.36 L2.75,2.12 L5.97,2.12 C7.29,2.12 8.25,2.94 8.25,4.22 C8.25,5.52 7.29,6.36 5.97,6.36 L5.97,6.36 Z M16.81,13.64 C18.33,13.64 19.75,13.14 20.73,12.22 L19.77,10.84 C19.07,11.54 17.97,11.92 17.01,11.92 C15.19,11.92 14.11,10.7 13.95,9.26 L21.39,9.26 L21.39,8.74 C21.39,5.7 19.55,3.5 16.65,3.5 C13.79,3.5 11.75,5.76 11.75,8.56 C11.75,11.62 13.89,13.64 16.81,13.64 L16.81,13.64 Z M19.37,7.76 L13.93,7.76 C14.01,6.6 14.85,5.22 16.63,5.22 C18.53,5.22 19.31,6.62 19.37,7.76 L19.37,7.76 Z M37.43,13.4 L37.43,6.42 C37.43,4.46 36.41,3.5 34.65,3.5 C33.19,3.5 31.91,4.4 31.37,5.26 C31.05,4.22 30.17,3.5 28.73,3.5 C27.25,3.5 25.99,4.46 25.57,5.04 L25.57,3.74 L23.47,3.74 L23.47,13.4 L25.57,13.4 L25.57,6.64 C26.01,6.02 26.87,5.36 27.81,5.36 C28.95,5.36 29.39,6.06 29.39,7.1 L29.39,13.4 L31.49,13.4 L31.49,6.64 C31.91,6 32.79,5.36 33.73,5.36 C34.87,5.36 35.33,6.06 35.33,7.1 L35.33,13.4 L37.43,13.4 Z M44.53,13.64 C47.61,13.64 49.49,11.32 49.49,8.56 C49.49,5.78 47.61,3.5 44.53,3.5 C41.45,3.5 39.57,5.78 39.57,8.56 C39.57,11.32 41.45,13.64 44.53,13.64 L44.53,13.64 Z M44.53,11.78 C42.75,11.78 41.75,10.28 41.75,8.56 C41.75,6.86 42.75,5.36 44.53,5.36 C46.33,5.36 47.31,6.86 47.31,8.56 C47.31,10.28 46.33,11.78 44.53,11.78 L44.53,11.78 Z M54.55,13.64 C55.51,13.64 56.13,13.36 56.51,13.02 L56.01,11.42 C55.85,11.6 55.49,11.78 55.09,11.78 C54.49,11.78 54.17,11.28 54.17,10.62 L54.17,5.56 L56.13,5.56 L56.13,3.74 L54.17,3.74 L54.17,1.1 L52.07,1.1 L52.07,3.74 L50.47,3.74 L50.47,5.56 L52.07,5.56 L52.07,11.14 C52.07,12.76 52.91,13.64 54.55,13.64 L54.55,13.64 Z M62.49,13.64 C64.01,13.64 65.43,13.14 66.41,12.22 L65.45,10.84 C64.75,11.54 63.65,11.92 62.69,11.92 C60.87,11.92 59.79,10.7 59.63,9.26 L67.07,9.26 L67.07,8.74 C67.07,5.7 65.23,3.5 62.33,3.5 C59.47,3.5 57.43,5.76 57.43,8.56 C57.43,11.62 59.57,13.64 62.49,13.64 L62.49,13.64 Z M65.05,7.76 L59.61,7.76 C59.69,6.6 60.53,5.22 62.31,5.22 C64.21,5.22 64.99,6.62 65.05,7.76 L65.05,7.76 Z M84.95,13.4 L87.95,3.74 L85.75,3.74 L83.71,10.76 L81.43,3.74 L79.57,3.74 L77.27,10.76 L75.23,3.74 L73.05,3.74 L76.05,13.4 L78.25,13.4 L80.49,6.32 L82.75,13.4 L84.95,13.4 Z M93.79,13.64 C96.87,13.64 98.75,11.32 98.75,8.56 C98.75,5.78 96.87,3.5 93.79,3.5 C90.71,3.5 88.83,5.78 88.83,8.56 C88.83,11.32 90.71,13.64 93.79,13.64 L93.79,13.64 Z M93.79,11.78 C92.01,11.78 91.01,10.28 91.01,8.56 C91.01,6.86 92.01,5.36 93.79,5.36 C95.59,5.36 96.57,6.86 96.57,8.56 C96.57,10.28 95.59,11.78 93.79,11.78 L93.79,11.78 Z M102.99,13.4 L102.99,6.82 C103.41,6.12 104.59,5.52 105.49,5.52 C105.75,5.52 105.95,5.54 106.13,5.58 L106.13,3.5 C104.89,3.5 103.73,4.22 102.99,5.14 L102.99,3.74 L100.89,3.74 L100.89,13.4 L102.99,13.4 Z M116.87,13.4 L112.79,8.12 L116.79,3.74 L114.19,3.74 L109.93,8.4 L109.93,0.06 L107.83,0.06 L107.83,13.4 L109.93,13.4 L109.93,10.8 L111.29,9.4 L114.23,13.4 L116.87,13.4 Z"></path>
                                    </g>
                                </g>
                                <g id="engagement" transform="translate(0.000000, 0.200000)">
                                    <path d="M172.910457,199.337885 C31.4209147,182.675769 30.7879366,169.543614 10.1787838,141.83936 C-15.5043425,107.314208 2.28167302,-40.5971152 164.231435,11.6540211 C299.2,55.2 281.6,284.8 281.6,284.8 C269.384195,295.858243 314.4,216 172.910457,199.337885 L172.910457,199.337885 Z" id="Fill-1" fill="#07698D"></path>
                                    <g id="Commitment" transform="translate(58.000000, 90.000000)" fill="#FFFFFF">
                                        <path d="M9.064,17.488 C12.28,17.488 14.272,15.784 15.496,13.864 L13.096,12.664 C12.328,13.984 10.768,14.992 9.064,14.992 C5.896,14.992 3.544,12.544 3.544,9.208 C3.544,5.824 5.896,3.424 9.064,3.424 C10.768,3.424 12.328,4.408 13.096,5.752 L15.472,4.504 C14.296,2.584 12.28,0.928 9.064,0.928 C4.336,0.928 0.664,4.264 0.664,9.208 C0.664,14.128 4.336,17.488 9.064,17.488 L9.064,17.488 Z M22.912,17.488 C26.608,17.488 28.864,14.704 28.864,11.392 C28.864,8.056 26.608,5.32 22.912,5.32 C19.216,5.32 16.96,8.056 16.96,11.392 C16.96,14.704 19.216,17.488 22.912,17.488 L22.912,17.488 Z M22.912,15.256 C20.776,15.256 19.576,13.456 19.576,11.392 C19.576,9.352 20.776,7.552 22.912,7.552 C25.072,7.552 26.248,9.352 26.248,11.392 C26.248,13.456 25.072,15.256 22.912,15.256 L22.912,15.256 Z M48.184,17.2 L48.184,8.824 C48.184,6.472 46.96,5.32 44.848,5.32 C43.096,5.32 41.56,6.4 40.912,7.432 C40.528,6.184 39.472,5.32 37.744,5.32 C35.968,5.32 34.456,6.472 33.952,7.168 L33.952,5.608 L31.432,5.608 L31.432,17.2 L33.952,17.2 L33.952,9.088 C34.48,8.344 35.512,7.552 36.64,7.552 C38.008,7.552 38.536,8.392 38.536,9.64 L38.536,17.2 L41.056,17.2 L41.056,9.088 C41.56,8.32 42.616,7.552 43.744,7.552 C45.112,7.552 45.664,8.392 45.664,9.64 L45.664,17.2 L48.184,17.2 Z M68.2,17.2 L68.2,8.824 C68.2,6.472 66.976,5.32 64.864,5.32 C63.112,5.32 61.576,6.4 60.928,7.432 C60.544,6.184 59.488,5.32 57.76,5.32 C55.984,5.32 54.472,6.472 53.968,7.168 L53.968,5.608 L51.448,5.608 L51.448,17.2 L53.968,17.2 L53.968,9.088 C54.496,8.344 55.528,7.552 56.656,7.552 C58.024,7.552 58.552,8.392 58.552,9.64 L58.552,17.2 L61.072,17.2 L61.072,9.088 C61.576,8.32 62.632,7.552 63.76,7.552 C65.128,7.552 65.68,8.392 65.68,9.64 L65.68,17.2 L68.2,17.2 Z M72.736,4.192 C73.6,4.192 74.296,3.496 74.296,2.632 C74.296,1.768 73.6,1.072 72.736,1.072 C71.872,1.072 71.176,1.768 71.176,2.632 C71.176,3.496 71.872,4.192 72.736,4.192 L72.736,4.192 Z M73.984,17.2 L73.984,5.608 L71.464,5.608 L71.464,17.2 L73.984,17.2 Z M80.752,17.488 C81.904,17.488 82.648,17.152 83.104,16.744 L82.504,14.824 C82.312,15.04 81.88,15.256 81.4,15.256 C80.68,15.256 80.296,14.656 80.296,13.864 L80.296,7.792 L82.648,7.792 L82.648,5.608 L80.296,5.608 L80.296,2.44 L77.776,2.44 L77.776,5.608 L75.856,5.608 L75.856,7.792 L77.776,7.792 L77.776,14.488 C77.776,16.432 78.784,17.488 80.752,17.488 L80.752,17.488 Z M101.656,17.2 L101.656,8.824 C101.656,6.472 100.432,5.32 98.32,5.32 C96.568,5.32 95.032,6.4 94.384,7.432 C94,6.184 92.944,5.32 91.216,5.32 C89.44,5.32 87.928,6.472 87.424,7.168 L87.424,5.608 L84.904,5.608 L84.904,17.2 L87.424,17.2 L87.424,9.088 C87.952,8.344 88.984,7.552 90.112,7.552 C91.48,7.552 92.008,8.392 92.008,9.64 L92.008,17.2 L94.528,17.2 L94.528,9.088 C95.032,8.32 96.088,7.552 97.216,7.552 C98.584,7.552 99.136,8.392 99.136,9.64 L99.136,17.2 L101.656,17.2 Z M110.296,17.488 C112.12,17.488 113.824,16.888 115,15.784 L113.848,14.128 C113.008,14.968 111.688,15.424 110.536,15.424 C108.352,15.424 107.056,13.96 106.864,12.232 L115.792,12.232 L115.792,11.608 C115.792,7.96 113.584,5.32 110.104,5.32 C106.672,5.32 104.224,8.032 104.224,11.392 C104.224,15.064 106.792,17.488 110.296,17.488 L110.296,17.488 Z M113.368,10.432 L106.84,10.432 C106.936,9.04 107.944,7.384 110.08,7.384 C112.36,7.384 113.296,9.064 113.368,10.432 L113.368,10.432 Z M128.656,17.2 L128.656,9.04 C128.656,6.664 127.408,5.32 124.912,5.32 C123.088,5.32 121.576,6.256 120.808,7.168 L120.808,5.608 L118.288,5.608 L118.288,17.2 L120.808,17.2 L120.808,9.088 C121.408,8.32 122.512,7.552 123.784,7.552 C125.2,7.552 126.136,8.128 126.136,9.952 L126.136,17.2 L128.656,17.2 Z M135.424,17.488 C136.576,17.488 137.32,17.152 137.776,16.744 L137.176,14.824 C136.984,15.04 136.552,15.256 136.072,15.256 C135.352,15.256 134.968,14.656 134.968,13.864 L134.968,7.792 L137.32,7.792 L137.32,5.608 L134.968,5.608 L134.968,2.44 L132.448,2.44 L132.448,5.608 L130.528,5.608 L130.528,7.792 L132.448,7.792 L132.448,14.488 C132.448,16.432 133.456,17.488 135.424,17.488 L135.424,17.488 Z"></path>
                                    </g>
                                </g>
                            </g>
                        </g>
                    </g>
                </g>
            </g>
        </g>
    </g>
</svg>