<?xml version="1.0" encoding="UTF-8"?>
<svg width="130px" height="130px" viewBox="0 0 130 130" version="1.1" xmlns="http://www.w3.org/2000/svg" xmlns:xlink="http://www.w3.org/1999/xlink">
    <!-- Generator: Sketch 40.3 (33839) - http://www.bohemiancoding.com/sketch -->
    <title>picto mountain</title>
    <desc>Created with Sketch.</desc>
    <defs>
        <path d="M0.167916667,0.160333333 C0.167917438,0.16033314 0.172250675,0.15925 0.179833333,0.15925 C0.187416667,0.15925 0.200416667,0.161416667 0.213416667,0.170083333 L0.167916667,0.160333333 L0.167916667,0.15925 L1.25125,0.15925 L1.25125,1.24258333 L0.167916667,1.24258333 L0.167916667,0.160333333 L0.167916667,0.160333333 Z" id="path-1"></path>
    </defs>
    <g id="Voeux-2016" stroke="none" stroke-width="1" fill="none" fill-rule="evenodd">
        <g id="Voeux_2016_wisembly_EN" transform="translate(-575.000000, -5572.000000)">
            <g id="4-/-MOT-DE-LA-TEAM" transform="translate(-2.000000, 4608.000000)">
                <g id="picto-mountain" transform="translate(577.000000, 964.000000)">
                    <g id="Group-10">
                        <path d="M130,64.7635083 C130,100.531925 100.8995,129.527342 65,129.527342 C29.1005,129.527342 0,100.531925 0,64.7635083 C0,28.9950917 29.1005,-0.000325 65,-0.000325 C100.8995,-0.000325 130,28.9950917 130,64.7635083" id="Fill-1" fill="#FFFFFF"></path>
                        <path d="M101.513967,86.6177 L100.932217,86.0738667 L92.8397167,78.5078667 L89.8887167,75.7497 L90.5571333,75.4290333 L65.2851333,50.0627833 L65.29055,50.0302833 L65.27105,50.0487 L65.22555,50.0032 L65.1323833,50.1776167 L35.9387167,77.4158667 C35.9387167,77.4158667 36.3113833,77.5588667 36.9234667,77.7397833 L10.9234667,100.922033 C19.6843833,114.058533 33.4524667,124.300367 50.1358,128.23395 L50.12605,128.2827 C54.89705,129.3942 59.86305,129.999783 64.9731333,129.999783 C87.03955,129.999783 106.524383,119.035367 118.273133,102.28595 L101.513967,86.6177 Z" id="Fill-4" fill="#2485A7"></path>
                        <path d="M124.062142,85.34045 L104.883892,67.0158667 L92.8393917,78.5252 L100.931892,86.0912 L101.513642,86.6350333 L118.273892,102.303283 C121.503308,97.7002 124.155308,92.66595 126.106392,87.2947833 L124.062142,85.34045 Z" id="Fill-6" fill="#2485A7"></path>
                        <path d="M104.884108,67.0160833 L101.513858,86.63525 L118.273025,102.3035 C121.503525,97.7004167 124.155525,92.6661667 126.106608,87.2939167 L124.062358,85.3406667 L104.884108,67.0160833 Z" id="Fill-8" fill="#06698D"></path>
                    </g>
                    <g id="Group-13" transform="translate(63.916667, 52.000000)">
                        <mask id="mask-2" fill="white">
                            <use xlink:href="#path-1"></use>
                        </mask>
                        <g id="Clip-12"></g>
                        <path d="M0.167916667,0.160333333 L0.213416667,0.170083333 C0.200416667,0.161416667 0.187416667,0.15925 0.179833333,0.15925 L0.179833333,0.15925 C0.17225,0.15925 0.167916667,0.160333333 0.167916667,0.160333333" id="Fill-11" mask="url(#mask-2)"></path>
                    </g>
                    <g id="Group-30" transform="translate(10.833333, 15.166667)">
                        <polygon id="Fill-14" fill="#2485A7" points="90.6806333 71.4685833 94.0508833 51.8494167 82.0063833 63.35875 90.0988833 70.92475"></polygon>
                        <path d="M90.098775,70.9072 L82.006275,63.3412 L77.9221083,59.5235333 L75.675275,61.6057 C75.675275,61.6057 70.6854417,64.2533667 67.2881083,61.47895 C65.194025,59.7705333 59.1793583,54.1837833 50.8723583,55.0482833 L39.2926083,113.116033 C44.0636083,114.227533 49.0296083,114.833117 54.1396917,114.833117 C76.2061083,114.833117 95.6909417,103.8687 107.439692,87.1192833 L90.680525,71.4510333 L90.098775,70.9072 Z" id="Fill-16" fill="#0E5D7D"></path>
                        <path d="M53.443975,37.604125 C53.4461417,37.6442083 53.4483083,37.6832083 53.4483083,37.7287083" id="Fill-18" fill="#58CAEC"></path>
                        <path d="M50.8077917,55.7035917 C58.9154583,55.2453417 65.128375,60.3998417 67.2235417,62.1082583 C70.620875,64.882675 75.609625,62.2350083 75.609625,62.2350083 L79.724125,60.2622583 L54.3925417,34.836425 L53.2322917,37.0030917 C53.2387917,37.007425 53.2452917,37.0117583 53.2517917,37.0182583" id="Fill-20" fill="#47B388"></path>
                        <path d="M51.0008417,54.9598833 L40.7373417,113.41005 C23.4040083,109.739717 9.102925,99.2682167 0.090675,85.7547167 L28.1750083,60.7134667 L29.727425,60.1111333 C29.727425,60.1111333 44.8908417,50.07405 49.7972583,54.8439667" id="Fill-22" fill="#2485A7"></path>
                        <path d="M54.4574333,34.8631833 L25.1056,62.2487667 C25.1056,62.2487667 30.6316833,64.4056833 34.5815167,62.4892667 C36.8261833,61.4016 39.68835,56.2915167 50.8705167,55.7011 L54.4574333,34.8631833 Z" id="Fill-24" fill="#52C699"></path>
                        <path d="M35.1522167,8.057075 L44.0073833,48.171825" id="Stroke-26" stroke="#006B84" stroke-width="2.09083333"></path>
                        <path d="M33.4916833,5.79030833 C35.6074333,4.934475 37.6159333,5.486975 47.6909333,7.45539167 C57.7670167,9.42489167 61.2315167,2.334475 63.2172667,0.881725 L66.8106833,17.1620583 C64.8249333,18.6158917 61.3615167,25.7063083 51.2854333,23.7368083 C41.20935,21.7683917 39.2019333,21.2148083 37.0851,22.071725 L33.4916833,5.79030833 Z" id="Fill-28" fill="#F1BB33"></path>
                    </g>
                </g>
            </g>
        </g>
    </g>
</svg>