<?xml version="1.0" encoding="UTF-8"?>
<svg width="266px" height="141px" viewBox="0 0 266 141" version="1.1" xmlns="http://www.w3.org/2000/svg" xmlns:xlink="http://www.w3.org/1999/xlink">
    <!-- Generator: Sketch 40.3 (33839) - http://www.bohemiancoding.com/sketch -->
    <title>Group 6</title>
    <desc>Created with Sketch.</desc>
    <defs></defs>
    <g id="Voeux-2016" stroke="none" stroke-width="1" fill="none" fill-rule="evenodd">
        <g id="Voeux_2016_wisembly_EN" transform="translate(-713.000000, -641.000000)">
            <g id="1/-EN-BREF" transform="translate(-1.000000, 398.000000)">
                <g id="participants-connected" transform="translate(707.000000, 243.000000)">
                    <g id="Group-6" transform="translate(10.000000, 0.000000)">
                        <g id="people" transform="translate(41.000000, 0.000000)">
                            <polygon id="Fill-1" fill="#10526D" points="127.091512 81.4797165 137.850698 81.4797165 137.850698 40.1852011 127.091512 40.1852011"></polygon>
                            <path d="M110.082244,2.34095655 C110.082244,2.34095655 103.178407,4.24174218 99.0101512,3.45758969 L98.9860814,3.45340755 C96.0255,1.59130678 92.5228256,0.510221884 88.7658488,0.510221884 C78.1531744,0.510221884 69.5498023,9.10557867 69.5498023,19.7083658 C69.5498023,30.311153 78.1531744,38.9065097 88.7658488,38.9065097 C99.3785233,38.9065097 107.981895,30.311153 107.981895,19.7083658 C107.981895,18.0658277 107.774686,16.4713844 107.38643,14.9501285 C110.073872,10.5442371 110.082244,2.34095655 110.082244,2.34095655 Z" id="Fill-2" fill="#AF7954"></path>
                            <path d="M97.5114419,28.2276075 L97.5114419,58.8649679 C97.5114419,60.3475389 98.3580698,61.7035999 99.7677209,62.163636 L116.548535,72.5290864 C120.777488,73.9112858 113.898767,74.5208337 113.898767,78.9664555 L122.591093,84.7085428 L53.7934186,82.9081287 L52.6799302,78.9664555 C52.6799302,74.5208337 55.5400465,70.5791605 59.769,69.1969611 L77.6371395,62.1218146 C79.0457442,61.6607329 79.9991163,60.3475389 79.9991163,58.8649679 L79.9991163,28.2276075 L97.5114419,28.2276075 Z" id="Fill-4" fill="#F0DBCB"></path>
                            <path d="M72.0120349,30.2164273 L72.0120349,36.5314687 C72.0120349,45.8001511 79.1869186,53.5705794 88.4631977,53.5705794 L89.0680814,53.5705794 C98.3443605,53.5705794 105.127849,45.8001511 105.127849,36.5314687 L105.127849,30.2164273 L106.038314,30.2164273 C107.643663,30.2164273 108.374128,29.0893388 108.374128,27.4854856 L108.374128,24.4136989 C108.374128,22.8108913 107.643663,21.7831287 106.038314,21.7831287 L105.127849,21.7831287 L105.127849,16.6087679 C100.951221,19.9680771 93.2855233,18.7280707 88.6913372,17.3845561 C84.0961047,16.0410415 72.6608721,18.1331603 72.0120349,26.8665279" id="Fill-6" fill="#F0DBCB"></path>
                            <path d="M117.372035,69.1969611 L99.6891279,62.1218146 C99.3636628,62.0151698 99.1575,61.8593849 98.8864535,61.6701428 C97.1126163,64.630057 93.2499419,66.6876731 88.7091279,66.6876731 C84.168314,66.6876731 80.2826163,64.630057 78.5087791,61.6701428 C78.2377326,61.8593849 77.9509884,62.0151698 77.6255233,62.1218146 L59.2079651,69.1969611 C54.9800581,70.5791605 52.5322674,74.5208337 51.8834302,78.9664555 L51.8834302,84.7085428 L124.60657,84.7085428 L124.60657,78.9664555 C123.957733,74.0534788 123.030523,71.0465154 117.372035,69.1969611" id="Fill-8" fill="#10526D"></path>
                            <path d="M91.8576628,43.7158738 C91.8576628,45.7149398 90.2355698,47.3365672 88.233593,47.3365672 C86.2326628,47.3365672 84.6105698,45.7149398 84.6105698,43.7158738 C84.6105698,41.7168077 86.2326628,40.0951804 88.233593,40.0951804 C90.2355698,40.0951804 91.8576628,41.7168077 91.8576628,43.7158738" id="Fill-10" fill="#FFFFFF"></path>
                            <path d="M128.723651,30.6825276 L128.723651,30.6825276 C127.860279,30.6825276 127.152837,29.9767903 127.152837,29.1131771 L127.152837,19.739941 C127.152837,18.8763277 127.860279,18.1705905 128.723651,18.1705905 C129.587023,18.1705905 130.294465,18.8763277 130.294465,19.739941 L130.294465,29.1131771 C130.294465,29.9767903 129.587023,30.6825276 128.723651,30.6825276" id="Fill-12" fill="#F0DBCC"></path>
                            <path d="M134.84543,37.4880302 L130.111012,37.4880302 C128.450198,37.4880302 127.091826,36.1298781 127.091826,34.4706114 L127.091826,29.0076824 C127.091826,27.3484158 128.450198,25.9913092 130.111012,25.9913092 L134.84543,25.9913092 C136.506244,25.9913092 137.865663,27.3484158 137.865663,29.0076824 L137.865663,34.4706114 C137.865663,36.1298781 136.506244,37.4880302 134.84543,37.4880302" id="Fill-14" fill="#F0DBCC"></path>
                            <path d="M134.831198,84.7085428 L125.348756,84.7085428 C123.687942,84.7085428 122.32957,83.3503907 122.32957,81.691124 L122.32957,77.7348133 C122.32957,76.0755467 123.687942,74.7184401 125.348756,74.7184401 L134.831198,74.7184401 C136.492012,74.7184401 137.85143,76.0755467 137.85143,77.7348133 L137.85143,81.691124 C137.85143,83.3503907 136.492012,84.7085428 134.831198,84.7085428" id="Fill-16" fill="#10526D"></path>
                            <path d="M118.820512,69.7419993 C118.820512,69.7419993 127.09214,73.4724741 127.09214,71.0531023 C127.09214,67.7105216 128.723651,76.1093175 128.723651,76.1093175 L118.004233,78.1042014 L118.820512,69.7419993 Z" id="Fill-18" fill="#10526D"></path>
                            <path d="M150.419407,46.866703 C150.419407,50.2772436 147.65243,53.0416425 144.238709,53.0416425 C140.826035,53.0416425 138.059058,50.2772436 138.059058,46.866703 C138.059058,43.4561625 140.826035,40.6917636 144.238709,40.6917636 C147.65243,40.6917636 150.419407,43.4561625 150.419407,46.866703" id="Fill-20" fill="#D5A82D"></path>
                            <path d="M166.169198,68.2277486 C166.169198,80.3277442 156.350826,90.1369691 144.239547,90.1369691 C132.127221,90.1369691 122.308849,80.3277442 122.308849,68.2277486 C122.308849,56.127753 132.127221,46.3185281 144.239547,46.3185281 C156.350826,46.3185281 166.169198,56.127753 166.169198,68.2277486" id="Fill-22" fill="#F1BC33"></path>
                            <path d="M161.175453,76.9605935 L161.175453,76.9605935 C162.776616,76.9605935 164.085802,75.6515816 164.085802,74.052956 L164.085802,71.1442731 C164.085802,69.5456476 162.776616,68.2366357 161.175453,68.2366357 C159.574291,68.2366357 158.265105,69.5456476 158.265105,71.1442731 L158.265105,74.052956 C158.265105,75.6515816 159.574291,76.9605935 161.175453,76.9605935" id="Fill-24" fill="#FDE5DC"></path>
                            <path d="M127.420535,76.9605935 L127.420535,76.9605935 C125.819372,76.9605935 124.510186,75.6515816 124.510186,74.052956 L124.510186,71.1442731 C124.510186,69.5456476 125.819372,68.2366357 127.420535,68.2366357 C129.021698,68.2366357 130.330884,69.5456476 130.330884,71.1442731 L130.330884,74.052956 C130.330884,75.6515816 129.021698,76.9605935 127.420535,76.9605935" id="Fill-26" fill="#FDE5DC"></path>
                            <path d="M156.147174,108.427064 L155.015895,108.050671 C153.6345,107.598999 152.521012,106.310898 152.521012,104.858648 L152.521012,74.2421982 L136.24357,74.2421982 L136.24357,104.858648 C136.24357,106.310898 135.045314,107.598999 133.663919,108.050671 L132.580779,108.427064 C135.273453,110.091559 139.511826,111.169507 144.363453,111.169507 C149.216128,111.169507 153.4545,110.091559 156.147174,108.427064" id="Fill-28" fill="#FDE5DC"></path>
                            <path d="M144.298047,99.484694 L144.298047,99.484694 C135.043744,99.484694 127.471186,91.9202364 127.471186,82.6735103 L127.471186,62.668212 L161.005605,62.668212 L161.005605,82.6735103 C161.124907,91.9202364 153.552349,99.484694 144.298047,99.484694" id="Fill-30" fill="#FDE5DC"></path>
                            <path d="M158.112628,72.6923992 C159.444837,72.6923992 160.334372,72.286731 161.636233,72.0232557 L161.636233,61.8825958 L144.019256,61.8825958 C144.104023,66.4359079 150.202047,72.6923992 158.112628,72.6923992" id="Fill-32" fill="#F1BC33"></path>
                            <path d="M126.477105,72.0552492 C127.778965,72.2988592 128.608849,72.691981 129.889779,72.691981 C137.80036,72.691981 143.928733,66.4365352 144.0135,61.8832231 L126.477105,61.8832231 L126.477105,72.0552492 Z" id="Fill-34" fill="#F1BC33"></path>
                            <path d="M139.948535,87.9027618 C139.948535,91.1554263 141.896093,90.3367711 144.297837,90.3367711 C146.700628,90.3367711 148.64714,91.1554263 148.64714,87.9027618 L139.948535,87.9027618 Z" id="Fill-36" fill="#C16202"></path>
                            <path d="M139.951674,87.9027618 C139.951674,87.252438 140.931209,86.5874767 142.218419,86.5874767 C143.139349,86.5874767 143.933651,87.252438 144.311442,87.8567582 C144.690279,87.252438 145.483535,86.4630578 146.405512,86.4630578 C147.691674,86.4630578 148.639814,87.252438 148.639814,87.9027618 L139.951674,87.9027618 Z" id="Fill-38" fill="#D27A19"></path>
                            <path d="M172.813291,114.984357 L160.045849,109.950098 L161.200151,110.417453 C158.375616,112.894329 153.048872,115.552083 146.773988,115.924294 L144.304221,111.169193 L141.83864,115.924294 C135.563756,115.552083 130.248523,112.894329 127.423988,110.417453 L115.86736,114.984357 C111.723174,116.339372 108.897593,120.20263 108.897593,124.559381 L108.897593,135.409961 L179.867826,135.409961 L179.867826,124.559381 C179.867826,120.20263 176.958523,116.339372 172.813291,114.984357" id="Fill-40" fill="#2485A7"></path>
                            <polygon id="Fill-43" fill="#EDEEEF" points="156.147174 108.427064 156.147174 108.427064 159.993105 109.949366"></polygon>
                            <path d="M125.534198,111.121726 L132.500826,108.375101 C135.1935,110.03855 139.445477,111.168775 144.298151,111.168775 L141.15443,117.407492 C134.880593,117.034236 128.358733,113.598602 125.534198,111.121726" id="Fill-45" fill="#0E5D7D"></path>
                            <path d="M163.061791,111.121726 L156.095163,108.375101 C153.402488,110.03855 149.150512,111.168775 144.297837,111.168775 L147.441558,117.407492 C153.715395,117.034236 160.237256,113.598602 163.061791,111.121726" id="Fill-47" fill="#0E5D7D"></path>
                            <path d="M59.0436628,93.7130181 L59.0436628,66.7967226 C59.0436628,50.7780556 48.1798256,37.7924904 34.7781977,37.7924904 C21.3765698,37.7924904 10.5127326,50.7780556 10.5127326,66.7967226 L10.5127326,93.7130181 L59.0436628,93.7130181 Z" id="Fill-49" fill="#E25C5B"></path>
                            <path d="M43.7546512,66.9829327 L43.4783721,96.4618385 C43.4647674,97.8879505 44.3710465,99.1603686 45.7231395,99.6172681 L62.8513953,106.584724 C66.9076744,107.953332 68.8939535,111.771632 68.0243023,116.048922 L68.7003488,121.26615 L0.106744186,121.197144 L0.161162791,115.399644 C0.200930233,111.122353 2.98883721,107.35633 7.07023256,106.064047 L24.3261628,99.416525 C25.6866279,98.9857639 26.6159302,97.7300744 26.6284884,96.305008 L26.9047674,66.8250566 L43.7546512,66.9829327 Z" id="Fill-51" fill="#F0DBCB"></path>
                            <path d="M35.9628488,90.7195421 L35.9628488,90.7195421 C26.4343605,90.7195421 18.7090116,83.0024361 18.7090116,73.4828249 L18.7090116,49.3727498 L51.7494767,49.3727498 L51.7494767,74.9476218 C51.7494767,83.6579876 44.6813372,90.7195421 35.9628488,90.7195421" id="Fill-53" fill="#F0DBCB"></path>
                            <path d="M35.2295581,84.5230646 L35.2295581,84.5230646 C32.4897907,84.5230646 27.7679302,82.3044358 27.7679302,79.5672209 L27.7679302,78.5624602 L42.691186,78.5624602 L42.691186,79.5672209 C42.691186,82.3044358 37.9693256,84.5230646 35.2295581,84.5230646" id="Fill-55" fill="#FFFFFF"></path>
                            <path d="M69.2116744,135.25794 L69.1572558,115.399016 C69.1164419,111.121726 66.2950465,107.355703 62.2136512,106.06342 L48.4174884,100.75523 L47.5687674,100.523121 L34.614,107.662045 L21.6592326,100.523121 L20.8105116,100.75523 L7.01330233,106.06342 C2.93190698,107.355703 0.110511628,111.121726 0.070744186,115.399016 L0.0152790698,135.25794 L69.2116744,135.25794 Z" id="Fill-57" fill="#2F99BA"></path>
                            <path d="M18.7094302,64.4563934 C18.7094302,59.0154206 24.7404767,51.7092106 31.742686,51.7092106 C34.5441977,58.5491113 39.9902442,63.6795596 45.4362907,65.0784877 C49.9969884,66.2494887 51.7498953,67.7205588 51.7498953,69.7415811 C51.7498953,71.7626035 53.5268721,54.1965422 53.5268721,54.1965422 L51.7498953,47.8219053 L18.6591977,48.1334752 L17.2715233,49.5324033 L18.7094302,64.4563934 Z" id="Fill-59" fill="#E25C5B"></path>
                            <polygon id="Fill-61" fill="#FDE5DC" points="0.0156976744 135.25794 11.0553488 135.25794 11.0553488 125.056638 0.0156976744 125.056638"></polygon>
                            <polygon id="Fill-63" fill="#FDE5DC" points="58.1546512 135.25794 69.1943023 135.25794 69.1943023 125.056638 58.1546512 125.056638"></polygon>
                            <path d="M33.6594767,121.265941 L23.6663372,121.265941 C22.5151744,121.265941 21.573314,120.324958 21.573314,119.174867 L21.573314,98.2505426 C21.573314,97.1004522 22.5151744,96.1594693 23.6663372,96.1594693 L33.6594767,96.1594693 C34.8106395,96.1594693 35.7525,97.1004522 35.7525,98.2505426 L35.7525,119.174867 C35.7525,120.324958 34.8106395,121.265941 33.6594767,121.265941" id="Fill-64" fill="#FFFFFF"></path>
                            <path d="M24.6471279,98.4811879 C24.6471279,98.9140401 24.2955,99.2653404 23.8622442,99.2653404 C23.4289884,99.2653404 23.0773605,98.9140401 23.0773605,98.4811879 C23.0773605,98.0483358 23.4289884,97.6970355 23.8622442,97.6970355 C24.2955,97.6970355 24.6471279,98.0483358 24.6471279,98.4811879" id="Fill-65" fill="#708189"></path>
                            <path d="M1.49745349,131.006369 L22.8557093,108.946592 C24.9079186,106.816833 28.3300116,106.75201 30.4617558,108.802308 C32.5935,110.852605 32.6583837,114.27151 30.6072209,116.401268 L9.24896512,138.461046 C7.19675581,140.590804 3.77361628,140.655627 1.64187209,138.606375 L1.64187209,138.606375 C-0.489872093,136.556078 -0.554755814,133.136127 1.49745349,131.006369" id="Fill-66" fill="#F0DBCB"></path>
                        </g>
                        <path d="M0,138 L260,138" id="Line" stroke="#10526D" stroke-width="5" stroke-linecap="square"></path>
                    </g>
                </g>
            </g>
        </g>
    </g>
</svg>