<?xml version="1.0" encoding="UTF-8"?>
<svg width="150px" height="100px" viewBox="0 0 150 100" version="1.1" xmlns="http://www.w3.org/2000/svg" xmlns:xlink="http://www.w3.org/1999/xlink">
    <!-- Generator: Sketch 40.3 (33839) - http://www.bohemiancoding.com/sketch -->
    <title>picto</title>
    <desc>Created with Sketch.</desc>
    <defs></defs>
    <g id="Voeux-2016" stroke="none" stroke-width="1" fill="none" fill-rule="evenodd">
        <g id="Voeux_2016_wisembly_EN" transform="translate(-565.000000, -998.000000)">
            <g id="1/-EN-BREF" transform="translate(-1.000000, 398.000000)">
                <g id="reactions-added" transform="translate(501.000000, 600.000000)">
                    <g id="picto" transform="translate(65.000000, 0.000000)">
                        <circle id="Oval" fill="#FFFFFF" cx="76" cy="50" r="50"></circle>
                        <g id="thumbs-up" transform="translate(0.000000, 17.100000)">
                            <path d="M65.625,32.9 C65.625,51.0700978 50.9342731,65.8 32.8125,65.8 C14.6907269,65.8 0,51.0700978 0,32.9 C0,14.7299022 14.6907269,0 32.8125,0 C50.9342731,0 65.625,14.7299022 65.625,32.9" id="Fill-1" fill="#46B489"></path>
                            <path d="M50.6578947,28.8598095 C50.6578947,27.3297523 49.4160991,26.0891068 47.8846233,26.0891068 L43.2035088,26.0891068 L35.2326109,26.0891068 C36.977193,23.7723691 37.6432405,20.8941294 37.6432405,17.7777203 C37.6432405,16.247663 36.4014448,15.0070175 34.869969,15.0070175 C33.3384933,15.0070175 32.0966976,16.247663 32.0966976,17.7777203 C32.0966976,22.1463224 29.4028896,25.7304094 25.1776058,26.0573509 L24.6314757,26.0573509 C23.74871,26.0573509 23.0263158,26.779076 23.0263158,27.6610241 L23.0263158,44.5717654 C23.0263158,45.4096882 23.6800826,46.0953271 24.5028896,46.1624475 L24.5028896,46.1754386 L24.6293086,46.1754386 L24.6314757,46.1754386 L29.2793602,46.1754386 L29.2815273,46.1754386 L33.3652219,46.1754386 L40.2980392,46.1754386 L41.1237358,46.1754386 L43.7250774,46.1754386 C45.2565531,46.1754386 46.4983488,44.9355148 46.4983488,43.4047359 C46.4983488,42.558874 46.1169247,41.8017844 45.5187822,41.2944116 C46.8566563,41.0966589 47.8846233,39.9483943 47.8846233,38.5569082 C47.8846233,37.7103247 47.5039216,36.9539567 46.9050568,36.4451405 C48.2436533,36.2488313 49.2716202,35.0998449 49.2716202,33.7083589 C49.2716202,32.8617753 48.8901961,32.1054074 48.2913313,31.5973129 C49.6299278,31.4002819 50.6578947,30.2512955 50.6578947,28.8598095" id="Fill-3" fill="#FFFFFF"></path>
                            <path d="M19.1185746,25.3964912 L16.5729372,25.3964912 C15.6894768,25.3964912 14.9671053,26.1004609 14.9671053,26.9607117 L14.9671053,43.4568321 C14.9671053,44.317083 15.6894768,45.0210526 16.5729372,45.0210526 L19.1185746,45.0210526 C20.0013127,45.0210526 20.7236842,44.317083 20.7236842,43.4568321 L20.7236842,26.9607117 C20.7236842,26.1004609 20.0013127,25.3964912 19.1185746,25.3964912" id="Fill-5" fill="#FFFFFF"></path>
                        </g>
                        <g id="excited" transform="translate(84.375000, 17.100000)">
                            <path d="M45.7759947,52.2708767 C42.4474264,56.2456561 37.7708554,58.7657446 32.5842675,58.7643212 L32.5750588,58.7643212 L32.5729338,58.7643212 L32.5729338,58.7636095 L32.5530998,58.7643212 C27.3672202,58.755781 22.6977327,56.2278639 19.3797898,52.2488143 C16.8268722,49.1914011 15.0460634,45.2699983 14.3532906,40.9045019 C14.3504571,40.8881331 14.3433736,40.8738993 14.3412485,40.8568188 C14.3327482,40.8034421 14.3299148,40.7472188 14.3221229,40.6938421 C14.234995,40.1138161 14.1641593,39.5280966 14.1159911,38.9345485 C14.1110326,38.8676498 14.1081991,38.8000394 14.1032406,38.7331407 C14.0579058,38.1061433 14.0302799,37.4734523 14.0295715,36.8329328 L14.0295715,36.8329328 L14.0302799,36.775286 C14.03453,36.0913535 14.5912984,35.5369483 15.2720292,35.5383717 L49.9241316,35.6066938 C50.2506841,35.6074054 50.5694446,35.7404912 50.8003689,35.9732133 C51.0305848,36.2052237 51.1623392,36.5261951 51.1616308,36.8542834 C51.1488804,42.8481228 49.1116465,48.2932504 45.7759947,52.2708767 M22.4030563,16.2857782 C23.9678163,16.2857782 25.2364832,18.8350459 25.2364832,21.9792851 C25.2364832,25.1242359 23.9678163,27.6727919 22.4030563,27.6727919 C20.8382963,27.6727919 19.5696294,25.1242359 19.5696294,21.9792851 C19.5696294,18.8350459 20.8382963,16.2857782 22.4030563,16.2857782 M42.766187,16.2857782 C44.330947,16.2857782 45.5996138,18.8350459 45.5996138,21.9792851 C45.5996138,25.1242359 44.330947,27.6727919 42.766187,27.6727919 C41.201427,27.6727919 39.9327601,25.1242359 39.9327601,21.9792851 C39.9327601,18.8350459 41.201427,16.2857782 42.766187,16.2857782 M32.5842675,0.000213506507 C14.588465,0.000213506507 -0.000141671343,14.6567236 -0.000141671343,32.737878 C-0.000141671343,50.8183207 14.588465,65.4755425 32.5842675,65.4755425 C50.5800699,65.4755425 65.1686766,50.8183207 65.1686766,32.737878 C65.1686766,14.6567236 50.5800699,0.000213506507 32.5842675,0.000213506507" id="Fill-1" fill="#FFE35F"></path>
                            <path id="Fill-4" fill="#FFE35F"></path>
                            <path d="M48.3258664,40.7007455 C48.3258664,40.6302884 48.3286998,40.5598312 48.3414502,40.4886624 C48.4923302,39.6111506 48.58725,38.8830934 48.6382517,38.0952544 L16.5553591,38.0319142 C16.5971521,38.8574727 16.6658627,39.6752026 16.7905335,40.4701585 L16.7905335,40.4701585 C16.8004505,40.5356338 16.8011589,40.6003975 16.8011589,40.6651611 L48.3258664,40.7007455 Z" id="Fill-6" fill="#FFFFFF"></path>
                            <path d="M27.406109,55.5501231 C27.0611393,55.3693543 26.8755498,55.0056815 26.8996339,54.6398737 L26.8968005,54.6398737 L26.8975089,54.6249282 L26.8975089,54.6235049 C26.8939671,51.4415462 29.4539683,48.8538473 32.6231562,48.841037 C35.7980111,48.8289383 38.3820964,51.4045384 38.3948468,54.5943256 L38.3835131,54.5943256 C38.3884716,54.9430529 38.2135075,55.28324 37.88483,55.4561802 C37.2480173,55.7928088 36.5906622,56.0298011 35.9262236,56.1934894 C34.816937,56.4667777 33.6913582,56.5379465 32.5693211,56.5365232 C31.7008758,56.5343881 30.8409307,56.509479 29.9781523,56.3756816 C29.1167905,56.2411725 28.2504702,55.993505 27.406109,55.5501231 L27.406109,55.5501231 Z M16.8013005,40.6651611 C16.8013005,40.6003975 16.8005922,40.5356338 16.7899668,40.4701585 L16.7899668,40.4701585 C16.6660044,39.6752026 16.5972938,38.8574727 16.5555008,38.0319142 L48.6383933,38.0952544 C48.5873917,38.8830934 48.4924719,39.6111506 48.3408835,40.4886624 C48.3288415,40.5598312 48.326008,40.6302884 48.326008,40.7007455 L16.8013005,40.6651611 Z M49.9240608,35.6064802 L15.2719584,35.5381582 C14.5912276,35.5367348 14.0344592,36.09114 14.0302091,36.7750725 L14.0302091,36.8327193 L14.0302091,36.8327193 C14.0302091,37.4732388 14.057835,38.1066414 14.1031698,38.7336389 C14.1081283,38.7998259 14.1109617,38.8674363 14.1166286,38.934335 C14.1640885,39.5285948 14.2349241,40.1143143 14.322052,40.6936286 C14.3298439,40.7477169 14.3326774,40.8032286 14.3411777,40.857317 C14.3440111,40.8736858 14.3503863,40.8879196 14.3532197,40.9042884 C15.0459926,45.2697848 16.8268014,49.1911876 19.379719,52.2486008 C22.6983702,56.2276504 27.3671494,58.7555675 32.5530289,58.7641077 L32.5728629,58.7641077 L32.5728629,58.7641077 L32.5756963,58.7641077 L32.5756963,58.7641077 L32.5756963,58.7641077 L32.584905,58.7641077 C37.7707845,58.7655311 42.4473556,56.2461543 45.7759238,52.2706632 C49.1115756,48.2930369 51.1488096,42.848621 51.16156,36.8547816 C51.1622683,36.5266933 51.030514,36.2057218 50.800298,35.9729997 C50.5700821,35.7409893 50.2506132,35.6071919 49.9240608,35.6064802 L49.9240608,35.6064802 Z" id="Fill-8" fill="#3A434C"></path>
                            <path d="M32.5696045,56.536452 C33.6916415,56.5378754 34.8172204,56.4667065 35.926507,56.1934182 C36.5909456,56.0297299 37.2483006,55.7927377 37.8851133,55.4561091 C38.2130825,55.2831688 38.3887549,54.9429818 38.3837964,54.5942545 L38.3944218,54.5942545 C38.3823797,51.4044673 35.7982944,48.8288671 32.6234396,48.8409658 C29.4535433,48.8537762 26.8942504,51.441475 26.8977922,54.6234337 L26.8977922,54.6248571 L26.8970839,54.6398025 L26.8992089,54.6398025 C26.8758332,55.0056103 27.0614226,55.3692831 27.4063923,55.5500519 C28.2507536,55.9934338 29.1170738,56.2411013 29.9784356,56.3756104 C30.8412141,56.5094078 31.7004508,56.5343169 32.5696045,56.536452" id="Fill-10" fill="#F0876E"></path>
                            <path d="M22.4029147,27.6729343 C23.9676746,27.6729343 25.2363415,25.1236666 25.2363415,21.9794274 C25.2363415,18.8351882 23.9676746,16.2859205 22.4029147,16.2859205 C20.8381547,16.2859205 19.5694878,18.8351882 19.5694878,21.9794274 C19.5694878,25.1236666 20.8381547,27.6729343 22.4029147,27.6729343" id="Fill-12" fill="#3A434C"></path>
                            <path d="M42.7659036,27.6729343 C44.3306636,27.6729343 45.5993305,25.1236666 45.5993305,21.9794274 C45.5993305,18.8351882 44.3306636,16.2859205 42.7659036,16.2859205 C41.2011436,16.2859205 39.9324767,18.8351882 39.9324767,21.9794274 C39.9324767,25.1236666 41.2011436,27.6729343 42.7659036,27.6729343" id="Fill-14" fill="#3A434C"></path>
                        </g>
                    </g>
                </g>
            </g>
        </g>
    </g>
</svg>