<?xml version="1.0" encoding="UTF-8"?>
<svg width="266px" height="121px" viewBox="0 0 266 121" version="1.1" xmlns="http://www.w3.org/2000/svg" xmlns:xlink="http://www.w3.org/1999/xlink">
    <!-- Generator: Sketch 40.3 (33839) - http://www.bohemiancoding.com/sketch -->
    <title>Group 14</title>
    <desc>Created with Sketch.</desc>
    <defs>
        <polygon id="path-1" points="54.8391663 0.657743902 0.242455422 0.657743902 0.242455422 52.1606341 54.8391663 52.1606341 54.8391663 0.657743902"></polygon>
        <polygon id="path-3" points="14.7329759 15.5994085 14.7329759 0.178189024 0.220887952 0.178189024 0.220887952 15.5994085 14.7329759 15.5994085"></polygon>
        <polygon id="path-5" points="28.753 15.7341 28.753 0.0830951727 0.2191 0.0830951727 0.2191 15.7341 28.753 15.7341"></polygon>
    </defs>
    <g id="Voeux-2016" stroke="none" stroke-width="1" fill="none" fill-rule="evenodd">
        <g id="Voeux_2016_wisembly_EN" transform="translate(-304.000000, -3496.000000)">
            <g id="3-/-XP-WISEMBLY" transform="translate(0.000000, 3149.000000)">
                <g id="ILLUS-SUCCESS" transform="translate(280.000000, 211.000000)">
                    <g id="1/-demandes-reçues" transform="translate(18.000000, 136.000000)">
                        <g id="Group-14" transform="translate(9.000000, 0.000000)">
                            <g id="man" transform="translate(107.000000, 2.000000)">
                                <g id="Group-23" transform="translate(0.000000, 0.745396)">
                                    <g id="Group-4" transform="translate(23.554217, 0.000000)">
                                        <mask id="mask-2" fill="white">
                                            <use xlink:href="#path-1"></use>
                                        </mask>
                                        <g id="Clip-3"></g>
                                        <path d="M54.8391663,3.11313415 C54.8391663,3.11313415 45.5397807,5.66276829 39.9251904,4.61093902 L39.8927687,4.60532927 C35.9049012,2.10758537 31.186841,0.657463415 26.1262386,0.657463415 C11.831094,0.657463415 0.242455422,12.1869146 0.242455422,26.4090488 C0.242455422,40.6311829 11.831094,52.1606341 26.1262386,52.1606341 C40.4213831,52.1606341 52.0100217,40.6311829 52.0100217,26.4090488 C52.0100217,24.2058171 51.7309133,22.0670976 51.2079373,20.0265488 C54.8278892,14.1166707 54.8391663,3.11313415 54.8391663,3.11313415" id="Fill-2" fill="#AF7954" mask="url(#mask-2)"></path>
                                    </g>
                                    <g id="Group-7" transform="translate(1.000000, 37.463415)" fill="#F0DBCB">
                                        <path d="M60.4606639,0.373128049 L60.4606639,41.4687988 C60.4606639,43.4574573 61.6010614,45.2764207 63.4998446,45.8934939 L86.1033988,59.7972744 C91.7997482,61.6512988 82.534194,62.4689207 82.534194,68.4320915 L94.2426518,76.1342866 L1.57301325,73.7192866 L0.0731578313,68.4320915 C0.0731578313,62.4689207 3.9257,57.1817256 9.6220494,55.3277012 L33.6902181,45.8373963 C35.5875916,45.2189207 36.8717723,43.4574573 36.8717723,41.4687988 L36.8717723,0.373128049 L60.4606639,0.373128049 Z" id="Fill-5"></path>
                                    </g>
                                    <path d="M27.1134108,40.5042622 L27.1134108,48.9749939 C27.1134108,61.4076159 36.7778928,71.8305427 49.2729289,71.8305427 L50.0877,71.8305427 C62.5827361,71.8305427 71.7200133,61.4076159 71.7200133,48.9749939 L71.7200133,40.5042622 L72.9463988,40.5042622 C75.1087843,40.5042622 76.092712,38.9924329 76.092712,36.8410915 L76.092712,32.7207256 C76.092712,30.5707866 75.1087843,29.192189 72.9463988,29.192189 L71.7200133,29.192189 L71.7200133,22.2515183 C66.0941458,26.7575549 55.7685434,25.0942622 49.5802301,23.292128 C43.3905072,21.4899939 27.9873867,24.2962744 27.1134108,36.0108476" id="Fill-8" fill="#F0DBCB"></path>
                                    <path d="M53.8450916,58.6118537 C53.8450916,61.2933171 51.6601518,63.4685 48.9635133,63.4685 C46.2682843,63.4685 44.0833446,61.2933171 44.0833446,58.6118537 C44.0833446,55.9303902 46.2682843,53.7552073 48.9635133,53.7552073 C51.6601518,53.7552073 53.8450916,55.9303902 53.8450916,58.6118537" id="Fill-12" fill="#FFFFFF"></path>
                                    <path d="M103.503275,41.1293293 L103.503275,41.1293293 C102.340323,41.1293293 101.387407,40.1826829 101.387407,39.0242683 L101.387407,26.4514024 C101.387407,25.2929878 102.340323,24.3463415 103.503275,24.3463415 C104.666227,24.3463415 105.619142,25.2929878 105.619142,26.4514024 L105.619142,39.0242683 C105.619142,40.1826829 104.666227,41.1293293 103.503275,41.1293293" id="Fill-14" fill="#F0DBCC"></path>
                                    <g id="Group-18" transform="translate(101.084337, 34.658537)">
                                        <mask id="mask-4" fill="white">
                                            <use xlink:href="#path-3"></use>
                                        </mask>
                                        <g id="Clip-17"></g>
                                        <path d="M10.6649,15.5994085 L4.28769518,15.5994085 C2.0505988,15.5994085 0.220887952,13.7776402 0.220887952,11.5519695 L0.220887952,4.22422561 C0.220887952,1.99855488 2.0505988,0.178189024 4.28769518,0.178189024 L10.6649,0.178189024 C12.9019964,0.178189024 14.7331169,1.99855488 14.7331169,4.22422561 L14.7331169,11.5519695 C14.7331169,13.7776402 12.9019964,15.5994085 10.6649,15.5994085" id="Fill-16" fill="#F0DBCC" mask="url(#mask-4)"></path>
                                    </g>
                                    <path d="M97.9576157,113.473034 C98.2777185,113.554324 98.6126905,113.597561 98.9573313,113.597561 L111.730066,113.597561 C113.967163,113.597561 115.798283,111.775793 115.798283,109.550122 L115.798283,109.266829 L115.798988,53.8746951 L101.305084,53.8746951 L101.305084,95.315083 C101.236373,98.0841851 92.8143759,94.659961 90.6606969,93.7385414 C89.9273332,93.3998395 89.1146749,93.0845388 88.2127843,92.7909756 L64.3941217,83.3006707 C63.9557241,83.157622 63.6780253,82.9486585 63.3129289,82.6948171 C60.9235916,86.665122 55.7206157,89.425122 49.604194,89.425122 C43.4877723,89.425122 38.2537843,86.665122 35.864447,82.6948171 C35.4993506,82.9486585 35.1131096,83.157622 34.674712,83.3006707 L9.86648313,92.7909756 C4.17154337,94.645 0.874398795,99.9321951 0.000422891566,105.895366 L0.000422891566,113.597561 L97.9576157,113.597561 L97.9576157,113.473034 Z" id="Combined-Shape" fill="#07698D"></path>
                                </g>
                            </g>
                            <path d="M0,118 L260,118" id="Line" stroke="#41A07A" stroke-width="5" stroke-linecap="square"></path>
                            <g id="plante" transform="translate(29.000000, 0.000000)">
                                <path d="M28.3096,49.627 L28.3096,36.535 C27.9426,36.525 27.5926,36.527 27.2156,36.509 L27.0456,36.501 L26.6626,36.519 C26.1956,36.541 25.7606,36.541 25.3096,36.552 L25.3096,52.965 C25.6446,53.513 25.9416,54.115 26.2196,54.744 C26.3326,54.306 26.9246,52.177 28.3096,49.627" id="Fill-1" fill="#B18D76"></path>
                                <path d="M28.2705,30.3946 C28.2825,30.3656 28.2975,30.3346 28.3095,30.3046 L28.3095,16.7746 C27.8415,16.7436 27.3565,16.6896 26.8625,16.6226 L26.8635,16.6406 L26.3095,16.6026 C25.9665,16.5796 25.6375,16.5446 25.3095,16.5076 L25.3095,29.7026 C26.2285,31.7916 26.7075,33.6666 26.9385,34.8076 C27.1435,33.7976 27.5365,32.2126 28.2705,30.3946" id="Fill-3" fill="#B18D76"></path>
                                <path d="M26.7661,56.1153 L26.7481,56.1203 L26.7761,56.1363 L26.5881,56.5503 C26.5771,56.5743 26.1721,57.4513 25.3091,58.6203 L25.3091,77.9743 L28.3091,77.9743 L28.3091,57.8593 C27.5881,57.1283 27.0701,56.5093 26.7661,56.1153" id="Fill-5" fill="#B18D76"></path>
                                <g id="Group-9" transform="translate(26.000000, 39.377000)">
                                    <mask id="mask-6" fill="white">
                                        <use xlink:href="#path-5"></use>
                                    </mask>
                                    <g id="Clip-8"></g>
                                    <path d="M25.7791,9.7391 C28.4481,6.1941 28.7191,2.6791 28.7251,2.6251 L28.7531,2.2521 L28.4041,2.1191 C24.6481,0.6881 21.3511,0.0831 18.4641,0.0831 C11.1731,0.0781 6.5571,3.9581 3.8391,7.7881 C3.2441,8.6241 2.7411,9.4561 2.3101,10.2501 C0.9251,12.8001 0.3331,14.9291 0.2191,15.3671 C0.2731,15.4881 0.3251,15.6101 0.3771,15.7341 L0.5241,15.6141 C4.6331,12.2411 8.5081,10.9541 11.9731,10.9561 C15.4751,10.9591 18.5171,12.2561 20.9911,13.9271 C23.1051,12.7081 24.6601,11.2291 25.7791,9.7391" id="Fill-7" fill="#41A07A" mask="url(#mask-6)"></path>
                                </g>
                                <path d="M27.0459,36.5009 L26.6809,36.4839 L26.7419,35.9519 C26.7439,35.9399 26.7969,35.5079 26.9389,34.8079 C26.7069,33.6669 26.2289,31.7919 25.3099,29.7029 C24.9499,28.8859 24.5249,28.0379 24.0179,27.1859 C22.7099,24.9919 20.8659,22.7839 18.2819,21.1249 C15.6979,19.4649 12.3759,18.3639 8.1649,18.3649 C5.9399,18.3649 3.4669,18.6709 0.7189,19.3569 L0.3569,19.4469 L0.3399,19.8199 C0.3399,19.8269 0.3379,19.8839 0.3379,19.9849 C0.3389,20.8449 0.4979,24.9809 3.5669,28.9399 C6.6359,32.9039 12.6139,36.5919 23.9709,36.5839 C24.4009,36.5839 24.8639,36.5619 25.3099,36.5519 C25.7609,36.5409 26.1949,36.5409 26.6629,36.5189 L27.0459,36.5009 Z" id="Fill-10" fill="#41A07A"></path>
                                <path d="M26.939,34.8078 C26.797,35.5078 26.744,35.9398 26.742,35.9528 L26.681,36.4838 L27.046,36.5008 L27.215,36.5088 C27.593,36.5268 27.942,36.5248 28.31,36.5358 C28.845,36.5508 29.393,36.5738 29.906,36.5738 C41.263,36.5818 47.241,32.8938 50.31,28.9298 C53.379,24.9718 53.538,20.8348 53.54,19.9748 C53.54,19.8748 53.538,19.8198 53.538,19.8148 L53.525,19.4378 L53.159,19.3468 C50.41,18.6608 47.937,18.3548 45.713,18.3548 C41.502,18.3538 38.18,19.4548 35.596,21.1148 C31.755,23.5828 29.558,27.2488 28.31,30.3048 C28.298,30.3338 28.282,30.3648 28.271,30.3948 C27.537,32.2128 27.143,33.7968 26.939,34.8078" id="Fill-12" fill="#70EEBD"></path>
                                <polygon id="Fill-14" fill="#FFFFFF" points="2.6235 85.6497 2.6255 85.6567 2.6235 85.6567 2.6325 85.6777 11.5815 115.3767 42.0375 115.3767 50.9865 85.6777 50.9955 85.6567 50.9935 85.6567 50.9955 85.6497 26.8095 85.6527"></polygon>
                                <polygon id="Fill-16" fill="#D5D9DA" points="0.6047 77.9741 0.6047 85.6501 2.6237 85.6501 50.9957 85.6501 53.0137 85.6501 53.0137 77.9741 28.3097 77.9741 25.3097 77.9741"></polygon>
                                <path d="M37.9734,50.3333 C34.5074,50.3313 30.6334,51.6183 26.5244,54.9903 L26.3764,55.1113 C26.4444,55.2763 26.5214,55.4283 26.5854,55.5983 L26.7774,56.1123 L26.7664,56.1153 C27.0704,56.5093 27.5884,57.1283 28.3094,57.8593 C28.9414,58.4993 29.7184,59.2153 30.6654,59.9383 C33.4524,62.0673 37.6154,64.2053 43.0574,64.2043 C46.2874,64.2053 49.9594,63.4503 54.0394,61.5163 L54.5414,61.2783 L54.2534,60.8043 C54.2374,60.7803 52.6624,58.1893 49.8514,55.5823 C49.0084,54.8013 48.0514,54.0193 46.9914,53.3033 C44.5164,51.6333 41.4744,50.3353 37.9734,50.3333" id="Fill-18" fill="#52C699"></path>
                                <path d="M19.5127,53.8634 C21.5547,53.8624 23.8477,54.4604 26.3817,55.9104 L26.7487,56.1204 L26.7657,56.1154 L26.7777,56.1124 L26.5857,55.5984 C26.5217,55.4284 26.4447,55.2764 26.3767,55.1114 C26.3257,54.9874 26.2727,54.8654 26.2197,54.7444 C25.9417,54.1154 25.6447,53.5124 25.3097,52.9644 C23.8307,50.5444 21.8267,48.8864 19.6117,47.8074 C16.6687,46.3714 13.3677,45.9264 10.3617,45.9254 C5.0967,45.9264 0.7137,47.2964 0.6857,47.3044 L-0.0003,47.5174 L0.4387,48.0864 C3.2827,51.7814 6.6997,54.0204 10.0887,55.3244 C11.0477,55.6934 12.0017,55.9814 12.9417,56.2144 C14.6757,54.8744 16.8547,53.8644 19.5127,53.8634" id="Fill-20" fill="#70EEBD"></path>
                                <path d="M26.7761,56.1361 L26.7481,56.1201 L26.3811,55.9101 C23.8481,54.4601 21.5541,53.8631 19.5131,53.8631 C16.8551,53.8641 14.6751,54.8741 12.9421,56.2141 C12.0031,56.9401 11.1901,57.7591 10.5151,58.5751 C8.5871,60.9071 7.6691,63.2111 7.6571,63.2401 L7.4511,63.7551 L7.9851,63.9061 C9.9501,64.4631 11.7461,64.7021 13.3771,64.7021 C18.1221,64.7051 21.4481,62.6631 23.5501,60.6331 C24.2781,59.9321 24.8541,59.2381 25.3091,58.6201 C26.1721,57.4521 26.5771,56.5741 26.5881,56.5511 L26.7761,56.1361 Z" id="Fill-23" fill="#52C699"></path>
                                <path d="M26.8433,16.0862 L26.8623,16.6222 C27.3573,16.6892 27.8413,16.7432 28.3093,16.7742 C28.7383,16.8022 29.1683,16.8332 29.5743,16.8332 C33.0553,16.8362 35.7503,15.8102 37.7873,14.2642 C40.8473,11.9432 42.4253,8.5092 43.2543,5.6752 C44.0833,2.8382 44.1623,0.5812 44.1643,0.5542 L44.1833,0.0002 L43.6303,0.0382 C35.2293,0.6062 30.6293,4.5922 28.2173,8.4272 C27.2953,9.8882 26.6833,11.3212 26.2763,12.5392 C26.7883,14.5482 26.8413,16.0612 26.8433,16.0862" id="Fill-25" fill="#52C699"></path>
                                <path d="M26.863,16.6407 L26.862,16.6227 L26.843,16.0857 C26.841,16.0617 26.788,14.5487 26.276,12.5397 C26.032,11.5807 25.685,10.5107 25.186,9.4327 C24.413,7.7657 23.275,6.0787 21.592,4.8027 C19.911,3.5267 17.684,2.6807 14.819,2.6827 C13.884,2.6827 12.88,2.7717 11.804,2.9627 L11.356,3.0427 L11.393,3.4957 C11.399,3.5417 11.641,6.5437 13.632,9.6987 C15.517,12.6987 19.045,15.8067 25.31,16.5077 C25.637,16.5447 25.967,16.5797 26.309,16.6027 L26.863,16.6407 Z" id="Fill-27" fill="#70EEBD"></path>
                            </g>
                        </g>
                    </g>
                </g>
            </g>
        </g>
    </g>
</svg>