<?xml version="1.0" encoding="UTF-8"?>
<svg width="266px" height="119px" viewBox="0 0 266 119" version="1.1" xmlns="http://www.w3.org/2000/svg" xmlns:xlink="http://www.w3.org/1999/xlink">
    <!-- Generator: Sketch 40.3 (33839) - http://www.bohemiancoding.com/sketch -->
    <title>Group 16</title>
    <desc>Created with Sketch.</desc>
    <defs>
        <polygon id="path-1" points="112.305134 58.8664329 112.305134 0.886093947 0.369695522 0.886093947 0.369695522 58.8664329 112.305134 58.8664329"></polygon>
        <polygon id="path-3" points="0.991364179 1.68523002 2.67793134 1.68523002 2.67793134 1.68354479 0.991364179 1.68354479 0.991364179 1.68523002"></polygon>
        <polygon id="path-5" points="66.3407821 0.585898305 0.704647761 0.585898305 0.704647761 91.2829559 66.3407821 91.2829559 66.3407821 0.585898305"></polygon>
        <polygon id="path-7" points="0.175908955 1.68523002 1.86247612 1.68523002 1.86247612 1.56760097 0.175908955 1.56760097 0.175908955 1.68523002"></polygon>
        <polygon id="path-9" points="99.3899622 4.20782351 99.3899622 0.102886429 0.0898575555 0.102886429 0.0898575555 4.20782351 99.3899622 4.20782351"></polygon>
    </defs>
    <g id="Voeux-2016" stroke="none" stroke-width="1" fill="none" fill-rule="evenodd">
        <g id="Voeux_2016_wisembly_EN" transform="translate(-707.000000, -3498.000000)">
            <g id="3-/-XP-WISEMBLY" transform="translate(0.000000, 3149.000000)">
                <g id="ILLUS-SUCCESS" transform="translate(280.000000, 211.000000)">
                    <g id="2/-satisfaction-client" transform="translate(420.000000, 138.000000)">
                        <g id="Group-16" transform="translate(10.000000, 0.000000)">
                            <g id="woman" transform="translate(33.000000, 0.000000)">
                                <path d="M4.19870896,52.1765191 L10.5317687,52.1765191 C12.5725149,52.1765191 14.2422164,50.5081414 14.2422164,48.4690131 L14.2422164,41.010185 C14.2422164,38.9710567 12.5725149,37.3026789 10.5317687,37.3026789 L4.19870896,37.3026789 C2.15796269,37.3026789 0.488261194,38.9710567 0.488261194,41.010185 L0.488261194,48.4690131 C0.488261194,50.5081414 2.15796269,52.1765191 4.19870896,52.1765191" id="Fill-1" fill="#F0DBCC"></path>
                                <path d="M8.14274627,40.1652107 L8.96073134,40.4634964 C9.8158209,40.7735787 10.7704179,40.328678 11.0807463,39.4742663 L14.6309701,29.7319516 C14.9412985,28.87754 14.4960448,27.9236998 13.6426418,27.6136174 L12.8229701,27.3153317 C11.9678806,27.0035642 11.0149701,27.4484649 10.7029552,28.3028765 L7.15441791,38.0468765 C6.84240299,38.9012881 7.28765672,39.8534431 8.14274627,40.1652107" id="Fill-3" fill="#F0DBCC"></path>
                                <path d="M6.58722537,40.1652107 L5.7692403,40.4634964 C4.91415075,40.7735787 3.95955373,40.328678 3.64922537,39.4742663 L0.0990014925,29.7319516 C-0.211326866,28.87754 0.233926866,27.9236998 1.08732985,27.6136174 L1.90700149,27.3153317 C2.76209104,27.0035642 3.71500149,27.4484649 4.02701642,28.3028765 L7.57555373,38.0468765 C7.88756866,38.9012881 7.44231493,39.8534431 6.58722537,40.1652107" id="Fill-5" fill="#F0DBCC"></path>
                                <g id="Group-9" transform="translate(0.000000, 54.745484)">
                                    <mask id="mask-2" fill="white">
                                        <use xlink:href="#path-1"></use>
                                    </mask>
                                    <g id="Clip-8"></g>
                                    <path d="M4.30108358,58.8664329 C2.13890448,58.8664329 0.369695522,57.0986266 0.369695522,54.9381617 L0.369695522,54.661784 L0.369695522,49.7847283 L0.369695522,0.886093947 L14.3783224,0.886093947 L14.3783224,41.0838857 C14.3783224,44.2335806 25.1487403,39.3767477 25.1487403,39.3767477 L25.1487403,39.3834886 C25.7322925,39.1323893 26.3478896,38.8914015 27.0343224,38.6672659 L50.0576507,29.6209511 C50.4826657,29.4827622 50.7508299,29.4473724 51.1033224,29.2013288 L51.1269343,29.2333482 C53.4459642,33.0706169 58.4601284,35.3996048 64.3546806,35.3996048 C70.2610388,35.3996048 75.313994,32.7251448 77.6279642,28.8777646 L77.6380836,28.8642828 C77.9905761,29.1103264 78.3633075,29.3142392 78.7883224,29.4524281 L102.767934,38.6672659 C108.274576,40.4670915 111.460501,45.6003022 112.305472,51.3890673 L112.305472,58.8664329" id="Fill-7" fill="#E15D5B" mask="url(#mask-2)"></path>
                                </g>
                                <g id="Group-12" transform="translate(107.940299, 112.043305)">
                                    <mask id="mask-4" fill="white">
                                        <use xlink:href="#path-3"></use>
                                    </mask>
                                    <g id="Clip-11"></g>
                                    <polygon id="Fill-10" fill="#F0DBCB" mask="url(#mask-4)" points="2.63745373 1.68523002 2.63745373 1.68523002 0.991364179 1.68354479"></polygon>
                                </g>
                                <g id="Group-15" transform="translate(32.044776, 0.115944)">
                                    <mask id="mask-6" fill="white">
                                        <use xlink:href="#path-5"></use>
                                    </mask>
                                    <g id="Clip-14"></g>
                                    <path d="M10.8139313,86.9721375 L16.1249313,85.0829947 L16.2446776,85.1520891 L19.3867522,83.9420939 C21.226797,83.3606896 22.4832896,81.6619777 22.5018418,79.7323893 L22.606409,68.5171835 C16.1097522,64.3765734 11.7904537,57.1317695 11.7904537,48.8623458 L11.7904537,36.6528542 C11.7904537,29.2934547 19.9466925,19.4112659 29.4184537,19.4112659 C33.2064836,28.6631787 40.5717224,35.6012707 47.9369612,37.493784 C54.1047373,39.0795855 56.4760507,41.0698421 56.4760507,43.8032852 L56.4760507,50.8441763 C56.4760507,58.9096872 51.9948418,65.9252998 45.3868716,69.5519148 L45.2890507,79.9464136 C45.2721851,81.8743167 46.4966328,83.5966218 48.3248716,84.213416 L50.4701851,85.0863651 L50.4752448,85.0829947 L55.7862448,86.9721375 C55.7896179,87.056399 55.7778119,87.1356048 55.7794985,87.2198663 L66.3407821,91.2829559 L66.3407821,39.8194015 C66.3407821,18.1507138 51.647409,0.585561259 33.5235582,0.585561259 C30.3561851,0.585561259 27.3034985,1.15179855 24.4059761,2.15282518 C18.5822597,4.1633046 13.441603,8.05113027 9.4393791,13.2315274 C4.03393134,20.225232 0.704647761,29.5462392 0.704647761,39.8194015 L0.704647761,42.6640697 L0.704647761,62.3458712 L0.704647761,91.1110625 L10.8206776,87.2198663 C10.8223642,87.1356048 10.8105582,87.056399 10.8139313,86.9721375" id="Fill-13" fill="#F1BB33" mask="url(#mask-6)"></path>
                                </g>
                                <g id="Group-18" transform="translate(109.626866, 112.043305)">
                                    <mask id="mask-8" fill="white">
                                        <use xlink:href="#path-7"></use>
                                    </mask>
                                    <g id="Clip-17"></g>
                                    <polygon id="Fill-16" fill="#F0DBCB" mask="url(#mask-8)" points="1.81862537 1.5692862 1.81862537 1.5692862 0.175908955 1.56760097"></polygon>
                                </g>
                                <path d="M65.3443582,95.2011157 L82.5152985,85.202646 L80.3699851,84.3296969 C78.5400597,83.7112174 77.3156119,81.9905976 77.3341642,80.0626944 L77.4319851,69.6681956 C84.0382687,66.0398954 88.5211642,59.0242828 88.5211642,50.9604571 L88.5211642,43.9178809 C88.5211642,41.1844378 86.1498507,39.1958663 79.9820746,37.6100649 C72.6151493,35.7175516 65.251597,28.7777743 61.4635672,19.5258615 C51.991806,19.5258615 43.8355672,29.4097356 43.8355672,36.7691351 L43.8355672,48.9786266 C43.8355672,57.2463651 48.1548657,64.4928542 54.6515224,68.6317792 L54.5452687,79.8486702 C54.528403,81.7765734 53.2702239,83.4752852 51.4301791,84.0583748 L48.289791,85.26837 L65.3443582,95.2011157 Z" id="Fill-19" fill="#F0DBCB"></path>
                                <path d="M111.445491,113.612085 L112.136984,113.612085 L112.062775,105.676337 C112.008804,99.8909424 108.192103,94.796492 102.671969,93.0489085 L98.3847149,91.3990683 L87.8251179,87.3359787 C88.0578642,95.5261966 78.473103,101.754807 65.3448642,95.5430489 C52.2183119,101.754807 42.6318642,95.5261966 42.8646104,87.3359787 L32.7502672,91.2271748 L28.0177597,93.0489085 C22.4976254,94.796492 18.6809239,99.8909424 18.6269537,105.676337 L18.5527448,113.612085 L65.3448642,113.580066 L109.802775,113.6104 L111.445491,113.612085 Z" id="Fill-21" fill="#E15D5B"></path>
                                <path d="M82.5198522,85.1984329 L82.5147925,85.2018034 L65.3438522,95.2019584 L48.2892851,85.2692126 L48.1695388,85.1984329 L42.8585388,87.0875758 C42.8551657,87.1718373 42.8669716,87.2527283 42.8652851,87.3353046 C42.6325388,95.5272077 52.2173,101.754133 65.3438522,95.5423748 C78.472091,101.754133 88.0568522,95.5272077 87.8257925,87.3353046 C87.8224194,87.2527283 87.8342254,87.1718373 87.8308522,87.0875758 L82.5198522,85.1984329 Z" id="Fill-23" fill="#FFFFFF"></path>
                                <path d="M77.6657433,52.6541133 C77.6657433,59.4236823 72.5217134,64.9107913 66.1785343,64.9107913 C59.8336687,64.9107913 54.6896388,59.4236823 54.6896388,52.6541133 L77.6657433,52.6541133 Z" id="Fill-25" fill="#FFFFFF"></path>
                            </g>
                            <g id="ordi" transform="translate(127.000000, 46.500000)">
                                <g id="Group-3" transform="translate(1.000000, 62.984449)">
                                    <mask id="mask-10" fill="white">
                                        <use xlink:href="#path-9"></use>
                                    </mask>
                                    <g id="Clip-2"></g>
                                    <path d="M-1.91014244,0.102886429 L-1.91014244,3.25680785 C-1.91014244,3.78211075 -1.47466257,4.20782351 -0.934384277,4.20782351 L96.4148413,4.20782351 C96.9544115,4.20782351 97.3905995,3.78211075 97.3905995,3.25680785 L97.3905995,0.102886429 L-1.91014244,0.102886429 Z" id="Fill-1" fill="#A0A8AE" mask="url(#mask-10)"></path>
                                </g>
                                <path d="M95.0633457,0.701268852 L4.24277779,0.701268852 C1.90039171,0.701268852 -0.000141619473,2.54929708 -0.000141619473,4.82093405 L-0.000141619473,63.6141812 C-0.000141619473,64.1394841 0.435338259,64.5651969 0.975616548,64.5651969 L98.3248422,64.5651969 C98.8651204,64.5651969 99.3006003,64.1394841 99.3006003,63.6141812 L99.3006003,4.82093405 C99.3006003,2.54929708 97.3993589,0.701268852 95.0633457,0.701268852" id="Fill-4" fill="#D5D9DA"></path>
                                <path d="M52.8528331,33.0394484 C52.8528331,35.9135356 50.5005337,38.2433837 47.5987507,38.2433837 C44.6976758,38.2433837 42.3453763,35.9135356 42.3453763,33.0394484 C42.3453763,30.1653612 44.6976758,27.8355131 47.5987507,27.8355131 C50.5005337,27.8355131 52.8528331,30.1653612 52.8528331,33.0394484" id="Fill-7" fill="#FEFEFE"></path>
                            </g>
                            <path d="M0,116 L260,116" id="Line" stroke="#41A07A" stroke-width="5" stroke-linecap="square"></path>
                        </g>
                    </g>
                </g>
            </g>
        </g>
    </g>
</svg>