<?xml version="1.0" encoding="UTF-8"?>
<svg width="130px" height="130px" viewBox="0 0 130 130" version="1.1" xmlns="http://www.w3.org/2000/svg" xmlns:xlink="http://www.w3.org/1999/xlink">
    <!-- Generator: Sketch 40.3 (33839) - http://www.bohemiancoding.com/sketch -->
    <title>picto</title>
    <desc>Created with Sketch.</desc>
    <defs></defs>
    <g id="Voeux-2016" stroke="none" stroke-width="1" fill="none" fill-rule="evenodd">
        <g id="Voeux_2016_wisembly_EN" transform="translate(-930.000000, -983.000000)">
            <g id="1/-EN-BREF" transform="translate(-1.000000, 398.000000)">
                <g id="answers" transform="translate(793.000000, 585.000000)">
                    <g id="picto" transform="translate(138.000000, 0.000000)">
                        <path d="M64.999675,130 C29.1012583,130 -0.000325,100.898417 -0.000325,64.9989167 C-0.000325,29.1015833 29.1012583,0 64.999675,0 C100.898092,0 129.999675,29.1015833 129.999675,64.9989167 C129.999675,100.898417 100.898092,130 64.999675,130" id="Fill-1" fill="#FFFFFF"></path>
                        <polygon id="Fill-4" fill="#47B388" points="71.2985 117.072583 112.8985 117.072583 112.8985 26.6770833 71.2985 26.6770833"></polygon>
                        <path d="M105.213117,85.3242 C104.65195,84.8117833 103.782033,84.8497 103.269617,85.4108667 L89.3845333,100.591617 L80.9128667,91.6443667 C80.3896167,91.09295 79.5186167,91.0691167 78.9672,91.5912833 C78.4157833,92.1145333 78.39195,92.9855333 78.9141167,93.53695 L78.9141167,93.53695 L88.4030333,103.5567 C88.6662833,103.835117 89.0313667,103.990033 89.4137833,103.986783 C89.7972833,103.983533 90.1591167,103.822117 90.41695,103.539367 L105.299783,87.2677 C105.8122,86.7076167 105.774283,85.8366167 105.213117,85.3242" id="Fill-6" fill="#FFFFFF"></path>
                        <polygon id="Fill-7" fill="#E15D5B" points="17.1004167 117.072583 58.7004167 117.072583 58.7004167 71.4209167 17.1004167 71.4209167"></polygon>
                        <path d="M39.7951667,94.064425 L46.6786667,86.7930917 C47.2008333,86.241675 47.177,85.370675 46.6255833,84.847425 C46.0741667,84.3252583 45.2031667,84.3490917 44.681,84.9015917 L37.9004167,92.0635083 L31.1209167,84.9015917 C30.59875,84.3490917 29.72775,84.3252583 29.17525,84.847425 C28.6238333,85.370675 28.6,86.241675 29.1221667,86.7930917 L36.0056667,94.064425 L29.1221667,101.335758 C28.6,101.888258 28.6238333,102.758175 29.17525,103.281425 C29.72775,103.803592 30.59875,103.779758 31.1209167,103.227258 L37.9004167,96.0653417 L44.681,103.227258 C45.2031667,103.779758 46.0741667,103.803592 46.6255833,103.281425 C47.177,102.758175 47.2008333,101.888258 46.6786667,101.335758 L39.7951667,94.064425 Z" id="Fill-8" fill="#FFFFFF"></path>
                        <polygon id="Fill-9" fill="#F2BC33" points="126.557817 20.1718833 120.6179 19.6681333 116.705983 19.33555 115.178483 15.7323833 112.862317 10.26805 110.547233 15.7323833 109.019733 19.33555 105.106733 19.6681333 99.1668167 20.1718833 103.6724 24.0751333 106.643983 26.6491333 105.751317 30.4733 104.39715 36.2778 109.500733 33.1978833 112.862317 31.1688 116.2239 33.1978833 121.327483 36.2778 119.973317 30.4733 119.081733 26.6491333 122.052233 24.0751333"></polygon>
                    </g>
                </g>
            </g>
        </g>
    </g>
</svg>